<svg xmlns="http://www.w3.org/2000/svg" viewBox="0 0 128 128"><path fill="#0073BA" d="M66.835 101.194h-5.009l.009 9.371c0 2.739-1.174 4.955-3.913 4.955s-3.924-2.216-3.924-4.955v-9.362h-4.996l-.001 9.362c0 5.412 3.479 9.798 8.891 9.798 5.411 0 8.941-4.386 8.941-9.798l.002-9.371zM111.995 95.484h4.984v24.395h-4.984zM44.929 100.991c-4.296-.992-7.006 3.276-7.118 3.505-.056.112-.058.178-.249.173-.156-.004-.175-.173-.175-.173l-.533-3.266h-4.463v18.632h5.004v-10.085c0-.822 2.219-4.774 6.519-3.757 2.175.514 3.097 1.436 3.097 1.436v-5.676c-.805-.419-1.357-.622-2.082-.789zM73.626 126v-6.704l.002.001v-2.51s.008-.201.189-.204c.161-.002.197.106.237.204.379.943 2.466 4.541 7.097 3.412 4.145-1.168 7.186-4.975 7.186-9.495 0-5.446-4.417-9.864-9.865-9.864s-9.864 4.418-9.864 9.864v15.295l5.018.001zm4.851-20.287c2.758 0 4.994 2.235 4.994 4.991 0 2.759-2.235 4.995-4.994 4.995-2.758 0-4.993-2.235-4.993-4.995 0-2.756 2.235-4.991 4.993-4.991zM104.954 119.872h5.018v-9.168c0-5.446-4.415-9.863-9.864-9.863-5.448 0-9.865 4.417-9.865 9.863 0 4.521 3.042 8.327 7.187 9.495 4.631 1.129 6.717-2.468 7.097-3.412.04-.098.075-.205.237-.203.182.002.188.203.188.203m.144-6.083c0 2.759-2.236 4.995-4.993 4.995s-4.994-2.235-4.994-4.995c0-2.756 2.236-4.991 4.994-4.991s4.993 2.235 4.993 4.991zM16.713 119.833h-5.692v-24.358h6.108c7.396 0 13.006 1.357 13.006 12.178 0 10.719-5.943 12.18-13.422 12.18zm1.36-20.136h-2.012v15.909l2.066.053c4.238 0 6.967-.386 6.967-8.007 0-7.306-2.409-7.955-7.021-7.955z"/><path fill="#00598E" d="M83.539 20.706c-4.58-2.853-8.901-3.975-13.221-6.826-2.679-1.815-6.395-6.136-9.506-9.852-.604 5.962-2.419 8.383-4.493 10.11-4.407 3.457-7.173 4.494-10.975 6.567-3.198 1.643-20.566 12.012-20.566 34.306s18.752 38.713 39.577 38.713c20.826 0 38.886-15.122 38.886-38.021s-16.937-33.268-19.702-34.997z"/><path fill="#fff" d="M76.52 74.358c1.382 0 2.852.086 3.889.777 1.037.691 1.642 2.248 1.987 3.111.346.863 0 1.382-.691 1.728-.604.346-.691.173-1.296-.949-.605-1.124-1.124-2.248-4.148-2.248s-3.975 1.037-5.444 2.248c-1.469 1.21-1.988 1.642-2.506.949-.518-.691-.346-1.382.604-2.247.951-.864 2.506-2.245 3.975-2.852 1.47-.603 2.248-.517 3.63-.517zM62.176 84.209c1.729 1.382 4.32 2.506 9.851 2.506s9.419-1.556 11.147-2.852c.778-.605 1.123-.085 1.21.259.086.347.259.865-.346 1.469-.432.433-4.407 3.198-9.073 3.631-4.667.431-10.974.691-14.777-2.766-.604-.605-.431-1.469 0-1.814.433-.346.779-.605 1.296-.605.518-.001.433-.001.692.172z"/><path fill="#0073BA" d="M41.005 77.642c6.567-.086 7.777-1.21 13.566-3.801 31.282-13.999 37.07-26.789 38.194-29.727 1.123-2.938 2.765-7.691 1.037-12.962-.333-1.019-.578-1.835-.753-2.493-4.157-4.647-8.284-7.184-9.53-7.962-4.494-2.853-8.9-3.977-13.222-6.828-2.678-1.728-6.394-6.135-9.504-9.85-.606 5.96-2.333 8.468-4.495 10.108-4.406 3.458-7.171 4.494-10.974 6.569-3.197 1.727-20.566 12.01-20.566 34.305 0 7.117 1.912 13.637 5.192 19.215l.857-.032c1.816 1.643 4.667 3.544 10.198 3.458z"/><path fill="#004975" d="M83.52 20.697c-4.494-2.853-8.9-3.977-13.222-6.828-2.678-1.728-6.394-6.135-9.504-9.85-.606 5.96-2.333 8.468-4.495 10.108-4.406 3.458-7.171 4.494-10.974 6.569-3.197 1.727-20.566 12.01-20.566 34.305 0 7.117 1.912 13.637 5.192 19.215 6.994 11.891 20.208 19.498 34.384 19.498 20.826 0 38.886-15.122 38.886-38.021 0-12.576-5.107-21.371-10.171-27.034-4.157-4.647-8.284-7.183-9.53-7.962zm10.503 10.115c5.673 7.094 8.551 15.465 8.551 24.882 0 5.465-1.042 10.626-3.094 15.343-1.947 4.475-4.751 8.438-8.333 11.781-7.083 6.61-16.604 10.249-26.811 10.249-5.049 0-10.003-.965-14.727-2.867-4.639-1.868-8.82-4.544-12.425-7.952-7.594-7.178-11.776-16.854-11.776-27.245 0-9.256 3.004-17.48 8.93-24.445 4.526-5.32 9.408-8.269 11.296-9.29.917-.5 1.777-.942 2.609-1.368 2.607-1.338 5.07-2.603 8.458-5.26 1.806-1.372 3.73-3.546 4.549-9.068 2.855 3.396 6.167 7.21 8.698 8.844 2.247 1.483 4.551 2.522 6.78 3.527 2.107.95 4.288 1.933 6.445 3.302l.082.05c6.304 3.935 9.663 8.137 10.768 9.517z"/><path fill="#93C5E4" d="M61.225 5.747c1.209 3.542 1.037 5.357 1.037 6.136 0 .777-.432 2.852-1.815 3.888-.605.433-.777.777-.777.865 0 .344.777.604.777 1.381 0 .951-.431 2.853-5.011 7.432-4.58 4.58-11.147 8.642-16.246 11.146-5.098 2.507-7.517 2.335-8.208 1.125-.692-1.21.259-3.889 3.456-7.432 3.197-3.544 13.308-8.642 13.308-8.642l12.617-8.813.69-3.37"/><path fill="#fff" d="M61.225 5.659c-.778 5.704-2.506 7.434-4.839 9.246-3.889 2.939-7.69 4.753-8.555 5.186-2.247 1.123-10.369 5.617-14.604 12.099-1.296 1.987 0 2.765.259 2.938.26.173 3.197.519 9.505-3.283 6.309-3.803 9.074-6.049 12.617-9.765 1.901-1.988 2.16-3.111 2.16-3.63 0-.604-.432-.863-1.123-1.037-.347-.086-.432-.259 0-.518s2.246-1.124 2.679-1.469c.432-.347 2.506-1.728 2.592-3.976.086-2.247-.086-3.803-.691-5.791zM41.782 68.481c.086-6.74 6.395-13.048 14.345-13.135 10.11-.085 17.109 10.024 22.208 9.938 4.32-.086 12.616-8.554 16.678-8.554 4.32 0 5.531 4.494 5.531 7.172 0 2.679-.865 7.518-2.939 10.542s-3.37 4.148-5.789 3.975c-3.111-.259-9.333-9.938-13.308-10.109-5.011-.173-15.9 10.455-24.455 10.455-5.184 0-6.739-.776-8.468-1.901-2.593-1.814-3.889-4.581-3.803-8.383z"/><path d="M93.803 31.152c1.728 5.271.086 10.023-1.037 12.962-1.124 2.938-6.913 15.728-38.194 29.727-5.79 2.591-7 3.715-13.566 3.801-5.531.086-8.382-1.814-10.197-3.457l-.857.032c6.994 11.891 20.208 19.498 34.384 19.498 20.826 0 38.886-15.122 38.886-38.021 0-12.576-5.107-21.371-10.171-27.034.174.657.418 1.474.752 2.492z" fill="none"/></svg>