<svg height="453" viewBox="0 0 1204 453" width="1204" xmlns="http://www.w3.org/2000/svg"><g fill="none" fill-rule="evenodd"><g transform="translate(135 90)"><text style="font-family:GothamBlack-Italic, Gotham Black;font-size:175;font-style:italic;font-weight:700;letter-spacing:-6.917969;fill:#000"><tspan x="190.570122" y="196.65608">quicklink</tspan></text><g transform="translate(.200269 .65608)"><path d="m114.302909 166.625225-46.693238 46.412131c-12.8736533 12.795568-33.81785 12.795568-46.6932379 0l-7.7807608-7.735644c-12.87191771-12.795568-12.87191771-33.616564 0-46.412131l46.6932383-46.412132c12.8736529-12.7955672 33.8195847-12.7955672 46.6932384 0l7.782495 7.735645c6.236408 6.198232 9.670423 14.438828 9.670423 23.205198-.001735 8.76637-3.435751 17.0087-9.672158 23.206933zm-85.6022454 7.733909c-4.2912176 4.266925-4.2912176 11.2061 0 15.471289l7.7807603 7.735644c4.2912176 4.265189 11.2737733 4.265189 15.5649909 0l46.6932383-46.412131c2.0788019-2.066656 3.2223179-4.813521 3.2223179-7.735644s-1.143516-5.668989-3.2223179-7.73391l-7.7824959-7.737379c-4.2912176-4.265189-11.2720381-4.265189-15.5649908 0z" fill="#76ffd9" fill-rule="nonzero"/><path d="m76.8931381 203.755624c-6.2381427 6.198233-14.5290601 9.611425-23.3474867 9.611425-8.8201613 0-17.1110787-3.413192-23.3474863-9.61316l-7.7807603-7.733909c-6.2364081-6.198233-9.6704235-14.438829-9.6704235-23.205198 0-8.223244 3.0227666-15.984916 8.5442609-22.032184l-8.1399525 8.091366c-6.23467293 6.198232-9.67042302 14.440563-9.67042302 23.206933 0 8.766369 3.43401498 17.006965 9.67042302 23.205198l7.7824954 7.733909c6.2364076 6.199968 14.527325 9.613161 23.3457516 9.613161 8.8184262 0 17.1110787-3.413193 23.3474863-9.611426z" fill="#5de0bf"/><path d="m214.304073 67.2244502-46.693239 46.4138668c-6.236407 6.198232-14.527325 9.611425-23.347487 9.611425-8.818426 0-17.109343-3.413193-23.345751-9.613161l-7.782495-7.733909c-6.236408-6.1999679-9.670424-14.4388279-9.670424-23.2051979 0-8.7663691 3.435751-17.0087002 9.670424-23.2069329l46.693238-46.4121313c12.871918-12.7955677 33.819585-12.7955677 46.693238 0l7.782496 7.7356446c12.873652 12.7938326 12.873652 33.614828 0 46.4103957zm-85.603981 7.7356446c-2.078803 2.0666562-3.224053 4.8152566-3.224053 7.7373793 0 2.9203881 1.14525 5.6672534 3.224053 7.7339095l7.782496 7.7356442c2.078802 2.0666562 4.843019 3.2049652 7.782495 3.2049652 2.939475 0 5.703693-1.138309 7.782495-3.2049652l46.691503-46.4121313c4.291218-4.265189 4.291218-11.2043641 0-15.4712883l-7.78076-7.7339095c-4.291218-4.2669247-11.273773-4.2669247-15.564991-.0017351z" fill="#48587c" fill-rule="nonzero"/><path d="m214.304073 67.2244502-46.693239 46.4138668c-6.236407 6.198232-14.527325 9.611425-23.347487 9.611425-8.818426 0-17.109343-3.413193-23.345751-9.613161l-7.782495-7.733909c-6.236408-6.1999679-9.670424-14.4388279-9.670424-23.2051979 0-8.7663691 3.435751-17.0087002 9.670424-23.2069329l46.693238-46.4121313c12.871918-12.7955677 33.819585-12.7955677 46.693238 0l7.782496 7.7356446c12.873652 12.7938326 12.873652 33.614828 0 46.4103957zm-85.603981 7.7356446c-2.078803 2.0666562-3.224053 4.8152566-3.224053 7.7373793 0 2.9203881 1.14525 5.6672534 3.224053 7.7339095l7.782496 7.7356442c2.078802 2.0666562 4.843019 3.2049652 7.782495 3.2049652 2.939475 0 5.703693-1.138309 7.782495-3.2049652l46.691503-46.4121313c4.291218-4.265189 4.291218-11.2043641 0-15.4712883l-7.78076-7.7339095c-4.291218-4.2669247-11.273773-4.2669247-15.564991-.0017351z" fill="#76ffd9" fill-rule="nonzero"/><path d="m176.909919 104.299322c-6.224262 6.212115-14.508238 9.640924-23.326664 9.658276-8.820162.017353-17.11802-3.380223-23.366574-9.568044l-7.796377-7.7182921c-6.248555-6.1860866-9.698188-14.4197411-9.71554-23.1861107-.017352-8.2232434 2.991533-15.9918571 8.50088-22.047801l-8.124335 8.1052476c-6.224262 6.2103795-9.64266 14.4596514-9.625373 23.226021.017418 8.7663695 3.46705 17.0000241 9.71734 23.1861102l7.794642 7.720028c6.248554 6.187821 14.546412 9.583661 23.366574 9.566375 8.818426-.017418 17.102403-3.446228 23.328399-9.656608z" fill="#5de0bf"/><path d="m155.158841 85.7896498-68.8711808 68.4581972c-4.2981589 4.27213-11.2650972 4.27213-15.5632557 0-4.298159-4.27213-4.298159-11.199158 0-15.471289l68.8711815-68.4564618c4.298158-4.27213 11.265097-4.27213 15.563255 0 4.298159 4.2721304 4.298159 11.1991588 0 15.4695536z" fill="#5de0bf"/><path d="m155.158841 70.3200962c-4.298158-4.27213-11.265097-4.27213-15.563255 0l-14.492621 14.5533535c4.296423-4.2721305 11.266832-4.2721305 15.563256 0 3.951113 3.92682 4.259984 10.0920834.947434 14.3815659l13.545186-13.4653658c4.298159-4.2703948 4.298159-11.1974232 0-15.4695536z" fill="#76ffd9"/><path d="m85.3801361 139.848929c-4.2981585-4.27213-4.2981585-11.199159 0-15.471289l-14.6557316 14.400653c-4.298159 4.272131-4.298159 11.197424 0 15.469554 4.2981585 4.27213 11.2650968 4.27213 15.5632557 0l13.4809827-13.397692c-4.3120403 3.227523-10.4616867 2.901301-14.3885068-1.001226z" fill="#5de0bf"/><path d="m216.757684 18.3448256-7.782495-7.7356446c-6.881913-6.84200189-16.04565-10.609181-25.799364-10.609181-9.755449 0-18.919186 3.76717911-25.801098 10.609181l-46.691503 46.4121312c-6.899265 6.8576193-10.6994128 15.9745051-10.6994128 25.6744268 0 6.2485543 1.5877328 12.2472362 4.5532368 17.562238l-3.689093 3.668271c-5.3445011-2.949887-11.383093-4.5272084-17.6732932-4.5272084-9.755449 0-18.9174505 3.7671794-25.7993631 10.6091814l-46.6932379 46.412131c-6.88885361 6.847207-10.6820608 15.965828-10.6820608 25.676162 0 9.708598 3.79320719 18.827219 10.6820608 25.674426l7.7807603 7.73391c6.8836478 6.842002 16.0456492 10.609181 25.8010982 10.609181 9.753714 0 18.917451-3.767179 25.7993632-10.609181l46.6932385-46.412131c6.899265-6.855884 10.697678-15.974505 10.697678-25.674427 0-7.018995-2.000718-13.727385-5.717575-19.498752l2.904771-2.887419c5.807806 3.702976 12.557841 5.698487 19.621952 5.698487 9.745038 0 18.908775-3.772384 25.801099-10.624798l46.693238-46.4121309c6.888854-6.8454725 10.682061-15.9640934 10.682061-25.6744267 0-9.7103334-3.793207-18.8289542-10.682061-25.6744268zm-59.143496 49.5060421c-2.736453-2.7191017-6.371755-4.2166032-10.236107-4.2166032-.874555 0-1.733492.0798207-2.576813.2307852l33.045674-32.8478572c1.419416-1.4090048 3.310814-2.1863867 5.327148-2.1863867 2.016335 0 3.909468.7773819 5.328884 2.1881218l7.78076 7.7339091c1.414211 1.4055345 2.191593 3.2761096 2.191593 5.2664157 0 1.9920412-.777382 3.8626163-2.189857 5.2681508l-36.604626 36.3842512c1.419416-2.2644719 2.182917-4.881195 2.182917-7.6159136.001735-3.8556759-1.509648-7.4805661-4.249573-10.2048731zm-15.56499 4.9384574c1.422886-1.4142106 3.314284-2.1933277 5.327148-2.1933277 2.014599 0 3.905997.7791171 5.328884 2.1933277 1.415945 1.4072696 2.196798 3.2778447 2.196798 5.2664157 0 1.9885705-.780853 3.8574109-2.196798 5.2664152l-68.8711817 68.456462c-1.4228866 1.414211-3.3142844 2.191593-5.3288839 2.191593-2.012864 0-3.9059969-.777382-5.3271484-2.191593-1.4159456-1.40727-2.1967983-3.277845-2.1967983-5.266416 0-1.98857.7808527-3.859146 2.1967983-5.266415zm-73.7801406 83.9277509c2.7364537 2.719101 6.3717556 4.216603 10.236107 4.216603 2.7399244 0 5.3618533-.75656 7.6315309-2.162094l-36.5438921 36.325253c-1.4194163 1.409005-3.3108141 2.186387-5.3288839 2.186387-2.0163341 0-3.9094675-.777382-5.3271483-2.186387l-7.7824959-7.733909c-1.412475-1.405534-2.191592-3.276109-2.191592-5.26815 0-1.990307.779117-3.860882 2.191592-5.266416l33.0994656-32.899914c-.1527001.845056-.2342554 1.707464-.2342554 2.583753 0 3.857411 1.5079126 7.480566 4.2495721 10.204874zm52.2234086-13.298784c0 7.832817-3.069618 15.197123-8.643169 20.737704l-46.693238 46.412131c-5.5700802 5.535376-12.9881781 8.584171-20.8921397 8.584171-7.902226 0-15.322059-3.048795-20.8921396-8.584171l-7.7824954-7.735644c-5.5631398-5.53017-8.62755139-12.894476-8.62755139-20.735969 0-7.843229 3.06441159-15.207535 8.62755139-20.737704l46.6932379-46.413867c5.5700806-5.535376 12.9899136-8.584171 20.8921396-8.584171 4.3866552 0 8.6206105.947435 12.4745507 2.732984l-12.2576474 12.183032c-.0728793-.001735-.1440235-.008676-.2169033-.008676-3.8678221 0-7.5031239 1.495766-10.2361074 4.211397l-46.6932379 46.412132c-2.7381888 2.720836-4.2443663 6.345727-4.2443663 10.203138 0 3.859146 1.5061775 7.484036 4.2443663 10.204873l7.7824954 7.735644c2.7312484 2.715631 6.3665502 4.211397 10.2361074 4.211397 3.8695577 0 7.5048591-1.495766 10.2361074-4.211397l46.6915033-46.412131c2.741659-2.724307 4.251307-6.347463 4.251307-10.204873 0-1.016844-.111054-2.0146-.317547-2.988062l11.542734-11.471589c2.495257 4.360627 3.824442 9.30776 3.824442 14.459651zm91.356259-78.6613351-46.691502 46.4121311c-5.580492 5.545787-13.000325 8.599788-20.893876 8.599788-5.179654 0-10.154551-1.317038-14.539471-3.788002l11.51844-11.449032c.982139.208228 1.993777.321017 3.022767.321017 3.864352 0 7.499653-1.497501 10.236107-4.216602l46.693238-46.4121316c2.738189-2.7225719 4.244367-6.345727 4.244367-10.204873 0-3.8591461-1.507913-7.4823012-4.246102-10.2048731l-7.78076-7.7339091c-2.732984-2.7156314-6.368285-4.2113973-10.237843-4.2113973-3.867822 0-7.503124 1.4957659-10.236107 4.2096618l-46.691503 46.4121312c-2.741659 2.724307-4.251308 6.3491977-4.251308 10.2048731 0 .067674.006941.1336129.008677.2012864l-12.287147 12.2125317c-1.808107-3.8365882-2.769423-8.0497207-2.769423-12.4138181 0-7.8310818 3.069618-15.1971226 8.643169-20.7377045l46.693238-46.4121308c5.568345-5.5353761 12.988178-8.58417079 20.892139-8.58417079 7.902226 0 15.322059 3.04879469 20.89214 8.58417079l7.782496 7.7356442c5.563139 5.5301703 8.627551 12.894476 8.627551 20.7377045s-3.064412 15.2057991-8.629287 20.7377045z" fill="#434c54" fill-rule="nonzero"/></g></g><g fill="#434c54" fill-rule="nonzero"><path d="m360 130h247v7h-247z"/><path d="m351.381992 150.957985h143v7h-143z"/><path d="m332.381992 171.957985h117v7h-117z"/></g></g></svg>