<svg height="128" viewBox="0 0 128 128" width="128" xmlns="http://www.w3.org/2000/svg"><path d="m32.191 97.953c-.36865 0-.73578.1056-1.0547.31641-.31891.2108-.61133.57433-.61133 1.041 0 .06137-.03614.1992.08398.43945l-.03125-.07617 6.4102 20.797c.11475.39015.39019.68831.69922.85938s.64908.23633.97852.23633c.70045 0 1.4696-.33428 1.7051-1.0879v-.002l6.4043-20.875v-.07617c0 .1053.03125.04444.03125-.18359 0-.47463-.30314-.82361-.62695-1.043-.32382-.21936-.70504-.3457-1.1016-.3457-.48903 0-1.0516.29744-1.2402.86328l-.0039.0059-5.1699 17.254-5.1895-17.223c-.07694-.30774-.28421-.56558-.52539-.70898s-.50427-.19141-.75782-.19141zm51.055 1.0723c-1.0204 0-1.8809.7817-1.8809 1.7598 0 .97806.84711 1.7871 1.8809 1.7871 1.0142 0 1.8203-.8242 1.8203-1.7871 0-.96291-.82002-1.7598-1.8203-1.7598zm-15.029 6.6582c-3.4884 0-6.3613 2.7915-6.3613 6.1465v3.4375c0 1.8791.74876 3.4896 2.0195 4.6016 1.2708 1.1119 3.0446 1.7266 5.0781 1.7266 1.502 0 2.7262-.33628 3.6016-.79297.43766-.22834.78933-.48448 1.0488-.76367.2595-.27918.45117-.58478.45117-.96679-.000001-.35077-.13509-.65471-.35352-.92774-.21842-.27303-.56248-.52344-1.0059-.52344-.32027 0-.56614.13479-.7793.26563-.21315.13083-.41335.27538-.6543.41406-.4819.27736-1.1204.54688-2.248.54688-1.2554 0-2.3023-.35802-3.0234-.95899-.72117-.60097-1.1406-1.4353-1.1406-2.5293v-.63672h6.4355c.6864 0 1.4494.001 2.1094-.41993.65995-.42135 1.0605-1.2588 1.0605-2.5332 0-3.5292-2.9447-6.0859-6.2383-6.0859zm24.186 0c-1.8542 0-3.2178.59997-4.0938 1.502-.87597.90198-1.2539 2.0754-1.2539 3.1719 0 1.3974.56454 2.3989 1.373 3.041.80851.64211 1.8144.96522 2.7715 1.2539.95712.28869 1.8732.5449 2.4883.92383.6151.37894.94531.78884.94531 1.6543 0 .46456-.1396.83433-.51758 1.1367-.37798.30238-1.049.54101-2.1426.54101-1.2937 0-2.0167-.31909-2.543-.64453-.26312-.16272-.47512-.33158-.69336-.48242s-.46571-.31445-.8125-.31445c-.41739 0-.72514.25714-.91211.52343-.18697.2663-.29492.56884-.29492.89649 0 .40512.19716.76131.47656 1.0703.27941.30901.65746.58398 1.1211.82422.92726.48049 2.2041.81445 3.7207.81445 1.6465 0 3.0006-.4019 3.959-1.1816.95834-.77974 1.4805-1.9389 1.4805-3.2754 0-1.5096-.54876-2.5951-1.3574-3.3125-.80867-.71736-1.8296-1.0872-2.8008-1.3848-.97115-.29761-1.9057-.52926-2.5312-.85547-.62552-.32622-.91992-.62713-.91992-1.3203 0-.37496.15-.84657.53125-1.2187.38125-.37218 1.0032-.67383 2.0371-.67383.82606 0 1.4401.1897 1.9316.39062.24577.10046.45939.20542.66211.29297.20272.0875.38964.17383.6582.17383.48505 0 .81748-.31997 1.0156-.61719.19815-.29722.3125-.59036.3125-.92578 0-.42021-.26147-.71802-.55078-.94141s-.65198-.40072-1.0723-.55468c-.84057-.30794-1.9126-.50782-2.9883-.50782zm-43.857.18555c-.81105 0-1.5117.50854-1.5117 1.2656v8.1934c0 3.3238 2.8258 6.2676 6.3301 6.2676 3.4452 0 6.3301-2.9092 6.3301-6.2676v-8.2226c0-.37893-.20849-.70759-.48242-.91602-.27393-.20842-.622-.32031-1-.32031s-.72801.11043-1.0078.31445c-.27981.20403-.50391.53013-.50391.92188v8.2226c0 1.7423-1.5183 3.4277-3.3359 3.4277-1.8478 0-3.3359-1.7154-3.3359-3.4277v-8.1934c0-.39244-.21435-.695-.48047-.91016s-.6137-.35547-1.002-.35547zm34.701 0c-.37921 0-.73049.0976-1.0098.30859-.27928.21101-.4707.55819-.4707.92774v15.096c0 1.1328-.07939 2.083-.32812 2.6582-.24873.57519-.54222.83007-1.3809.83007-.74093 0-1.3594.64736-1.3594 1.4219 0 .32192.10384.67528.36719.95117s.67217.4375 1.1445.4375c1.5943 0 2.8141-.70695 3.541-1.8555.72696-1.1485 1.0098-2.6849 1.0098-4.4434v-15.096c0-.39336-.22472-.7356-.50977-.9375-.28504-.20191-.63516-.29883-1.0039-.29883zm-15.061 2.4727c1.9913 0 3.3359 1.6671 3.3359 3.3652 0 .18502-.01992.30619-.03906.36133-.01914.0551-.01733.048-.04492.0664-.05518.0368-.36251.11523-.95117.11523h-5.6367v-.66602c0-1.7772 1.4845-3.2422 3.3359-3.2422zm9.5117 9.3711c-1.0877 0-1.9121.90005-1.9121 1.9414 0 1.0003.81206 1.9121 1.9121 1.9121 1.042 0 1.8809-.88405 1.8809-1.9121 0-1.067-.8528-1.9414-1.8809-1.9414z" fill="#35495e"/><g transform="matrix(.85771 0 0 .85771 9.1059 -7.6628)"><path d="m-.00000002 8.9337 49.854.1586 14.167 24.47 14.432-24.47 49.547-.1574-63.834 110.14zm126.98.6374-24.36.0207-38.476 66.052-38.453-66.052-24.749-.0196 63.211 107.89zm-25.149-.008-22.745.16758-15.053 24.647-14.817-24.647-22.794-.1679 37.731 64.476zm-75.83399998-.1702 23.002.0087 15.036 24.958 14.983-24.956 22.982-.0061-37.85 65.655" fill="none"/><path d="m25.997 9.3929 23.002.0087 15.036 24.958 14.983-24.956 22.982-.0061-37.85 65.655z" fill="#35495e"/><path d="m.91068 9.5686 25.066-.1711 38.151 65.658 37.852-65.654 25.11.0263-62.966 108.06z" fill="#41b883"/></g></svg>