<svg xmlns="http://www.w3.org/2000/svg" width="128" height="128" viewBox="0 0 128 128"><path fill="#35495e" d="M32.191 97.953a1.91 1.91 0 0 0-1.055.316c-.319.211-.611.575-.611 1.041 0 .062-.036.2.084.44l-.031-.076 6.41 20.797c.115.39.39.688.7.86s.648.235.978.235c.7 0 1.47-.334 1.705-1.088v-.002l6.404-20.875v-.076c0 .106.031.045.031-.183 0-.475-.303-.824-.627-1.043a1.966 1.966 0 0 0-1.101-.346c-.49 0-1.052.297-1.24.863l-.004.006-5.17 17.254-5.19-17.223c-.077-.308-.284-.565-.525-.709s-.504-.191-.758-.191zm51.055 1.072c-1.02 0-1.88.782-1.88 1.76s.846 1.787 1.88 1.787c1.014 0 1.82-.824 1.82-1.787s-.82-1.76-1.82-1.76zm-15.029 6.658c-3.488 0-6.361 2.792-6.361 6.147v3.438c0 1.879.748 3.49 2.02 4.601 1.27 1.112 3.044 1.727 5.077 1.727 1.502 0 2.727-.337 3.602-.793.438-.229.79-.485 1.049-.764.26-.28.45-.585.45-.967 0-.35-.134-.654-.353-.927-.218-.273-.562-.524-1.006-.524-.32 0-.566.135-.779.266-.213.13-.413.275-.654.414-.482.277-1.12.547-2.248.547-1.256 0-2.302-.358-3.024-.96-.72-.6-1.14-1.435-1.14-2.529v-.636h6.435c.687 0 1.45 0 2.11-.42.66-.422 1.06-1.26 1.06-2.533 0-3.53-2.944-6.086-6.238-6.086zm24.186 0c-1.854 0-3.218.6-4.094 1.502-.876.902-1.254 2.076-1.254 3.172 0 1.398.565 2.4 1.373 3.041.809.643 1.815.966 2.772 1.254.957.289 1.873.545 2.488.924.615.38.945.789.945 1.654 0 .465-.14.835-.517 1.137-.378.303-1.05.541-2.143.541-1.293 0-2.016-.319-2.543-.644-.263-.163-.475-.332-.693-.483s-.466-.314-.813-.314c-.417 0-.725.257-.912.523a1.546 1.546 0 0 0-.295.897c0 .405.198.761.477 1.07.28.309.657.584 1.121.824.927.48 2.204.815 3.72.815 1.647 0 3.001-.402 3.96-1.182.958-.78 1.48-1.939 1.48-3.275 0-1.51-.549-2.595-1.357-3.313-.809-.717-1.83-1.087-2.801-1.385-.971-.297-1.906-.529-2.531-.855-.626-.326-.92-.627-.92-1.32 0-.375.15-.847.531-1.22.381-.371 1.003-.673 2.037-.673.826 0 1.44.19 1.932.39.246.101.46.206.662.294.203.087.39.173.658.173.485 0 .818-.32 1.016-.617.198-.297.312-.59.312-.926 0-.42-.261-.718-.55-.94s-.653-.402-1.073-.556c-.84-.308-1.912-.507-2.988-.507zm-43.857.186c-.811 0-1.512.509-1.512 1.266v8.193c0 3.324 2.826 6.268 6.33 6.268 3.446 0 6.33-2.91 6.33-6.268v-8.223c0-.378-.208-.707-.482-.916-.274-.208-.622-.32-1-.32s-.728.11-1.008.315c-.28.204-.504.53-.504.921v8.223c0 1.742-1.518 3.428-3.336 3.428-1.847 0-3.335-1.716-3.335-3.428v-8.193c0-.393-.215-.695-.48-.91s-.615-.356-1.003-.356zm34.701 0c-.38 0-.73.098-1.01.309-.28.21-.47.558-.47.927v15.096c0 1.133-.08 2.083-.329 2.659-.248.575-.542.83-1.38.83-.741 0-1.36.647-1.36 1.422 0 .321.104.675.367.95s.672.438 1.145.438c1.594 0 2.814-.707 3.54-1.855.728-1.149 1.01-2.685 1.01-4.444v-15.096c0-.393-.224-.735-.51-.937a1.723 1.723 0 0 0-1.003-.299zm-15.061 2.473c1.991 0 3.336 1.667 3.336 3.365 0 .185-.02.306-.04.361-.018.055-.016.048-.044.067-.055.036-.363.115-.951.115H64.85v-.666c0-1.777 1.485-3.242 3.336-3.242zm9.512 9.37c-1.088 0-1.912.9-1.912 1.942 0 1 .812 1.912 1.912 1.912 1.042 0 1.88-.884 1.88-1.912 0-1.067-.852-1.941-1.88-1.941z"/><path fill="none" d="m9.106 0 42.76.136 12.151 20.988L76.396.136 118.893 0 64.142 94.469zm108.912.546L97.124.564 64.123 57.218 31.14.564 9.914.547 64.13 93.086zM96.448.54l-19.51.143-12.91 21.14L51.319.683 31.769.54 64.13 55.841zM31.403.394 51.133.4l12.896 21.407L76.88.403 96.592.398 64.128 56.71"/><path fill="#35495e" d="M31.404.394 51.133.4l12.896 21.407L76.88.403 96.592.398 64.128 56.71z"/><path fill="#41b883" d="m9.887.544 21.5-.146 32.722 56.315L96.575.401l21.537.023-54.007 92.684z"/></svg>