<svg xmlns="http://www.w3.org/2000/svg" viewBox="0 0 128 128"><path fill-rule="evenodd" clip-rule="evenodd" fill="#337BA2" d="M43.257 121.233c.079 1.018.029 2.071.299 3.037.115.408.9.629 1.381.935l.625.401c-.235.137-.469.389-.707.392-1.866.033-3.732.032-5.598.002-.248-.004-.491-.237-.735-.364.198-.143.388-.391.597-.408 1.251-.105 1.632-.865 1.626-1.989-.011-2.066-.006-4.134.003-6.202.005-1.152-.322-1.993-1.679-2.045-.188-.008-.366-.296-.548-.453.182-.111.366-.321.546-.318 2.39.029 4.79-.024 7.167.177 1.873.159 3.107 1.455 3.234 2.949.138 1.639-.703 2.764-2.605 3.486l-.729.272c1.225 1.158 2.31 2.29 3.516 3.272.535.437 1.293.697 1.989.817 1.393.238 2.149-.361 2.187-1.742.061-2.229.032-4.461.011-6.691-.01-1.022-.449-1.697-1.589-1.753-.215-.01-.42-.253-.629-.388.239-.14.478-.4.715-.399 2.432.02 4.875-.055 7.291.161 4.123.366 6.42 3.797 5.214 7.588-.735 2.312-2.495 3.619-4.759 3.773-3.958.27-7.938.215-11.909.243-.316.002-.706-.341-.944-.623-.914-1.085-1.776-2.213-2.668-3.316-.27-.334-.571-.641-.858-.961l-.444.147zm13.119-5.869c0 2.785-.034 5.484.036 8.18.011.414.41 1.039.78 1.187 1.457.581 3.812-.368 4.47-1.842.881-1.973.988-4.05-.203-5.922-1.175-1.847-3.132-1.663-5.083-1.603zm-13.021 4.561c1.262.032 2.653.313 3.192-1.073.302-.777.234-1.982-.183-2.69-.633-1.076-1.906-.888-3.01-.752l.001 4.515z"/><path fill-rule="evenodd" clip-rule="evenodd" fill="#515151" d="M96.77 119.35c.834-.18 1.661-.154 2.198-.537.451-.32.563-1.116.908-1.886.199.357.386.539.39.724.025 1.38.03 2.761 0 4.141-.005.216-.226.427-.347.641-.136-.114-.339-.2-.399-.346-.733-1.771-.729-1.772-2.843-1.583.309 1.382-.763 3.149.89 4.058.843.463 2.203.371 3.189.068.841-.256 1.48-1.171 2.212-1.798v3.096c-.405.036-.712.086-1.021.086-4.141.006-8.282-.012-12.422.019-.714.006-1.197-.174-1.633-.773-.857-1.182-1.799-2.302-2.725-3.432-.232-.283-.534-.508-1.021-.962 0 1.154-.042 1.981.012 2.802.056.858.469 1.427 1.418 1.534.279.032.529.325.792.5-.271.105-.54.298-.812.303-1.827.026-3.653.025-5.48.001-.28-.004-.558-.173-.866-.275l.156-.303c2.244-.906 2.25-.906 2.248-3.508-.002-1.623-.014-3.246-.039-4.87-.017-1.121-.321-2.01-1.689-2.058-.197-.007-.384-.287-.577-.441.226-.113.453-.325.678-.323 2.311.022 4.635-.054 6.93.16 2.512.234 4.065 2.329 3.132 4.257-.51 1.053-1.688 1.783-2.725 2.818.984.9 2.117 2.194 3.491 3.135 1.941 1.33 3.268.571 3.317-1.748.041-1.947-.007-3.896-.015-5.845-.004-1.155-.361-1.994-1.717-2.013-.185-.003-.367-.2-.586-.33.705-.52 7.499-.709 10.448-.332l.19 3.214-.333.136c-.686-.717-.601-2.199-2.02-2.204-1.084-.005-2.168-.119-3.332-.189.003 1.356.003 2.59.003 4.063zm-12.647.566c2.61.105 3.646-.603 3.584-2.364-.061-1.698-1.195-2.383-3.584-2.121v4.485z"/><path fill-rule="evenodd" clip-rule="evenodd" fill="#3179A1" d="M11.555 120.682c.996-2.947 1.979-5.897 3.003-8.834.141-.404.486-.737.737-1.104.248.378.587.725.729 1.14.931 2.719 1.817 5.451 2.722 8.179.072.219.165.43.375.969.928-2.813 1.787-5.308 2.564-7.829.27-.873-.081-1.504-1.097-1.618-.335-.039-.66-.17-1.051-.274.676-.749 5.957-.804 6.827-.108-.236.112-.424.271-.618.279-1.65.064-2.414 1.097-2.884 2.521-1.258 3.81-2.54 7.611-3.817 11.415-.133.395-.3.778-.452 1.166l-.421.03-3.579-10.821-3.619 10.788-.354.022c-.185-.401-.412-.79-.547-1.207-1.167-3.581-2.319-7.167-3.474-10.751-.495-1.539-.99-3.069-3.012-3.167-.132-.006-.253-.229-.38-.35.158-.13.316-.373.476-.375 2.272-.024 4.546-.024 6.818.001.158.001.313.247.47.379-.169.126-.319.309-.508.367-1.82.55-1.951.761-1.378 2.526.723 2.233 1.468 4.457 2.204 6.686l.266-.03z"/><path fill-rule="evenodd" clip-rule="evenodd" fill="#4D4D4D" d="M65.484 111.25c.279-.241.435-.494.587-.491 2.957.044 5.938-.093 8.864.247 2.768.321 4.301 2.919 3.466 5.359-.748 2.189-2.593 2.874-4.68 3.064-.881.081-1.776.013-2.824.013.093 1.453.14 2.78.275 4.098.113 1.114.863 1.56 1.923 1.65.239.021.457.288.684.442-.25.126-.498.36-.75.363-2.191.029-4.384.028-6.575.002-.263-.003-.523-.219-.784-.336.218-.165.432-.463.656-.472 1.463-.056 2.012-.964 2.03-2.235.044-3.081.04-6.162.002-9.243-.016-1.31-.649-2.148-2.072-2.206-.212-.008-.422-.13-.802-.255zm5.523 6.706c2.682.278 3.703.022 4.349-1.167.648-1.192.65-2.439-.116-3.566-1.059-1.559-2.679-1.098-4.233-1.154v5.887z"/><path fill-rule="evenodd" clip-rule="evenodd" fill="#3279A1" d="M31.076 126.463c-2.396-.104-4.348-.856-5.794-2.647-2.053-2.542-1.741-5.994.711-8.192 2.645-2.37 7.018-2.472 9.733-.171 1.838 1.559 2.709 3.533 2.111 5.953-.675 2.73-2.601 4.192-5.218 4.856-.546.137-1.122.149-1.543.201zm4.544-6.249l-.224-.147c-.149-.709-.236-1.439-.458-2.125-.642-1.971-1.986-2.945-3.963-2.949-1.97-.004-3.295.975-3.939 2.967-.572 1.771-.498 3.526.383 5.18 1.315 2.468 4.829 2.931 6.549.736.802-1.023 1.116-2.43 1.652-3.662z"/><path fill-rule="evenodd" clip-rule="evenodd" fill="#505050" d="M122.748 114.317l.893-.782v4.376l-.259.195c-.209-.295-.498-.562-.615-.891-.591-1.655-1.865-2.553-3.319-2.117-.499.149-1.099.649-1.232 1.11-.109.376.285 1.12.671 1.374 1.008.664 2.131 1.156 3.214 1.703 2.356 1.192 3.198 2.845 2.401 4.736-.809 1.921-3.263 2.915-5.462 2.173-.606-.206-1.167-.544-1.728-.811l-.857 1.126-.379-.116c0-1.477-.009-2.954.015-4.431.002-.143.215-.282.33-.423.18.218.448.41.527.66.523 1.656 1.53 2.756 3.325 2.94 1.023.105 2.023-.021 2.378-1.187.324-1.067-.42-1.669-1.219-2.124-.879-.5-1.808-.909-2.708-1.37-.395-.203-.798-.404-1.153-.665-1.257-.927-1.753-2.263-1.381-3.618.332-1.211 1.523-2.237 2.997-2.28 1.091-.031 2.195.25 3.561.422zM106.479 125.344c-.166.33-.258.607-.429.821-.103.128-.356.25-.49.208-.127-.04-.262-.294-.265-.456-.021-1.299-.021-2.599.001-3.896.002-.159.178-.314.274-.471.184.117.446.193.537.362.169.314.208.696.356 1.024.668 1.482 2.021 2.409 3.573 2.184.649-.093 1.45-.586 1.772-1.138.434-.741-.086-1.504-.814-1.925-.979-.566-1.993-1.075-3.009-1.571-2.297-1.121-3.266-2.972-2.443-4.719.818-1.737 3.33-2.46 5.429-1.556.256.11.499.25.7.354l1.078-.886c.113.317.185.426.186.535.008 1.216.005 2.431.005 3.646l-.317.212c-.211-.27-.504-.509-.619-.814-.573-1.532-1.48-2.381-2.81-2.219-.624.075-1.419.504-1.726 1.018-.45.755.2 1.361.885 1.729.963.519 1.949.992 2.926 1.483 2.418 1.213 3.269 2.898 2.434 4.824-.813 1.876-3.346 2.847-5.517 2.077-.564-.199-1.087-.52-1.717-.826z"/><path fill-rule="evenodd" clip-rule="evenodd" fill="#494949" d="M65.261 1.395c-26.781-.478-49.158 21.253-49.165 47.605-.008 27.11 21.338 48.739 48.077 48.699 26.49-.039 47.932-21.587 47.932-48.167-.001-26.148-21.345-47.682-46.844-48.137zm-1.148 93.887c-25.326.006-45.694-20.529-45.693-46.067.001-24.88 20.685-45.48 45.674-45.489 25.432-.008 45.695 20.654 45.687 46.587-.008 24.483-20.807 44.964-45.668 44.969zM88.508 35.935c-.994-1.638-2.216-3.227-2.778-5.013-.64-2.032-1.171-4.345-.832-6.382.576-3.454 3.225-5.169 6.812-5.497-19.624-18.213-50.462-11.694-61.825 8.095 4.374-.203 8.55-.468 12.729-.524.791-.011 2.1.657 2.286 1.277.416 1.385-.748 1.868-1.986 1.963-1.301.102-2.604.199-4.115.314 4.99 14.865 9.905 29.509 14.935 44.494.359-.587.507-.752.572-.945 2.762-8.255 5.54-16.505 8.232-24.784.246-.755.124-1.755-.146-2.531-1.424-4.111-3.13-8.133-4.379-12.294-.855-2.849-1.988-4.692-5.355-4.362-.574.056-1.273-1.178-1.916-1.816.777-.463 1.548-1.316 2.332-1.328 6.857-.104 13.716-.104 20.572.006.786.013 1.557.889 2.335 1.364-.681.622-1.267 1.554-2.063 1.794-1.276.385-2.691.312-4.218.448 4.995 14.857 9.887 29.412 14.953 44.484 2.266-7.524 4.374-14.434 6.422-21.36 1.83-6.182.74-11.957-2.567-17.403zM52.719 88.149c-.092.267-.097.563-.168 1.007 8.458 2.344 16.75 2.175 25.24-.685l-12.968-35.52c-4.151 12.064-8.131 23.63-12.104 35.198zM46.184 86.543c-6.554-17.979-13.022-35.724-19.538-53.596-8.814 17.217-2.109 43.486 19.538 53.596zM100.636 31.14c-.27 2.994-.082 6.327-.941 9.362-2.023 7.152-4.496 14.181-6.877 21.229-2.588 7.66-5.28 15.286-7.927 22.927 12.437-7.372 19.271-18.253 20.359-32.555.62-8.14-2.188-19.412-4.614-20.963z"/></svg>