<?xml version="1.0" standalone="no"?>
<!DOCTYPE svg PUBLIC "-//W3C//DTD SVG 20010904//EN"
 "http://www.w3.org/TR/2001/REC-SVG-20010904/DTD/svg10.dtd">
<svg version="1.0" xmlns="http://www.w3.org/2000/svg"
 width="1024.000000pt" height="1024.000000pt" viewBox="0 0 1024.000000 1024.000000"
 preserveAspectRatio="xMidYMid meet">
<metadata>
Created by potrace 1.11, written by Peter Selinger 2001-2013
</metadata>
<g transform="translate(0.000000,1024.000000) scale(0.100000,-0.100000)"
fill="#000000" stroke="none">
<path d="M7628 9536 c-1 -2 -50 -6 -108 -9 -58 -3 -118 -8 -135 -11 -255 -42
-486 -146 -680 -307 -65 -54 -481 -463 -1478 -1457 -231 -229 -452 -452 -492
-495 -183 -196 -317 -477 -355 -747 -12 -82 -16 -342 -7 -357 3 -5 8 -35 11
-67 4 -32 9 -62 11 -66 2 -4 7 -21 10 -39 9 -54 51 -172 94 -268 l41 -91 -71
-71 -72 -70 -76 38 c-262 131 -604 171 -911 106 -184 -38 -370 -120 -530 -234
-99 -70 -181 -150 -1328 -1292 -406 -405 -759 -763 -785 -797 -43 -56 -147
-216 -147 -226 0 -3 -14 -34 -30 -70 -42 -90 -67 -171 -95 -301 -20 -96 -23
-133 -20 -290 3 -171 10 -228 49 -378 27 -100 112 -285 178 -382 67 -99 122
-161 322 -360 278 -277 362 -344 537 -429 342 -165 723 -192 1077 -77 80 27
230 93 277 123 11 7 40 26 65 42 25 16 77 55 115 87 113 92 1956 1926 2034
2024 127 159 230 371 270 555 19 86 22 105 28 170 30 308 -34 607 -185 864
l-28 48 54 54 c30 30 56 54 56 54 1 0 53 -26 116 -58 101 -51 235 -102 310
-118 168 -36 362 -48 505 -32 278 32 563 157 770 338 33 29 308 300 610 601
l550 549 1028 0 1028 0 -3 137 -3 137 -882 0 c-486 0 -883 1 -883 3 0 2 122
125 270 273 l271 270 614 0 615 0 0 135 c0 101 -3 135 -12 136 -7 0 -244 1
-526 1 l-513 0 7 22 c4 11 14 37 24 56 19 39 66 178 75 225 4 17 14 78 23 136
l16 105 450 0 451 0 3 137 3 136 -398 0 c-219 0 -425 1 -459 1 l-60 0 -17 89
c-24 125 -60 229 -118 346 -64 129 -79 153 -160 255 -69 87 -447 467 -529 531
-228 179 -494 285 -770 305 -41 3 -80 7 -87 9 -6 2 -13 2 -15 1z m105 -1156
c34 -16 101 -75 221 -194 95 -94 184 -187 199 -207 29 -39 54 -121 52 -172 -2
-42 -27 -127 -37 -127 -4 0 -8 -6 -8 -13 0 -7 -201 -214 -447 -460 -580 -578
-1003 -997 -1007 -997 -2 0 8 23 21 50 91 190 50 450 -94 605 -115 124 -257
185 -423 182 -50 -1 -90 -1 -90 0 0 6 1288 1283 1313 1303 77 61 208 73 300
30z m-4767 -4537 c-10 -255 155 -481 409 -564 23 -7 88 -13 150 -14 89 0 124
5 182 23 40 13 75 28 78 33 4 5 11 9 17 9 6 0 -171 -180 -393 -400 -222 -221
-548 -544 -724 -720 -359 -357 -366 -363 -490 -364 -112 -1 -147 22 -342 214
-92 91 -182 184 -200 208 -56 73 -69 167 -38 264 16 50 56 92 678 715 364 364
665 662 669 662 3 1 5 -29 4 -66z"/>
</g>
</svg>
