<svg xmlns="http://www.w3.org/2000/svg" width="1024pt" height="1024pt" viewBox="0 0 1024 1024"><path d="M762.8 70.4c-.1.2-5 .6-10.8.9s-11.8.8-13.5 1.1c-25.5 4.2-48.6 14.6-68 30.7-6.5 5.4-48.1 46.3-147.8 145.7-23.1 22.9-45.2 45.2-49.2 49.5-18.3 19.6-31.7 47.7-35.5 74.7-1.2 8.2-1.6 34.2-.7 35.7.3.5.8 3.5 1.1 6.7.4 3.2.9 6.2 1.1 6.6s.7 2.1 1 3.9c.9 5.4 5.1 17.2 9.4 26.8l4.1 9.1-7.1 7.1-7.2 7-7.6-3.8C405.9 459 371.7 455 341 461.5c-18.4 3.8-37 12-53 23.4-9.9 7-18.1 15-132.8 129.2-40.6 40.5-75.9 76.3-78.5 79.7-4.3 5.6-14.7 21.6-14.7 22.6 0 .3-1.4 3.4-3 7-4.2 9-6.7 17.1-9.5 30.1-2 9.6-2.3 13.3-2 29 .3 17.1 1 22.8 4.9 37.8 2.7 10 11.2 28.5 17.8 38.2 6.7 9.9 12.2 16.1 32.2 36 27.8 27.7 36.2 34.4 53.7 42.9 34.2 16.5 72.3 19.2 107.7 7.7 8-2.7 23-9.3 27.7-12.3 1.1-.7 4-2.6 6.5-4.2s7.7-5.5 11.5-8.7c11.3-9.2 195.6-192.6 203.4-202.4 12.7-15.9 23-37.1 27-55.5 1.9-8.6 2.2-10.5 2.8-17 3-30.8-3.4-60.7-18.5-86.4l-2.8-4.8 5.4-5.4c3-3 5.6-5.4 5.6-5.4.1 0 5.3 2.6 11.6 5.8 10.1 5.1 23.5 10.2 31 11.8 16.8 3.6 36.2 4.8 50.5 3.2 27.8-3.2 56.3-15.7 77-33.8 3.3-2.9 30.8-30 61-60.1l55-54.9h205.6l-.3-13.7-.3-13.7h-88.2c-48.6 0-88.3-.1-88.3-.3s12.2-12.5 27-27.3l27.1-27H1024v-13.5c0-10.1-.3-13.5-1.2-13.6-.7 0-24.4-.1-52.6-.1h-51.3l.7-2.2c.4-1.1 1.4-3.7 2.4-5.6 1.9-3.9 6.6-17.8 7.5-22.5.4-1.7 1.4-7.8 2.3-13.6l1.6-10.5h90.1l.3-13.7.3-13.6h-39.8c-21.9 0-42.5-.1-45.9-.1h-6l-1.7-8.9c-2.4-12.5-6-22.9-11.8-34.6-6.4-12.9-7.9-15.3-16-25.5-6.9-8.7-44.7-46.7-52.9-53.1-22.8-17.9-49.4-28.5-77-30.5-4.1-.3-8-.7-8.7-.9-.6-.2-1.3-.2-1.5-.1M773.3 186c3.4 1.6 10.1 7.5 22.1 19.4 9.5 9.4 18.4 18.7 19.9 20.7 2.9 3.9 5.4 12.1 5.2 17.2-.2 4.2-2.7 12.7-3.7 12.7-.4 0-.8.6-.8 1.3s-20.1 21.4-44.7 46C713.3 361.1 671 403 670.6 403c-.2 0 .8-2.3 2.1-5 9.1-19 5-45-9.4-60.5-11.5-12.4-25.7-18.5-42.3-18.2-5 .1-9 .1-9 0 0-.6 128.8-128.3 131.3-130.3 7.7-6.1 20.8-7.3 30-3M296.6 639.7c-1 25.5 15.5 48.1 40.9 56.4 2.3.7 8.8 1.3 15 1.4 8.9 0 12.4-.5 18.2-2.3 4-1.3 7.5-2.8 7.8-3.3.4-.5 1.1-.9 1.7-.9s-17.1 18-39.3 40c-22.2 22.1-54.8 54.4-72.4 72-35.9 35.7-36.6 36.3-49 36.4-11.2.1-14.7-2.2-34.2-21.4-9.2-9.1-18.2-18.4-20-20.8-5.6-7.3-6.9-16.7-3.8-26.4 1.6-5 5.6-9.2 67.8-71.5 36.4-36.4 66.5-66.2 66.9-66.2.3-.1.5 2.9.4 6.6"/></svg>