<svg xmlns="http://www.w3.org/2000/svg" xmlns:xlink="http://www.w3.org/1999/xlink" width="1201" height="512"><defs><path id="a" d="M-62-112h1280v720H-62z"/><path id="c" d="M0 0h250.734v472.903H0z"/></defs><g fill="none" fill-rule="evenodd"><mask id="b" fill="#fff"><use xlink:href="#a"/></mask><path fill="#fff" d="M-62-112h1280v720H-62z" mask="url(#b)"/><path fill="#fff" d="M678 87h181v327H678z" mask="url(#b)"/><path fill="#b7b7b7" d="M697 310h61v56h-61zm71 1h68v13h-68zm0 21h51v13h-51z" mask="url(#b)"/><path fill="#4285f4" d="M697 140h61v56h-61z" mask="url(#b)"/><path fill="#b7b7b7" d="M768 141h68v13h-68zm0 21h51v13h-51zm-71 63h61v56h-61z" mask="url(#b)"/><path fill="#4285f4" d="M768 226h68v13h-68z" mask="url(#b)"/><path fill="#b7b7b7" d="M768 247h51v13h-51z" mask="url(#b)"/><path d="M667 24h251v473H667z" mask="url(#b)"/><g mask="url(#b)"><g transform="translate(667 24)"><mask id="d" fill="#fff"><use xlink:href="#c"/></mask><g fill="#b7b7b7" fill-rule="nonzero" mask="url(#d)"><path d="M193.791 347.23H12.195V53.77h181.596zM88.862 377.028c0-8.068 6.5-14.613 14.518-14.613 8.021 0 14.518 6.545 14.518 14.613 0 8.066-6.497 14.622-14.518 14.622-8.019-.011-14.518-6.556-14.518-14.622m117.113 13.263H206V38.53h-.005C205.956 30.499 199.42 24 191.353 24c-.057 0-.104.005-.156.005V24H14.633C6.576 24.005.047 30.504.003 38.529H0v351.76h.022c-.006.152-.022.303-.022.461C0 398.62 6.634 405 14.82 405c.12 0 .238-.016.359-.02v.02h176.374c7.964 0 14.444-6.378 14.444-14.25.003-.155-.016-.309-.022-.459"/></g></g></g><path fill="#efefef" d="M682 89h173v32H682z" mask="url(#b)"/><path fill="#d9d9d9" d="M691 95h22v19h-22z" mask="url(#b)"/><path fill="#fff" d="M589 292h428v316H589z" mask="url(#b)"/><path d="M122 133h228v85H122z" mask="url(#b)"/><path fill="#3cc0ac" fill-rule="nonzero" d="M107.923 204.072 141 215.732V232l-50-21.162v-13.724L141 176v16.22zM224 240h-16.858v-64.969L187 181.306v-13.708L222.164 155H224zm55.128-34.068-8.962 9.762V240H253v-85h17.166v38.513l7.587-10.534L298.997 155h21.15l-29.638 37.789L321 240h-20.438zM328 240v-85h29.221q15.18 0 23.007 5.944 7.875 5.895 7.875 17.348 0 6.233-3.179 11.017-3.13 4.736-8.728 6.959 6.404 1.643 10.104 6.62 3.7 4.929 3.7 12.13 0 12.273-7.685 18.603-7.684 6.282-21.868 6.379zm17-37v23h14.937q6.147 0 9.605-2.954t3.458-8.183q0-11.67-12.007-11.863zm0-13h12.88q13.12-.237 13.12-10.381 0-5.641-3.352-8.107Q364.345 169 357.162 169H345z" mask="url(#b)"/><path d="M69 323h362v200H69z" mask="url(#b)"/><path fill="#666" fill-rule="nonzero" d="M95.014 358.52h-9.05l-2.03 5.48H81l8.233-21h2.492L100 364h-2.933zm-8.19-2.28h7.352l-3.686-9.818z" mask="url(#b)"/><path fill="#3cc0ac" fill-rule="nonzero" d="M114.29 364.586H110V342h4.29zm8.007 0h-4.29v-15.902h4.29zm-4.54-20.012q0-.955.645-1.578.646-.622 1.75-.622 1.082 0 1.728.622.666.623.666 1.578t-.666 1.578q-.646.623-1.729.623-1.082 0-1.749-.623-.645-.623-.645-1.578m7.423 11.936q0-3.653 1.75-5.874 1.748-2.242 4.706-2.242 2.625 0 4.082 1.785l.187-1.495h3.853v15.383q0 2.075-.958 3.612-.938 1.556-2.666 2.366c-1.728.81-2.499.81-4.04.81a8.7 8.7 0 0 1-3.415-.706q-1.667-.706-2.52-1.806l1.874-2.574q1.603 1.764 3.874 1.764 1.686 0 2.624-.913.958-.893.958-2.553v-.852q-1.479 1.662-3.874 1.661-2.895 0-4.665-2.242t-1.77-5.937zm4.248.312q0 2.159.875 3.383.874 1.225 2.395 1.225 1.936 0 2.79-1.453v-6.684q-.853-1.453-2.77-1.453-1.52 0-2.415 1.266-.875 1.245-.875 3.716m17.758-6.415q1.707-2.013 4.269-2.013 5.185 0 5.269 5.999v10.193h-4.27v-10.068q.001-1.37-.604-2.014-.583-.664-1.936-.664-1.875 0-2.728 1.453v11.293h-4.249V342h4.249zm17.855-5.625v3.902h2.728v3.114h-2.728v7.93q0 .893.333 1.287.333.375 1.291.374.708 0 1.25-.104v3.218a9 9 0 0 1-2.582.373q-4.478 0-4.561-4.504v-8.574h-2.333v-3.114h2.333v-3.902zm18.971 14.033 2.083-10.13h4.123l-4.082 15.9h-3.56l-3.02-10.005-3.02 10.006h-3.562l-4.06-15.902h4.102l2.083 10.11 2.915-10.11h3.082zm15.652 6.061q-3.5 0-5.707-2.138-2.207-2.16-2.207-5.73v-.394q0-2.408.916-4.297.938-1.89 2.645-2.906t3.894-1.017q3.27 0 5.144 2.055t1.875 5.833v1.744H196.06q.208 1.557 1.25 2.49 1.04.935 2.644.935 2.458 0 3.832-1.765l2.104 2.325q-.96 1.35-2.604 2.118-1.624.747-3.623.747zm-.48-13.057q-1.27 0-2.061.872-.791.85-1 2.429h5.915v-.333q-.021-1.41-.77-2.18-.73-.788-2.083-.788zm13.97 12.767h-4.29v-15.902h4.29zm-4.54-20.012q0-.955.645-1.578.645-.622 1.75-.622 1.083 0 1.728.622.667.623.667 1.578t-.667 1.578q-.645.623-1.728.623c-1.083 0-1.305-.208-1.75-.623q-.645-.623-.645-1.578m7.423 11.936q0-3.653 1.75-5.874 1.75-2.242 4.706-2.242 2.625 0 4.082 1.785l.187-1.495h3.853v15.383q0 2.074-.958 3.612-.937 1.557-2.666 2.366t-4.04.81a8.7 8.7 0 0 1-3.415-.706q-1.665-.706-2.52-1.806l1.874-2.574q1.604 1.764 3.874 1.764 1.687 0 2.624-.913.958-.893.958-2.553v-.852q-1.479 1.661-3.874 1.661-2.895 0-4.665-2.242t-1.77-5.937zm4.249.312q0 2.159.874 3.383.875 1.225 2.395 1.225 1.937 0 2.79-1.453v-6.684q-.853-1.453-2.769-1.453-1.52 0-2.416 1.266-.874 1.245-.874 3.716m17.757-6.415q1.707-2.013 4.27-2.013 5.184 0 5.268 5.999v10.193h-4.27v-10.068q0-1.37-.603-2.014-.584-.664-1.937-.664-1.875 0-2.728 1.453v11.293h-4.249V342h4.249zm17.855-5.625v3.902h2.729v3.114h-2.729v7.93q0 .893.334 1.287.333.375 1.29.374a6.7 6.7 0 0 0 1.25-.104v3.218a9 9 0 0 1-2.582.373q-4.477 0-4.56-4.504v-8.574h-2.333v-3.114h2.332v-3.902h4.27zm21.555-1.599h4.416v14.822q0 2.034-.917 3.612-.895 1.557-2.561 2.408-1.646.85-3.707.851-3.415 0-5.332-1.723-1.895-1.723-1.895-4.878h4.457q0 1.557.666 2.325.667.747 2.104.747 1.25 0 1.999-.872.77-.87.77-2.47zm19.347 15.798q0-1.267-.896-1.93-.875-.666-3.186-1.412-2.29-.748-3.645-1.454-3.644-1.971-3.644-5.314 0-1.723.979-3.072.979-1.37 2.811-2.138t4.124-.768q2.29 0 4.082.83 1.811.83 2.811 2.346 1 1.515 1 3.446H296.8q0-1.474-.937-2.284-.916-.83-2.604-.83-1.625 0-2.52.685t-.895 1.806q0 1.038 1.041 1.744 1.063.705 3.124 1.328 3.77 1.122 5.498 2.803t1.729 4.172q0 2.782-2.125 4.36-2.103 1.577-5.664 1.577-2.478 0-4.52-.892-2.019-.915-3.102-2.47-1.063-1.579-1.063-3.654h4.436q0 3.528 4.249 3.529 1.582 0 2.457-.623.896-.644.896-1.785m19.17 5.605h-4.291V342h4.29zm8.006 0h-4.29v-15.902h4.29zm-4.54-20.012q0-.955.645-1.578.646-.622 1.75-.622 1.082 0 1.728.622.666.623.666 1.578t-.666 1.578q-.645.623-1.729.623-1.082 0-1.749-.623-.645-.623-.645-1.578m22.417 12.206q0 3.82-1.645 5.958-1.625 2.138-4.56 2.138-2.604 0-4.145-1.972l-.187 1.682h-3.832V342h4.248v8.117q1.479-1.723 3.874-1.723 2.935 0 4.581 2.138 1.666 2.138 1.666 6.02zm-4.269-.311q0-2.408-.77-3.508-.75-1.121-2.27-1.121-2.041 0-2.812 1.66v6.27q.792 1.68 2.832 1.681 2.062 0 2.708-2.034.312-.956.312-2.948m15.855-3.799a11 11 0 0 0-1.54-.125q-2.416 0-3.166 1.64v10.4h-4.249v-15.9h4.02l.125 1.888q1.27-2.18 3.54-2.18.708 0 1.333.188zm10.864 11.916q-.312-.582-.438-1.433-1.54 1.723-4.019 1.723-2.354 0-3.894-1.35-1.542-1.349-1.541-3.404 0-2.532 1.874-3.881 1.895-1.35 5.435-1.37h1.958v-.914q0-1.1-.562-1.764-.562-.665-1.791-.665-1.062 0-1.687.52-.604.518-.604 1.41h-4.27q0-1.39.854-2.552.855-1.184 2.416-1.848 1.563-.664 3.52-.664 2.935 0 4.665 1.474 1.75 1.473 1.75 4.151v6.892q.02 2.263.624 3.425v.25zm-3.54-2.948q.957 0 1.749-.415.79-.437 1.166-1.142v-2.72h-1.583q-3.207 0-3.415 2.2v.25q0 .789.562 1.308t1.52.519zm19.438-8.968a11 11 0 0 0-1.541-.125q-2.416 0-3.166 1.64v10.4h-4.248v-15.9h4.02l.124 1.888q1.27-2.18 3.54-2.18.71 0 1.333.188zm8.28 5.895 2.937-9.88H396l-6.414 18.37-.354.831Q387.795 371 384.504 371q-.915 0-1.874-.27v-3.217l.645.02q1.209 0 1.791-.373.605-.375.938-1.225l.5-1.308-5.582-15.943h4.582z" mask="url(#b)"/><path fill="#666" fill-rule="nonzero" d="M84.545 399.876v-13.804H82v-2.097h2.545v-1.64q0-2.553 1.355-3.944 1.377-1.39 3.9-1.391a7.3 7.3 0 0 1 1.878.25l-.167 2.2a7 7 0 0 0-1.46-.146q-1.335 0-2.065.79-.71.767-.71 2.2v1.68h3.4v2.098h-3.4v13.804zm8.413-8.096q0-2.346.918-4.214.939-1.868 2.586-2.864 1.648-1.018 3.755-1.018 3.275 0 5.276 2.242 2.025 2.243 2.024 5.979v.187q0 2.324-.897 4.172t-2.566 2.886q-1.647 1.017-3.817 1.017-3.232 0-5.256-2.242-2.022-2.242-2.023-5.958zm2.753.312q0 2.657 1.231 4.255 1.23 1.599 3.295 1.599 2.085 0 3.317-1.62 1.23-1.618 1.23-4.546 0-2.615-1.251-4.235-1.252-1.64-3.316-1.64-2.024 0-3.275 1.62-1.23 1.598-1.23 4.567zm22.942-5.688a10 10 0 0 0-1.334-.083q-2.69 0-3.65 2.262v11.293h-2.733v-15.901h2.67l.042 1.827q1.335-2.118 3.796-2.118.813 0 1.21.208zm11.36 13.472v-13.804h-2.545v-2.097h2.544v-1.64q0-2.553 1.356-3.944 1.377-1.39 3.9-1.391a7.3 7.3 0 0 1 1.878.25l-.167 2.2a7 7 0 0 0-1.46-.146q-1.335 0-2.065.79-.71.767-.71 2.2v1.68h3.4v2.098h-3.4v13.804h-2.732zm19.009 0q-.23-.477-.376-1.681-1.92 1.972-4.547 1.972-2.377 0-3.9-1.329-1.502-1.327-1.502-3.363 0-2.49 1.898-3.86t5.34-1.37h2.67v-1.267q0-1.411-.877-2.263-.854-.85-2.523-.851-1.46 0-2.461.747-.98.727-.98 1.765h-2.733q0-1.183.834-2.284.855-1.12 2.315-1.764t3.192-.644q2.774 0 4.338 1.37t1.627 3.778v7.328q0 2.18.542 3.488v.228zm-4.526-2.076q1.272 0 2.419-.664 1.168-.664 1.69-1.723v-3.26h-2.149q-5.026 0-5.026 2.928 0 1.288.855 2.013.855.706 2.21.706zm20.413-2.138q0-1.1-.834-1.702-.835-.623-2.92-1.059-2.065-.456-3.296-1.058-1.209-.624-1.794-1.474-.584-.852-.584-2.035 0-1.95 1.669-3.3 1.668-1.35 4.255-1.35 2.712 0 4.4 1.391 1.69 1.391 1.69 3.57h-2.753q0-1.12-.96-1.93-.938-.81-2.377-.81-1.502 0-2.357.665-.834.644-.834 1.681 0 .976.771 1.495.793.498 2.837.955 2.065.435 3.316 1.08 1.273.622 1.877 1.515.627.892.626 2.18 0 2.116-1.71 3.404t-4.443 1.287q-1.918 0-3.4-.664-1.48-.685-2.315-1.89-.834-1.224-.834-2.636h2.732q.084 1.37 1.106 2.18 1.022.789 2.711.789 1.545 0 2.482-.623.939-.623.939-1.66zm10.004-15.548v3.86h2.983v2.098h-2.983v9.86q0 .955.397 1.432.396.478 1.355.478.48 0 1.293-.166v2.2a8 8 0 0 1-2.085.29q-1.836 0-2.774-1.1-.918-1.1-.918-3.134v-9.86h-2.92v-2.097h2.92v-3.861zm12.8 20.053q-3.255 0-5.298-2.118-2.024-2.116-2.023-5.688v-.498q0-2.366.896-4.214.918-1.868 2.545-2.906a6.37 6.37 0 0 1 3.546-1.059q3.106 0 4.839 2.055 1.73 2.035 1.73 5.834v1.12h-10.824q.063 2.367 1.376 3.82 1.315 1.433 3.358 1.433 1.44 0 2.44-.582a5.9 5.9 0 0 0 1.774-1.557l1.668 1.287q-2.002 3.073-6.028 3.073zm-.334-14.261q-1.669-.001-2.795 1.204-1.106 1.203-1.377 3.362h8.01v-.207q-.126-2.076-1.127-3.218-1-1.14-2.711-1.141m17.44.498a10 10 0 0 0-1.335-.083q-2.69 0-3.65 2.262v11.293h-2.732v-15.901h2.67l.042 1.827q1.335-2.118 3.796-2.118.813 0 1.21.208zm19.306 9.258q0-1.1-.834-1.702-.835-.622-2.92-1.059-2.065-.456-3.296-1.058-1.209-.624-1.794-1.474-.584-.852-.584-2.035 0-1.95 1.669-3.3 1.668-1.35 4.255-1.35 2.71 0 4.4 1.391t1.69 3.57h-2.753q0-1.12-.96-1.93-.938-.81-2.377-.81-1.502 0-2.357.665-.834.644-.834 1.681 0 .976.771 1.495.793.498 2.837.955 2.065.435 3.316 1.08 1.273.622 1.877 1.515.627.892.626 2.18 0 2.116-1.71 3.404t-4.443 1.287q-1.918 0-3.4-.664-1.48-.685-2.315-1.89-.834-1.224-.834-2.636h2.732q.084 1.37 1.106 2.18 1.022.789 2.711.789 1.545 0 2.482-.623.939-.623.939-1.66zm16.157 2.636q-1.585 1.869-4.672 1.869-2.565 0-3.9-1.474-1.335-1.475-1.356-4.38v-10.338h2.732v10.276q0 3.612 2.962 3.612 3.129 0 4.171-2.325v-11.563h2.733v15.901h-2.607zm20.343-6.206q0 3.653-1.69 5.874-1.689 2.2-4.525 2.2-3.025 0-4.673-2.137l-.146 1.847h-2.502v-22.585h2.732v8.428q1.647-2.035 4.547-2.035 2.92 0 4.588 2.2 1.67 2.18 1.669 5.98zm-2.732-.291q0-2.781-1.085-4.297t-3.108-1.515q-2.69 0-3.88 2.49v6.893q1.252 2.49 3.922 2.49 1.96 0 3.045-1.515 1.106-1.515 1.106-4.546m15.465 3.861q0-1.1-.834-1.702-.834-.622-2.92-1.059-2.065-.456-3.295-1.058-1.21-.624-1.794-1.474-.584-.852-.584-2.035 0-1.95 1.668-3.3 1.67-1.35 4.255-1.35 2.712 0 4.401 1.391c1.689 1.391 1.69 2.118 1.69 3.57h-2.754q0-1.12-.959-1.93-.939-.81-2.378-.81-1.5 0-2.357.665-.834.644-.834 1.681 0 .976.772 1.495.792.498 2.836.955 2.065.435 3.317 1.08 1.272.622 1.877 1.515.626.892.626 2.18 0 2.116-1.71 3.404t-4.443 1.287q-1.92 0-3.4-.664-1.48-.685-2.315-1.89-.834-1.224-.834-2.636h2.732q.083 1.37 1.105 2.18 1.022.789 2.712.789 1.543 0 2.482-.623.938-.623.938-1.66zm12.925 4.505q-3.254 0-5.298-2.118-2.023-2.117-2.023-5.688v-.498q0-2.366.897-4.214.917-1.868 2.544-2.906a6.37 6.37 0 0 1 3.546-1.059q3.108 0 4.839 2.055 1.73 2.035 1.73 5.834v1.12h-10.824q.062 2.367 1.377 3.82 1.314 1.433 3.358 1.433 1.438 0 2.44-.582a5.9 5.9 0 0 0 1.773-1.557l1.668 1.287q-2.002 3.073-6.027 3.073m-.334-14.261q-1.669-.001-2.795 1.204-1.106 1.203-1.377 3.362h8.01v-.207q-.126-2.076-1.127-3.218-1-1.14-2.711-1.141m9.056 5.895q0-3.757 1.731-5.937t4.63-2.18q2.837 0 4.485 1.89l.125-1.6h2.503V406h-2.733v-7.598q-1.647 1.765-4.4 1.765-2.9 0-4.63-2.242-1.711-2.242-1.711-5.937zm2.732.29q0 2.74 1.147 4.298 1.168 1.557 3.15 1.557 2.42 0 3.712-2.139v-7.784q-1.293-2.118-3.691-2.117-1.981 0-3.15 1.577-1.168 1.557-1.168 4.609zm24.99 6.207q-1.585 1.869-4.672 1.869-2.565 0-3.9-1.474-1.335-1.475-1.356-4.38v-10.338h2.732v10.276q0 3.612 2.962 3.612 3.128 0 4.171-2.325v-11.563h2.732v15.901h-2.607zm13.439 1.869q-3.254 0-5.298-2.118-2.023-2.117-2.023-5.688v-.498q0-2.366.897-4.214.918-1.868 2.544-2.906a6.37 6.37 0 0 1 3.546-1.059q3.108 0 4.839 2.055 1.731 2.035 1.731 5.834v1.12h-10.825q.062 2.367 1.377 3.82 1.314 1.433 3.358 1.433 1.44 0 2.44-.582a5.9 5.9 0 0 0 1.773-1.557l1.669 1.287q-2.003 3.073-6.028 3.073m-.334-14.261q-1.668-.001-2.795 1.204-1.106 1.203-1.376 3.362h8.009v-.207q-.126-2.076-1.127-3.218-1-1.14-2.71-1.141zm12.31-1.931.083 1.993q1.836-2.284 4.797-2.284 5.07 0 5.11 5.688v10.504H355.4v-10.525q-.021-1.722-.792-2.532-.772-.83-2.42-.83-1.335 0-2.336.705a4.8 4.8 0 0 0-1.564 1.848v11.334h-2.733v-15.901zm17.813-3.861v3.86h2.982v2.098h-2.982v9.86q0 .955.396 1.432.396.478 1.356.478.48 0 1.293-.166v2.2q-1.064.29-2.086.29-1.835 0-2.774-1.1-.918-1.1-.917-3.134v-9.86h-2.92v-2.097h2.92v-3.861zM96.503 427.876q0 3.651-1.67 5.883-1.668 2.232-4.507 2.232-2.922 0-4.592-1.836v7.699H83v-22.136h2.504l.126 1.773q1.67-2.065 4.633-2.065 2.901 0 4.57 2.17t1.67 6.03zm-2.734-.293q0-2.712-1.148-4.277t-3.151-1.564q-2.484 0-3.736 2.19v7.636q1.231 2.19 3.757 2.191 1.962 0 3.11-1.544 1.168-1.565 1.168-4.632m16.081 8.116q-.23-.48-.375-1.69-1.92 1.983-4.55 1.982-2.379 0-3.903-1.335-1.503-1.335-1.503-3.38 0-2.503 1.9-3.88t5.342-1.377h2.672v-1.273q0-1.419-.877-2.274-.855-.855-2.525-.855-1.461 0-2.463.75-.98.731-.98 1.774h-2.735q0-1.19.835-2.295.855-1.126 2.317-1.773 1.46-.647 3.193-.647 2.776 0 4.341 1.377t1.628 3.797v7.365q0 2.19.543 3.505v.23zm-4.529-2.086a4.74 4.74 0 0 0 2.421-.668q1.17-.668 1.69-1.731v-3.276h-2.149q-5.03 0-5.03 2.942 0 1.293.856 2.024.855.709 2.212.709m10.472-6.03q0-3.755 1.732-5.946 1.732-2.211 4.57-2.211 2.923 0 4.571 2.065l.126-1.773h2.504v15.606q0 3.088-1.837 4.882T122.513 442a8.1 8.1 0 0 1-3.381-.751q-1.65-.73-2.525-2.024l1.419-1.627q1.753 2.17 4.3 2.17 1.981 0 3.088-1.127 1.127-1.126 1.127-3.171v-1.356q-1.628 1.877-4.466 1.877-2.818 0-4.55-2.253t-1.732-6.155m2.755.293q0 2.712 1.106 4.256t3.089 1.544q2.587 0 3.798-2.358v-7.281q-1.252-2.295-3.757-2.295-2.003 0-3.13 1.564-1.107 1.545-1.106 4.57m21.507 8.115q-3.256 0-5.301-2.128-2.025-2.127-2.025-5.716v-.501q0-2.378.898-4.235.917-1.878 2.546-2.921a6.36 6.36 0 0 1 3.548-1.064q3.11 0 4.842 2.065 1.732 2.045 1.732 5.863v1.127h-10.832q.063 2.378 1.378 3.838 1.316 1.44 3.36 1.44 1.44 0 2.442-.584a5.9 5.9 0 0 0 1.774-1.565l1.67 1.294q-2.004 3.087-6.032 3.087m-.334-14.333q-1.67 0-2.797 1.21-1.106 1.21-1.377 3.38h8.014v-.208q-.125-2.087-1.127-3.234-1.002-1.148-2.713-1.148m15.428 6.03h-7.222v-2.233h7.222zm5.614 8.011h-2.734V413h2.734zm3.65-8.136q0-2.358.919-4.236.939-1.877 2.588-2.879 1.648-1.022 3.756-1.022 3.277 0 5.28 2.253 2.025 2.253 2.025 6.009v.188q0 2.336-.897 4.193-.898 1.857-2.567 2.9-1.65 1.022-3.82 1.022-3.235 0-5.26-2.253t-2.024-5.988zm2.755.313q0 2.67 1.232 4.277 1.23 1.605 3.297 1.606 2.088 0 3.319-1.627t1.231-4.57q0-2.628-1.252-4.256-1.252-1.648-3.319-1.648-2.025 0-3.276 1.628-1.232 1.605-1.232 4.59m25.107 7.823q-.23-.48-.376-1.69-1.92 1.982-4.55 1.982-2.379 0-3.903-1.335-1.502-1.335-1.502-3.38 0-2.503 1.899-3.88t5.343-1.377h2.671v-1.273q0-1.419-.876-2.274-.855-.855-2.526-.855-1.46 0-2.462.75-.981.731-.981 1.774h-2.734q0-1.19.835-2.295.855-1.126 2.316-1.773 1.461-.648 3.193-.647 2.776 0 4.342 1.377t1.627 3.797v7.365q0 2.19.543 3.505v.23h-2.86zm-4.53-2.086q1.275 0 2.422-.668 1.169-.668 1.69-1.731v-3.276h-2.15q-5.03 0-5.03 2.942 0 1.293.857 2.024.855.709 2.212.709zm10.451-6.03q0-3.691 1.733-5.925 1.753-2.232 4.591-2.232 2.797 0 4.446 1.92V413h2.734v22.7h-2.526l-.125-1.712q-1.65 2.003-4.57 2.003-2.776 0-4.53-2.274-1.752-2.273-1.753-5.925zm2.734.293q0 2.733 1.127 4.277 1.127 1.523 3.11 1.523 2.588 0 3.799-2.337v-7.344q-1.231-2.253-3.778-2.253-2.004 0-3.13 1.564-1.128 1.545-1.128 4.57m24.31 3.588q0-1.106-.835-1.71-.835-.627-2.922-1.065-2.067-.459-3.298-1.064-1.21-.625-1.795-1.481-.584-.855-.584-2.045 0-1.96 1.67-3.317 1.67-1.356 4.257-1.356 2.714 0 4.404 1.398t1.69 3.588h-2.754q0-1.126-.96-1.94-.94-.814-2.38-.814-1.502 0-2.358.668-.835.646-.835 1.69 0 .98.772 1.502.793.501 2.839.96 2.065.438 3.318 1.085 1.273.626 1.879 1.523.626.897.626 2.19 0 2.129-1.712 3.422-1.71 1.293-4.445 1.293-1.92 0-3.402-.667-1.482-.69-2.317-1.899-.834-1.23-.835-2.65h2.734q.084 1.378 1.107 2.191 1.022.793 2.713.793 1.544 0 2.483-.626t.94-1.669m6.358 2.796q0-.71.417-1.169.418-.48 1.253-.48.856 0 1.294.48.438.46.438 1.169 0 .688-.438 1.147-.439.46-1.294.46-.835 0-1.253-.46-.417-.459-.417-1.147" mask="url(#b)"/><path d="M558 323h391v200H558z" mask="url(#b)"/><path fill="#666" fill-rule="nonzero" d="M575.835 355.385v8.326H573v-21.248h7.92q3.524 0 5.524 1.793 2.001 1.772 2.001 4.7 0 3.09-1.959 4.76c-1.959 1.67-3.175 1.67-5.607 1.67h-5.044zm0-2.287h5.086q2.272 0 3.48-1.051 1.21-1.052 1.21-3.05 0-1.897-1.21-3.03-1.208-1.155-3.314-1.195h-5.252zm23.506-2.762a10 10 0 0 0-1.334-.082q-2.688 0-3.647 2.246v11.211h-2.73v-15.786h2.667l.042 1.813q1.335-2.102 3.793-2.102.813 0 1.21.206v2.494zM608.204 364q-3.252 0-5.294-2.102-2.022-2.103-2.022-5.647v-.495q0-2.349.896-4.183.918-1.856 2.543-2.886a6.4 6.4 0 0 1 3.544-1.05q3.105 0 4.835 2.04 1.73 2.019 1.73 5.79v1.114h-10.818q.063 2.349 1.376 3.792 1.313 1.422 3.356 1.422 1.439 0 2.439-.577a5.9 5.9 0 0 0 1.771-1.546l1.668 1.278q-2.001 3.05-6.024 3.05m-.333-14.159q-1.668 0-2.794 1.196-1.105 1.196-1.375 3.338h8.004v-.206q-.126-2.06-1.126-3.194t-2.71-1.134zm11.072 13.87v-13.705H616.4v-2.081h2.543v-1.628q0-2.535 1.354-3.916 1.377-1.38 3.898-1.381.938 0 1.876.247l-.167 2.185a7 7 0 0 0-1.459-.144q-1.334 0-2.063.783-.71.762-.709 2.184v1.67h3.398v2.081h-3.398v13.705zm15.411.289q-3.25 0-5.294-2.102-2.022-2.103-2.022-5.647v-.495q0-2.349.896-4.183.918-1.856 2.543-2.886a6.4 6.4 0 0 1 3.544-1.05q3.105 0 4.836 2.04 1.73 2.019 1.73 5.79v1.114h-10.818q.062 2.349 1.375 3.792 1.313 1.422 3.356 1.422 1.44 0 2.439-.577a5.9 5.9 0 0 0 1.772-1.546l1.667 1.278q-2.001 3.05-6.024 3.05m-.333-14.159q-1.668 0-2.793 1.196-1.105 1.196-1.376 3.338h8.004v-.206q-.125-2.06-1.125-3.194t-2.71-1.134m13.427-5.75v3.834h2.98v2.081h-2.98v9.79q0 .948.396 1.422t1.355.474q.48 0 1.292-.165v2.184a8 8 0 0 1-2.084.289q-1.835 0-2.772-1.092-.918-1.093-.917-3.112v-9.79H641.8v-2.081h2.918v-3.834zm12.562 17.704q1.459 0 2.543-.866 1.104-.886 1.23-2.184h2.584q-.083 1.339-.958 2.576-.855 1.215-2.314 1.958a6.9 6.9 0 0 1-3.085.721q-3.252 0-5.19-2.143-1.918-2.165-1.918-5.895v-.453q0-2.308.855-4.101t2.46-2.783q1.605-.989 3.793-.989 2.69 0 4.46 1.587 1.773 1.587 1.897 4.122h-2.584q-.126-1.526-1.188-2.514-1.043-.99-2.585-.99-2.084 0-3.23 1.484-1.147 1.484-1.147 4.287v.515q0 2.72 1.125 4.205 1.148 1.463 3.252 1.463m12.152-11.954q1.813-2.205 4.731-2.205 5.066 0 5.107 5.647v10.428h-2.73v-10.448q-.02-1.71-.793-2.515-.771-.825-2.418-.824-1.333 0-2.334.7a4.8 4.8 0 0 0-1.563 1.835v11.252h-2.73V341.29h2.73v8.552z" mask="url(#b)"/><path fill="#3cc0ac" fill-rule="nonzero" d="M697.544 363.814h-4.294v-16.062h4.294zM693 343.6q0-.964.646-1.593.645-.63 1.75-.63 1.085 0 1.73.63.668.628.668 1.593c0 .965-.223 1.174-.667 1.594q-.646.63-1.73.629-1.084 0-1.75-.63-.648-.628-.647-1.593m11.973 4.152.125 1.845q1.71-2.139 4.585-2.139 2.543 0 3.773 1.51 1.25 1.49 1.292 4.467v10.38h-4.273v-10.276q0-1.362-.604-1.97-.584-.63-1.938-.63-1.815 0-2.71 1.552v11.323h-4.273v-16.062zm21.282 8.534h-8.295v-3.46h8.295zm9.403 2.286 2.98-10.82h4.44l-5.377 16.062h-4.065l-5.398-16.062h4.46zm13.814 5.242h-4.293v-16.062h4.293zm-4.544-20.214q0-.964.647-1.593.645-.63 1.75-.63 1.085 0 1.73.63.667.628.667 1.593c0 .965-.222 1.174-.667 1.594q-.645.63-1.73.629-1.084 0-1.75-.63-.647-.628-.647-1.593m15.392 20.508q-3.502 0-5.711-2.16-2.21-2.181-2.21-5.787v-.399q0-2.432.917-4.34.939-1.909 2.647-2.936 1.71-1.028 3.898-1.028 3.272 0 5.148 2.076t1.876 5.893v1.761h-10.171q.209 1.572 1.25 2.516 1.042.944 2.647.944 2.46 0 3.835-1.782l2.105 2.348q-.958 1.363-2.605 2.139-1.626.755-3.626.755m-.48-13.19q-1.27 0-2.063.881-.792.859-1 2.453h5.919v-.335q-.02-1.426-.772-2.202-.729-.797-2.084-.797m23.36 7.067 2.084-10.233h4.127l-4.085 16.062h-3.565l-3.022-10.107-3.022 10.107h-3.564l-4.064-16.062h4.106l2.084 10.212 2.918-10.212h3.085zm22.688-2.055q0 3.712-1.689 5.955-1.667 2.223-4.502 2.223-2.417 0-3.918-1.699V370h-4.252v-22.248h3.94l.145 1.573q1.563-1.867 4.044-1.867 2.96 0 4.585 2.202 1.647 2.18 1.647 6.04zm-4.252-.315q0-2.243-.792-3.46-.792-1.216-2.293-1.216-2.022 0-2.772 1.552v6.563q.792 1.594 2.793 1.594 3.064 0 3.064-5.033m6.239.021q0-2.39.917-4.256.916-1.888 2.626-2.894 1.71-1.028 4.002-1.028 3.23 0 5.273 1.992 2.042 1.993 2.271 5.39l.021 1.11q0 3.692-2.042 5.935-2.043 2.223-5.503 2.223t-5.523-2.223q-2.043-2.223-2.042-6.06zm4.251.315q0 2.285.855 3.502.855 1.195 2.46 1.195 1.542 0 2.417-1.195t.875-3.817q0-2.243-.875-3.48t-2.438-1.238q-1.585 0-2.439 1.237-.855 1.216-.855 3.796m22.466-4.173a11 11 0 0 0-1.542-.126q-2.418 0-3.168 1.657v10.505h-4.252v-16.062h4.022l.125 1.908q1.272-2.202 3.544-2.202.708 0 1.333.19zm7.905-7.968v3.942h2.73v3.145h-2.73v8.01q0 .903.334 1.3.333.378 1.292.378.71 0 1.25-.105v3.25a8.9 8.9 0 0 1-2.584.378q-4.481 0-4.564-4.55v-8.66h-2.335v-3.146h2.335v-3.942zm17.133 20.004h-4.293V341h4.293zm8.013 0h-4.293v-16.062h4.293zM863.1 343.6q0-.964.646-1.593.645-.63 1.75-.63 1.085 0 1.73.63.667.628.667 1.593c0 .965-.222 1.174-.667 1.594q-.645.63-1.73.629-1.084 0-1.75-.63-.646-.628-.646-1.593m11.972 4.152.126 1.845q1.708-2.139 4.585-2.139 2.543 0 3.772 1.51 1.251 1.49 1.293 4.467v10.38h-4.273v-10.276q0-1.362-.605-1.97-.583-.63-1.938-.63-1.813 0-2.71 1.552v11.323h-4.272v-16.062zm18.802 9.625-1.542 1.53v4.907h-4.252V341h4.252v12.644l.833-1.07 4.086-4.822h5.127l-5.774 6.69 6.274 9.372h-4.898zm18.978 1.992q0-.776-.77-1.216-.772-.462-2.481-.818-5.69-1.217-5.69-4.886 0-2.139 1.75-3.565 1.772-1.425 4.628-1.426 3.022 0 4.835 1.447 1.834 1.425 1.834 3.733h-4.252q0-.923-.604-1.51-.583-.608-1.834-.608-1.084 0-1.667.482-.585.483-.584 1.237 0 .714.667 1.154.668.44 2.25.775 1.605.315 2.69.713 3.375 1.237 3.376 4.32 0 2.202-1.876 3.565-1.854 1.341-4.835 1.342-2.001 0-3.564-.713-1.543-.735-2.439-1.971-.875-1.259-.875-2.726h4.043q.042 1.153.834 1.761.792.609 2.105.608 1.209 0 1.834-.461.625-.483.625-1.237" mask="url(#b)"/><path fill="#666" fill-rule="nonzero" d="M572 391.727q0-3.655 1.73-5.866 1.75-2.21 4.583-2.21 2.792 0 4.438 1.9v-8.262h2.73v22.473h-2.521l-.125-1.694q-1.647 1.983-4.563 1.983-2.772 0-4.522-2.251t-1.75-5.866zm2.73.29q0 2.705 1.125 4.234 1.125 1.508 3.104 1.508 2.584 0 3.792-2.314v-7.27q-1.23-2.231-3.771-2.231-2 0-3.125 1.549-1.125 1.529-1.126 4.523zm24.83 6.175q-1.583 1.86-4.667 1.86-2.562 0-3.896-1.467-1.334-1.466-1.354-4.359V383.94h2.729v10.225q0 3.594 2.959 3.594 3.125 0 4.167-2.314V383.94h2.73v15.822h-2.605zm14.509-11.835a10 10 0 0 0-1.333-.083q-2.688 0-3.647 2.252v11.236h-2.73V383.94h2.668l.041 1.818q1.334-2.107 3.793-2.107.812 0 1.208.207zm5.473 13.405h-2.73V383.94h2.73zm-2.938-20.015q0-.66.396-1.115.416-.455 1.208-.455.791 0 1.209.455.416.455.416 1.115t-.416 1.095-1.209.434c-.792-.001-.93-.145-1.208-.434q-.396-.434-.396-1.095m9.894 4.193.083 1.983q1.834-2.272 4.793-2.272 5.063 0 5.104 5.66v10.451h-2.73V389.29q-.02-1.714-.79-2.52-.772-.825-2.418-.826-1.334 0-2.333.702a4.8 4.8 0 0 0-1.563 1.838v11.278h-2.73V383.94zm13.44 7.787q0-3.717 1.73-5.887 1.728-2.19 4.562-2.189 2.918 0 4.563 2.045l.125-1.756h2.5v15.45q0 3.058-1.833 4.834T646.647 406a8.1 8.1 0 0 1-3.375-.744q-1.647-.723-2.521-2.003l1.417-1.611q1.75 2.148 4.292 2.148 1.98 0 3.083-1.115 1.125-1.116 1.125-3.14v-1.343q-1.625 1.86-4.458 1.86-2.814 0-4.543-2.231-1.729-2.232-1.729-6.094m2.75.29q0 2.685 1.105 4.213t3.083 1.529q2.584 0 3.792-2.334v-7.21q-1.25-2.271-3.75-2.271-2 0-3.125 1.549-1.105 1.529-1.105 4.523zm25.284 7.745h-2.73V383.94h2.73zm-2.938-20.015q0-.66.396-1.115.417-.455 1.208-.455t1.209.455q.416.455.416 1.115t-.416 1.095-1.209.434c-.792-.001-.93-.145-1.208-.434q-.396-.434-.396-1.095m6.644 11.98q0-3.655 1.73-5.866 1.75-2.21 4.583-2.21 2.791 0 4.438 1.9v-8.262h2.73v22.473h-2.522l-.125-1.694q-1.645 1.983-4.563 1.983-2.77 0-4.52-2.251-1.751-2.251-1.751-5.866zm2.73.29q0 2.705 1.124 4.234 1.125 1.508 3.105 1.508 2.583 0 3.792-2.314v-7.27q-1.23-2.231-3.771-2.231-2 0-3.126 1.549-1.125 1.529-1.125 4.523zm17.934 7.745h-2.73V377.29h2.73v22.473zm10.998.29q-3.25 0-5.292-2.108-2.02-2.106-2.021-5.66v-.495q0-2.354.896-4.193.916-1.86 2.542-2.892a6.4 6.4 0 0 1 3.542-1.053q3.104 0 4.834 2.045 1.73 2.025 1.73 5.804v1.115h-10.815q.063 2.355 1.376 3.801 1.313 1.425 3.354 1.425 1.438 0 2.438-.578a5.9 5.9 0 0 0 1.771-1.55l1.667 1.281q-2 3.057-6.022 3.057zm-.333-14.19q-1.667 0-2.792 1.197-1.105 1.198-1.375 3.346h8v-.206q-.125-2.065-1.124-3.202-1-1.136-2.71-1.136zm20.901-5.764v3.842h2.98v2.086h-2.98v9.812q0 .95.396 1.425t1.354.475q.48 0 1.292-.165v2.19a8 8 0 0 1-2.083.288q-1.834 0-2.772-1.094-.916-1.095-.916-3.12v-9.81h-2.917v-2.087h2.917v-3.842h2.73zm9.12 19.664h-2.73V383.94h2.73zm-2.939-20.015q0-.66.396-1.115.416-.455 1.209-.455.79 0 1.208.455t.417 1.115-.417 1.095-1.208.434-1.209-.434q-.396-.434-.396-1.095m9.874 4.193.083 1.756q1.75-2.045 4.73-2.045 3.354 0 4.563 2.54a6 6 0 0 1 2.063-1.838q1.291-.702 3.02-.702 5.252 0 5.335 5.515v10.596h-2.73v-10.451q0-1.695-.792-2.52-.77-.847-2.604-.847-1.52 0-2.521.909-1 .888-1.167 2.416v10.493h-2.75v-10.369q0-3.45-3.396-3.45-2.689 0-3.688 2.273v11.546h-2.73V383.94zm30.542 16.111q-3.25 0-5.292-2.107-2.02-2.105-2.021-5.66v-.495q0-2.355.896-4.193.916-1.86 2.542-2.892a6.4 6.4 0 0 1 3.542-1.053q3.104 0 4.834 2.045 1.73 2.024 1.73 5.804v1.115H765.92q.063 2.355 1.376 3.801 1.313 1.425 3.354 1.425 1.438 0 2.438-.578a5.9 5.9 0 0 0 1.771-1.55l1.667 1.281q-2 3.057-6.022 3.057zm-.333-14.19q-1.667 0-2.792 1.198-1.105 1.198-1.375 3.346h8v-.206q-.125-2.065-1.124-3.202-1-1.136-2.71-1.136zm20.151 13.901h-2.73V383.94h2.73zm-2.938-20.015q0-.66.396-1.115.416-.455 1.209-.455.79 0 1.208.455t.417 1.115-.417 1.095-1.208.434-1.209-.434q-.396-.434-.396-1.095m8.665 20.015v-13.736h-2.542v-2.086h2.542v-1.632q0-2.54 1.355-3.924 1.374-1.384 3.896-1.384.937 0 1.875.248l-.167 2.19a7 7 0 0 0-1.458-.145q-1.334 0-2.063.785-.708.764-.708 2.19v1.672h3.396v2.086h-3.396v13.736zm19.197-15.822.084 1.983q1.834-2.272 4.792-2.272 5.063 0 5.105 5.66v10.451h-2.73V389.29q-.021-1.714-.792-2.52-.771-.825-2.417-.826-1.333 0-2.333.702a4.8 4.8 0 0 0-1.563 1.838v11.278h-2.73V383.94zm13.357 7.767q0-2.334.917-4.193.938-1.86 2.583-2.85 1.647-1.013 3.75-1.013 3.273 0 5.272 2.23 2.022 2.231 2.021 5.95v.185q0 2.314-.896 4.152t-2.562 2.871q-1.647 1.012-3.813 1.012-3.23 0-5.25-2.23-2.022-2.232-2.022-5.929zm2.75.31q0 2.643 1.23 4.234 1.23 1.59 3.292 1.59 2.083 0 3.313-1.61 1.23-1.612 1.229-4.524 0-2.603-1.25-4.214-1.25-1.632-3.313-1.632-2.022 0-3.271 1.611-1.23 1.59-1.23 4.544zm18.918-11.919v3.842h2.98v2.086h-2.98v9.812q0 .95.396 1.425t1.354.475q.48 0 1.292-.165v2.19a8 8 0 0 1-2.083.288q-1.835 0-2.772-1.094-.916-1.095-.916-3.12v-9.81h-2.917v-2.087h2.917v-3.842h2.73zm12.91 11.609q0-2.334.917-4.193.937-1.86 2.584-2.85 1.645-1.013 3.75-1.013 3.27 0 5.271 2.23 2.022 2.231 2.022 5.95v.185q-.001 2.314-.896 4.152-.897 1.839-2.563 2.871-1.647 1.012-3.813 1.012-3.23 0-5.25-2.23-2.022-2.232-2.022-5.929zm2.75.31q0 2.643 1.23 4.234 1.23 1.59 3.292 1.59 2.083 0 3.313-1.61 1.23-1.612 1.229-4.524 0-2.603-1.25-4.214-1.25-1.632-3.313-1.632-2.021 0-3.271 1.611-1.23 1.59-1.23 4.544zm17.793-8.077.084 1.983q1.834-2.272 4.792-2.272 5.063 0 5.104 5.66v10.451h-2.729V389.29q-.021-1.714-.792-2.52-.771-.825-2.417-.826-1.334 0-2.333.702a4.8 4.8 0 0 0-1.563 1.838v11.278h-2.73V383.94zm31.42 15.822q-.228-.475-.375-1.673-1.916 1.962-4.542 1.962-2.375 0-3.896-1.322-1.5-1.32-1.5-3.346 0-2.478 1.896-3.842t5.334-1.363h2.667v-1.26q0-1.404-.875-2.251-.855-.847-2.521-.847-1.459 0-2.459.743-.98.724-.98 1.756h-2.729q0-1.177.834-2.272.855-1.116 2.312-1.756 1.459-.64 3.188-.64 2.772 0 4.334 1.363 1.563 1.364 1.625 3.76v7.29q0 2.17.542 3.47v.228zm-4.52-2.065q1.27 0 2.416-.661 1.166-.661 1.688-1.715v-3.243h-2.146q-5.022 0-5.022 2.913 0 1.28.855 2.003.854.702 2.208.703zm-328.66 33.774q0-1.106-.834-1.711-.834-.627-2.918-1.065-2.064-.459-3.294-1.064-1.21-.627-1.793-1.482-.585-.855-.584-2.046 0-1.961 1.668-3.318t4.253-1.357q2.71 0 4.399 1.399 1.688 1.398 1.688 3.59h-2.752q0-1.128-.959-1.942-.937-.813-2.376-.813-1.5 0-2.356.667-.834.647-.834 1.691 0 .981.771 1.503.793.501 2.836.96 2.063.438 3.314 1.085 1.272.625 1.877 1.524.625.897.625 2.191 0 2.13-1.71 3.423t-4.44 1.294q-1.918 0-3.398-.668-1.48-.688-2.314-1.9-.834-1.23-.834-2.65h2.731q.084 1.378 1.105 2.192 1.021.793 2.71.793 1.543 0 2.481-.626.938-.627.938-1.67m9.25 4.237h-2.732V413h2.731zm3.645-8.14q0-2.359.917-4.237.939-1.878 2.586-2.88 1.646-1.023 3.752-1.023 3.273 0 5.275 2.254 2.022 2.255 2.022 6.011v.188q0 2.338-.897 4.195-.896 1.858-2.564 2.901-1.647 1.023-3.815 1.023-3.23 0-5.254-2.254-2.022-2.255-2.022-5.99zm2.752.313q0 2.671 1.23 4.279 1.23 1.607 3.294 1.607 2.085 0 3.315-1.628 1.23-1.629 1.23-4.57 0-2.63-1.251-4.259-1.251-1.648-3.315-1.648-2.023 0-3.273 1.627-1.23 1.607-1.23 4.592m29.352 4.05 3.086-12.21h2.73l-4.648 15.987h-2.23l-3.878-12.126-3.774 12.126h-2.21l-4.649-15.987h2.731l3.148 11.959 3.711-11.96h2.19zm18.65-12.21.084 2.003q1.834-2.296 4.795-2.296 5.066 0 5.107 5.719v10.56h-2.73v-10.58q-.022-1.733-.793-2.547-.771-.835-2.418-.835-1.335 0-2.335.71a4.85 4.85 0 0 0-1.564 1.857v11.396h-2.73V419.72zM666.338 436q-3.252 0-5.295-2.129-2.023-2.129-2.023-5.719v-.5q0-2.38.897-4.237.918-1.88 2.543-2.922a6.34 6.34 0 0 1 3.544-1.065q3.106 0 4.837 2.067 1.73 2.045 1.73 5.864v1.127h-10.82q.063 2.38 1.376 3.84 1.314 1.44 3.357 1.44 1.439 0 2.439-.584a5.9 5.9 0 0 0 1.772-1.565l1.668 1.294q-2.001 3.09-6.025 3.089m-.334-14.338q-1.668 0-2.793 1.21-1.106 1.21-1.376 3.381h8.005v-.209q-.124-2.086-1.126-3.235-1-1.147-2.71-1.147m13.43-5.824v3.883h2.981v2.107h-2.98v9.914q0 .96.395 1.44.396.48 1.355.48.48 0 1.293-.167v2.213a8 8 0 0 1-2.085.292q-1.834 0-2.773-1.106-.917-1.106-.917-3.152v-9.914h-2.919v-2.107h2.919v-3.883zm20.298 16.092 3.086-12.21h2.73l-4.648 15.988h-2.23l-3.878-12.126-3.774 12.126h-2.21l-4.649-15.987h2.731l3.148 11.959 3.711-11.96h2.19zm7.852-4.362q0-2.358.917-4.237.939-1.878 2.586-2.88 1.646-1.023 3.752-1.023 3.273 0 5.275 2.254 2.022 2.255 2.022 6.011v.188q0 2.338-.897 4.195-.896 1.859-2.564 2.901Q717.028 436 714.86 436q-3.23 0-5.254-2.254-2.022-2.255-2.022-5.99zm2.752.313q0 2.671 1.23 4.279 1.23 1.607 3.294 1.607 2.085 0 3.315-1.628 1.23-1.629 1.23-4.57 0-2.63-1.251-4.259-1.251-1.648-3.315-1.648-2.022 0-3.273 1.627-1.23 1.608-1.23 4.592m22.931-5.719a10 10 0 0 0-1.334-.083q-2.69 0-3.648 2.275v11.354h-2.731V419.72h2.668l.042 1.836q1.334-2.13 3.794-2.129.813 0 1.21.209zm6.977 6.137-1.71 1.794v5.615h-2.73V413h2.73v13.733l1.46-1.753 4.982-5.26h3.315l-6.212 6.68 6.921 9.308h-3.19z" mask="url(#b)"/><path fill="#4285f4" d="M491 145h172.03L687 169l-23.97 24H491z" mask="url(#b)"/><path d="M495 145h218v40H495z" mask="url(#b)"/><path fill="#fff" fill-rule="nonzero" d="m515.03 178-7.03-5.872 7.03-5.831 1.628 1.627-5.174 4.183 5.174 4.245zm11.746-.247-.063-1.38a8 8 0 0 1-.709.659q-.354.288-.793.515a5 5 0 0 1-.96.33 4.7 4.7 0 0 1-1.126.123q-.813 0-1.44-.247a3.1 3.1 0 0 1-1.022-.66 2.8 2.8 0 0 1-.626-1.03 4 4 0 0 1-.208-1.318q0-.742.313-1.36.312-.639.96-1.092.667-.454 1.627-.701.98-.268 2.294-.268h1.398v-.618a1.9 1.9 0 0 0-.125-.721 1.17 1.17 0 0 0-.375-.556 1.7 1.7 0 0 0-.668-.35 3.3 3.3 0 0 0-.98-.124q-.939 0-1.857.206a9 9 0 0 0-1.774.597v-2.019a10.7 10.7 0 0 1 1.753-.474 10.3 10.3 0 0 1 2.086-.206q1.168 0 2.003.227.855.206 1.398.66.563.431.813 1.112.271.66.271 1.545v7.15zm-.355-4.636h-1.564q-.648 0-1.106.123-.438.125-.73.35a1.25 1.25 0 0 0-.397.495 1.5 1.5 0 0 0-.125.598q0 .638.417.989.418.33 1.127.33.543 0 1.106-.372.584-.39 1.272-1.112zm23.533 4.636v-6.82q0-1.731-1.294-1.731-.646 0-1.251.515-.585.514-1.231 1.401v6.635h-2.546v-14.568h2.546v3.586l-.126 1.895q.314-.37.647-.68a3.6 3.6 0 0 1 .71-.515q.396-.206.834-.309.46-.103 1.001-.103.815 0 1.419.268.605.247 1.001.742.418.474.626 1.154.21.659.209 1.504v7.026zm12.246-6.408a4.3 4.3 0 0 0-.063-.99 2 2 0 0 0-.25-.68 1.03 1.03 0 0 0-.417-.39 1.3 1.3 0 0 0-.585-.124q-.563 0-1.168.453-.584.453-1.314 1.504v6.635h-2.608v-10.467h2.316l.083 1.524q.272-.412.584-.72a3.5 3.5 0 0 1 .73-.557 4 4 0 0 1 .898-.35 4.5 4.5 0 0 1 1.084-.124q.793 0 1.42.268.625.267 1.042.803t.626 1.36q.21.804.167 1.855zm14.144.37q0 .247-.02.66 0 .412-.042.783h-6.968q0 .68.208 1.216.23.514.605.886.397.35.94.535.563.186 1.23.186.772 0 1.648-.124a14 14 0 0 0 1.836-.391v1.998q-.417.124-.897.227-.48.083-.98.144a12.4 12.4 0 0 1-2.003.165q-1.21 0-2.17-.35a4.45 4.45 0 0 1-1.627-1.01 4.35 4.35 0 0 1-1.023-1.628q-.354-.988-.354-2.287 0-1.276.354-2.307.355-1.051 1.002-1.793a4.2 4.2 0 0 1 1.565-1.154 5.1 5.1 0 0 1 2.065-.412q1.126 0 1.982.35.875.33 1.46.948t.876 1.484q.313.845.313 1.875zm-2.587-.37q.022-.619-.146-1.072a2 2 0 0 0-.459-.741 1.8 1.8 0 0 0-.667-.454 2.3 2.3 0 0 0-.814-.144q-.96 0-1.585.639-.606.618-.73 1.772zm14.625-6.017a8 8 0 0 0-1.106-.247 8 8 0 0 0-1.273-.103q-.458 0-.855.124-.375.124-.668.391a1.8 1.8 0 0 0-.438.639q-.146.391-.146.968v1.69h4.152v1.957h-4.152v7.006h-2.566v-7.006h-3.087v-1.957h3.087v-1.587q0-1.112.313-1.916.334-.803.939-1.298a3.7 3.7 0 0 1 1.44-.742 6.8 6.8 0 0 1 1.898-.247q.688 0 1.293.082.627.083 1.169.206zm2.17 5.77v-2h8.97v2zm0 4.059v-1.999h8.97v1.999zm16.397-7.356q1.105.041 1.69-.227.584-.267.584-.927 0-.35-.146-.577a2.4 2.4 0 0 0-.334-.412 4 4 0 0 1-.313-.453q-.146-.247-.146-.66 0-.309.104-.577.105-.288.313-.494a1.4 1.4 0 0 1 .501-.35q.292-.124.647-.124.48 0 .834.206.355.185.605.515t.376.783.125.948q0 .844-.313 1.566-.293.72-.897 1.257-.584.515-1.502.824-.897.288-2.128.288zm-5.466 0q1.106.041 1.669-.227.584-.267.584-.927 0-.35-.146-.577a2.4 2.4 0 0 0-.334-.412 4 4 0 0 1-.313-.453q-.146-.247-.146-.66 0-.309.105-.577.124-.288.313-.494.209-.227.5-.35a1.8 1.8 0 0 1 .668-.124q.48 0 .834.206.355.185.605.515t.376.783.125.948q0 .844-.313 1.566-.293.72-.897 1.257-.584.515-1.502.824-.918.288-2.128.288zm16.982 6.14q.438 0 .813.165t.647.432q.272.268.417.64.168.37.167.803 0 .411-.167.783a2.1 2.1 0 0 1-.417.638q-.27.268-.647.433-.375.165-.813.165a1.95 1.95 0 0 1-.793-.165 2.2 2.2 0 0 1-.626-.433 2.5 2.5 0 0 1-.438-.638 2.1 2.1 0 0 1-.146-.783q0-.434.146-.804a2.1 2.1 0 0 1 1.064-1.071q.375-.165.793-.165m11.745 0q.438 0 .814.165t.646.432q.271.268.418.64.167.37.167.803 0 .411-.167.783a2.1 2.1 0 0 1-.418.638q-.27.268-.646.433a2 2 0 0 1-.814.165 1.95 1.95 0 0 1-.793-.165 2.2 2.2 0 0 1-.625-.433 2.5 2.5 0 0 1-.439-.638 2.1 2.1 0 0 1-.146-.783q.001-.434.146-.804a2.12 2.12 0 0 1 1.064-1.071q.375-.165.793-.165m11.746 0q.438 0 .813.165t.647.432q.27.268.417.64.167.37.167.803 0 .411-.167.783a2.1 2.1 0 0 1-.417.638q-.271.268-.647.433-.375.165-.813.165a1.95 1.95 0 0 1-.793-.165 2.2 2.2 0 0 1-.626-.433 2.5 2.5 0 0 1-.438-.638 2.1 2.1 0 0 1-.146-.783q0-.434.146-.804a2.1 2.1 0 0 1 1.064-1.071q.375-.165.793-.165" mask="url(#b)"/><path d="M572 291.5h353" mask="url(#b)"/><path stroke="#ccc" stroke-linejoin="round" stroke-width="2" d="M572 291.5h353" mask="url(#b)"/><path fill="#4285f4" d="M491 218h172.03L687 242l-23.97 24H491z" mask="url(#b)"/><path d="M495 218h218v40H495z" mask="url(#b)"/><path fill="#fff" fill-rule="nonzero" d="m515.03 251-7.03-5.872 7.03-5.831 1.628 1.627-5.174 4.183 5.174 4.245zm11.746-.247-.063-1.38a8 8 0 0 1-.709.659q-.354.288-.793.515a5 5 0 0 1-.96.33 4.7 4.7 0 0 1-1.126.123q-.813 0-1.44-.247a3.1 3.1 0 0 1-1.022-.66 2.8 2.8 0 0 1-.626-1.03 4 4 0 0 1-.208-1.318q0-.742.313-1.36.312-.639.96-1.092.667-.454 1.627-.701.98-.268 2.294-.268h1.398v-.618a1.9 1.9 0 0 0-.125-.721 1.17 1.17 0 0 0-.375-.556 1.7 1.7 0 0 0-.668-.35 3.3 3.3 0 0 0-.98-.124q-.939 0-1.857.206a9 9 0 0 0-1.774.597v-2.019a10.7 10.7 0 0 1 1.753-.474 10.3 10.3 0 0 1 2.086-.206q1.168 0 2.003.227.855.206 1.398.66.563.431.813 1.112.271.66.271 1.545v7.15zm-.355-4.636h-1.564q-.648 0-1.106.123-.438.125-.73.35a1.25 1.25 0 0 0-.397.495 1.5 1.5 0 0 0-.125.598q0 .638.417.989.418.33 1.127.33.543 0 1.106-.372.584-.39 1.272-1.112zm23.533 4.636v-6.82q0-1.731-1.294-1.731-.646 0-1.251.515-.585.514-1.231 1.401v6.635h-2.546v-14.568h2.546v3.586l-.126 1.895q.314-.37.647-.68a3.6 3.6 0 0 1 .71-.515q.396-.206.834-.309.46-.103 1.001-.103.815 0 1.419.268.605.247 1.001.742.418.474.626 1.154.21.659.209 1.504v7.026zm12.246-6.408a4.3 4.3 0 0 0-.063-.99 2 2 0 0 0-.25-.68 1.03 1.03 0 0 0-.417-.39 1.3 1.3 0 0 0-.585-.124q-.563 0-1.168.453-.584.453-1.314 1.504v6.635h-2.608v-10.467h2.316l.083 1.524q.272-.412.584-.72a3.5 3.5 0 0 1 .73-.557 4 4 0 0 1 .898-.35 4.5 4.5 0 0 1 1.084-.124q.793 0 1.42.268.625.267 1.042.803t.626 1.36q.21.804.167 1.855zm14.144.37q0 .247-.02.66 0 .412-.042.783h-6.968q0 .68.208 1.216.23.514.605.886.397.35.94.535.563.186 1.23.186.772 0 1.648-.124a14 14 0 0 0 1.836-.391v1.998q-.417.124-.897.227-.48.083-.98.144a12.4 12.4 0 0 1-2.003.165q-1.21 0-2.17-.35a4.45 4.45 0 0 1-1.627-1.01 4.35 4.35 0 0 1-1.023-1.628q-.354-.988-.354-2.287 0-1.276.354-2.307.355-1.051 1.002-1.793a4.2 4.2 0 0 1 1.565-1.154 5.1 5.1 0 0 1 2.065-.412q1.126 0 1.982.35.875.33 1.46.948t.876 1.484q.313.845.313 1.875zm-2.587-.37q.022-.619-.146-1.072a2 2 0 0 0-.459-.741 1.8 1.8 0 0 0-.667-.454 2.3 2.3 0 0 0-.814-.144q-.96 0-1.585.639-.606.618-.73 1.772zm14.625-6.017a8 8 0 0 0-1.106-.247 8 8 0 0 0-1.273-.103q-.458 0-.855.124-.375.124-.668.391a1.8 1.8 0 0 0-.438.639q-.146.391-.146.968v1.69h4.152v1.957h-4.152v7.006h-2.566v-7.006h-3.087v-1.957h3.087v-1.587q0-1.112.313-1.916.334-.803.939-1.298a3.7 3.7 0 0 1 1.44-.742 6.8 6.8 0 0 1 1.898-.247q.688 0 1.293.082.627.083 1.169.206zm2.17 5.77v-2h8.97v2zm0 4.059v-1.999h8.97v1.999zm16.397-7.356q1.105.041 1.69-.227.584-.267.584-.927 0-.35-.146-.577a2.4 2.4 0 0 0-.334-.412 4 4 0 0 1-.313-.453q-.146-.247-.146-.66 0-.309.104-.577.105-.288.313-.494a1.4 1.4 0 0 1 .501-.35q.292-.124.647-.124.48 0 .834.206.355.185.605.515t.376.783.125.948q0 .844-.313 1.566-.293.72-.897 1.257-.584.515-1.502.824-.897.288-2.128.288zm-5.466 0q1.106.041 1.669-.227.584-.267.584-.927 0-.35-.146-.577a2.4 2.4 0 0 0-.334-.412 4 4 0 0 1-.313-.453q-.146-.247-.146-.66 0-.309.105-.577.124-.288.313-.494.209-.227.5-.35a1.8 1.8 0 0 1 .668-.124q.48 0 .834.206.355.185.605.515t.376.783.125.948q0 .844-.313 1.566-.293.72-.897 1.257-.584.515-1.502.824-.918.288-2.128.288zm16.982 6.14q.438 0 .813.165t.647.432q.272.268.417.64.168.37.167.803 0 .411-.167.783a2.1 2.1 0 0 1-.417.638q-.27.268-.647.433-.375.165-.813.165a1.95 1.95 0 0 1-.793-.165 2.2 2.2 0 0 1-.626-.433 2.5 2.5 0 0 1-.438-.638 2.1 2.1 0 0 1-.146-.783q0-.434.146-.804a2.1 2.1 0 0 1 1.064-1.071q.375-.165.793-.165m11.745 0q.438 0 .814.165t.646.432q.271.268.418.64.167.37.167.803 0 .411-.167.783a2.1 2.1 0 0 1-.418.638q-.27.268-.646.433a2 2 0 0 1-.814.165 1.95 1.95 0 0 1-.793-.165 2.2 2.2 0 0 1-.625-.433 2.5 2.5 0 0 1-.439-.638 2.1 2.1 0 0 1-.146-.783q.001-.434.146-.804a2.12 2.12 0 0 1 1.064-1.071q.375-.165.793-.165m11.746 0q.438 0 .813.165t.647.432q.27.268.417.64.167.37.167.803 0 .411-.167.783a2.1 2.1 0 0 1-.417.638q-.271.268-.647.433-.375.165-.813.165a1.95 1.95 0 0 1-.793-.165 2.2 2.2 0 0 1-.626-.433 2.5 2.5 0 0 1-.438-.638 2.1 2.1 0 0 1-.146-.783q0-.434.146-.804a2.1 2.1 0 0 1 1.064-1.071q.375-.165.793-.165" mask="url(#b)"/><path d="M82 291.5h318" mask="url(#b)"/><path stroke="#ccc" stroke-linejoin="round" stroke-width="2" d="M82 291.5h318" mask="url(#b)"/><path fill="#fff" d="M968 24h95v161h-95z" mask="url(#b)"/><path stroke="#ccc" stroke-linejoin="round" d="M968 24h95v161h-95z" mask="url(#b)"/><path fill="#efefef" d="M968 24h95v18h-95z" mask="url(#b)"/><path fill="#d9d9d9" d="M973 28h12v10h-12zm2 25h34v31h-34zm40 0h38v7h-38zm0 12h28v7h-28zm-39 44h77v7h-77zm0 13h57v7h-57zm0-25h77v7h-77zm0 58h77v7h-77zm0 13h57v7h-57zm0-25h77v7h-77z" mask="url(#b)"/><path fill="#fff" d="M1031 148h95v161h-95z" mask="url(#b)"/><path stroke="#ccc" stroke-linejoin="round" d="M1031 148h95v161h-95z" mask="url(#b)"/><path fill="#efefef" d="M1031 148h95v18h-95z" mask="url(#b)"/><path fill="#d9d9d9" d="M1036 152h12v10h-12zm3 24h34v31h-34zm39 1h38v7h-38zm0 11h28v7h-28zm-39 45h77v7h-77zm0 13h57v7h-57zm0-25h77v7h-77zm0 58h77v7h-77zm0 13h57v7h-57zm0-25h77v7h-77z" mask="url(#b)"/><path d="M757 164c52.5 0 78.75-14.75 105-29.5S914.5 105 967 105" mask="url(#b)"/><path stroke="#3cc0ac" stroke-linejoin="round" stroke-width="4" d="M757 164c52.468 0 78.701-14.774 104.935-29.549 13.117-7.387 26.234-14.774 42.63-20.315 8.198-2.77 17.216-5.079 27.463-6.695q.96-.15 1.936-.294L935 107" mask="url(#b)"/><path fill="#3cc0ac" stroke="#3cc0ac" stroke-width="4" d="M936.172 116 960 105.369 935 98z" mask="url(#b)"/><path d="M835 233c49 0 73.5-1.25 98-2.5s49-2.5 98-2.5" mask="url(#b)"/><path stroke="#3cc0ac" stroke-linejoin="round" stroke-width="4" d="M835 233c48.994 0 73.491-1.304 97.988-2.608 12.249-.652 24.497-1.304 39.808-1.793 7.655-.245 16.076-.449 25.646-.591L999 228" mask="url(#b)"/><path fill="#3cc0ac" stroke="#3cc0ac" stroke-width="4" d="m999.107 238 23.893-9.152L999 220z" mask="url(#b)"/></g></svg>