<svg xmlns="http://www.w3.org/2000/svg" xmlns:xlink="http://www.w3.org/1999/xlink" width="960" height="540"><defs><path id="a" d="M0 0h960v540H0z"/></defs><g fill="none" fill-rule="evenodd"><mask id="b" fill="#fff"><use xlink:href="#a"/></mask><g mask="url(#b)"><path fill="#fff" d="M0 0h960v540H0z"/><path d="M50.061 20.218h351.024v69.07H50.06z"/><path fill="#424242" fill-rule="nonzero" d="M62.999 33.994h12.094q3.265 0 5.953 1.375 2.687 1.375 4.218 3.844 1.547 2.468 1.547 5.64 0 3.157-1.547 5.656-1.53 2.5-4.218 3.875-2.688 1.36-5.953 1.36h-5.61v12.625H63zm12.281 15.61q2.406 0 3.766-1.391 1.374-1.39 1.375-3.36c0-1.97-.459-2.422-1.375-3.328q-1.36-1.375-3.766-1.375h-5.797v9.453zm16.14-5.72h5.89v3.266h.39q.908-1.719 2.829-2.844 1.922-1.14 4.234-1.14 1.672 0 3.063.531v6.281a22 22 0 0 0-2.188-.687 7.8 7.8 0 0 0-1.89-.219q-2.782 0-4.422 2.016Q97.7 53.103 97.7 56.18v12.19h-6.282zm30.524 25.25q-3.656 0-6.578-1.671-2.922-1.687-4.578-4.641c-1.656-2.954-1.656-4.182-1.656-6.64q0-3.516 1.625-6.516c1.625-3 2.583-3.589 4.5-4.766q2.89-1.78 6.437-1.781 3.798 0 6.531 1.64a10.6 10.6 0 0 1 4.157 4.47q1.422 2.827 1.422 6.28 0 1.095-.157 2.11h-18.375q.485 2.922 2.329 4.437t4.437 1.516q2.157 0 3.719-.938a6.9 6.9 0 0 0 2.468-2.515l5.094 2.484q-3.75 6.531-11.375 6.531m5.813-15.984q-.11-1.155-.86-2.281-.735-1.125-2.062-1.86-1.312-.75-3.078-.75-2.265 0-3.875 1.329-1.61 1.312-2.328 3.562zm13.055-3.89h-4.375v-5.376h4.375v-1.343q0-4.173 2.485-6.547 2.5-2.375 6.53-2.375 2.313 0 3.985.531v6.14q-.906-.39-1.61-.577-.687-.188-1.609-.188-1.578 0-2.546.906-.954.907-.954 2.5v.953h6v5.375h-6v19.11h-6.28zm27.212 19.874q-3.656 0-6.578-1.671-2.922-1.687-4.578-4.641c-1.656-2.954-1.656-4.182-1.656-6.64q0-3.516 1.625-6.516c1.625-3 2.583-3.589 4.5-4.766q2.89-1.78 6.437-1.781 3.798 0 6.532 1.64a10.6 10.6 0 0 1 4.156 4.47q1.422 2.827 1.422 6.28 0 1.095-.157 2.11h-18.375q.485 2.922 2.329 4.437c1.844 1.515 2.708 1.516 4.437 1.516q2.156 0 3.719-.938c1.563-.938 1.864-1.463 2.469-2.515l5.093 2.484q-3.75 6.531-11.375 6.531m5.813-15.984q-.11-1.155-.86-2.281-.735-1.125-2.062-1.86-1.312-.75-3.078-.75-2.265 0-3.875 1.329-1.61 1.312-2.328 3.562zm20.83 15.61q-1.827 0-3.374-.547-1.532-.563-2.484-1.532-2.265-2.156-2.266-6.14V49.259h-4.266v-5.375h4.266v-6.906h6.297v6.906h6v5.375h-6V59.4q0 1.86.812 2.688.672.765 2.313.765.906 0 1.5-.234.61-.25 1.562-.828v6.14a11.6 11.6 0 0 1-4.36.828m20.06.374q-3.702 0-6.625-1.656t-4.578-4.625q-1.656-2.985-1.656-6.719 0-3.75 1.656-6.703c1.656-2.953 2.63-3.51 4.578-4.625q2.923-1.687 6.625-1.687 4.079 0 7 1.75 2.938 1.75 4.235 4.969l-5.766 2.406q-1.53-3.266-5.469-3.266-2.874 0-4.734 1.969-1.844 1.969-1.844 5.187 0 3.266 1.844 5.235 1.86 1.953 4.734 1.953 3.985 0 5.766-3.453l5.703 2.5q-1.578 3.218-4.516 5-2.92 1.765-6.953 1.765m15.989-35.14h6.281v8.687l-.39 4.282h.39q1.062-1.735 3.078-2.782a9.2 9.2 0 0 1 4.36-1.062q4.469 0 6.843 2.672 2.376 2.656 2.375 7.36v15.218h-6.281V53.916q0-2.344-1.281-3.64-1.266-1.298-3.375-1.298-2.5 0-4.11 2.016c-1.61 2.016-1.609 2.99-1.609 4.937V68.37h-6.281zm32.443 7.203q-1.688 0-2.89-1.188-1.189-1.203-1.188-2.89 0-1.672 1.187-2.844 1.204-1.187 2.89-1.187 1.673 0 2.844 1.187 1.188 1.172 1.188 2.844 0 1.687-1.188 2.89-1.171 1.188-2.843 1.188m-3.172 2.687h6.297V68.37h-6.297zm12.825 0h5.89v3.079h.391q1.11-1.782 3.125-2.813c2.015-1.03 2.797-1.031 4.36-1.031q4.421 0 6.718 2.687 2.313 2.688 2.313 7.344V68.37h-6.297V53.916q0-2.344-1.203-3.64-1.188-1.298-3.344-1.298-2.547 0-4.11 1.969c-1.562 1.969-1.562 2.958-1.562 4.937V68.37h-6.281zm39.793 35.625q-4.656 0-7.734-2.093t-4.125-5.016l5.906-2.406q.766 1.828 2.344 2.875 1.593 1.062 3.61 1.062 2.967 0 4.718-1.828 1.75-1.812 1.75-5.172v-1.92h-.375q-1.155 1.626-3.031 2.5-1.875.86-4.266.86-3.03 0-5.656-1.563-2.61-1.562-4.188-4.406-1.578-2.86-1.578-6.656c0-3.796.526-4.745 1.578-6.64q1.578-2.86 4.188-4.423a10.87 10.87 0 0 1 5.656-1.562q2.391 0 4.266.875 1.875.859 3.03 2.484h.376v-2.594h6.047v22.797q0 3.938-1.531 6.813-1.532 2.89-4.375 4.453-2.829 1.563-6.61 1.562m.094-16.859q2.64 0 4.5-1.844 1.875-1.843 1.875-5.062 0-3.312-1.844-5.11c-1.844-1.798-2.74-1.796-4.531-1.796s-3.313.609-4.563 1.828q-1.875 1.811-1.875 5.078c0 3.267.625 3.875 1.875 5.094q1.875 1.812 4.563 1.812"/><path fill="#fff" d="M59.056 106.509h342.016V326.98H59.056z"/><path stroke="#bdbdbd" stroke-linejoin="round" d="M59.056 106.509h342.016V326.98H59.056z"/><path fill="#eee" d="M89.468 126.745h160.818v89.48H89.468zm193.846 0h87.339v10.646h-87.339zm0 15.78h87.339v10.646h-87.339zm0 15.781h87.339v10.646h-87.339z"/><path fill="#34a853" d="M298.215 171.218h70.299v10.645h-70.3z"/><path stroke="#34a853" stroke-linejoin="round" stroke-width="12" d="M298.215 171.218h70.299v10.645h-70.3z"/><path fill="#34a853" d="M290.23 201.347h78.268v43.056H290.23z"/><path stroke="#34a853" stroke-linejoin="round" stroke-width="12" d="M290.23 201.347h78.268v43.056H290.23z"/><path fill="#eee" d="M292.373 253.418h78.268v43.055h-78.268zM89.468 228.604h160.818v10.646H89.468zm0 16.703h160.818v10.646H89.468zm0 16.703h160.818v10.646H89.468z"/><path fill="#34a853" d="M89.468 295.415h160.818v10.646H89.468z"/><path stroke="#34a853" stroke-linejoin="round" stroke-width="12" d="M89.468 295.415h160.818v10.646H89.468z"/><path fill="#fdedc5" d="M468.604 106.508h200.63v115.56h-200.63zm230.952 0h200.63v115.56h-200.63zm0 147.657h200.63v115.559h-200.63z"/><path fill="#fff" d="M492.764 185.1h152.315v21.513H492.764z"/><path stroke="#34a853" stroke-linejoin="round" stroke-width="8" d="M492.764 185.1h152.315v21.513H492.764z"/><path fill="#34a853" d="M492.764 185.1h102.205v21.513H492.764z"/><path stroke="#34a853" stroke-linejoin="round" stroke-width="8" d="M492.764 185.1h102.205v21.513H492.764z"/><path fill="#fff" d="M723.716 185.1H876.03v21.513H723.716z"/><path stroke="#34a853" stroke-linejoin="round" stroke-width="8" d="M723.716 185.1H876.03v21.513H723.716z"/><path fill="#34a853" d="M723.716 185.1h87.338v21.513h-87.338z"/><path stroke="#34a853" stroke-linejoin="round" stroke-width="8" d="M723.716 185.1h87.338v21.513h-87.338z"/><path fill="#fff" d="M723.716 324.312H876.03v21.512H723.716z"/><path stroke="#34a853" stroke-linejoin="round" stroke-width="8" d="M723.716 324.312H876.03v21.512H723.716z"/><path fill="#34a853" d="M723.716 324.312h24.85v21.511h-24.85z"/><path stroke="#34a853" stroke-linejoin="round" stroke-width="8" d="M723.716 324.312h24.85v21.511h-24.85z"/><path d="M371.264 184.57c29.52 0 44.28 2.826 59.04 5.653s29.519 5.653 59.039 5.653"/><path stroke="#e94235" stroke-dasharray="16 12" stroke-linejoin="round" stroke-width="4" d="M371.264 184.57c29.52 0 44.28 2.826 59.04 5.653 7.38 1.413 14.759 2.827 23.984 3.887a239 239 0 0 0 9.245.88l1.821.131"/><path fill="#e94235" stroke="#e94235" stroke-width="4" d="m465.146 201.725 18.352-6.033-17.936-7.175z"/><path d="M370.88 240.376c198.253 0 396.505-16.881 396.505-33.763"/><path stroke="#e94235" stroke-dasharray="16 12" stroke-linejoin="round" stroke-width="4" d="M370.88 240.376c99.127 0 198.253-4.22 272.597-10.55 37.173-3.166 68.15-6.859 89.833-10.816q4.067-.741 7.69-1.495 1.81-.376 3.507-.756l1.02-.233"/><path fill="#e94235" stroke="#e94235" stroke-width="4" d="m748.257 222.543 13.802-13.515-19.26 1.48z"/><path d="M253.149 300.815c117.642 0 187.4 14.19 235.284 27.19 47.886 13.001 73.899 24.814 123.854 27.19 49.956 2.376 123.854-4.686 123.854-9.372"/><path stroke="#e94235" stroke-dasharray="16 12" stroke-linejoin="round" stroke-width="4" d="M253.149 300.815c117.642 0 187.4 14.19 235.284 27.19 47.886 13.001 73.899 24.814 123.854 27.19 24.978 1.188 55.941.016 80.66-2.038 6.18-.513 11.97-1.082 17.178-1.683q.975-.112 1.925-.227l.692-.085"/><path fill="#e94235" stroke="#e94235" stroke-width="4" d="m714.212 357.604 16.228-10.48-19.168-2.403z"/><path d="M458.762 44.218h433.764v43.055H458.762z"/><path fill="#424242" fill-rule="nonzero" d="M469.402 35.16h5.047q1.36 0 2.47.563a4.3 4.3 0 0 1 1.765 1.593q.64 1.032.64 2.36 0 1.312-.64 2.36a4.4 4.4 0 0 1-1.766 1.609q-1.11.562-2.469.562h-2.343v5.266h-2.704zm5.125 6.5q1 0 1.563-.578.578-.594.578-1.406 0-.828-.578-1.39-.563-.579-1.563-.579h-2.421v3.953zm6.716-2.39h2.453v1.359h.172q.375-.72 1.172-1.188c.797-.468 1.12-.468 1.766-.468q.702 0 1.28.218v2.625a9 9 0 0 0-.921-.296q-.36-.094-.781-.094-1.157 0-1.844.844-.672.843-.672 2.125v5.078h-2.625zm12.721 10.515q-1.515 0-2.75-.687a5 5 0 0 1-1.906-1.938q-.687-1.235-.687-2.765 0-1.47.671-2.72a5.24 5.24 0 0 1 1.891-1.984 5.03 5.03 0 0 1 2.672-.734q1.593 0 2.719.688a4.4 4.4 0 0 1 1.734 1.859q.594 1.17.594 2.61 0 .452-.063.874h-7.656q.202 1.22.969 1.86.765.625 1.844.625.906 0 1.546-.391.657-.39 1.047-1.047l2.11 1.031q-1.563 2.72-4.735 2.72m2.422-6.656a2.06 2.06 0 0 0-.36-.938 2.3 2.3 0 0 0-.859-.78q-.546-.314-1.28-.313-.938 0-1.61.547-.672.546-.969 1.484zm5.43-1.61h-1.812v-2.25h1.813v-.562q0-1.734 1.031-2.719 1.048-1 2.734-1 .954 0 1.657.219v2.563a5 5 0 0 0-.672-.235 2.5 2.5 0 0 0-.672-.078q-.657 0-1.063.375-.39.375-.39 1.047v.39h2.5v2.25h-2.5v7.954h-2.625zm11.348 8.266q-1.515 0-2.75-.687a5 5 0 0 1-1.906-1.938q-.687-1.235-.687-2.765 0-1.47.671-2.72a5.24 5.24 0 0 1 1.891-1.984 5.03 5.03 0 0 1 2.672-.734q1.593 0 2.719.688a4.4 4.4 0 0 1 1.734 1.859q.594 1.17.594 2.61 0 .452-.063.874h-7.656q.203 1.22.969 1.86.765.625 1.844.625.907 0 1.546-.391.657-.39 1.047-1.047l2.11 1.031q-1.563 2.72-4.735 2.72m2.422-6.656a2.06 2.06 0 0 0-.36-.938 2.3 2.3 0 0 0-.859-.78q-.546-.314-1.28-.313-.938 0-1.61.547-.672.546-.969 1.484zm8.675 6.5q-.766 0-1.407-.219a2.85 2.85 0 0 1-1.031-.64q-.937-.89-.937-2.563V41.52h-1.782v-2.25h1.782v-2.875h2.609v2.875h2.5v2.25h-2.5v4.218q0 .78.344 1.11.28.328.968.328.375 0 .625-.094.25-.109.657-.344v2.547a4.9 4.9 0 0 1-1.828.344m8.359.156q-1.532 0-2.766-.687a4.9 4.9 0 0 1-1.906-1.922q-.687-1.25-.687-2.797 0-1.563.687-2.797a4.9 4.9 0 0 1 1.906-1.922q1.235-.703 2.766-.703 1.703 0 2.922.734a4.13 4.13 0 0 1 1.765 2.063l-2.406 1q-.64-1.36-2.281-1.36-1.203 0-1.969.829-.765.812-.765 2.156 0 1.359.765 2.187.765.813 1.969.813 1.656 0 2.406-1.453l2.375 1.047q-.656 1.343-1.875 2.078t-2.906.734m6.663-14.625h2.625v3.61l-.172 1.78h.172q.438-.718 1.266-1.155a3.9 3.9 0 0 1 1.828-.438q1.86 0 2.843 1.11 1 1.109 1 3.062v6.344h-2.625v-6.016q0-.984-.53-1.516-.532-.546-1.407-.546-1.046 0-1.719.843-.656.829-.656 2.047v5.188h-2.625zm16.72 4.11h2.453v1.28h.172q.453-.733 1.297-1.155a3.9 3.9 0 0 1 1.812-.438q1.845 0 2.797 1.125.969 1.11.969 3.047v6.344h-2.625v-6.016q0-.984-.5-1.516-.5-.546-1.39-.546-1.063 0-1.72.828-.64.812-.64 2.047v5.203h-2.625zm16.761 10.515q-1.515 0-2.75-.687a5 5 0 0 1-1.906-1.938q-.687-1.235-.688-2.765 0-1.47.672-2.72a5.24 5.24 0 0 1 1.891-1.984 5.03 5.03 0 0 1 2.672-.734q1.594 0 2.719.688a4.4 4.4 0 0 1 1.734 1.859q.594 1.17.594 2.61 0 .452-.063.874h-7.656q.202 1.22.969 1.86.765.625 1.843.625.907 0 1.547-.391.657-.39 1.047-1.047l2.11 1.031q-1.563 2.72-4.735 2.72m2.422-6.656a2.06 2.06 0 0 0-.36-.938 2.3 2.3 0 0 0-.859-.78q-.546-.314-1.28-.313-.938 0-1.61.547-.672.546-.969 1.484zm6.853 1.156-3.516-5.015h3.094l1.937 2.921h.125l1.828-2.921h3.188l-3.578 5.015 3.578 5.188H585.6l-1.953-2.985h-.125l-1.922 2.985h-3.094zm12.641 5.344q-.765 0-1.406-.219a2.85 2.85 0 0 1-1.031-.64q-.938-.89-.938-2.563V41.52h-1.78v-2.25h1.78v-2.875h2.61v2.875h2.5v2.25h-2.5v4.218q0 .78.344 1.11.28.328.968.328.375 0 .625-.094.25-.109.657-.344v2.547a4.9 4.9 0 0 1-1.829.344m8.525-10.36h2.453v1.25h.156q.422-.67 1.219-1.109.813-.453 1.844-.453 1.39 0 2.515.688c1.125.688 1.339 1.104 1.766 1.937q.64 1.234.64 2.797 0 1.579-.64 2.812a4.8 4.8 0 0 1-1.766 1.907q-1.125.687-2.515.687-1.031 0-1.844-.437-.813-.438-1.219-1.094h-.156l.156 1.437v4.094h-2.61zm5.219 8.11q.734 0 1.375-.375.64-.39 1.015-1.063.39-.687.39-1.562 0-.891-.39-1.563a2.6 2.6 0 0 0-1.015-1.046 2.68 2.68 0 0 0-2.735 0q-.64.36-1.031 1.046-.375.673-.375 1.563 0 .875.375 1.562.39.672 1.031 1.063.64.375 1.36.375m10.524 2.406q-1.625 0-2.672-.937-1.03-.954-1.031-2.5 0-1.016.531-1.797.548-.781 1.484-1.203c.936-.422 1.318-.422 2.079-.422q1.578 0 2.703.469v-.438q0-.843-.64-1.36-.627-.53-1.673-.53-.735 0-1.406.343a3.3 3.3 0 0 0-1.094.86l-1.687-1.313q.735-.968 1.86-1.484c1.124-.516 1.562-.516 2.437-.516q2.344 0 3.562 1.078c1.218 1.078 1.219 1.771 1.219 3.156v6.282h-2.578v-1.047h-.157q-.468.609-1.218.984c-.75.375-1.073.375-1.72.375m.61-2.031q1.14 0 1.812-.734.672-.735.672-1.704a4.9 4.9 0 0 0-2.14-.484q-2.048 0-2.048 1.516 0 .624.438 1.015.453.39 1.265.39m12.088 6.36q-1.938 0-3.219-.876-1.281-.859-1.719-2.078l2.454-1q.312.75.968 1.188.672.437 1.516.437 1.235 0 1.969-.765.735-.75.734-2.141v-.813h-.172q-.468.689-1.25 1.047-.78.36-1.781.36-1.266 0-2.36-.641-1.077-.656-1.75-1.844-.656-1.203-.656-2.781c0-1.578.22-1.974.657-2.766q.671-1.186 1.75-1.828a4.5 4.5 0 0 1 2.359-.656q1 0 1.781.36.782.359 1.25 1.03h.172V39.27h2.516v9.5q0 1.64-.64 2.843a4.4 4.4 0 0 1-1.829 1.844q-1.172.657-2.75.656m.031-7.016q1.11 0 1.89-.766.783-.781.782-2.125 0-1.375-.781-2.125-.765-.75-1.89-.75-1.11 0-1.891.766-.782.75-.782 2.109c0 1.359.26 1.615.782 2.125q.78.765 1.89.766m12.427 2.687q-1.515 0-2.75-.687a5 5 0 0 1-1.906-1.938q-.687-1.235-.688-2.765 0-1.47.672-2.72a5.24 5.24 0 0 1 1.89-1.984 5.03 5.03 0 0 1 2.673-.734q1.594 0 2.719.688a4.4 4.4 0 0 1 1.734 1.859q.594 1.17.594 2.61 0 .452-.063.874h-7.656q.202 1.22.969 1.86.766.625 1.843.625.907 0 1.547-.391.657-.39 1.047-1.047l2.11 1.031q-1.563 2.72-4.735 2.72m2.422-6.656a2.06 2.06 0 0 0-.36-.938 2.3 2.3 0 0 0-.859-.78q-.546-.314-1.281-.313-.937 0-1.61.547-.67.546-.968 1.484zm8.512 6.656q-1.86 0-3.016-.75-1.14-.765-1.593-1.984l2.328-1.016q.327.72.906 1.094.594.36 1.375.36.72 0 1.203-.22.484-.234.484-.75 0-.5-.453-.75-.437-.249-1.312-.453l-1.203-.265q-1.234-.297-2.063-1.078-.812-.797-.812-1.985 0-.875.53-1.578.532-.703 1.438-1.078.907-.375 2.016-.375 3.156 0 4.219 2.219l-2.25.984q-.594-1.094-1.906-1.094-.688 0-1.094.25-.39.25-.39.641 0 .72 1.359 1.078l1.5.36q1.515.375 2.28 1.156.783.78.782 1.922 0 .984-.578 1.734-.562.75-1.563 1.172-.984.406-2.187.406m14.1 0q-1.11 0-2-.437a3.33 3.33 0 0 1-1.36-1.203q-.47-.765-.469-1.75 0-1.626 1.219-2.532c1.219-.906 1.838-.906 3.078-.906q.922 0 1.703.203.797.188 1.219.453v-.625q0-1.14-.813-1.828-.796-.687-2.015-.687a3.4 3.4 0 0 0-1.578.375q-.72.36-1.141 1.03l-1.281-.968a4.1 4.1 0 0 1 1.656-1.437q1.063-.516 2.344-.516 2.077 0 3.25 1.094 1.187 1.078 1.187 2.969v6.453h-1.61V48.02h-.093q-.439.735-1.312 1.25c-.873.515-1.245.515-1.985.515m.171-1.5q.86 0 1.594-.437.735-.438 1.172-1.172.453-.75.453-1.625-.485-.313-1.188-.516c-.703-.203-.963-.203-1.484-.203q-1.39 0-2.11.578a1.85 1.85 0 0 0-.703 1.5q0 .844.641 1.36c.641.516.969.515 1.625.515m15.526 1.5q-1.829 0-2.797-1.078t-.969-3.016V39.27h1.688v6.156q0 1.469.656 2.156.672.672 1.781.672.875 0 1.531-.453a3.24 3.24 0 0 0 1.047-1.203q.375-.75.375-1.563V39.27h1.688v10.203h-1.61v-1.485h-.078q-.422.765-1.344 1.282c-.922.517-1.27.515-1.968.515m10.98 0q-1.626 0-2.735-.765a4.24 4.24 0 0 1-1.563-1.97l1.531-.671q.375.906 1.125 1.406t1.641.5q.97 0 1.64-.375.688-.39.688-1.125 0-.625-.547-1.015-.53-.39-1.687-.672l-1.25-.328q-1.22-.297-2-1.016-.781-.72-.781-1.86 0-.874.53-1.546.533-.672 1.407-1.032.892-.36 1.906-.359 1.344 0 2.39.578 1.049.578 1.485 1.625l-1.468.672q-.688-1.36-2.422-1.36-.845 0-1.485.391-.625.39-.625.985 0 .562.438.922.453.343 1.328.562l1.484.375q1.5.39 2.25 1.14.765.75.766 1.829a2.66 2.66 0 0 1-.547 1.656q-.53.703-1.453 1.078c-.923.375-1.297.375-2.047.375m10.543 0q-1.452 0-2.625-.687a4.9 4.9 0 0 1-1.812-1.938q-.64-1.235-.64-2.765 0-1.47.609-2.72c.609-1.25.984-1.494 1.734-1.984q1.14-.735 2.594-.734 1.5 0 2.594.672a4.35 4.35 0 0 1 1.703 1.844q.594 1.187.593 2.703 0 .234-.046.515h-8.079q.063 1.156.563 1.97.5.795 1.266 1.202.765.39 1.609.39 2 0 3.016-1.843l1.437.703a5 5 0 0 1-1.766 1.953q-1.14.72-2.75.72m2.938-6.5a3.1 3.1 0 0 0-.36-1.265q-.312-.641-1-1.079-.67-.453-1.718-.453-1.203 0-2.047.782-.828.765-1.094 2.015zm3.791-4.015h1.61v1.64h.078q.312-.843 1.172-1.39.858-.547 1.796-.547.704 0 1.204.203v1.844a3.1 3.1 0 0 0-1.438-.329q-.75 0-1.375.422a3.1 3.1 0 0 0-.984 1.14q-.375.705-.375 1.517v5.703h-1.688zm12.14 0h1.61v1.5h.078q.452-.782 1.328-1.297a3.6 3.6 0 0 1 1.86-.516q1.124 0 1.952.547.828.531 1.188 1.422a4.04 4.04 0 0 1 1.422-1.422q.89-.547 2.078-.547 1.765 0 2.64 1.078.891 1.063.891 2.89v6.548h-1.672V43.19q0-1.422-.578-2.062-.577-.64-1.719-.64-.766 0-1.39.452-.61.438-.969 1.172-.345.735-.344 1.594v5.766H731.9v-6.266q0-1.437-.578-2.078t-1.703-.64q-.75 0-1.375.452a3.1 3.1 0 0 0-.985 1.204q-.343.75-.343 1.609v5.719h-1.688zm20.67 10.515q-1.11 0-2-.437a3.33 3.33 0 0 1-1.36-1.203q-.468-.765-.468-1.75 0-1.626 1.219-2.532c1.219-.906 1.838-.906 3.078-.906q.922 0 1.703.203.797.188 1.219.453v-.625q0-1.14-.813-1.828-.796-.687-2.015-.687a3.4 3.4 0 0 0-1.578.375q-.72.36-1.141 1.03l-1.281-.968a4.1 4.1 0 0 1 1.656-1.437q1.063-.516 2.344-.516 2.077 0 3.25 1.094 1.187 1.078 1.187 2.969v6.453h-1.61V48.02h-.093q-.438.735-1.312 1.25t-1.985.515m.172-1.5q.86 0 1.594-.437.735-.438 1.172-1.172.453-.75.453-1.625-.484-.313-1.188-.516c-.704-.203-.963-.203-1.484-.203q-1.39 0-2.11.578a1.85 1.85 0 0 0-.703 1.5q0 .844.641 1.36.64.515 1.625.515m10.108.547-4.22-9.562h1.845l3.203 7.578h.03l3.079-7.578h1.844l-6.297 14.515h-1.766zm10.725-9.562h1.813l3.172 8.203h.03l3.204-8.203h1.781l-4.156 10.203h-1.719zm12.405-1.875q-.5 0-.86-.36-.359-.36-.359-.86 0-.515.36-.859.36-.36.86-.359.515 0 .859.36.36.343.359.859 0 .5-.36.86-.343.359-.859.359m-.844 1.875h1.704v10.203h-1.704zm7.911 10.515q-1.625 0-2.734-.765a4.24 4.24 0 0 1-1.563-1.97l1.531-.671q.375.906 1.125 1.406t1.641.5q.97 0 1.64-.375.688-.39.688-1.125 0-.625-.547-1.015-.53-.39-1.687-.672l-1.25-.328q-1.22-.297-2-1.016-.782-.72-.782-1.86 0-.874.532-1.546.531-.672 1.406-1.032.892-.36 1.906-.359 1.344 0 2.39.578 1.048.578 1.485 1.625l-1.469.672q-.687-1.36-2.421-1.36-.845 0-1.485.391-.625.39-.625.985 0 .562.438.922.453.343 1.328.562l1.484.375q1.5.39 2.25 1.14.765.75.766 1.829a2.66 2.66 0 0 1-.547 1.656q-.532.703-1.453 1.078-.922.375-2.047.375m6.813-12.39q-.5 0-.86-.36-.359-.36-.359-.86 0-.515.36-.859.36-.36.86-.359.515 0 .858.36.36.343.36.859 0 .5-.36.86-.343.359-.859.359m-.844 1.875h1.703v10.203h-1.703zm8.186 10.359q-.625 0-1.156-.188a2.6 2.6 0 0 1-.89-.546q-.798-.765-.798-2.11v-5.969H795.9V39.27h1.781v-2.875h1.703v2.875h2.5v1.546h-2.5v5.563q0 .828.313 1.234.374.438 1.094.438a1.94 1.94 0 0 0 1.125-.344v1.672a2.2 2.2 0 0 1-.61.187 4 4 0 0 1-.781.063m11.288.156q-1.11 0-2-.437a3.33 3.33 0 0 1-1.36-1.203q-.468-.765-.468-1.75 0-1.626 1.219-2.532c1.219-.906 1.838-.906 3.078-.906q.921 0 1.703.203.796.188 1.219.453v-.625q0-1.14-.813-1.828-.797-.687-2.015-.687a3.4 3.4 0 0 0-1.579.375q-.718.36-1.14 1.03l-1.281-.968a4.1 4.1 0 0 1 1.656-1.437q1.063-.516 2.344-.516 2.077 0 3.25 1.094 1.187 1.078 1.187 2.969v6.453h-1.61V48.02h-.093q-.438.735-1.313 1.25-.874.515-1.984.515m.172-1.5q.86 0 1.594-.437.735-.438 1.172-1.172.453-.75.453-1.625-.485-.313-1.188-.516c-.703-.203-.963-.203-1.484-.203q-1.39 0-2.11.578a1.85 1.85 0 0 0-.703 1.5q0 .844.641 1.36.64.515 1.625.515m10.92 1.344q-.625 0-1.156-.188a2.6 2.6 0 0 1-.89-.546q-.798-.765-.798-2.11v-5.969h-1.781V39.27h1.781v-2.875h1.703v2.875h2.5v1.546h-2.5v5.563q0 .828.313 1.234.375.438 1.094.438a1.94 1.94 0 0 0 1.125-.344v1.672a2.2 2.2 0 0 1-.61.187 4 4 0 0 1-.781.063m8.038-14.469h1.688v14.313h-1.688zm8.808 14.625q-1.5 0-2.704-.719a5.1 5.1 0 0 1-1.859-1.953q-.672-1.234-.672-2.734c0-1.5.224-1.912.672-2.734a5.05 5.05 0 0 1 1.86-1.97q1.203-.718 2.703-.718c1.5 0 1.9.24 2.703.719a5 5 0 0 1 1.875 1.969q.672 1.234.672 2.734c0 1.5-.224 1.911-.672 2.734a5.04 5.04 0 0 1-1.875 1.953q-1.203.72-2.703.72m0-1.531q.952 0 1.75-.469.812-.468 1.296-1.344.5-.89.5-2.062 0-1.188-.5-2.063-.484-.89-1.296-1.359a3.4 3.4 0 0 0-1.75-.469q-.938 0-1.766.469-.813.47-1.297 1.36-.484.874-.484 2.062 0 1.172.484 2.062a3.43 3.43 0 0 0 1.297 1.344q.828.47 1.766.469m5.907-8.984h1.766l2.406 8.062h.031l2.578-8.062h1.735l2.578 8.046h.031l2.422-8.046h1.719l-3.313 10.203h-1.719l-2.64-8.141-2.61 8.14h-1.703zm-376.713 24h1.61v1.515h.078q.468-.766 1.39-1.297a4.2 4.2 0 0 1 2.094-.531q1.375 0 2.485.703 1.109.687 1.75 1.938.64 1.235.64 2.78c0 1.546-.213 1.96-.64 2.782s-1.01 1.469-1.75 1.938q-1.11.687-2.485.687-1.156 0-2.094-.515-.921-.532-1.39-1.297h-.078l.078 1.406v4.406h-1.688zm5 8.984q.876 0 1.657-.484.78-.485 1.234-1.36.468-.874.469-2.031 0-1.172-.47-2.047a3.4 3.4 0 0 0-1.233-1.36 3.1 3.1 0 0 0-1.657-.484q-.906 0-1.687.485-.765.484-1.235 1.359c-.47.875-.468 1.266-.468 2.047q0 1.156.468 2.031c.468.875.724 1.037 1.235 1.36q.78.483 1.687.484m6.938-8.984h1.61v1.64h.078q.312-.844 1.172-1.39.86-.547 1.797-.547.703 0 1.203.203v1.844a3.1 3.1 0 0 0-1.438-.329q-.75 0-1.375.422a3.1 3.1 0 0 0-.984 1.14q-.375.704-.375 1.517v5.703h-1.688zm8.5-1.875q-.5 0-.859-.36-.36-.36-.36-.86 0-.515.36-.859.36-.36.86-.359.515 0 .859.36.36.343.36.859 0 .5-.36.86-.345.359-.86.359m-.843 1.875h1.703v10.203h-1.703zm8.95 10.515q-1.5 0-2.702-.719a5.1 5.1 0 0 1-1.86-1.953q-.671-1.234-.671-2.734c0-1.5.223-1.912.671-2.734a5.05 5.05 0 0 1 1.86-1.97q1.203-.718 2.703-.718c1.5 0 1.9.24 2.703.719a5 5 0 0 1 1.875 1.969q.672 1.233.672 2.734c0 1.5-.224 1.911-.672 2.734a5.04 5.04 0 0 1-1.875 1.953q-1.203.72-2.703.72m0-1.531q.954 0 1.75-.469.814-.468 1.298-1.344.5-.89.5-2.062 0-1.188-.5-2.063-.484-.89-1.297-1.359a3.4 3.4 0 0 0-1.75-.469q-.938 0-1.766.469-.812.47-1.297 1.36-.484.874-.484 2.062 0 1.172.484 2.062a3.43 3.43 0 0 0 1.297 1.344q.828.47 1.766.469m7.033-8.984h1.61v1.64h.078q.312-.844 1.172-1.39.86-.547 1.797-.547.703 0 1.203.203v1.844a3.1 3.1 0 0 0-1.438-.329q-.75 0-1.375.422a3.1 3.1 0 0 0-.984 1.14q-.375.704-.375 1.517v5.703h-1.688zm8.5-1.875q-.5 0-.859-.36-.36-.36-.36-.86 0-.515.36-.859.36-.36.86-.359.515 0 .859.36.36.343.36.859 0 .5-.36.86-.345.359-.86.359m-.843 1.875h1.703v10.203h-1.703zm8.185 10.359q-.625 0-1.156-.188a2.6 2.6 0 0 1-.89-.546q-.798-.766-.797-2.11v-5.969h-1.782V63.27h1.782v-2.875h1.703v2.875h2.5v1.546h-2.5v5.563q0 .828.312 1.234.375.438 1.094.438a1.94 1.94 0 0 0 1.125-.344v1.672a2.2 2.2 0 0 1-.61.187 4 4 0 0 1-.78.063m6.608-.797-4.219-9.562h1.844l3.203 7.578h.031l3.078-7.578h1.844l-6.297 14.515h-1.766zm6.92.766q-.532 0-.907-.375c-.375-.375-.375-.552-.375-.907q0-.53.375-.89.375-.375.907-.375.546 0 .906.375.375.36.375.89 0 .532-.375.907-.36.375-.906.375m10.772-12.828h-4.032v-1.61h9.72v1.61h-4v12.703h-1.688zm7.478-1.61h1.688v4.219l-.078 1.39h.078q.422-.78 1.328-1.296a4.03 4.03 0 0 1 2-.516q1.86 0 2.828 1.094.984 1.078.984 2.875v6.547h-1.687V67.19q0-1.374-.703-2.03-.703-.673-1.828-.673-.798 0-1.469.485-.672.485-1.063 1.25-.39.75-.39 1.562v5.688h-1.688zm12.28 2.235q-.5 0-.859-.36c-.359-.36-.36-.526-.36-.86q0-.515.36-.859.36-.36.86-.359.515 0 .859.36.36.343.36.859 0 .5-.36.86-.344.359-.86.359m-.843 1.875h1.703v10.203h-1.703zm7.91 10.515q-1.625 0-2.734-.765a4.24 4.24 0 0 1-1.563-1.97l1.532-.671q.375.906 1.125 1.406t1.64.5q.97 0 1.64-.375.689-.39.688-1.125 0-.625-.547-1.015-.53-.39-1.687-.672l-1.25-.328q-1.22-.297-2-1.016t-.781-1.86q0-.874.53-1.546.533-.672 1.407-1.032.892-.36 1.906-.359 1.344 0 2.391.578 1.047.579 1.484 1.625l-1.468.672q-.688-1.36-2.422-1.36-.844 0-1.485.391-.625.39-.625.985 0 .562.438.922.453.343 1.328.562l1.484.375q1.5.39 2.25 1.14.765.75.766 1.829a2.66 2.66 0 0 1-.547 1.656q-.53.703-1.453 1.078-.922.375-2.047.375m15.163 0q-1.47 0-2.657-.703a5 5 0 0 1-1.843-1.937q-.657-1.234-.657-2.766 0-1.547.657-2.781A4.86 4.86 0 0 1 584 63.66q1.188-.703 2.657-.703 1.672 0 2.797.766a4.22 4.22 0 0 1 1.609 2.047l-1.547.64q-.375-.937-1.125-1.422-.75-.5-1.812-.5-.89 0-1.672.5-.782.485-1.25 1.375-.47.875-.47 2.016c0 1.14.157 1.432.47 2.016s.729 1.041 1.25 1.375q.78.483 1.672.484 1.077 0 1.859-.5.78-.5 1.156-1.422l1.531.64a4.55 4.55 0 0 1-1.687 2.048q-1.14.765-2.781.765m9.46 0q-1.11 0-2-.437a3.33 3.33 0 0 1-1.36-1.203q-.468-.766-.468-1.75 0-1.626 1.219-2.532c1.219-.906 1.838-.906 3.078-.906q.922 0 1.703.203.797.188 1.219.453v-.625q0-1.14-.813-1.828-.796-.687-2.015-.687a3.4 3.4 0 0 0-1.578.375q-.72.36-1.141 1.03l-1.281-.968a4.1 4.1 0 0 1 1.656-1.437q1.063-.516 2.344-.516 2.078 0 3.25 1.094 1.187 1.078 1.187 2.969v6.453h-1.61V72.02h-.093q-.437.734-1.312 1.25-.875.515-1.985.515m.172-1.5q.86 0 1.594-.437.735-.438 1.172-1.172.453-.75.453-1.625-.485-.313-1.188-.516c-.703-.203-.963-.203-1.484-.203q-1.39 0-2.11.578a1.85 1.85 0 0 0-.702 1.5q0 .844.64 1.36.64.515 1.625.515m7.198-9.015h1.61v1.5h.078q.421-.75 1.344-1.282a3.9 3.9 0 0 1 1.968-.531q1.828 0 2.797 1.078.984 1.063.985 2.89v6.548h-1.704V67.19q0-1.422-.687-2.062-.672-.64-1.86-.64-.811 0-1.468.468a3.2 3.2 0 0 0-1.016 1.203q-.36.75-.36 1.578v5.735h-1.687zm19.407 10.515q-1.625 0-2.734-.765a4.24 4.24 0 0 1-1.563-1.97l1.532-.671q.375.906 1.125 1.406t1.64.5q.97 0 1.64-.375.689-.39.688-1.125 0-.625-.547-1.015-.53-.39-1.687-.672l-1.25-.328q-1.22-.297-2-1.016t-.781-1.86q0-.874.53-1.546.533-.672 1.407-1.032.892-.36 1.906-.359 1.344 0 2.391.578 1.047.579 1.484 1.625l-1.468.672q-.688-1.36-2.422-1.36-.845 0-1.485.391-.625.39-.625.985 0 .562.438.922.453.343 1.328.562l1.484.375q1.5.39 2.25 1.14.765.75.766 1.829a2.66 2.66 0 0 1-.547 1.656q-.53.703-1.453 1.078-.922.375-2.047.375m5.735-10.515h1.61v1.515h.078q.468-.766 1.39-1.297a4.2 4.2 0 0 1 2.094-.531q1.375 0 2.484.703 1.11.687 1.75 1.938.64 1.235.641 2.78c.001 1.546-.214 1.96-.64 2.782q-.642 1.234-1.75 1.938-1.11.687-2.485.687-1.156 0-2.094-.515-.922-.532-1.39-1.297h-.078l.078 1.406v4.406h-1.688zm5 8.984q.875 0 1.656-.484.782-.485 1.235-1.36.468-.874.469-2.031 0-1.172-.47-2.047a3.4 3.4 0 0 0-1.234-1.36 3.1 3.1 0 0 0-1.656-.484q-.907 0-1.687.485-.765.484-1.235 1.359c-.47.875-.468 1.266-.468 2.047q0 1.156.468 2.031c.468.875.724 1.037 1.235 1.36q.78.483 1.687.484m11.57 1.531q-1.454 0-2.626-.687a4.9 4.9 0 0 1-1.812-1.938q-.64-1.235-.64-2.765 0-1.47.609-2.72c.609-1.25.984-1.494 1.734-1.984q1.14-.734 2.594-.734 1.5 0 2.594.672a4.35 4.35 0 0 1 1.703 1.844q.593 1.186.593 2.703 0 .234-.046.515h-8.079q.063 1.156.563 1.97.5.795 1.266 1.202.765.39 1.609.39 2 0 3.016-1.843l1.437.703a5 5 0 0 1-1.766 1.953q-1.14.72-2.75.72m2.937-6.5a3.1 3.1 0 0 0-.36-1.265q-.312-.642-1-1.079-.67-.453-1.718-.453-1.204 0-2.047.782-.828.765-1.094 2.015zm8.423 6.5q-1.454 0-2.625-.687a4.9 4.9 0 0 1-1.813-1.938q-.64-1.235-.64-2.765 0-1.47.609-2.72c.609-1.25.984-1.494 1.734-1.984q1.14-.734 2.594-.734 1.5 0 2.594.672a4.35 4.35 0 0 1 1.703 1.844q.594 1.186.594 2.703 0 .234-.047.515h-8.078q.062 1.156.562 1.97.5.795 1.266 1.202.765.39 1.609.39 2 0 3.016-1.843l1.437.703a5 5 0 0 1-1.765 1.953q-1.141.72-2.75.72m2.937-6.5a3.1 3.1 0 0 0-.36-1.265q-.312-.642-1-1.079-.67-.453-1.718-.453-1.203 0-2.047.782-.828.765-1.094 2.015zm8.22 6.5q-1.375 0-2.485-.687-1.11-.704-1.75-1.938t-.64-2.781c0-1.547.213-1.958.64-2.781q.64-1.251 1.75-1.938a4.54 4.54 0 0 1 2.484-.703q1.172 0 2.079.531.921.531 1.406 1.297h.078l-.078-1.406V59.16h1.703v14.313h-1.625v-1.5h-.078q-.485.765-1.406 1.297-.907.515-2.079.515m.187-1.531q.906 0 1.672-.484.765-.485 1.234-1.36c.47-.875.469-1.26.469-2.031q0-1.172-.469-2.047c-.469-.875-.724-1.036-1.234-1.36a3.07 3.07 0 0 0-1.672-.484q-.875 0-1.656.485-.782.483-1.25 1.375c-.468.892-.47 1.27-.47 2.03s.157 1.438.47 2.032a3.5 3.5 0 0 0 1.25 1.36q.78.483 1.656.484m15.852 1.531q-1.828 0-2.797-1.078t-.969-3.016V63.27h1.688v6.156q0 1.469.656 2.156.672.672 1.781.672.875 0 1.531-.453a3.24 3.24 0 0 0 1.047-1.203q.375-.75.375-1.563V63.27h1.688v10.203h-1.61v-1.485h-.078q-.422.766-1.343 1.282a3.97 3.97 0 0 1-1.97.515m7.454-10.515h1.61v1.515h.078q.468-.766 1.39-1.297a4.2 4.2 0 0 1 2.094-.531q1.375 0 2.484.703 1.11.687 1.75 1.938.64 1.235.641 2.78c.001 1.546-.214 1.96-.64 2.782q-.642 1.234-1.75 1.938-1.11.687-2.485.687-1.156 0-2.094-.515-.922-.532-1.39-1.297h-.079l.079 1.406v4.406h-1.688zm5 8.984q.875 0 1.656-.484.782-.485 1.235-1.36.468-.874.468-2.031 0-1.172-.468-2.047a3.4 3.4 0 0 0-1.235-1.36 3.1 3.1 0 0 0-1.656-.484q-.907 0-1.687.485-.765.484-1.235 1.359c-.47.875-.469 1.266-.469 2.047q0 1.156.47 2.031c.47.875.723 1.037 1.234 1.36q.78.483 1.687.484m11.6-8.984h1.61v1.515h.078q.469-.766 1.39-1.297a4.2 4.2 0 0 1 2.094-.531q1.375 0 2.484.703 1.11.687 1.75 1.938.64 1.235.641 2.78c.001 1.546-.214 1.96-.64 2.782s-1.011 1.469-1.75 1.938q-1.11.687-2.485.687-1.156 0-2.094-.515-.921-.532-1.39-1.297h-.079l.079 1.406v4.406h-1.688zm5 8.984q.875 0 1.656-.484.782-.485 1.235-1.36.468-.874.469-2.031 0-1.172-.47-2.047a3.4 3.4 0 0 0-1.234-1.36 3.1 3.1 0 0 0-1.656-.484q-.907 0-1.687.485-.765.484-1.235 1.359c-.47.875-.469 1.266-.469 2.047q0 1.156.47 2.031c.47.875.723 1.037 1.234 1.36q.78.483 1.687.484m10.288 1.531q-1.11 0-2-.437a3.33 3.33 0 0 1-1.36-1.203q-.468-.766-.468-1.75 0-1.626 1.219-2.532c1.219-.906 1.838-.906 3.078-.906q.922 0 1.703.203.797.188 1.219.453v-.625q0-1.14-.813-1.828-.796-.687-2.015-.687a3.4 3.4 0 0 0-1.578.375q-.72.36-1.141 1.03l-1.281-.968a4.1 4.1 0 0 1 1.656-1.437q1.063-.516 2.344-.516 2.077 0 3.25 1.094 1.187 1.078 1.187 2.969v6.453h-1.61V72.02h-.093q-.439.734-1.312 1.25c-.873.516-1.245.515-1.985.515m.172-1.5q.86 0 1.594-.437.734-.438 1.172-1.172.453-.75.453-1.625-.485-.313-1.188-.516c-.703-.203-.963-.203-1.484-.203q-1.39 0-2.11.578a1.85 1.85 0 0 0-.703 1.5q0 .844.641 1.36c.641.516.969.515 1.625.515m11.567 5.828q-1.797 0-2.969-.843c-1.172-.843-1.302-1.235-1.562-2.016l1.562-.656a2.9 2.9 0 0 0 1.094 1.422q.796.546 1.875.546 1.578 0 2.453-.921.875-.908.875-2.594v-1.14h-.078q-.5.78-1.422 1.28-.907.485-2.062.485a4.5 4.5 0 0 1-2.407-.672q-1.094-.687-1.734-1.906-.64-1.22-.64-2.782 0-1.546.64-2.765.64-1.235 1.734-1.906a4.43 4.43 0 0 1 2.407-.688q1.155 0 2.062.484.923.485 1.422 1.297h.078V63.27h1.625v9.796q0 2.469-1.375 3.75-1.36 1.297-3.578 1.297m0-5.984a3.17 3.17 0 0 0 1.672-.453q.75-.469 1.203-1.328c.453-.86.453-1.25.453-2.032q0-1.204-.453-2.062c-.453-.858-.703-1.01-1.203-1.313a3.17 3.17 0 0 0-1.672-.453 3.17 3.17 0 0 0-1.688.469q-.75.453-1.203 1.313-.437.859-.437 2.046 0 1.173.437 2.047.453.876 1.203 1.328.765.438 1.688.438m11.902 1.656q-1.452 0-2.625-.687a4.9 4.9 0 0 1-1.812-1.938q-.64-1.235-.64-2.765 0-1.47.609-2.72c.609-1.25.984-1.494 1.734-1.984q1.14-.734 2.594-.734 1.5 0 2.594.672a4.35 4.35 0 0 1 1.703 1.844q.593 1.186.593 2.703 0 .234-.046.515h-8.079q.063 1.156.563 1.97.5.795 1.266 1.202.765.39 1.609.39 2 0 3.016-1.843l1.437.703a5 5 0 0 1-1.766 1.953q-1.14.72-2.75.72m2.938-6.5a3.1 3.1 0 0 0-.36-1.265q-.312-.642-1-1.079-.67-.453-1.718-.453-1.203 0-2.047.782-.828.765-1.094 2.015zm8.431-8.125h1.688v14.313h-1.688zm8.808 14.625q-1.5 0-2.703-.719a5.1 5.1 0 0 1-1.86-1.953q-.672-1.234-.672-2.734c0-1.5.224-1.912.672-2.734a5.05 5.05 0 0 1 1.86-1.97q1.203-.718 2.703-.718c1.5 0 1.9.24 2.703.719a5 5 0 0 1 1.875 1.969q.672 1.233.672 2.734c0 1.5-.224 1.911-.672 2.734a5.04 5.04 0 0 1-1.875 1.953q-1.203.72-2.703.72m0-1.531q.952 0 1.75-.469.812-.468 1.297-1.344.5-.89.5-2.062 0-1.188-.5-2.063-.485-.89-1.297-1.359a3.4 3.4 0 0 0-1.75-.469q-.938 0-1.766.469-.813.47-1.297 1.36-.484.874-.484 2.062 0 1.172.484 2.062a3.43 3.43 0 0 0 1.297 1.344q.828.47 1.766.469m10.482 1.531q-1.11 0-2-.437a3.33 3.33 0 0 1-1.36-1.203q-.468-.766-.468-1.75 0-1.626 1.219-2.532c1.219-.906 1.838-.906 3.078-.906q.922 0 1.703.203.797.188 1.219.453v-.625q0-1.14-.813-1.828-.796-.687-2.015-.687a3.4 3.4 0 0 0-1.578.375q-.72.36-1.141 1.03l-1.281-.968a4.1 4.1 0 0 1 1.656-1.437q1.063-.516 2.344-.516 2.077 0 3.25 1.094 1.187 1.078 1.187 2.969v6.453h-1.61V72.02h-.093q-.439.734-1.312 1.25-.876.515-1.985.515m.172-1.5q.86 0 1.594-.437.734-.438 1.172-1.172.453-.75.453-1.625-.485-.313-1.188-.516c-.703-.203-.963-.203-1.484-.203q-1.39 0-2.11.578a1.85 1.85 0 0 0-.703 1.5q0 .844.641 1.36.64.515 1.625.515m11.426 1.5q-1.375 0-2.484-.687-1.11-.704-1.75-1.938t-.64-2.781c0-1.547.213-1.958.64-2.781q.64-1.251 1.75-1.938a4.54 4.54 0 0 1 2.484-.703q1.173 0 2.078.531.923.531 1.407 1.297h.078l-.078-1.406V59.16h1.703v14.313h-1.625v-1.5h-.078q-.485.765-1.407 1.297-.905.515-2.078.515m.188-1.531q.906 0 1.672-.484.765-.485 1.234-1.36c.469-.875.469-1.26.469-2.031q0-1.172-.469-2.047c-.469-.875-.724-1.036-1.234-1.36a3.07 3.07 0 0 0-1.672-.484q-.876 0-1.656.485-.782.483-1.25 1.375c-.468.892-.47 1.27-.47 2.03s.157 1.438.47 2.032a3.5 3.5 0 0 0 1.25 1.36q.78.483 1.656.484m10.971 1.531q-1.625 0-2.734-.765a4.24 4.24 0 0 1-1.563-1.97l1.531-.671q.375.906 1.125 1.406t1.641.5q.97 0 1.64-.375.688-.39.688-1.125 0-.625-.547-1.015-.53-.39-1.687-.672l-1.25-.328q-1.22-.297-2-1.016-.781-.72-.781-1.86 0-.874.53-1.546.533-.672 1.407-1.032.892-.36 1.906-.359 1.344 0 2.39.578 1.049.579 1.485 1.625l-1.468.672q-.688-1.36-2.422-1.36-.845 0-1.485.391-.625.39-.625.985 0 .562.438.922.453.343 1.328.562l1.484.375q1.5.39 2.25 1.14.765.75.766 1.829a2.66 2.66 0 0 1-.547 1.656q-.53.703-1.453 1.078c-.923.375-1.297.375-2.047.375m7.023-.187q-.532 0-.907-.375c-.375-.375-.375-.552-.375-.907q0-.53.375-.89.375-.375.907-.375.546 0 .906.375.375.36.375.89 0 .532-.375.907-.36.375-.906.375"/><path d="M563.907 254.501h116.188v89.469H563.907zM540.21 130.055h57.411v33.756H540.21zm230.952 0h57.41v33.756h-57.41zm0 142.608h57.41v33.756h-57.41zM89.468 135.858h160.83v70.635H89.468zM59.055 385.25h586.016v77.543H59.055z"/><path fill="#4a86e8" fill-rule="nonzero" d="M81.852 416.899a9.2 9.2 0 0 1-3.719.781q-2.516 0-4.578-1.188a8.6 8.6 0 0 1-3.219-3.25q-1.171-2.077-1.172-4.546c0-2.47.391-3.157 1.172-4.532s1.855-2.458 3.22-3.25q2.061-1.187 4.577-1.187c2.516 0 3.198.396 4.563 1.187a8.6 8.6 0 0 1 3.234 3.25q1.188 2.063 1.188 4.532 0 1.968-.75 3.671c-.75 1.703-1.198 2.12-2.094 2.954l1.328 1.968-2.406 1.61zm-3.719-2.297q.938 0 1.953-.36l-1.875-2.812 2.391-1.625 1.875 2.828q.672-.75 1.031-1.75.36-1.016.36-2.187 0-1.719-.766-3.063a5.2 5.2 0 0 0-2.078-2.094q-1.313-.75-2.89-.75c-1.578 0-2.016.25-2.891.75a5.25 5.25 0 0 0-2.063 2.094q-.75 1.344-.75 3.063 0 1.734.75 3.078a5.4 5.4 0 0 0 2.063 2.093q1.312.735 2.89.735m16.035 3.078q-2.203 0-3.36-1.375c-1.156-1.375-1.155-2.188-1.155-3.813v-7.437h3.14v7.047q0 1.25.594 1.969.609.703 1.594.703 1.344 0 2.14-.985c.796-.985.797-1.49.797-2.5v-6.234h3.14v12.234h-2.952v-1.53h-.188a3.94 3.94 0 0 1-1.562 1.405q-.985.516-2.188.516m11.736-13.969a2 2 0 0 1-1.454-.594q-.593-.609-.593-1.453c0-.844.198-1.036.593-1.422q.61-.593 1.454-.593c.844 0 1.036.198 1.421.593q.594.579.594 1.422c0 .843-.198 1.047-.594 1.453q-.578.594-1.421.594m-1.579 1.344h3.141v12.234h-3.14zm12.043 12.625q-1.844 0-3.313-.828a5.9 5.9 0 0 1-2.297-2.313q-.828-1.5-.828-3.375 0-1.86.828-3.328a6 6 0 0 1 2.297-2.328q1.47-.844 3.313-.844 2.046 0 3.5.875a4.94 4.94 0 0 1 2.11 2.485l-2.876 1.203q-.766-1.64-2.734-1.64-1.437 0-2.36.984-.921.984-.921 2.593 0 1.642.921 2.625c.921.983 1.402.985 2.36.985q1.984 0 2.875-1.735l2.86 1.25q-.798 1.61-2.266 2.5-1.454.891-3.47.891m7.986-17.578h3.156v9.36h.157l4.39-4.407h3.875v.187l-4.64 4.532 4.843 7.328v.187h-3.718l-3.328-5.359-1.579 1.562v3.797h-3.156zm13.416 0h3.156v17.187h-3.156zm8.021 3.61a2 2 0 0 1-1.453-.595q-.594-.609-.593-1.453c0-.844.197-1.036.593-1.422q.61-.593 1.453-.593c.843 0 1.037.198 1.422.593q.594.579.594 1.422c0 .843-.198 1.047-.594 1.453q-.578.594-1.422.594m-1.578 1.343h3.14v12.234h-3.14zm6.397 0h2.953v1.531h.203q.547-.89 1.547-1.406a4.76 4.76 0 0 1 2.188-.516q2.202 0 3.36 1.344 1.155 1.344 1.155 3.672v7.61h-3.14v-7.22q0-1.186-.61-1.828-.593-.656-1.672-.656-1.28 0-2.062.985-.765.984-.766 2.484v6.234h-3.156zm14.376-4.953h3.156v9.36h.157l4.39-4.407h3.875v.187l-4.64 4.532 4.843 7.328v.187h-3.718l-3.329-5.359-1.578 1.562v3.797h-3.156zm18.938 4.953h2.953v1.484h.188q.516-.796 1.469-1.328.968-.546 2.203-.547 1.657 0 3.015.828c1.358.828 1.615 1.329 2.125 2.329q.765 1.485.766 3.343 0 1.906-.766 3.391a5.73 5.73 0 0 1-2.125 2.297q-1.359.828-3.015.828-1.235 0-2.219-.531-.969-.531-1.453-1.328h-.188l.188 1.734v4.922h-3.14zm6.266 9.719q.891 0 1.656-.453.766-.47 1.219-1.282.469-.811.469-1.875 0-1.046-.47-1.859a3.17 3.17 0 0 0-1.218-1.266 3.22 3.22 0 0 0-3.297 0q-.765.438-1.218 1.266-.454.812-.454 1.86 0 1.062.454 1.874.453.814 1.218 1.282.782.453 1.64.453m8.756-9.719h2.953v1.625h.203q.453-.86 1.406-1.422a4.13 4.13 0 0 1 2.11-.562q.843 0 1.547.25v3.156a7.5 7.5 0 0 0-1.11-.344 4 4 0 0 0-.937-.11q-1.391.001-2.203 1.016-.813 1-.813 2.532v6.093h-3.156zm15.262 12.625q-1.812 0-3.28-.844a6.05 6.05 0 0 1-2.298-2.312q-.828-1.486-.828-3.328 0-1.75.813-3.25a6.4 6.4 0 0 1 2.265-2.391q1.438-.89 3.219-.89 1.89 0 3.25.827a5.25 5.25 0 0 1 2.078 2.235q.72 1.406.719 3.125 0 .563-.078 1.062h-9.188q.234 1.47 1.156 2.22.938.75 2.22.75 1.092 0 1.859-.47a3.6 3.6 0 0 0 1.25-1.25l2.53 1.25q-1.859 3.266-5.687 3.266m2.907-8q-.047-.578-.422-1.14-.36-.563-1.032-.938-.656-.375-1.546-.375-1.125 0-1.938.672-.797.656-1.156 1.781zm6.535-1.938h-2.187v-2.687h2.187v-.672q0-2.094 1.25-3.281t3.266-1.188q1.14 0 1.984.266v3.062a6 6 0 0 0-.812-.28 3 3 0 0 0-.797-.095q-.798 0-1.282.454-.468.453-.468 1.25v.484h3v2.687h-3v9.547h-3.141zm13.598 9.938q-1.812 0-3.281-.844a6.05 6.05 0 0 1-2.297-2.312q-.828-1.486-.828-3.328 0-1.75.812-3.25a6.4 6.4 0 0 1 2.266-2.391q1.437-.89 3.219-.89 1.89 0 3.25.827a5.25 5.25 0 0 1 2.078 2.235q.72 1.406.719 3.125 0 .563-.078 1.062h-9.188q.234 1.47 1.156 2.22.937.75 2.22.75 1.093 0 1.858-.47a3.6 3.6 0 0 0 1.25-1.25l2.532 1.25q-1.86 3.266-5.688 3.266m2.906-8q-.045-.578-.421-1.14-.36-.563-1.032-.938-.656-.375-1.547-.375-1.125 0-1.937.672-.797.656-1.156 1.781zm10.416 7.797a5.1 5.1 0 0 1-1.672-.266q-.765-.281-1.25-.765-1.125-1.08-1.125-3.063v-5.64h-2.14v-2.688h2.14v-3.469h3.14v3.469h3v2.687h-3v5.063q0 .938.407 1.344.345.375 1.156.375.453 0 .75-.11.298-.124.781-.406v3.063a5.9 5.9 0 0 1-2.187.406m10.037.203q-1.843 0-3.312-.828a5.9 5.9 0 0 1-2.297-2.313q-.828-1.5-.828-3.375 0-1.86.828-3.328a6 6 0 0 1 2.297-2.328q1.47-.844 3.312-.844 2.048 0 3.5.875a4.94 4.94 0 0 1 2.11 2.485l-2.875 1.203q-.765-1.64-2.735-1.64-1.437 0-2.359.984t-.922 2.593q0 1.642.922 2.625.922.985 2.36.985 1.983 0 2.874-1.735l2.86 1.25q-.797 1.61-2.266 2.5-1.453.891-3.469.891m7.987-17.578h3.156v4.344l-.203 2.14h.203q.516-.86 1.516-1.39a4.7 4.7 0 0 1 2.203-.532q2.218 0 3.406 1.344 1.203 1.328 1.203 3.672v7.61h-3.156v-7.22q0-1.186-.64-1.828-.626-.656-1.688-.656-1.25 0-2.047 1.016-.797 1-.797 2.469v6.218h-3.156zm20.182 17.578q-1.812 0-3.281-.844a6.05 6.05 0 0 1-2.297-2.312q-.828-1.486-.828-3.328 0-1.75.812-3.25a6.4 6.4 0 0 1 2.266-2.391q1.437-.89 3.219-.89 1.89 0 3.25.827a5.25 5.25 0 0 1 2.078 2.235q.719 1.406.719 3.125 0 .563-.079 1.062h-9.187q.234 1.47 1.156 2.22.938.75 2.219.75 1.094 0 1.86-.47a3.6 3.6 0 0 0 1.25-1.25l2.53 1.25q-1.859 3.266-5.687 3.266m2.906-8q-.046-.578-.422-1.14-.36-.563-1.03-.938-.657-.375-1.548-.375-1.125 0-1.937.672-.797.656-1.156 1.781zm10.224 8q-2.235 0-3.61-.906-1.374-.923-1.937-2.39l2.813-1.22q.39.859 1.093 1.313.704.437 1.64.437.876 0 1.438-.265.579-.282.579-.907a.97.97 0 0 0-.532-.906q-.515-.297-1.578-.531l-1.437-.313q-1.485-.36-2.47-1.312c-.984-.952-.983-1.422-.983-2.36q0-1.062.625-1.906.64-.843 1.734-1.297t2.406-.453q3.797 0 5.078 2.672l-2.687 1.172q-.734-1.297-2.313-1.297-.812 0-1.297.297t-.484.75q0 .875 1.64 1.297l1.798.437q1.827.454 2.75 1.391.921.938.921 2.313 0 1.171-.687 2.078-.672.89-1.875 1.406-1.188.5-2.625.5m14.86-13.969a2 2 0 0 1-1.452-.594q-.594-.609-.594-1.453c0-.844.198-1.036.594-1.422q.609-.593 1.453-.593c.844 0 1.036.198 1.422.593q.594.579.593 1.422c0 .843-.197 1.047-.593 1.453q-.579.594-1.422.594m-1.577 1.344h3.14v12.234h-3.14zm6.397 0h2.953v1.531h.203q.546-.89 1.547-1.406a4.76 4.76 0 0 1 2.187-.516q2.203 0 3.36 1.344 1.155 1.344 1.156 3.672v7.61h-3.14v-7.22q0-1.186-.61-1.828-.594-.656-1.672-.656-1.281 0-2.063.985-.765.984-.765 2.484v6.234h-3.156zm14.36 3.406h8.125v2.781h-8.125zm9.816-3.406h3.578l3.094 7.969h.187l3.141-7.969h3.531l-5.234 12.234h-3.11zm17.013-1.344a2 2 0 0 1-1.453-.594q-.594-.609-.594-1.453c0-.844.198-1.036.594-1.422q.609-.593 1.453-.593c.844 0 1.036.198 1.422.593q.593.579.593 1.422c0 .843-.198 1.047-.593 1.453q-.579.594-1.422.594m-1.578 1.344h3.14v12.234h-3.14zm12.01 12.625q-1.812 0-3.28-.844a6.05 6.05 0 0 1-2.297-2.312q-.828-1.486-.828-3.328 0-1.75.812-3.25a6.4 6.4 0 0 1 2.266-2.391q1.437-.89 3.218-.89 1.89 0 3.25.827a5.25 5.25 0 0 1 2.079 2.235q.718 1.406.718 3.125 0 .563-.078 1.062h-9.187q.234 1.47 1.156 2.22.937.75 2.219.75 1.094 0 1.859-.47a3.6 3.6 0 0 0 1.25-1.25l2.531 1.25q-1.86 3.266-5.687 3.266m2.907-8q-.047-.578-.422-1.14-.36-.563-1.031-.938-.656-.375-1.547-.375-1.125 0-1.937.672-.797.656-1.157 1.781zm3.848-4.625h3.531l2.11 7.937h.156l2.453-7.937h3.219l2.453 7.937h.156l2.125-7.937h3.469l-3.906 12.234h-3.391l-2.484-7.922h-.172l-2.469 7.922h-3.36zm21.258 0h2.953v1.484h.187q.516-.796 1.469-1.328.969-.546 2.203-.547 1.656 0 3.016.828c1.36.828 1.614 1.329 2.125 2.329q.765 1.485.765 3.343 0 1.906-.765 3.391a5.73 5.73 0 0 1-2.125 2.297q-1.36.828-3.016.828-1.234 0-2.219-.531-.969-.531-1.453-1.328h-.187l.187 1.734v4.922h-3.14zm6.265 9.719q.891 0 1.656-.453.765-.47 1.22-1.282.468-.811.468-1.875 0-1.046-.469-1.859a3.17 3.17 0 0 0-1.219-1.266 3.22 3.22 0 0 0-3.297 0q-.765.438-1.218 1.266-.453.812-.453 1.86 0 1.062.453 1.874.453.814 1.219 1.282.78.453 1.64.453m14.736 2.906q-1.89 0-3.391-.844a6.13 6.13 0 0 1-2.312-2.328q-.83-1.484-.829-3.344 0-1.812.829-3.297a5.96 5.96 0 0 1 2.312-2.343q1.5-.86 3.39-.86 1.875 0 3.36.86a5.96 5.96 0 0 1 2.313 2.343q.828 1.485.828 3.297 0 1.86-.828 3.344a6.13 6.13 0 0 1-2.313 2.328q-1.485.844-3.36.844m0-2.906q.906 0 1.672-.438.78-.437 1.234-1.25t.453-1.922q0-1.078-.453-1.89a3.17 3.17 0 0 0-1.234-1.25 3.3 3.3 0 0 0-1.672-.438q-.907 0-1.688.438-.765.437-1.234 1.25-.453.812-.453 1.89c0 1.078.15 1.354.453 1.907a3.3 3.3 0 0 0 1.234 1.265q.781.438 1.688.438m24.363 2.703a5.1 5.1 0 0 1-1.687-.266q-.765-.281-1.25-.765-1.125-1.08-1.125-3.063v-5.64h-2.125v-2.688h2.125v-3.469h3.14v3.469h3v2.687h-3v5.063q0 .938.422 1.344.33.375 1.141.375.468 0 .766-.11.297-.124.78-.406v3.063a5.9 5.9 0 0 1-2.187.406m-15.703-12.422h2.953v1.625h.203q.469-.891 1.454-1.422a4.3 4.3 0 0 1 2.109-.547q.828 0 1.156.14v3.079q-.594-.234-1.484-.234-1.485 0-2.36.953-.875.952-.875 2.61v6.03h-3.156zm26.016-4.953h3.156v17.187h-3.156zm8.021 3.61a2 2 0 0 1-1.453-.595q-.594-.609-.593-1.453c0-.844.197-1.036.593-1.422q.61-.593 1.453-.593c.843 0 1.037.198 1.422.593q.594.579.594 1.422c0 .843-.198 1.047-.594 1.453q-.578.594-1.422.594m-1.578 1.343h3.14v12.234h-3.14zm6.397 0h2.953v1.531h.203q.547-.89 1.547-1.406a4.76 4.76 0 0 1 2.188-.516q2.202 0 3.36 1.344 1.155 1.344 1.155 3.672v7.61h-3.14v-7.22q0-1.186-.61-1.828-.593-.656-1.672-.656-1.28 0-2.062.985-.765.984-.766 2.484v6.234h-3.156zm14.376-4.953h3.156v9.36h.157l4.39-4.407h3.875v.187l-4.64 4.532 4.843 7.328v.187h-3.718l-3.329-5.359-1.578 1.562v3.797h-3.156zm17.832 17.578q-2.234 0-3.61-.906-1.374-.923-1.937-2.39l2.813-1.22q.39.859 1.094 1.313.702.437 1.64.437.876 0 1.438-.265.578-.282.578-.907a.97.97 0 0 0-.531-.906q-.516-.297-1.578-.531l-1.438-.313q-1.484-.36-2.469-1.312c-.985-.952-.984-1.422-.984-2.36q0-1.062.625-1.906.64-.843 1.734-1.297 1.095-.453 2.407-.453 3.796 0 5.078 2.672l-2.688 1.172q-.734-1.297-2.312-1.297-.813 0-1.297.297c-.484.297-.485.448-.485.75q0 .875 1.641 1.297l1.797.437q1.828.454 2.75 1.391t.922 2.313q0 1.171-.688 2.078-.672.89-1.875 1.406-1.186.5-2.625.5m18.346 0q-1.657 0-3.016-.828c-1.359-.828-1.62-1.318-2.14-2.297q-.782-1.485-.782-3.39 0-1.86.781-3.344.782-1.5 2.141-2.329 1.359-.828 3.016-.828 1.25 0 2.203.547.953.531 1.469 1.328h.187l-.187-1.734V400.1h3.109v17.187h-2.922v-1.468h-.187q-.485.796-1.454 1.328-.968.531-2.218.531m.515-2.906q.89 0 1.657-.453.78-.47 1.234-1.282.453-.811.453-1.875 0-1.046-.453-1.859a3.14 3.14 0 0 0-1.234-1.266 3.2 3.2 0 0 0-3.282 0q-.765.438-1.218 1.266-.454.812-.454 1.86 0 1.062.454 1.874.453.814 1.218 1.282a3.14 3.14 0 0 0 1.625.453m13.785 2.906q-2.204 0-3.36-1.375t-1.156-3.813v-7.437h3.14v7.047q0 1.25.595 1.969.609.703 1.593.703 1.344 0 2.141-.985c.797-.985.797-1.49.797-2.5v-6.234h3.14v12.234h-2.953v-1.53h-.187a3.94 3.94 0 0 1-1.563 1.405q-.984.516-2.187.516m9.954-12.625h2.953v1.625h.203q.453-.86 1.406-1.422a4.13 4.13 0 0 1 2.11-.562q.843 0 1.547.25v3.156a7.5 7.5 0 0 0-1.11-.344 4 4 0 0 0-.937-.11q-1.391.001-2.203 1.016-.813 1-.813 2.532v6.093h-3.156zm12.03-1.344a2 2 0 0 1-1.454-.594q-.594-.609-.594-1.453c0-.844.198-1.036.594-1.422q.609-.593 1.453-.593c.844 0 1.037.198 1.422.593q.594.579.594 1.422c0 .843-.198 1.047-.594 1.453q-.578.594-1.422.594m-1.579 1.344h3.14v12.234h-3.14zm6.397 0h2.953v1.531h.203q.547-.89 1.547-1.406a4.76 4.76 0 0 1 2.188-.516q2.202 0 3.359 1.344 1.155 1.344 1.156 3.672v7.61h-3.14v-7.22q0-1.186-.61-1.828-.594-.656-1.672-.656-1.28 0-2.062.985-.765.984-.766 2.484v6.234h-3.156zm19.896 17.797q-2.328 0-3.859-1.047-1.53-1.031-2.062-2.5l2.953-1.203q.375.922 1.172 1.437.796.531 1.796.532 1.485 0 2.36-.922.89-.906.89-2.578v-.97h-.203q-.577.83-1.515 1.266-.922.423-2.125.422-1.515 0-2.828-.78-1.298-.782-2.094-2.204-.797-1.437-.797-3.328c0-1.891.266-2.365.797-3.313q.797-1.438 2.094-2.218a5.43 5.43 0 0 1 2.828-.782q1.203 0 2.125.438.938.422 1.515 1.25h.203v-1.297h3.016v11.39q0 1.969-.766 3.407a5.23 5.23 0 0 1-2.187 2.219q-1.407.78-3.313.78m.047-8.422q1.329 0 2.266-.922c.937-.922.937-1.458.937-2.531q0-1.656-.937-2.547-.922-.906-2.266-.906t-2.28.922q-.923.906-.923 2.53c0 1.625.308 1.933.922 2.548q.938.906 2.281.906M71.368 432.711a2 2 0 0 1-1.454-.594q-.593-.609-.593-1.453c0-.844.198-1.036.593-1.422q.61-.593 1.454-.593c.844 0 1.036.198 1.421.593q.594.579.594 1.422c0 .843-.198 1.047-.594 1.453q-.578.594-1.421.594m-1.579 1.344h3.141v12.234h-3.14zm11.543 12.625q-1.656 0-3.016-.828c-1.36-.828-1.62-1.318-2.14-2.297q-.782-1.485-.782-3.39 0-1.86.782-3.344.78-1.5 2.14-2.329 1.36-.828 3.016-.828 1.25 0 2.203.547.953.531 1.469 1.328h.187l-.187-1.734v-4.703h3.11v17.187H85.19v-1.468h-.187q-.484.796-1.453 1.328c-.97.532-1.386.531-2.219.531m.516-2.906q.89 0 1.656-.453.78-.47 1.234-1.282.453-.811.453-1.875 0-1.046-.453-1.859a3.14 3.14 0 0 0-1.234-1.266 3.2 3.2 0 0 0-3.281 0q-.765.438-1.22 1.266-.452.812-.452 1.86 0 1.062.453 1.874.453.814 1.219 1.282a3.14 3.14 0 0 0 1.625.453m9.362-14.672h3.157v17.187H91.21zm11.855 17.578q-1.813 0-3.282-.844a6.05 6.05 0 0 1-2.296-2.312q-.83-1.486-.829-3.328 0-1.75.813-3.25a6.4 6.4 0 0 1 2.266-2.391q1.436-.89 3.218-.89 1.89 0 3.25.827a5.25 5.25 0 0 1 2.078 2.235q.72 1.406.72 3.125 0 .563-.079 1.062h-9.187q.234 1.47 1.156 2.22.937.75 2.219.75 1.093 0 1.859-.47a3.6 3.6 0 0 0 1.25-1.25l2.531 1.25q-1.86 3.266-5.687 3.266m2.906-8q-.047-.578-.422-1.14-.36-.563-1.031-.938-.656-.375-1.547-.375-1.125 0-1.938.672-.795.656-1.156 1.781zm16.391 7.797a5.1 5.1 0 0 1-1.672-.266q-.765-.281-1.25-.765-1.125-1.08-1.125-3.063v-5.64h-2.14v-2.688h2.14v-3.469h3.141v3.469h3v2.687h-3v5.063q0 .938.406 1.344.345.375 1.157.375.453 0 .75-.11.297-.124.78-.406v3.063a5.9 5.9 0 0 1-2.187.406m6.605-13.766a2 2 0 0 1-1.453-.594q-.593-.609-.593-1.453c0-.844.197-1.036.593-1.422q.61-.593 1.453-.593c.843 0 1.037.198 1.422.593q.594.579.594 1.422c0 .843-.198 1.047-.594 1.453q-.578.594-1.422.594m-1.578 1.344h3.14v12.234h-3.14zm6.397 0h2.953v1.531h.203a4 4 0 0 1 1.532-1.406q.984-.516 2.187-.516 1.297 0 2.25.61t1.375 1.547a4.5 4.5 0 0 1 1.64-1.547q1.048-.61 2.454-.61 2.094 0 3.187 1.282 1.095 1.281 1.094 3.468v7.875h-3.125v-7.297q0-1.155-.547-1.78-.531-.626-1.5-.626-1.218 0-1.953.985-.735.968-.734 2.546v6.172h-3.14v-7.297q0-1.155-.563-1.78-.563-.626-1.594-.626-1.155 0-1.86.985-.702.968-.703 2.546v6.172h-3.156zm27.598 12.625q-1.812 0-3.28-.844a6.05 6.05 0 0 1-2.298-2.312q-.828-1.486-.828-3.328 0-1.75.813-3.25a6.4 6.4 0 0 1 2.265-2.391q1.438-.89 3.22-.89 1.89 0 3.25.827a5.25 5.25 0 0 1 2.077 2.235q.72 1.406.719 3.125 0 .563-.078 1.062h-9.188q.235 1.47 1.157 2.22.937.75 2.218.75 1.095 0 1.86-.47a3.6 3.6 0 0 0 1.25-1.25l2.531 1.25q-1.86 3.266-5.688 3.266m2.907-8q-.047-.578-.422-1.14-.36-.563-1.031-.938-.657-.375-1.547-.375-1.125 0-1.938.672-.796.656-1.156 1.781zm12.844-5.969a2 2 0 0 1-1.453-.594q-.594-.609-.594-1.453c0-.844.198-1.036.594-1.422q.609-.593 1.453-.593c.844 0 1.037.198 1.422.593q.594.579.594 1.422c0 .843-.198 1.047-.594 1.453q-.578.594-1.422.594m-1.578 1.344h3.14v12.234h-3.14zm7.725 2.687h-2.187v-2.687h2.187v-.672q0-2.094 1.25-3.281t3.266-1.188q1.14 0 1.984.266v3.062a6 6 0 0 0-.812-.28 3 3 0 0 0-.797-.095q-.798 0-1.282.454-.468.453-.468 1.25v.484h3v2.687h-3v9.547h-3.14zm14.2-2.687h2.953v1.531h.203q.547-.89 1.547-1.406a4.76 4.76 0 0 1 2.188-.516q2.202 0 3.359 1.344 1.156 1.344 1.156 3.672v7.61h-3.14v-7.22q0-1.186-.61-1.828-.594-.656-1.672-.656-1.28 0-2.062.985-.766.984-.766 2.484v6.234h-3.156zm20.235 12.625q-1.89 0-3.39-.844a6.13 6.13 0 0 1-2.313-2.328q-.828-1.484-.828-3.344 0-1.812.828-3.297a5.96 5.96 0 0 1 2.313-2.343q1.5-.86 3.39-.86 1.875 0 3.36.86a5.96 5.96 0 0 1 2.312 2.343q.828 1.485.828 3.297 0 1.86-.828 3.344a6.13 6.13 0 0 1-2.312 2.328q-1.485.844-3.36.844m0-2.906q.907 0 1.672-.438.781-.437 1.235-1.25c.454-.813.453-1.182.453-1.922q0-1.078-.453-1.89a3.17 3.17 0 0 0-1.235-1.25 3.3 3.3 0 0 0-1.672-.438q-.906 0-1.687.438-.765.437-1.235 1.25-.453.812-.453 1.89c0 1.078.151 1.354.453 1.907a3.3 3.3 0 0 0 1.235 1.265q.78.438 1.687.438m13.869 2.703a5.1 5.1 0 0 1-1.672-.266q-.765-.281-1.25-.765-1.125-1.08-1.125-3.063v-5.64h-2.14v-2.688h2.14v-3.469h3.14v3.469h3v2.687h-3v5.063q0 .938.407 1.344.345.375 1.156.375.453 0 .75-.11.298-.124.781-.406v3.063a5.9 5.9 0 0 1-2.187.406m16.18.203q-1.891 0-3.391-.844a6.13 6.13 0 0 1-2.313-2.328q-.828-1.484-.828-3.344 0-1.812.828-3.297a5.96 5.96 0 0 1 2.313-2.343q1.5-.86 3.39-.86 1.875 0 3.36.86a5.96 5.96 0 0 1 2.312 2.343q.828 1.485.828 3.297 0 1.86-.828 3.344a6.13 6.13 0 0 1-2.312 2.328q-1.485.844-3.36.844m0-2.906q.905 0 1.671-.438.78-.437 1.234-1.25c.454-.813.454-1.182.454-1.922q0-1.078-.454-1.89a3.17 3.17 0 0 0-1.234-1.25 3.3 3.3 0 0 0-1.672-.438q-.906 0-1.687.438-.765.437-1.235 1.25-.453.812-.453 1.89c0 1.078.151 1.354.453 1.907a3.3 3.3 0 0 0 1.235 1.265q.78.438 1.687.438m8.66-9.719h2.953v1.531h.203q.547-.89 1.547-1.406a4.76 4.76 0 0 1 2.187-.516q2.204 0 3.36 1.344t1.156 3.672v7.61h-3.14v-7.22q0-1.186-.61-1.828-.594-.656-1.672-.656-1.281 0-2.062.985-.766.984-.766 2.484v6.234h-3.156zm23.742 12.625q-1.937 0-3.188-1.14-1.25-1.142-1.25-3 0-1.22.64-2.157.657-.937 1.782-1.437t2.5-.5q1.89 0 3.234.546v-.53q0-1.001-.765-1.626-.75-.624-2.016-.625-.86 0-1.672.406-.796.39-1.328 1.032l-2.015-1.578a5.94 5.94 0 0 1 2.234-1.782 6.8 6.8 0 0 1 2.922-.625q2.813 0 4.265 1.297 1.47 1.297 1.47 3.797v7.531h-3.095v-1.25h-.187q-.563.72-1.469 1.188-.89.453-2.062.453m.75-2.453q1.36 0 2.156-.875a2.9 2.9 0 0 0 .812-2.047 5.9 5.9 0 0 0-2.562-.578q-2.453 0-2.453 1.812 0 .75.531 1.22.531.468 1.516.468m19.236 2.453q-2.235 0-3.61-.906-1.374-.923-1.937-2.39l2.813-1.22q.39.859 1.093 1.313.705.437 1.64.437.876 0 1.438-.265.579-.282.579-.907a.97.97 0 0 0-.532-.906q-.515-.297-1.578-.531l-1.437-.313q-1.485-.36-2.47-1.312c-.984-.952-.983-1.422-.983-2.36q0-1.062.625-1.906.64-.843 1.734-1.297t2.406-.453q3.797 0 5.078 2.672l-2.687 1.172q-.734-1.297-2.313-1.297-.812 0-1.297.297-.483.297-.484.75 0 .875 1.64 1.297l1.798.437q1.827.454 2.75 1.391.921.938.921 2.313 0 1.171-.687 2.078-.672.89-1.875 1.406-1.188.5-2.625.5m7.464-17.578h3.156v17.187h-3.156zm11.979 17.578q-1.89 0-3.39-.844a6.13 6.13 0 0 1-2.313-2.328q-.828-1.484-.828-3.344 0-1.812.828-3.297a5.96 5.96 0 0 1 2.312-2.343q1.5-.86 3.391-.86 1.875 0 3.36.86a5.96 5.96 0 0 1 2.312 2.343q.828 1.485.828 3.297 0 1.86-.828 3.344a6.13 6.13 0 0 1-2.313 2.328q-1.484.844-3.359.844m0-2.906q.906 0 1.672-.438.78-.437 1.234-1.25c.454-.813.453-1.182.453-1.922q0-1.078-.453-1.89a3.17 3.17 0 0 0-1.234-1.25 3.3 3.3 0 0 0-1.672-.438q-.906 0-1.688.438-.765.437-1.234 1.25-.453.812-.453 1.89c0 1.078.151 1.354.453 1.907a3.3 3.3 0 0 0 1.234 1.265q.782.438 1.688.438m7.301-9.719h3.531l2.11 7.937h.156l2.453-7.937h3.219l2.453 7.937h.156l2.125-7.937h3.47l-3.907 12.234h-3.39l-2.485-7.922h-.172l-2.469 7.922h-3.36zm26.967 0h2.954v1.531h.203q.546-.89 1.547-1.406a4.76 4.76 0 0 1 2.187-.516q2.204 0 3.36 1.344t1.156 3.672v7.61h-3.14v-7.22q0-1.186-.61-1.828-.594-.656-1.672-.656-1.281 0-2.063.985-.765.984-.765 2.484v6.234h-3.157zm20.11 12.625q-1.812 0-3.28-.844a6.05 6.05 0 0 1-2.297-2.312q-.828-1.486-.828-3.328 0-1.75.812-3.25a6.4 6.4 0 0 1 2.266-2.391q1.437-.89 3.218-.89 1.89 0 3.25.827a5.25 5.25 0 0 1 2.079 2.235q.718 1.406.718 3.125 0 .563-.078 1.062h-9.187q.234 1.47 1.156 2.22.938.75 2.219.75 1.093 0 1.86-.47a3.6 3.6 0 0 0 1.25-1.25l2.53 1.25q-1.86 3.266-5.687 3.266m2.907-8q-.047-.578-.422-1.14-.36-.563-1.031-.938-.656-.375-1.547-.375-1.125 0-1.937.672-.797.656-1.157 1.781zm10.416 7.797a5.1 5.1 0 0 1-1.672-.266q-.765-.281-1.25-.765-1.125-1.08-1.125-3.063v-5.64h-2.141v-2.688h2.14v-3.469h3.141v3.469h3v2.687h-3v5.063q0 .938.407 1.344.343.375 1.156.375.453 0 .75-.11.297-.124.781-.406v3.063a5.9 5.9 0 0 1-2.187.406M391 434.055h3.531l2.11 7.937h.156l2.453-7.937h3.219l2.453 7.937h.156l2.125-7.937h3.469l-3.906 12.234h-3.391l-2.484-7.922h-.172l-2.469 7.922h-3.36zm26.97 12.625q-1.89 0-3.39-.844a6.13 6.13 0 0 1-2.312-2.328q-.828-1.484-.829-3.344 0-1.812.829-3.297a5.96 5.96 0 0 1 2.312-2.343q1.5-.86 3.39-.86 1.875 0 3.36.86a5.96 5.96 0 0 1 2.313 2.343q.828 1.485.828 3.297 0 1.86-.828 3.344a6.13 6.13 0 0 1-2.313 2.328q-1.485.844-3.36.844m0-2.906q.907 0 1.673-.438.78-.437 1.234-1.25t.453-1.922q0-1.078-.453-1.89a3.17 3.17 0 0 0-1.234-1.25 3.3 3.3 0 0 0-1.672-.438q-.906 0-1.688.438-.765.437-1.234 1.25-.453.812-.453 1.89c0 1.078.15 1.354.453 1.907a3.3 3.3 0 0 0 1.234 1.265q.782.438 1.688.438m8.661-9.719h2.953v1.625h.204q.452-.86 1.406-1.422a4.13 4.13 0 0 1 2.11-.562q.843 0 1.546.25v3.156a7.5 7.5 0 0 0-1.11-.344 4 4 0 0 0-.937-.11q-1.39.001-2.203 1.016-.812 1-.812 2.532v6.093h-3.157zM437 429.102h3.157v9.36h.156l4.39-4.407h3.875v.187l-4.64 4.532 4.844 7.328v.187h-3.72l-3.327-5.359-1.578 1.562v3.797H437z"/><path d="M674.59 391.514h234.554v89.48H674.591z"/></g></g></svg>