<svg xmlns="http://www.w3.org/2000/svg" xmlns:xlink="http://www.w3.org/1999/xlink" width="1280" height="735"><defs><path id="a" d="M0 0h1280v720H0z"/></defs><g fill="none" fill-rule="evenodd"><mask id="b" fill="#fff"><use xlink:href="#a"/></mask><g mask="url(#b)"><path fill="#fff" d="M0 0h1280v720H0z"/><path fill="#b7b7b7" fill-rule="nonzero" d="M1191.584 401.82h-125.178V197.706h125.178v204.112zm-72.33 20.725c0-5.612 4.48-10.164 10.008-10.164 5.529 0 10.007 4.552 10.007 10.164 0 5.61-4.478 10.17-10.007 10.17-5.528-.008-10.008-4.56-10.008-10.17m80.729 9.224h.017V187.105h-.004c-.026-5.585-4.53-10.105-10.092-10.105-.04 0-.072.004-.108.004V177h-121.71c-5.553.004-10.054 4.524-10.084 10.105H1058v244.662h.015c-.004.107-.015.212-.015.322 0 5.473 4.573 9.911 10.215 9.911.084 0 .165-.011.248-.013V442h121.579c5.49 0 9.956-4.436 9.956-9.911.002-.109-.011-.215-.015-.32"/><path d="M711.906 671.388h498.477v38.76H711.906z"/><path fill="#4285f4" d="M772.724 328.042h231.58v-22.814l61.712 61.712-61.712 61.71v-22.813h-231.58z"/><path fill="#fff" d="M751.652 198.196H877.16v226.45H751.652z"/><path fill="#b7b7b7" d="M764.706 353.297h42.301v38.55h-42.3z"/><path fill="#4285f4" d="M814.247 353.297h47.215v9.303h-47.215z"/><path fill="#b7b7b7" d="M814.247 367.924h35.033v9.304h-35.033z"/><path fill="#4285f4" d="M764.706 235.506h42.301v38.55h-42.3z"/><path fill="#b7b7b7" d="M814.247 235.506h47.215v9.303h-47.215zm0 14.627h35.033v9.304h-35.033zm-49.541 44.268h42.301v38.55h-42.3z"/><path fill="#4285f4" d="M814.247 294.401h47.215v9.303h-47.215z"/><path fill="#b7b7b7" d="M814.247 309.029h35.033v9.303h-35.033z"/><path d="M743.925 154.88h173.583v327.572H743.925z"/><path fill="#efefef" d="M754.572 199.47H874.46v22.459H754.572z"/><path fill="#d9d9d9" d="M760.721 204.15h15.444v13.128h-15.444z"/><path d="M880.297 268.605h171.717v80.168H880.297z"/><path fill="#4285f4" fill-rule="nonzero" d="M902.777 294.877h-6v6.208h-3.125V285.92h9.875v2.52h-6.75v3.917h6zm8.541 6.208a3.3 3.3 0 0 1-.291-1.02q-1.104 1.229-2.855 1.229-1.645 0-2.75-.959-1.083-.958-1.083-2.416 0-1.792 1.333-2.75 1.334-.96 3.834-.98h1.396v-.645q0-.771-.417-1.23-.395-.479-1.25-.479-.771 0-1.208.375-.417.355-.417.98h-3.02q0-.98.603-1.813.605-.833 1.709-1.292 1.104-.479 2.479-.479 2.084 0 3.312 1.042 1.23 1.042 1.23 2.937v4.896q0 1.605.437 2.417v.187zm-2.479-2.104a2.6 2.6 0 0 0 1.23-.291 1.9 1.9 0 0 0 .833-.792v-1.938h-1.125q-2.271 0-2.417 1.563v.167q0 .562.396.937.396.354 1.083.354m13.5-1.02q0-.542-.562-.855-.542-.333-1.75-.583-4.02-.834-4.021-3.417 0-1.5 1.25-2.5t3.25-1q2.145 0 3.437 1.021 1.292 1 1.292 2.604h-3.02q0-.645-.418-1.062-.416-.417-1.291-.417-.771 0-1.188.354a1.05 1.05 0 0 0-.416.854q0 .501.479.813.48.312 1.604.542 1.125.207 1.896.5 2.375.875 2.375 3.02 0 1.543-1.334 2.5-1.312.96-3.395.959-1.417 0-2.521-.5-1.104-.521-1.73-1.396a3.2 3.2 0 0 1-.624-1.896h2.854q.042.792.583 1.23.563.416 1.5.416.855 0 1.292-.313.458-.332.458-.875zm8.469-10.917v2.77h1.917v2.209h-1.917v5.625q0 .625.229.896.25.27.917.27.5 0 .896-.083v2.292q-.897.27-1.834.27-3.165 0-3.229-3.208v-6.062h-1.646v-2.208h1.646v-2.771zm19.062 8.5q0 2.604-1.187 4.187-1.188 1.563-3.188 1.563-1.708 0-2.77-1.188v5.313h-3v-15.604h2.791l.104 1.104q1.084-1.313 2.855-1.313 2.082 0 3.229 1.542 1.166 1.541 1.166 4.25zm-3.02-.209q0-1.583-.563-2.437-.542-.854-1.604-.854-1.417 0-1.958 1.083v4.625q.562 1.104 1.979 1.104 2.145 0 2.146-3.52zm11.406 5.75a3.3 3.3 0 0 1-.292-1.02q-1.104 1.229-2.854 1.229-1.646 0-2.75-.959-1.083-.957-1.083-2.416 0-1.792 1.333-2.75 1.334-.96 3.833-.98h1.396v-.645q0-.771-.417-1.23-.395-.479-1.25-.479-.77 0-1.208.375-.417.355-.417.98h-3.02q0-.98.604-1.813t1.708-1.292q1.104-.479 2.48-.479 2.082 0 3.312 1.042t1.229 2.937v4.896q0 1.604.437 2.417v.187zm-2.48-2.104a2.6 2.6 0 0 0 1.23-.291 1.9 1.9 0 0 0 .833-.792v-1.938h-1.125q-2.271 0-2.417 1.563v.167q0 .562.396.937.396.354 1.084.354zm6.959-3.625q0-2.582 1.23-4.166t3.332-1.584q1.855 0 2.875 1.271l.125-1.062h2.73v10.895q0 1.48-.667 2.563-.666 1.104-1.896 1.667-1.208.582-2.854.583-1.23 0-2.417-.5-1.166-.48-1.77-1.27l1.333-1.834q1.125 1.27 2.729 1.27 1.188 0 1.854-.645t.667-1.834v-.604q-1.042 1.188-2.73 1.188-2.04 0-3.291-1.584-1.25-1.604-1.25-4.229zm3 .23q0 1.52.604 2.395.625.875 1.708.875 1.376 0 1.959-1.041v-4.73q-.605-1.041-1.938-1.041-1.083 0-1.708.896-.625.875-.625 2.645zm14.802 5.708q-2.48 0-4.042-1.521t-1.562-4.063v-.291q0-1.687.646-3.021.667-1.354 1.875-2.063 1.208-.729 2.75-.729 2.312 0 3.625 1.459 1.333 1.458 1.333 4.125v1.229h-7.167q.147 1.104.875 1.77.73.667 1.855.667 1.75 0 2.729-1.25l1.479 1.646q-.688.959-1.854 1.5-1.146.542-2.542.542m-.354-9.25q-.895 0-1.458.604-.543.605-.709 1.73h4.188v-.25q-.021-1.001-.542-1.543-.52-.54-1.48-.541zm15.177 9.041h-3.02v-16h3.02zm2.01-5.75q0-1.666.646-2.979.646-1.312 1.854-2.02 1.23-.73 2.834-.73 2.271 0 3.708 1.396 1.458 1.396 1.625 3.792l.02.77q0 2.584-1.457 4.167-1.438 1.563-3.875 1.563c-2.437 0-2.924-.521-3.896-1.563q-1.46-1.562-1.459-4.25zm3.021.23q0 1.603.604 2.458.605.833 1.73.833 1.083 0 1.687-.833.625-.833.625-2.688 0-1.562-.625-2.416-.604-.875-1.708-.875c-1.104 0-1.306.284-1.709.854q-.603.854-.604 2.667m16.042 5.52a3.3 3.3 0 0 1-.292-1.02q-1.104 1.229-2.854 1.229-1.646 0-2.75-.959-1.083-.957-1.083-2.416 0-1.792 1.333-2.75 1.334-.96 3.833-.98h1.396v-.645q0-.771-.416-1.23-.396-.479-1.25-.479-.771 0-1.209.375-.417.355-.416.98h-3.021q0-.98.604-1.813t1.708-1.292q1.104-.479 2.48-.479 2.082 0 3.312 1.042t1.229 2.937v4.896q0 1.605.438 2.417v.187zm-2.48-2.104a2.6 2.6 0 0 0 1.23-.291 1.9 1.9 0 0 0 .833-.792v-1.938h-1.125q-2.272 0-2.416 1.563v.167q0 .562.395.937.396.354 1.084.354zm6.917-3.625q0-2.625 1.188-4.187t3.229-1.563q1.646 0 2.73 1.23v-5.75h3.02v16h-2.73l-.145-1.209q-1.125 1.417-2.896 1.417-1.98 0-3.187-1.563-1.209-1.583-1.209-4.375m3.021.23q0 1.582.542 2.437.563.833 1.604.833 1.395 0 1.98-1.187v-4.438q-.564-1.187-1.96-1.187-2.166 0-2.166 3.541z"/><path fill="#cfe2f3" d="M.003 328.042h689.575v-22.814l61.712 61.712-61.712 61.71v-22.813H.003z"/><path d="M25.323 19.892h1229.354v80.167H25.323z"/><path fill="#666" fill-rule="nonzero" d="M63.635 72.852h-2.583V58.31H43.719v14.542h-2.563V42.518h2.563v13.625h17.333V42.518h2.583zm5.75-11.605q0-3.25 1.25-5.854 1.271-2.604 3.563-4.041 2.313-1.46 5.229-1.459 4.5 0 7.292 3.167 2.79 3.146 2.791 8.354v.52q0 3.272-1.27 5.897-1.25 2.604-3.542 4.02-2.292 1.417-5.23 1.417-4.478 0-7.291-3.146-2.792-3.165-2.792-8.375zm2.5.688q0 4.041 2.084 6.646 2.104 2.583 5.5 2.583 3.375 0 5.458-2.583 2.104-2.604 2.104-6.854v-.48q0-2.583-.958-4.729-.96-2.146-2.688-3.312-1.728-1.188-3.958-1.188-3.333 0-5.438 2.625-2.103 2.604-2.104 6.834zm28.167 5.729.375 1.938.5-2.042 5.417-17.25h2.125l5.354 17.104.583 2.375.48-2.187 4.624-17.292h2.584l-6.563 22.542h-2.125l-5.791-17.875-.271-1.23-.271 1.25-5.688 17.855H99.26L92.72 50.31h2.562zm36.146-6.292q0-5.25 2.333-8.354 2.355-3.125 6.375-3.125 4.563 0 6.958 3.604V40.852h2.48v32h-2.334l-.104-3q-2.395 3.416-7.042 3.416-3.895 0-6.291-3.125-2.376-3.145-2.375-8.479zm2.52.438q0 4.313 1.73 6.812 1.73 2.48 4.875 2.48 4.605 0 6.541-4.063V56.456q-1.937-4.395-6.5-4.396-3.146 0-4.895 2.479-1.75 2.459-1.75 7.27zm20.813-.563q0-3.25 1.25-5.854 1.27-2.604 3.563-4.041 2.311-1.46 5.229-1.459 4.5 0 7.291 3.167 2.793 3.146 2.792 8.354v.52q0 3.272-1.27 5.897-1.251 2.604-3.542 4.02-2.292 1.417-5.23 1.417-4.479 0-7.291-3.146-2.792-3.165-2.792-8.375zm2.5.688q0 4.041 2.083 6.646 2.105 2.583 5.5 2.583 3.375 0 5.459-2.583 2.104-2.604 2.104-6.854v-.48q0-2.583-.958-4.729-.96-2.146-2.688-3.312-1.73-1.188-3.958-1.188-3.333 0-5.438 2.625-2.103 2.604-2.104 6.834zm31.5 11.333q-2.875 0-5.208-1.416-2.313-1.417-3.604-3.938-1.292-2.541-1.292-5.687v-.896q0-3.25 1.25-5.854 1.27-2.605 3.52-4.084 2.25-1.5 4.876-1.5 4.104 0 6.5 2.813 2.416 2.791 2.416 7.646v1.395h-16.083v.48q0 3.833 2.188 6.395 2.209 2.542 5.541 2.542 2 0 3.521-.73 1.541-.728 2.792-2.332l1.562 1.187q-2.75 3.98-7.979 3.98zm-.458-21.25q-2.813 0-4.75 2.063-1.917 2.063-2.334 5.541h13.521v-.27q-.104-3.25-1.854-5.292t-4.583-2.042m27.27 15.104q0-1.854-1.5-2.979-1.478-1.125-4.478-1.75-3-.645-4.667-1.458-1.646-.834-2.459-2.021-.79-1.188-.791-2.875 0-2.667 2.229-4.396 2.23-1.75 5.708-1.75 3.771 0 6.042 1.875 2.292 1.854 2.292 4.854h-2.5q0-1.98-1.667-3.291-1.645-1.313-4.167-1.313-2.458 0-3.958 1.104-1.48 1.084-1.48 2.834 0 1.687 1.23 2.625 1.25.915 4.52 1.687 3.292.771 4.917 1.646 1.647.875 2.438 2.104t.792 2.98q0 2.853-2.313 4.562-2.292 1.708-6 1.708-3.937 0-6.396-1.896-2.437-1.916-2.437-4.833h2.5q.145 2.187 1.833 3.417 1.71 1.208 4.5 1.208 2.605 0 4.208-1.146 1.605-1.146 1.605-2.896zm37.834-5.333q0 5.208-2.375 8.354-2.354 3.126-6.375 3.125-3.417 0-5.52-2.375v10.625h-6.022V50.31h5.584l.208 2.208q2.187-2.625 5.708-2.625 4.167 0 6.48 3.084 2.312 3.082 2.312 8.5zm-6.02-.437q0-3.147-1.126-4.855-1.104-1.708-3.229-1.708-2.834 0-3.896 2.167v9.229q1.104 2.229 3.938 2.229 4.312 0 4.312-7.062zm22.416-5.396a16 16 0 0 0-2.167-.167q-3.416 0-4.479 2.313v14.75h-6.02V50.31h5.687l.166 2.687q1.813-3.105 5.021-3.104 1 0 1.875.271zm12.875 17.312q-4.959 0-8.083-3.041-3.105-3.042-3.105-8.105v-.583q0-3.396 1.313-6.062 1.312-2.688 3.708-4.125 2.417-1.46 5.5-1.459 4.626 0 7.271 2.917 2.667 2.916 2.667 8.27v2.459h-14.354q.29 2.208 1.75 3.542 1.479 1.333 3.729 1.333 3.48 0 5.437-2.52l2.959 3.312q-1.354 1.915-3.667 3-2.313 1.062-5.125 1.062m-.688-18.5q-1.791 0-2.916 1.209-1.105 1.208-1.417 3.458h8.375v-.48q-.042-1.999-1.083-3.083-1.041-1.104-2.959-1.104m15.021 18.084V54.727h-3.354V50.31h3.354v-1.917q0-3.792 2.167-5.875 2.187-2.104 6.104-2.104 1.25 0 3.063.417l-.063 4.666q-.75-.187-1.833-.187-3.396 0-3.396 3.187v1.813h4.479v4.417h-4.48v18.125zm23.521.416q-4.959 0-8.083-3.041-3.104-3.042-3.104-8.105v-.583q0-3.396 1.312-6.062 1.312-2.688 3.708-4.125 2.417-1.46 5.5-1.459 4.625 0 7.271 2.917 2.667 2.916 2.667 8.27v2.459h-14.354q.29 2.208 1.75 3.542 1.479 1.333 3.729 1.333 3.48 0 5.437-2.52l2.959 3.312q-1.354 1.915-3.667 3-2.313 1.062-5.125 1.062m-.688-18.5q-1.791 0-2.916 1.209-1.104 1.208-1.417 3.458h8.375v-.48q-.042-1.999-1.083-3.083-1.042-1.104-2.958-1.104zm20.584-10v5.542h3.854v4.417h-3.854v11.25q0 1.25.479 1.791.48.542 1.833.542a9.6 9.6 0 0 0 1.771-.146v4.563a12.4 12.4 0 0 1-3.646.541q-6.333 0-6.458-6.396V54.727h-3.292V50.31h3.292v-5.542zm16.583 23.646q1.667 0 2.709-.917 1.041-.916 1.083-2.437h5.646a7.8 7.8 0 0 1-1.25 4.208q-1.23 1.896-3.375 2.959-2.125 1.041-4.709 1.041-4.833 0-7.625-3.062-2.79-3.084-2.791-8.5v-.396q0-5.208 2.77-8.313t7.605-3.104q4.23 0 6.77 2.417 2.563 2.395 2.605 6.396h-5.646q-.043-1.75-1.083-2.834-1.043-1.104-2.75-1.104-2.105 0-3.188 1.542-1.062 1.521-1.063 4.958v.625q0 3.48 1.063 5t3.23 1.521zm18.75-15.646q2.395-2.874 6.021-2.875 7.333 0 7.438 8.521v14.438h-6.021V58.58q0-1.938-.834-2.854-.833-.938-2.77-.938-2.646 0-3.834 2.042v16.02h-6.02v-32h6.02v11.917zm32.104 20.084h-2.5V50.31h2.5zm-2.937-29.063q0-.708.458-1.187.458-.5 1.25-.5c.792 0 .945.166 1.25.5q.48.479.48 1.187t-.48 1.188q-.458.479-1.25.479c-.792 0-.944-.16-1.25-.48q-.458-.479-.458-1.187m11.979 6.52.083 3.668q1.25-2.042 3.125-3.063 1.876-1.02 4.167-1.02 5.334 0 6.77 4.374 1.21-2.104 3.23-3.229 2.02-1.146 4.458-1.146 7.25 0 7.396 7.917v15.042h-2.5V57.997q-.02-3.021-1.312-4.479-1.271-1.458-4.167-1.458-2.688.042-4.542 1.75-1.854 1.688-2.062 4.125v14.917h-2.5V57.81q-.02-2.895-1.375-4.313-1.334-1.437-4.125-1.437-2.355 0-4.042 1.354-1.687 1.333-2.5 3.98v15.458h-2.5V50.31h2.396zm53.667 11.5q0 5.272-2.334 8.376-2.333 3.083-6.25 3.083-4.625 0-7.083-3.25v11.5h-2.48V50.31h2.313l.125 3.187q2.438-3.603 7.063-3.604 4.041 0 6.333 3.063 2.313 3.062 2.313 8.5v.354zm-2.5-.437q0-4.312-1.771-6.812t-4.938-2.5q-2.291 0-3.937 1.104t-2.521 3.208v10.813q.895 1.938 2.563 2.958 1.666 1.02 3.937 1.021 3.146 0 4.896-2.5 1.77-2.52 1.77-7.292zm18.437-8.937a9.3 9.3 0 0 0-1.687-.146q-2.333 0-3.959 1.313-1.605 1.291-2.291 3.77v15.48h-2.48V50.31h2.438l.042 3.583q1.98-4 6.354-4 1.041 0 1.646.271zm2.146 8.812q0-3.25 1.25-5.854 1.27-2.604 3.563-4.041 2.312-1.46 5.229-1.459 4.5 0 7.291 3.167 2.792 3.146 2.792 8.354v.52q0 3.272-1.27 5.897-1.251 2.604-3.543 4.02-2.29 1.417-5.229 1.417-4.479 0-7.291-3.146-2.792-3.165-2.792-8.375zm2.5.688q0 4.041 2.083 6.646 2.104 2.583 5.5 2.583 3.375 0 5.459-2.583 2.103-2.604 2.104-6.854v-.48q0-2.583-.958-4.729-.96-2.146-2.688-3.312-1.73-1.188-3.958-1.188-3.334 0-5.438 2.625-2.104 2.604-2.104 6.834zm29.48 7.479 6.853-19.104h2.563l-8.417 22.542h-2.02l-8.459-22.542h2.563zm21.957 3.854q-2.874 0-5.208-1.416-2.312-1.417-3.604-3.938-1.292-2.541-1.292-5.687v-.896q0-3.25 1.25-5.854 1.271-2.605 3.521-4.084 2.25-1.5 4.875-1.5 4.104 0 6.5 2.813 2.417 2.791 2.417 7.646v1.395H539.74v.48q0 3.833 2.187 6.395 2.209 2.542 5.542 2.542 2 0 3.52-.73 1.542-.728 2.792-2.332l1.563 1.187q-2.75 3.98-7.98 3.98zm-.458-21.25q-2.812 0-4.75 2.063-1.916 2.063-2.333 5.541h13.52v-.27q-.104-3.25-1.853-5.292-1.75-2.042-4.584-2.042m42.271 9.792q0 5.27-2.333 8.375-2.335 3.083-6.25 3.083-4.626 0-7.084-3.25v11.5h-2.479V50.31h2.313l.125 3.187q2.438-3.603 7.062-3.604 4.042 0 6.334 3.063 2.312 3.062 2.312 8.5zm-2.5-.438q0-4.312-1.77-6.812-1.772-2.5-4.938-2.5-2.292 0-3.938 1.104-1.645 1.104-2.52 3.208v10.813q.895 1.938 2.562 2.958t3.937 1.021q3.147 0 4.896-2.5 1.77-2.52 1.771-7.292m22.25 11.48q-.375-1.063-.48-3.146-1.311 1.708-3.353 2.646a10.3 10.3 0 0 1-4.292.916q-3.25 0-5.27-1.812-2-1.813-2-4.584 0-3.291 2.728-5.208 2.75-1.917 7.646-1.917h4.521v-2.562q0-2.416-1.5-3.792-1.479-1.395-4.333-1.396-2.604 0-4.313 1.334-1.708 1.333-1.708 3.208l-2.5-.02q0-2.688 2.5-4.647 2.5-1.98 6.146-1.979 3.771 0 5.937 1.896 2.188 1.875 2.25 5.25v10.667q0 3.27.688 4.896v.25zm-7.833-1.792q2.499 0 4.458-1.208 1.98-1.208 2.875-3.23v-4.958h-4.458q-3.729.042-5.834 1.375-2.104 1.312-2.104 3.625 0 1.896 1.396 3.146 1.416 1.25 3.667 1.25m15.458-9.688q0-5.291 2.333-8.375 2.355-3.105 6.375-3.104 4.605 0 7 3.667l.125-3.25h2.334v22.083q0 4.355-2.438 6.896-2.437 2.541-6.604 2.542-2.355 0-4.5-1.063-2.125-1.042-3.354-2.791l1.396-1.5q2.645 3.25 6.291 3.25 3.126 0 4.875-1.855 1.75-1.833 1.813-5.104v-2.833q-2.396 3.333-6.98 3.333-3.916 0-6.291-3.125t-2.375-8.437zm2.52.438q0 4.313 1.73 6.812 1.73 2.48 4.875 2.48 4.605 0 6.52-4.125v-10.48q-.874-2.166-2.52-3.291-1.646-1.146-3.958-1.146-3.147 0-4.896 2.479-1.75 2.459-1.75 7.27zm30.876 11.458q-2.875 0-5.208-1.416-2.313-1.417-3.605-3.938-1.29-2.541-1.291-5.687v-.896q0-3.25 1.25-5.854 1.27-2.605 3.52-4.084 2.25-1.5 4.875-1.5 4.105 0 6.5 2.813 2.418 2.791 2.417 7.646v1.395h-16.083v.48q0 3.833 2.187 6.395 2.21 2.542 5.542 2.542 2 0 3.52-.73 1.543-.728 2.793-2.332l1.562 1.187q-2.75 3.98-7.98 3.98zm-.458-21.25q-2.813 0-4.75 2.063-1.917 2.063-2.334 5.541h13.521v-.27q-.105-3.25-1.854-5.292t-4.583-2.042m26.937 20.834h-2.5v-32h2.5zm5.396-11.605q0-3.25 1.25-5.854 1.271-2.604 3.562-4.041 2.313-1.46 5.23-1.459 4.5 0 7.291 3.167 2.792 3.146 2.792 8.354v.52q0 3.272-1.271 5.897-1.25 2.604-3.542 4.02-2.29 1.417-5.229 1.417-4.479 0-7.291-3.146-2.793-3.165-2.792-8.375zm2.5.688q0 4.041 2.083 6.646 2.104 2.583 5.5 2.583 3.375 0 5.459-2.583 2.104-2.604 2.104-6.854v-.48q0-2.583-.959-4.729-.958-2.146-2.687-3.312-1.73-1.188-3.958-1.188-3.334 0-5.438 2.625-2.104 2.604-2.104 6.834zm37 10.917q-.375-1.063-.48-3.146-1.311 1.708-3.353 2.646a10.3 10.3 0 0 1-4.292.916q-3.25 0-5.271-1.812-2-1.813-2-4.584 0-3.291 2.73-5.208 2.748-1.917 7.645-1.917h4.52v-2.562q0-2.416-1.5-3.792-1.478-1.395-4.332-1.396-2.605 0-4.313 1.334-1.708 1.333-1.708 3.208l-2.5-.02q0-2.688 2.5-4.647 2.5-1.98 6.145-1.979 3.771 0 5.938 1.896 2.187 1.875 2.25 5.25v10.667q0 3.27.688 4.896v.25zm-7.833-1.792q2.499 0 4.458-1.208 1.98-1.208 2.875-3.23v-4.958h-4.458q-3.73.042-5.834 1.375-2.104 1.312-2.104 3.625 0 1.896 1.396 3.146 1.417 1.25 3.667 1.25m15.458-9.688q0-5.25 2.333-8.354 2.355-3.125 6.375-3.125 4.563 0 6.959 3.604V40.852h2.479v32h-2.334l-.104-3q-2.395 3.416-7.041 3.416-3.897 0-6.292-3.125-2.375-3.145-2.375-8.479zm2.52.438q0 4.313 1.73 6.812 1.73 2.48 4.875 2.48 4.605 0 6.542-4.063V56.456q-1.938-4.395-6.5-4.396-3.147 0-4.896 2.479-1.75 2.459-1.75 7.27zm26.772 2.625q.041-2.458.666-3.958t2.688-3.521q2.063-2.042 2.645-2.875a6.6 6.6 0 0 0 .917-1.854q.334-1.021.334-2.313 0-2.604-1.396-4.083-1.375-1.5-3.855-1.5-2.499 0-4.041 1.437-1.521 1.418-1.563 3.854h-2.479q.042-3.416 2.313-5.458 2.27-2.062 5.77-2.062 3.584-.001 5.646 2.104 2.085 2.083 2.084 5.666 0 2.25-1.021 4.23-1.02 1.958-3.875 4.583-2.355 1.98-2.354 5.75zm-.334 6.958q0-.708.438-1.187.458-.5 1.27-.5.792 0 1.25.5.48.48.48 1.187 0 .688-.48 1.167-.458.458-1.25.458-.812 0-1.27-.458a1.67 1.67 0 0 1-.438-1.167"/><path d="M32.707 84.93h1081.07v71.77H32.708z"/><path fill="#4285f4" fill-rule="nonzero" d="M55.165 119.318h-3.729v8.333H46.75V104.9h8.437q4.041 0 6.23 1.792 2.187 1.79 2.187 5.083 0 2.333-1.021 3.896-1 1.542-3.042 2.458l4.917 9.292v.229h-5.02l-4.272-8.333zm-3.729-3.792h3.77q1.772 0 2.73-.896.98-.896.98-2.48 0-1.604-.917-2.52-.918-.937-2.813-.937h-3.75zm23.214 12.437q-3.729 0-6.063-2.27-2.333-2.292-2.333-6.084v-.437q0-2.564.979-4.563 1-1.999 2.792-3.083 1.812-1.104 4.125-1.104 3.458 0 5.458 2.187 2 2.188 2 6.209v1.854h-10.77q.207 1.645 1.312 2.646t2.791 1q2.605 0 4.084-1.896l2.208 2.5q-1 1.437-2.75 2.25-1.729.792-3.833.791m-.521-13.875q-1.334 0-2.188.917-.833.895-1.062 2.583h6.291v-.354q-.04-1.5-.833-2.312-.771-.834-2.208-.834m9.338 4.98q0-3.96 1.771-6.292 1.77-2.355 4.854-2.354 2.459 0 4.063 1.854v-8.625h4.541v24h-4.083l-.208-1.792q-1.688 2.104-4.354 2.104-2.98 0-4.792-2.354-1.791-2.355-1.792-6.541m4.5.333q0 2.375.834 3.646.832 1.25 2.416 1.25 2.084 0 2.938-1.75v-6.688q-.834-1.75-2.917-1.75-3.27 0-3.27 5.292zm24.344 6.52q-1.667 2.042-4.625 2.042-2.708 0-4.146-1.562-1.416-1.563-1.458-4.583v-11.084h4.52v10.938q0 2.625 2.397 2.625 2.312 0 3.166-1.584v-11.979h4.521v16.917h-4.25zm14.823-1.603q1.25 0 2.02-.688.794-.688.813-1.833h4.25a5.8 5.8 0 0 1-.958 3.166q-.916 1.416-2.52 2.209-1.584.792-3.522.791-3.624 0-5.729-2.291-2.083-2.313-2.083-6.375v-.313q0-3.895 2.062-6.229 2.084-2.333 5.709-2.333 3.165 0 5.083 1.812 1.916 1.813 1.958 4.813h-4.25q-.02-1.313-.812-2.125-.771-.834-2.063-.834-1.562 0-2.375 1.146t-.812 3.73v.458q0 2.625.791 3.77.813 1.126 2.438 1.126m17.437 3.645q-3.728 0-6.062-2.27-2.334-2.292-2.333-6.084v-.437q0-2.564.979-4.563 1-1.999 2.791-3.083 1.814-1.104 4.125-1.104 3.459 0 5.459 2.187 2 2.188 2 6.209v1.854h-10.771q.208 1.645 1.312 2.646t2.792 1q2.604 0 4.083-1.896l2.209 2.5q-1 1.437-2.75 2.25-1.729.792-3.834.791m-.52-13.875q-1.334 0-2.188.917-.833.895-1.062 2.583h6.291v-.354q-.04-1.5-.833-2.312-.771-.834-2.208-.834m19.192 8.896q0-.833-.833-1.312-.813-.48-2.625-.854-6.02-1.272-6.02-5.125 0-2.25 1.853-3.75 1.875-1.521 4.896-1.521 3.209 0 5.125 1.52 1.938 1.521 1.938 3.938h-4.5q0-.959-.625-1.583-.625-.645-1.959-.646-1.146 0-1.77.52a1.6 1.6 0 0 0-.625 1.313q0 .75.708 1.209.707.458 2.396.791 1.687.333 2.854.75 3.583 1.313 3.583 4.563 0 2.312-2 3.75-1.98 1.416-5.125 1.416-2.124 0-3.77-.75-1.647-.77-2.584-2.083-.937-1.333-.937-2.854h4.291q.063 1.208.875 1.854.834.625 2.23.625 1.29 0 1.958-.48.666-.499.666-1.29zm30.485-3.625q0 3.895-1.771 6.25t-4.792 2.354q-2.562 0-4.146-1.791v7.979h-4.52v-23.417h4.187l.167 1.667q1.645-1.98 4.27-1.98 3.126 0 4.855 2.313 1.75 2.313 1.75 6.375zm-4.521-.333q0-2.355-.833-3.625-.834-1.292-2.438-1.292-2.125 0-2.917 1.625v6.917q.834 1.667 2.959 1.667 3.23 0 3.229-5.292m17.12 8.625q-.313-.605-.459-1.52-1.645 1.832-4.27 1.832-2.48 0-4.125-1.437-1.625-1.437-1.625-3.625 0-2.688 1.979-4.125 2-1.438 5.77-1.458h2.084v-.959q0-1.186-.604-1.875-.604-.708-1.896-.708-1.146 0-1.792.542-.645.54-.646 1.5h-4.52q0-1.459.895-2.709.917-1.25 2.563-1.958 1.666-.73 3.729-.73 3.125 0 4.958 1.584 1.834 1.563 1.834 4.417v7.312q.021 2.417.687 3.646v.27h-4.562zm-3.75-3.146q.999 0 1.833-.437.855-.459 1.27-1.209v-2.896h-1.687q-3.396 0-3.604 2.334l-.02.27q0 .855.583 1.396.603.542 1.625.542m10.448-5.437q0-3.897 1.854-6.271 1.854-2.376 4.979-2.375 2.792 0 4.333 1.916l.188-1.604h4.104v16.354q0 2.23-1.02 3.855-1.002 1.645-2.834 2.5-1.833.875-4.271.875-1.875 0-3.646-.75-1.75-.75-2.667-1.917l2-2.75q1.688 1.896 4.105 1.896 1.791 0 2.791-.959 1-.957 1-2.729v-.916q-1.562 1.77-4.104 1.77-3.041 0-4.937-2.375-1.875-2.395-1.875-6.333zm4.52.333q0 2.293.917 3.604.917 1.292 2.52 1.292 2.064 0 2.96-1.542v-7.104q-.897-1.542-2.917-1.542-1.626 0-2.563 1.334-.917 1.312-.917 3.958m22.183 8.562q-3.729 0-6.063-2.27-2.333-2.292-2.333-6.084v-.437q0-2.564.98-4.563.999-1.999 2.79-3.083 1.814-1.104 4.126-1.104 3.458 0 5.458 2.187 2 2.188 2 6.209v1.854h-10.77q.207 1.645 1.312 2.646t2.791 1q2.605 0 4.084-1.896l2.208 2.5q-1 1.437-2.75 2.25-1.729.792-3.833.791m-.521-13.875q-1.333 0-2.188.917-.833.895-1.062 2.583h6.292v-.354q-.042-1.5-.834-2.312-.771-.834-2.208-.834m23.411-7.5v4.146h2.896v3.313h-2.896v8.437q0 .938.355 1.354.354.396 1.375.396.75 0 1.333-.104v3.417a9.1 9.1 0 0 1-2.73.416q-4.75 0-4.853-4.791v-9.125h-2.459v-3.313h2.459v-4.146zm14.896 8.396a12 12 0 0 0-1.625-.125q-2.562 0-3.354 1.73v11.062h-4.52v-16.917h4.27l.125 2.021q1.355-2.333 3.77-2.333.75 0 1.397.208zm11.516 12.667q-.313-.605-.459-1.52-1.645 1.832-4.27 1.832-2.48 0-4.125-1.437-1.626-1.437-1.625-3.625 0-2.688 1.979-4.125 2-1.438 5.77-1.458h2.084v-.959q0-1.186-.604-1.875-.605-.708-1.896-.708-1.146 0-1.792.542-.646.54-.646 1.5h-4.52q0-1.459.895-2.709.918-1.25 2.563-1.958 1.666-.73 3.73-.73 3.123 0 4.957 1.584 1.834 1.563 1.834 4.417v7.312q.021 2.417.687 3.646v.27h-4.562zm-3.75-3.146a3.9 3.9 0 0 0 1.833-.437q.854-.459 1.271-1.209v-2.896h-1.688q-3.395 0-3.604 2.334l-.02.27q0 .855.583 1.396.604.542 1.625.542m15.26-13.77.146 1.958q1.812-2.271 4.854-2.271 2.688 0 4 1.583 1.313 1.584 1.334 4.73v10.916h-4.5v-10.813q0-1.437-.625-2.083-.626-.645-2.084-.646-1.917 0-2.854 1.625v11.917h-4.52v-16.917h4.25zm22.922 12.25q0-.834-.833-1.313-.813-.48-2.625-.854-6.021-1.272-6.021-5.125 0-2.25 1.854-3.75 1.875-1.521 4.896-1.521 3.208 0 5.125 1.52 1.938 1.521 1.937 3.938h-4.5q0-.959-.625-1.583-.624-.645-1.958-.646-1.146 0-1.77.52a1.6 1.6 0 0 0-.626 1.313q0 .75.709 1.209.708.458 2.395.791t2.855.75q3.583 1.313 3.583 4.563 0 2.312-2 3.75-1.98 1.416-5.125 1.416-2.126 0-3.77-.75-1.647-.77-2.584-2.083-.938-1.333-.938-2.854h4.292q.063 1.208.875 1.854.834.625 2.23.625 1.29 0 1.957-.48.667-.499.667-1.29m12.057 4.666H331v-16.917h4.52zm-4.791-21.292q0-1 .666-1.646.688-.666 1.855-.666 1.165 0 1.854.666.687.646.687 1.646 0 1.042-.708 1.709-.688.645-1.833.645-1.125 0-1.834-.645-.687-.667-.687-1.709m13.922.23v4.145h2.895v3.313h-2.895v8.437q0 .938.354 1.354.354.396 1.375.396.75 0 1.333-.104v3.417a9.1 9.1 0 0 1-2.73.416q-4.75 0-4.853-4.791v-9.125h-2.459v-3.313h2.459v-4.146h4.52zm10.166 21.062h-4.52v-16.917h4.52zm-4.791-21.292q0-1 .666-1.646.689-.666 1.854-.666 1.167 0 1.855.666.687.646.687 1.646 0 1.042-.708 1.709-.688.645-1.834.645-1.124 0-1.833-.645-.687-.667-.687-1.709m7.817 12.688q0-2.52.959-4.48.978-1.979 2.791-3.062t4.23-1.083q3.416 0 5.583 2.104 2.167 2.084 2.416 5.687l.021 1.146q0 3.895-2.166 6.25-2.168 2.355-5.834 2.354-3.645 0-5.833-2.333-2.166-2.354-2.167-6.396zm4.5.312q0 2.416.896 3.688.917 1.27 2.604 1.27 1.647 0 2.563-1.25.937-1.27.937-4.02 0-2.376-.937-3.667-.916-1.292-2.584-1.292-1.666 0-2.583 1.292-.896 1.292-.896 3.98zm18.448-8.625.146 1.959q1.812-2.271 4.854-2.271 2.688 0 4 1.583 1.313 1.584 1.334 4.73v10.916h-4.5v-10.813q0-1.437-.625-2.083-.626-.645-2.084-.646-1.917 0-2.854 1.625v11.917h-4.52v-16.917h4.25zm27.14-4.146v4.146h2.897v3.313h-2.896v8.437q0 .938.354 1.354.354.396 1.375.396.75 0 1.333-.104v3.417a9.1 9.1 0 0 1-2.729.416q-4.75 0-4.854-4.791v-9.125h-2.458v-3.313h2.458v-4.146zm10.168 21.063h-4.521v-16.917h4.52zm-4.792-21.292q0-1 .667-1.646.687-.666 1.854-.666 1.166 0 1.854.666.687.646.687 1.646 0 1.042-.708 1.709-.688.645-1.833.645-1.125 0-1.834-.645-.687-.667-.687-1.709m12.755 4.375.125 1.896q1.812-2.208 4.875-2.208 3.25 0 4.48 2.583 1.77-2.583 5.083-2.583 2.75 0 4.083 1.604 1.354 1.604 1.354 4.833v10.792h-4.542v-10.792q0-1.438-.562-2.083-.563-.667-1.98-.667-2.04 0-2.812 1.938l.021 11.604h-4.52v-10.77q0-1.46-.584-2.105-.584-.667-1.958-.667-1.938 0-2.792 1.584v11.958h-4.52v-16.917h4.25zm31.245 17.23q-3.729 0-6.063-2.271-2.333-2.292-2.333-6.084v-.437q0-2.564.98-4.563.999-1.999 2.79-3.083 1.814-1.104 4.126-1.104 3.458 0 5.458 2.187 2 2.188 2 6.209v1.854h-10.77q.208 1.645 1.312 2.646t2.792 1q2.604 0 4.083-1.896l2.208 2.5q-1 1.437-2.75 2.25-1.729.792-3.833.791zm-.521-13.876q-1.334 0-2.187.917-.834.895-1.063 2.583h6.292v-.354q-.042-1.5-.834-2.312-.771-.834-2.208-.834m10.276 11.334q0-1.063.708-1.73.73-.687 1.834-.687c1.104 0 1.347.23 1.833.688q.73.666.73 1.729 0 1.062-.73 1.729-.708.666-1.833.667-1.104 0-1.834-.667-.708-.666-.708-1.73z"/><path d="M157.582 457.022H396.7v97.68H157.582z"/><path fill="#4285f4" fill-rule="nonzero" d="M184.873 506.569h-5.52v-21.271l-6.584 2.041v-4.479l11.521-4.125h.583z"/><path fill="#666" fill-rule="nonzero" d="M183.998 528.561v12.083q-.02 1.77-.791 3.105-.77 1.312-2.188 2.041-1.416.708-3.25.709-2.79 0-4.479-1.521-1.687-1.542-1.75-4.23v-12.187h1.5v11.958q0 2.25 1.271 3.48t3.458 1.229 3.459-1.23q1.27-1.25 1.27-3.458v-11.979zm11.703 14.354q0-1.083-.875-1.729-.874-.667-2.625-1.042c-1.751-.375-2.07-.534-2.708-.854q-.959-.48-1.438-1.166-.458-.688-.458-1.667 0-1.563 1.292-2.563 1.313-1.02 3.333-1.02 2.209 0 3.52 1.083 1.334 1.083 1.334 2.833h-1.458q0-1.167-.959-1.916-.957-.771-2.437-.771-1.438 0-2.313.646-.854.625-.854 1.645 0 .98.709 1.521.73.542 2.645 1 1.917.438 2.855.959.958.5 1.416 1.229.48.708.48 1.729 0 1.666-1.355 2.667-1.333 1-3.5 1-2.29 0-3.729-1.105-1.417-1.125-1.417-2.833h1.459q.083 1.292 1.062 2 1 .708 2.625.708 1.521 0 2.459-.666.937-.667.937-1.688m9.804 3.584q-1.667 0-3.02-.834a5.83 5.83 0 0 1-2.126-2.291q-.75-1.48-.75-3.313v-.52q0-1.897.73-3.417.75-1.521 2.062-2.375 1.313-.875 2.833-.875 2.395 0 3.792 1.625 1.416 1.624 1.416 4.458v.812h-9.375v.292q0 2.23 1.271 3.73 1.292 1.478 3.23 1.478 1.166 0 2.062-.416.896-.438 1.625-1.375l.917.687q-1.605 2.334-4.667 2.334m-.27-12.396q-1.626 0-2.75 1.208-1.126 1.188-1.376 3.23h7.896v-.167q-.063-1.896-1.083-3.084-1.022-1.187-2.688-1.187zm14.1.25a5.5 5.5 0 0 0-.98-.084q-1.353 0-2.291.75c-.938.75-1.077 1.236-1.354 2.209v9.02h-1.438v-13.145h1.417l.02 2.083q1.167-2.312 3.709-2.312.604 0 .958.145zm12.438 9.896 4-11.146h1.5l-4.917 13.146h-1.167l-4.937-13.146h1.5l4.02 11.146zm9.505 2h-1.458v-13.146h1.458zm-1.708-16.938q0-.417.27-.708.271-.292.73-.292t.729.292.27.708q0 .417-.27.688t-.73.27q-.458 0-.728-.27a.93.93 0 0 1-.271-.688m13.533 13.604q0-1.083-.875-1.729-.875-.667-2.625-1.042c-1.75-.375-2.07-.534-2.708-.854q-.959-.48-1.438-1.166-.458-.688-.458-1.667 0-1.563 1.292-2.563 1.313-1.02 3.333-1.02 2.208 0 3.52 1.083 1.334 1.083 1.334 2.833h-1.458q0-1.167-.959-1.916-.957-.771-2.437-.771-1.438 0-2.313.646-.854.625-.854 1.645 0 .98.709 1.521.73.542 2.645 1 1.917.438 2.855.959.958.5 1.416 1.229.48.708.48 1.729 0 1.666-1.355 2.667-1.333 1-3.5 1-2.29 0-3.729-1.105-1.416-1.125-1.417-2.833h1.459q.083 1.292 1.062 2 1 .708 2.625.708 1.521 0 2.459-.666.937-.667.937-1.688m6.346 3.334h-1.459v-13.146h1.459zm-1.709-16.938a1 1 0 0 1 .271-.708q.27-.292.73-.292.458 0 .728.292.27.291.271.708 0 .417-.27.688-.271.27-.73.27-.457 0-.729-.27a.93.93 0 0 1-.27-.688zm7.909.438v3.354h2.729v1.187h-2.73v8.771q0 1.083.396 1.625.396.52 1.334.52.354 0 1.166-.103l.063 1.187q-.563.21-1.563.209-1.479 0-2.166-.875-.688-.876-.688-2.563v-8.77h-2.416v-1.188h2.416v-3.354zm13.617 13.166q0-1.083-.875-1.729-.876-.667-2.625-1.042t-2.709-.854-1.437-1.166q-.459-.688-.459-1.667 0-1.563 1.292-2.563 1.312-1.02 3.333-1.02 2.209 0 3.521 1.083 1.334 1.083 1.334 2.833h-1.459q0-1.167-.958-1.916-.958-.771-2.438-.771-1.437 0-2.312.646-.854.625-.854 1.645 0 .98.708 1.521.729.542 2.646 1 1.918.438 2.854.959.958.5 1.417 1.229.48.708.479 1.729 0 1.666-1.354 2.667-1.334 1-3.5 1-2.292 0-3.73-1.105-1.416-1.125-1.416-2.833h1.458q.084 1.292 1.063 2 .999.708 2.625.708 1.52 0 2.458-.666.938-.667.938-1.688m19.06 3.334q-.209-.625-.27-1.834a5.1 5.1 0 0 1-1.959 1.542 6 6 0 0 1-2.5.542q-1.895 0-3.083-1.063-1.167-1.062-1.167-2.667 0-1.916 1.604-3.041t4.459-1.125h2.625v-1.48q0-1.416-.875-2.229-.855-.812-2.521-.812-1.52 0-2.521.792-1 .77-1 1.875l-1.458-.021q0-1.563 1.458-2.709c1.458-1.146 2.167-1.145 3.583-1.145q2.209 0 3.48 1.104 1.27 1.083 1.312 3.041v6.23q0 1.916.396 2.854v.146zm-4.562-1.042q1.458 0 2.604-.708 1.146-.71 1.667-1.875v-2.896h-2.604q-2.168.02-3.396.791-1.23.771-1.23 2.125 0 1.104.813 1.834.833.729 2.146.729m26.206-5.396q0 3.084-1.354 4.896-1.354 1.792-3.646 1.792-2.688 0-4.125-1.896v6.708h-1.458v-18.208h1.354l.083 1.854q1.418-2.083 4.104-2.083 2.355 0 3.688 1.791 1.354 1.77 1.354 4.938zm-1.458-.25q0-2.52-1.042-3.98-1.02-1.457-2.875-1.457-1.334 0-2.292.645-.958.646-1.458 1.875v6.292q.52 1.146 1.48 1.75.978.583 2.312.583 1.833 0 2.854-1.458 1.02-1.48 1.02-4.25zm12.973 6.688q-.21-.625-.27-1.834a5.1 5.1 0 0 1-1.96 1.542 6 6 0 0 1-2.5.542q-1.894 0-3.083-1.063-1.166-1.062-1.166-2.667 0-1.916 1.604-3.041t4.458-1.125h2.625v-1.48q0-1.416-.875-2.229-.855-.812-2.52-.812-1.522 0-2.521.792-1 .77-1 1.875l-1.459-.021q0-1.563 1.459-2.709 1.458-1.146 3.583-1.145 2.208 0 3.48 1.104 1.27 1.083 1.312 3.041v6.23q0 1.916.395 2.854v.146zm-4.563-1.042q1.458 0 2.605-.708 1.147-.71 1.666-1.875v-2.896h-2.604q-2.166.02-3.396.791t-1.229 2.125q0 1.104.813 1.834.832.729 2.145.729m9.012-5.646q0-3.083 1.354-4.875 1.375-1.812 3.73-1.812 2.686 0 4.083 2.125l.062-1.896h1.354v12.875q0 2.541-1.416 4.02-1.418 1.48-3.854 1.48a5.8 5.8 0 0 1-2.625-.625q-1.23-.605-1.938-1.625l.813-.875q1.541 1.896 3.666 1.896 1.813 0 2.834-1.084 1.02-1.062 1.062-2.958v-1.667q-1.396 1.959-4.083 1.959-2.27 0-3.667-1.813-1.375-1.833-1.375-4.937zm1.48.25q0 2.52 1 3.98.999 1.437 2.833 1.437 2.687 0 3.812-2.396v-6.125q-.52-1.25-1.48-1.917-.957-.666-2.312-.666-1.833 0-2.854 1.437-1 1.437-1 4.25zm17.985 6.688q-1.667 0-3.021-.834a5.83 5.83 0 0 1-2.125-2.291q-.75-1.48-.75-3.313v-.52q0-1.897.729-3.417.75-1.521 2.062-2.375a5 5 0 0 1 2.834-.875q2.395 0 3.791 1.625 1.417 1.624 1.417 4.458v.812h-9.375v.292q0 2.23 1.27 3.73 1.293 1.478 3.23 1.478 1.166 0 2.063-.416.895-.438 1.625-1.375l.916.687q-1.605 2.334-4.666 2.334m-.271-12.396q-1.625 0-2.75 1.208-1.125 1.188-1.375 3.23h7.896v-.167q-.063-1.896-1.084-3.084-1.02-1.187-2.687-1.187m7.913 11.27q0-.416.27-.708.272-.312.75-.312.48 0 .75.312.292.292.292.709a.96.96 0 0 1-.291.708q-.271.27-.75.27-.48 0-.75-.27a1 1 0 0 1-.271-.708z"/><path d="M19.685 276.44h239.118v44.053H19.685z"/><path fill="#434343" fill-rule="nonzero" d="M46.643 294.647v11.646q0 2.916-1.812 4.604-1.812 1.687-4.958 1.687-3.105 0-4.938-1.646-1.813-1.645-1.833-4.5v-11.791h3.646v11.666q0 1.75.812 2.542.833.792 2.313.792 3.062 0 3.125-3.23v-11.77zm9.873 14.062q0-.645-.646-1.02-.625-.376-2.02-.667-4.71-.98-4.709-3.98 0-1.749 1.459-2.916 1.458-1.167 3.791-1.167 2.5 0 4 1.188 1.5 1.166 1.5 3.041h-3.5q0-.75-.5-1.229-.48-.5-1.5-.5-.895 0-1.375.396t-.479 1.02q0 .584.542.938.562.355 1.875.625 1.312.25 2.208.584 2.77 1.02 2.77 3.541 0 1.792-1.54 2.917-1.543 1.104-3.98 1.104-1.646 0-2.937-.583-1.272-.605-2-1.625a3.75 3.75 0 0 1-.73-2.23h3.313q.063.939.708 1.438.645.5 1.709.5 1.02 0 1.52-.375.521-.396.521-1m11.727 3.875q-2.895 0-4.708-1.77-1.812-1.792-1.812-4.73v-.354q0-1.98.75-3.52.77-1.563 2.166-2.397 1.417-.854 3.209-.854 2.708 0 4.25 1.709 1.54 1.687 1.541 4.812v1.417h-8.354q.166 1.29 1.02 2.083.855.77 2.168.77 2.02 0 3.166-1.478l1.73 1.937q-.793 1.125-2.146 1.75-1.334.625-2.98.625m-.395-10.791q-1.042 0-1.709.708-.645.709-.812 2.02h4.875v-.29q-.021-1.168-.646-1.793-.604-.645-1.708-.645m15.174.687a11 11 0 0 0-1.25-.083q-2 0-2.625 1.333v8.604h-3.5v-13.146h3.313l.104 1.563q1.042-1.792 2.917-1.792.584 0 1.104.146zm15.247-7.833h3.646v12.25q0 1.688-.75 2.979a5.13 5.13 0 0 1-2.104 2q-1.354.708-3.084.708-2.791 0-4.375-1.416-1.562-1.438-1.562-4.063h3.667q0 1.312.541 1.938.563.604 1.73.604 1.062 0 1.666-.709.625-.729.625-2.041zm5.978 11q0-1.959.75-3.48.77-1.541 2.188-2.374 1.417-.834 3.27-.834 2.668 0 4.355 1.625t1.875 4.417l.02.896q0 3.021-1.687 4.854c-1.687 1.833-2.639 1.833-4.541 1.833q-2.834 0-4.542-1.812-1.688-1.833-1.688-4.98zm3.521.25q0 1.875.709 2.875.708.98 2.02.979 1.271 0 1.98-.98.729-.978.729-3.124 0-1.833-.73-2.834-.708-1.02-2.02-1.02-1.27 0-1.98 1-.708 1-.708 3.104M126.75 311q-1.312 1.583-3.604 1.583-2.125 0-3.23-1.208-1.103-1.23-1.124-3.563v-8.625h3.5v8.5q0 2.043 1.875 2.042 1.792 0 2.458-1.23v-9.312h3.52v13.146h-3.312zm13.42-8.52a11 11 0 0 0-1.25-.084q-2.001 0-2.626 1.333v8.604h-3.5v-13.146h3.313l.104 1.563q1.041-1.792 2.917-1.792.583 0 1.104.146zm4.926-3.293.105 1.521q1.416-1.75 3.77-1.75 2.105 0 3.125 1.23 1.021 1.207 1.042 3.645v8.5h-3.52v-8.396q0-1.125-.48-1.625-.479-.5-1.625-.5-1.479 0-2.208 1.25v9.271h-3.521v-13.146zm16.744 13.396q-2.896 0-4.708-1.77-1.812-1.792-1.812-4.73v-.354q0-1.98.75-3.52.771-1.563 2.166-2.397 1.417-.854 3.209-.854 2.708 0 4.25 1.709 1.54 1.687 1.541 4.812v1.417h-8.354q.167 1.29 1.021 2.083.855.77 2.167.77 2.02 0 3.166-1.478l1.73 1.937q-.792 1.125-2.146 1.75-1.334.625-2.98.625m-.395-10.791q-1.042 0-1.709.708-.645.709-.812 2.02h4.875v-.29q-.022-1.168-.646-1.793-.604-.645-1.708-.645m12.537 5.583 2.438-8.188h3.77l-5.291 15.188-.292.687q-1.187 2.584-3.896 2.584-.75 0-1.541-.23v-2.666l.52.02q1 0 1.48-.312.5-.312.791-1l.417-1.083-4.604-13.188h3.77z"/><path fill="#fff" d="M450.132 185.376h76.958V315.56h-76.958z"/><path stroke="#ccc" stroke-linejoin="round" d="M450.132 185.376h76.958V315.56h-76.958z"/><path fill="#efefef" d="M450.128 185.376h76.957v14.413h-76.957z"/><path fill="#d9d9d9" d="M454.075 188.38h9.914v8.424h-9.914z"/><path fill="#4285f4" d="M456.635 208.516h27.17v24.74h-27.17zm31.802 0h30.294v5.978h-30.294zm0 9.389h22.484v5.977h-22.484zm-31.801 36.285h62.092v5.978h-62.092z"/><path fill="#d9d9d9" d="M456.636 264.44h46.087v5.977h-46.087zm0-20.5h62.092v5.979h-62.092zm0 47.412h62.092v5.978h-62.092zm0 10.25h46.087v5.978h-46.087z"/><path fill="#4285f4" d="M456.636 281.103h62.092v5.978h-62.092z"/><path d="M450.142 184.712h76.976v130.184h-76.976z"/><path stroke="#4285f4" stroke-linejoin="round" stroke-width="2" d="M450.142 184.712h76.976v130.184h-76.976z"/><path fill="#fff" d="M503.692 239.19h76.958v130.183h-76.958z"/><path stroke="#ccc" stroke-linejoin="round" d="M503.692 239.19h76.958v130.183h-76.958z"/><path fill="#efefef" d="M503.689 239.19h76.956v14.413H503.69z"/><path fill="#d9d9d9" d="M507.636 242.193h9.913v8.425h-9.913z"/><path fill="#4285f4" d="M510.195 262.329h27.17v24.74h-27.17zm31.802 0h30.294v5.978h-30.294zm0 9.389h22.485v5.978h-22.485zm-31.801 36.285h62.092v5.978h-62.092z"/><path fill="#d9d9d9" d="M510.196 318.253h46.087v5.978h-46.087zm0-20.499h62.092v5.978h-62.092zm0 47.411h62.092v5.978h-62.092zm0 10.25h46.087v5.978h-46.087z"/><path fill="#4285f4" d="M510.196 334.916h62.092v5.978h-62.092z"/><path d="M503.702 238.526h76.976v130.183h-76.976z"/><path stroke="#4285f4" stroke-linejoin="round" stroke-width="2" d="M503.702 238.526h76.976v130.183h-76.976z"/><path fill="#fff" d="M554.847 313.2h76.958v130.184h-76.958z"/><path stroke="#ccc" stroke-linejoin="round" d="M554.847 313.2h76.958v130.184h-76.958z"/><path fill="#efefef" d="M554.844 313.2H631.8v14.413h-76.957z"/><path fill="#d9d9d9" d="M558.791 316.203h9.914v8.425h-9.914z"/><path fill="#4285f4" d="M561.35 336.34h27.17v24.74h-27.17zm31.803 0h30.294v5.977h-30.294zm0 9.388h22.484v5.978h-22.484zm-31.802 36.286h62.093v5.978H561.35z"/><path fill="#d9d9d9" d="M561.351 392.263h46.087v5.978h-46.087zm0-20.498h62.093v5.978H561.35zm0 47.411h62.093v5.978H561.35zm0 10.249h46.087v5.978h-46.087z"/><path fill="#4285f4" d="M561.351 408.927h62.093v5.978H561.35z"/><path d="M554.857 312.536h76.977V442.72h-76.977z"/><path stroke="#4285f4" stroke-linejoin="round" stroke-width="2" d="M554.857 312.536h76.977V442.72h-76.977z"/><path d="M412.434 457.022h335.79v188.304h-335.79z"/><path fill="#4285f4" fill-rule="nonzero" d="M445.371 506.569H426.33v-3.771l8.979-9.604q1.854-2.022 2.75-3.521.896-1.522.896-2.875 0-1.834-.938-2.896t-2.687-1.063q-1.854 0-2.938 1.292-1.083 1.291-1.083 3.375h-5.542q0-2.541 1.209-4.625 1.23-2.104 3.437-3.292 2.208-1.208 5.021-1.208 4.291 0 6.667 2.063 2.375 2.062 2.375 5.833 0 2.063-1.063 4.208-1.062 2.125-3.667 4.98l-6.312 6.645h11.937z"/><path fill="#666" fill-rule="nonzero" d="M426.663 546.249V528.56h4.958q2.168 0 3.875 1 1.73.98 2.688 2.833.98 1.834.98 4.209v1.625q0 2.355-.96 4.187-.957 1.833-2.708 2.834-1.728 1-4 1h-4.833zm1.5-16.417v15.146h3.354q2.791 0 4.48-1.834 1.687-1.854 1.687-5.02v-1.563q0-3.042-1.667-4.875-1.666-1.833-4.375-1.854zm22.913 14.75q-1.312 1.917-4.188 1.917-2.104 0-3.208-1.23-1.083-1.229-1.104-3.604v-8.562h1.437v8.375q0 3.75 3.042 3.75 3.145 0 4-2.604v-9.521h1.458v13.146h-1.416zm11.268-10.23a5.5 5.5 0 0 0-.979-.083q-1.354 0-2.292.75t-1.354 2.209v9.02h-1.437v-13.145h1.416l.021 2.083q1.167-2.312 3.709-2.312.603 0 .958.145zm3.931 11.897h-1.458v-13.146h1.458zm-1.708-16.938q0-.417.27-.708.271-.292.73-.292c.459 0 .549.097.73.292q.27.291.27.708t-.27.688q-.271.27-.73.27c-.459 0-.549-.09-.73-.27a.93.93 0 0 1-.27-.688m7.033 3.792.063 2.25q.729-1.209 1.833-1.834 1.104-.645 2.459-.645 2.103 0 3.125 1.187 1.041 1.188 1.062 3.563v8.625h-1.458v-8.646q0-1.75-.75-2.604-.729-.875-2.334-.875a3.67 3.67 0 0 0-2.395.854q-1.043.833-1.542 2.27v9h-1.438v-13.145zm11.706 6.458q0-3.083 1.354-4.875 1.375-1.812 3.73-1.812 2.686 0 4.083 2.125l.062-1.896h1.355v12.875q0 2.541-1.417 4.02-1.417 1.48-3.854 1.48a5.8 5.8 0 0 1-2.625-.625q-1.23-.605-1.938-1.625l.813-.875q1.542 1.896 3.666 1.896 1.813 0 2.834-1.084 1.02-1.062 1.062-2.958v-1.667q-1.395 1.959-4.083 1.959-2.27 0-3.667-1.813-1.374-1.833-1.375-4.937zm1.48.25q0 2.52 1 3.98.999 1.437 2.833 1.437 2.687 0 3.812-2.396v-6.125q-.52-1.25-1.479-1.917-.959-.666-2.312-.666-1.834 0-2.855 1.437-1 1.437-1 4.25zm20.575 6.438h-1.458v-13.146h1.458zm-1.708-16.938q0-.417.27-.708.271-.292.73-.292.457 0 .729.292.27.291.27.708t-.27.688q-.27.27-.73.27-.458 0-.728-.27a.93.93 0 0 1-.271-.688m5.075 10.25q0-3.063 1.354-4.875 1.375-1.812 3.73-1.812 2.645 0 4.04 2.083v-7.375h1.46v18.667h-1.376l-.041-1.75q-1.397 2-4.125 2-2.272 0-3.667-1.834-1.375-1.833-1.375-4.937zm1.48.25q-.001 2.52 1 3.98.999 1.437 2.832 1.437 2.688 0 3.813-2.375v-6.167q-1.125-2.562-3.792-2.562-1.833 0-2.854 1.437-1 1.437-1 4.25zm14.55 6.438H523.3v-18.667h1.458zm9.034.25q-1.667 0-3.021-.834a5.83 5.83 0 0 1-2.125-2.291q-.75-1.48-.75-3.313v-.52q0-1.897.729-3.417.75-1.521 2.063-2.375 1.312-.875 2.833-.875 2.395 0 3.792 1.625 1.416 1.624 1.416 4.458v.812h-9.375v.292q0 2.23 1.271 3.73 1.292 1.478 3.23 1.478 1.165 0 2.062-.416.896-.438 1.625-1.375l.916.687q-1.605 2.334-4.666 2.334m-.271-12.396q-1.625 0-2.75 1.208-1.125 1.188-1.375 3.23h7.896v-.167q-.063-1.896-1.084-3.084-1.02-1.187-2.687-1.187m16.337-4.354v3.354h2.729v1.187h-2.73v8.771q0 1.083.396 1.625.396.52 1.334.52.354 0 1.166-.103l.063 1.187q-.562.21-1.563.209-1.479 0-2.166-.875-.688-.876-.688-2.563v-8.77h-2.416v-1.188h2.416v-3.354zm7.367 16.5h-1.459v-13.146h1.459zm-1.709-16.938a1 1 0 0 1 .271-.708q.27-.292.73-.292.458 0 .728.292a1 1 0 0 1 .271.708q0 .417-.27.688-.271.27-.73.27-.457 0-.729-.27a.93.93 0 0 1-.27-.688zm6.971 3.792.063 2.146q.729-1.188 1.812-1.771a5 5 0 0 1 2.438-.604q3.105 0 3.937 2.541.708-1.23 1.875-1.875a5.23 5.23 0 0 1 2.604-.666q4.23 0 4.313 4.604v8.77h-1.459v-8.666q0-1.75-.75-2.604t-2.437-.854q-1.563.02-2.646 1.02-1.083.98-1.208 2.417v8.688h-1.459v-8.771q0-1.688-.791-2.521-.771-.833-2.417-.833-1.354 0-2.354.791-.98.771-1.458 2.313v9.02h-1.459v-13.145zm25.816 13.396q-1.667 0-3.02-.834a5.83 5.83 0 0 1-2.126-2.291q-.75-1.48-.75-3.313v-.52q0-1.897.73-3.417.75-1.521 2.062-2.375 1.313-.875 2.833-.875 2.396 0 3.792 1.625 1.416 1.624 1.416 4.458v.812h-9.375v.292q0 2.23 1.271 3.73 1.292 1.478 3.23 1.478 1.166 0 2.062-.416.896-.438 1.625-1.375l.917.687q-1.605 2.334-4.667 2.334m-.27-12.396q-1.625 0-2.75 1.208-1.126 1.188-1.376 3.23h7.896v-.167q-.063-1.896-1.083-3.084-1.022-1.187-2.688-1.187zm15.71 12.146h-1.458v-13.146h1.459v13.146zm-1.708-16.938a1 1 0 0 1 .271-.708q.27-.292.73-.292.457 0 .729.292.27.291.27.708t-.27.688q-.271.27-.73.27-.457 0-.729-.27a.93.93 0 0 1-.27-.688zm7.909.438v3.354h2.729v1.187h-2.73v8.771q0 1.083.397 1.625.396.52 1.333.52.354 0 1.167-.103l.062 1.187q-.563.21-1.562.209-1.48 0-2.167-.875-.687-.876-.688-2.563v-8.77h-2.416v-1.188h2.416v-3.354zm22.353 10.062q0 3.084-1.354 4.896-1.354 1.792-3.646 1.792-2.688 0-4.125-1.896v6.708h-1.458v-18.208h1.354l.083 1.854q1.418-2.083 4.104-2.083 2.355 0 3.688 1.791 1.354 1.77 1.354 4.938zm-1.458-.25q0-2.52-1.042-3.98-1.02-1.457-2.875-1.457-1.334 0-2.292.645-.958.646-1.458 1.875v6.292q.52 1.146 1.48 1.75.978.583 2.312.583 1.833 0 2.854-1.458 1.02-1.48 1.02-4.25zm10.744-5.208a5.5 5.5 0 0 0-.98-.084q-1.353 0-2.291.75c-.938.75-1.076 1.236-1.354 2.209v9.02h-1.438v-13.145h1.417l.02 2.083q1.168-2.312 3.71-2.312.603 0 .957.145zm7.158 12.146q-1.666 0-3.02-.834a5.83 5.83 0 0 1-2.126-2.291q-.75-1.48-.75-3.313v-.52q0-1.897.73-3.417.75-1.521 2.062-2.375 1.313-.875 2.833-.875 2.397 0 3.792 1.625 1.417 1.624 1.417 4.458v.812h-9.375v.292q0 2.23 1.27 3.73 1.293 1.478 3.23 1.478 1.167 0 2.062-.416.897-.438 1.625-1.375l.917.687q-1.605 2.334-4.667 2.334m-.27-12.396q-1.625 0-2.75 1.208-1.125 1.188-1.376 3.23h7.896v-.167q-.062-1.896-1.083-3.084-1.02-1.187-2.688-1.187zm9.08 12.146V534.29h-2.168v-1.187h2.167v-1.584q0-2.02 1.02-3.104 1.043-1.083 2.876-1.083.812 0 1.542.208l-.125 1.209a5.6 5.6 0 0 0-1.313-.146q-1.207 0-1.875.75-.666.75-.667 2.125v1.625h3.125v1.187h-3.125v11.959zm11.984.25q-1.667 0-3.02-.834a5.83 5.83 0 0 1-2.126-2.291q-.75-1.48-.75-3.313v-.52q0-1.897.73-3.417.75-1.521 2.062-2.375 1.313-.875 2.833-.875 2.395 0 3.792 1.625 1.416 1.624 1.417 4.458v.812h-9.375v.292q0 2.23 1.27 3.73 1.292 1.478 3.23 1.478 1.166 0 2.062-.416.896-.438 1.625-1.375l.917.687q-1.605 2.334-4.667 2.334m-.27-12.396q-1.625 0-2.75 1.208-1.126 1.188-1.376 3.23h7.896v-.167q-.063-1.896-1.083-3.084-1.02-1.187-2.688-1.187zm10.287-4.354v3.354h2.73v1.187h-2.73v8.771q0 1.083.396 1.625.396.52 1.333.52.354 0 1.167-.103l.063 1.187q-.562.21-1.563.209-1.479 0-2.167-.875-.687-.876-.687-2.563v-8.77h-2.417v-1.188h2.417v-3.354zm10.596 15.52q1.522 0 2.542-.854 1.043-.854 1.125-2.229h1.396a4.1 4.1 0 0 1-.77 2.208 4.75 4.75 0 0 1-1.834 1.542 5.5 5.5 0 0 1-2.459.563q-2.583 0-4.104-1.792-1.5-1.813-1.5-4.854v-.438q0-1.937.667-3.416.687-1.5 1.958-2.313 1.27-.812 2.98-.812 2.145 0 3.541 1.291 1.417 1.27 1.52 3.375h-1.395q-.104-1.542-1.125-2.479-1-.958-2.542-.958-1.979 0-3.062 1.416-1.083 1.417-1.083 3.98v.437q0 2.52 1.083 3.938 1.083 1.395 3.062 1.395m9.398-9.937q.729-1.188 1.833-1.813 1.125-.645 2.458-.645 2.105 0 3.125 1.187 1.043 1.188 1.063 3.563v8.625h-1.458v-8.646q0-1.75-.75-2.604-.729-.875-2.334-.875a3.67 3.67 0 0 0-2.396.854q-1.041.833-1.541 2.27v9h-1.438v-18.666h1.438zm17.298 11.167q-1.667 0-3.021-.834a5.83 5.83 0 0 1-2.125-2.291q-.75-1.48-.75-3.313v-.52q0-1.897.73-3.417.75-1.521 2.062-2.375 1.312-.875 2.833-.875 2.395 0 3.792 1.625 1.416 1.624 1.416 4.458v.812h-9.375v.292q0 2.23 1.271 3.73 1.292 1.478 3.23 1.478 1.166 0 2.062-.416.896-.438 1.625-1.375l.916.687q-1.604 2.334-4.666 2.334m-.271-12.396q-1.625 0-2.75 1.208-1.125 1.188-1.375 3.23h7.896v-.167q-.063-1.896-1.084-3.084-1.02-1.187-2.687-1.187m15.913 8.812q0-1.083-.875-1.729-.876-.667-2.625-1.042t-2.709-.854q-.958-.48-1.437-1.166-.459-.688-.458-1.667 0-1.563 1.291-2.563 1.312-1.02 3.334-1.02 2.208 0 3.52 1.083 1.335 1.083 1.334 2.833h-1.459q0-1.167-.958-1.916-.958-.771-2.437-.771-1.438 0-2.313.646-.855.625-.854 1.645 0 .98.708 1.521.729.542 2.646 1 1.918.438 2.854.959.959.5 1.417 1.229.48.708.48 1.729 0 1.666-1.355 2.667-1.334 1-3.5 1-2.291 0-3.73-1.105-1.416-1.125-1.416-2.833h1.458q.084 1.292 1.063 2 1 .708 2.625.708 1.52 0 2.458-.666.938-.667.938-1.688m-295.594 31.563q0 3.082-1.354 4.896-1.354 1.791-3.646 1.791-2.687 0-4.125-1.896v6.709h-1.458v-18.209h1.354l.083 1.855q1.417-2.084 4.105-2.084 2.354 0 3.687 1.792 1.354 1.77 1.354 4.937zm-1.458-.25q0-2.52-1.042-3.98-1.02-1.458-2.875-1.458-1.333 0-2.291.646-.959.646-1.459 1.875v6.292q.521 1.146 1.48 1.75.978.583 2.312.583 1.834 0 2.854-1.458 1.02-1.48 1.021-4.25m12.973 6.687q-.208-.625-.27-1.833a5.1 5.1 0 0 1-1.959 1.542 6 6 0 0 1-2.5.541q-1.896 0-3.083-1.062-1.167-1.063-1.167-2.667 0-1.917 1.604-3.042t4.458-1.125h2.625v-1.479q0-1.416-.875-2.229-.854-.812-2.52-.812-1.522 0-2.521.791-1 .772-1 1.875l-1.459-.02q0-1.563 1.459-2.709 1.458-1.146 3.583-1.146 2.208 0 3.48 1.104 1.27 1.084 1.312 3.042v6.23q0 1.916.396 2.853v.146zm-4.562-1.041q1.458 0 2.604-.709c1.146-.709 1.32-1.097 1.666-1.875v-2.896h-2.604q-2.166.021-3.396.792-1.229.77-1.229 2.125 0 1.104.813 1.833.832.73 2.146.73m9.011-5.646q0-3.083 1.354-4.875 1.375-1.813 3.73-1.813 2.686 0 4.083 2.125l.062-1.896h1.355v12.875q0 2.542-1.417 4.021t-3.854 1.48a5.8 5.8 0 0 1-2.625-.626q-1.23-.603-1.938-1.625l.813-.875q1.542 1.896 3.666 1.896 1.813 0 2.834-1.083 1.02-1.063 1.062-2.958v-1.667q-1.395 1.958-4.083 1.958-2.27 0-3.667-1.812-1.375-1.834-1.375-4.938zm1.48.25q0 2.52 1 3.979.999 1.437 2.833 1.437 2.687 0 3.812-2.395v-6.125q-.52-1.251-1.479-1.917t-2.312-.667q-1.834 0-2.855 1.438-1 1.437-1 4.25zm17.985 6.687q-1.666 0-3.021-.833a5.83 5.83 0 0 1-2.125-2.292q-.75-1.479-.75-3.312v-.521q0-1.896.73-3.417.75-1.52 2.062-2.375 1.313-.875 2.833-.875 2.395 0 3.792 1.625 1.416 1.626 1.416 4.459v.812h-9.375v.292q0 2.229 1.271 3.729 1.292 1.479 3.23 1.479 1.166 0 2.062-.417.896-.437 1.625-1.375l.917.688q-1.605 2.333-4.667 2.333m-.271-12.396q-1.625 0-2.75 1.209-1.125 1.187-1.375 3.229h7.896v-.167q-.063-1.896-1.083-3.083-1.022-1.188-2.688-1.188m15.913 8.813q0-1.083-.875-1.73-.875-.666-2.625-1.041t-2.708-.854-1.438-1.167q-.458-.687-.458-1.666 0-1.563 1.291-2.563 1.313-1.02 3.334-1.02 2.209 0 3.52 1.083 1.334 1.083 1.334 2.833h-1.458q0-1.167-.959-1.917-.958-.77-2.437-.77-1.438 0-2.313.645-.855.625-.854 1.646 0 .98.708 1.52.73.543 2.646 1 1.917.439 2.854.96.96.5 1.417 1.228.48.709.48 1.73 0 1.666-1.355 2.666-1.333 1-3.5 1-2.291 0-3.729-1.104-1.417-1.125-1.417-2.833h1.459q.083 1.29 1.062 2 1 .708 2.625.708 1.52 0 2.458-.667.938-.666.938-1.687m19.06 3.333q-.207-.625-.27-1.833a5.1 5.1 0 0 1-1.958 1.542 6 6 0 0 1-2.5.541q-1.896 0-3.084-1.062-1.167-1.063-1.166-2.667 0-1.917 1.604-3.042c1.604-1.125 2.555-1.125 4.458-1.125h2.625v-1.479q0-1.416-.875-2.229-.855-.812-2.52-.812-1.522 0-2.522.791-1 .772-1 1.875l-1.458-.02q0-1.563 1.458-2.709 1.459-1.146 3.584-1.146 2.208 0 3.479 1.104 1.271 1.084 1.312 3.042v6.23q0 1.916.396 2.853v.146h-1.562zm-4.562-1.041q1.458 0 2.604-.709c1.146-.709 1.32-1.097 1.667-1.875v-2.896h-2.604q-2.167.021-3.396.792-1.23.77-1.23 2.125 0 1.104.813 1.833.834.73 2.146.73m24.102-.625q-1.312 1.916-4.187 1.916-2.104 0-3.209-1.229-1.083-1.229-1.104-3.604v-8.563h1.438v8.375q0 3.75 3.041 3.75 3.147 0 4-2.604v-9.52h1.459v13.145h-1.417l-.02-1.666zm13.081-1.667q0-1.083-.875-1.73-.875-.666-2.625-1.041t-2.708-.854-1.438-1.167q-.458-.687-.458-1.666 0-1.563 1.292-2.563 1.313-1.02 3.333-1.02 2.208 0 3.52 1.083 1.334 1.083 1.334 2.833h-1.458q0-1.167-.959-1.917-.957-.77-2.437-.77-1.438 0-2.313.645-.854.625-.854 1.646 0 .98.709 1.52.73.543 2.645 1 1.917.439 2.855.96.958.5 1.416 1.228.48.709.48 1.73 0 1.666-1.355 2.666-1.333 1-3.5 1-2.29 0-3.729-1.104-1.416-1.125-1.417-2.833h1.459q.083 1.29 1.062 2 1 .708 2.625.708 1.521 0 2.459-.667.937-.666.937-1.687m9.804 3.583q-1.667 0-3.02-.833a5.83 5.83 0 0 1-2.126-2.292q-.75-1.479-.75-3.312v-.521q0-1.896.73-3.417.75-1.52 2.062-2.375 1.313-.875 2.833-.875 2.395 0 3.792 1.625 1.416 1.626 1.416 4.459v.812h-9.375v.292q0 2.229 1.271 3.729 1.292 1.479 3.23 1.479 1.166 0 2.062-.417.896-.437 1.625-1.375l.917.688q-1.605 2.333-4.667 2.333m-.27-12.396q-1.625 0-2.75 1.209-1.126 1.187-1.376 3.229h7.896v-.167q-.063-1.895-1.083-3.083-1.022-1.188-2.688-1.188zm14.1.25a5.5 5.5 0 0 0-.98-.083q-1.353 0-2.291.75c-.938.75-1.077 1.236-1.354 2.208v9.021h-1.438V567.77h1.417l.02 2.084q1.167-2.313 3.709-2.313.604 0 .958.146zm9.667-1.25.062 2.146q.729-1.187 1.813-1.77a5 5 0 0 1 2.437-.605q3.104 0 3.938 2.542.708-1.23 1.875-1.875a5.23 5.23 0 0 1 2.604-.667q4.23 0 4.312 4.604v8.771h-1.458v-8.666q0-1.75-.75-2.605t-2.437-.854q-1.563.02-2.646 1.021-1.083.979-1.209 2.417v8.687h-1.458v-8.77q0-1.689-.792-2.521-.77-.834-2.416-.834-1.355 0-2.354.792-.98.771-1.459 2.312v9.021h-1.458V567.77zm29.024 13.146q-.21-.625-.27-1.833a5.1 5.1 0 0 1-1.96 1.542 6 6 0 0 1-2.5.541q-1.894 0-3.083-1.062-1.166-1.063-1.166-2.667 0-1.917 1.604-3.042t4.458-1.125h2.625v-1.479q0-1.416-.875-2.229-.855-.812-2.52-.812-1.522 0-2.521.791-1 .772-1 1.875l-1.459-.02q0-1.563 1.459-2.709 1.458-1.146 3.583-1.146 2.208 0 3.48 1.104 1.27 1.084 1.312 3.042v6.23q0 1.915.395 2.853v.146zm-4.563-1.041q1.459 0 2.605-.709 1.147-.708 1.666-1.875v-2.896h-2.604q-2.166.021-3.396.792-1.23.77-1.229 2.125 0 1.104.813 1.833.832.73 2.145.73m13.58-1.042 3.833-11.063h1.563l-5.604 15.375-.292.688q-1.083 2.396-3.333 2.396-.522 0-1.125-.167l-.021-1.208.77.062q1.063 0 1.709-.52.666-.522 1.146-1.813l.646-1.771-4.959-13.042h1.584zm17.783.083 4-11.146h1.5l-4.916 13.146h-1.167l-4.938-13.146h1.5zm9.506 2h-1.459V567.77h1.459zm-1.709-16.937q0-.417.271-.709.27-.291.73-.291.457 0 .729.291.27.292.27.709 0 .416-.27.687-.271.27-.73.271-.457 0-.729-.27a.93.93 0 0 1-.27-.688zm13.534 13.604q0-1.083-.875-1.73-.876-.666-2.625-1.041t-2.709-.854q-.958-.48-1.437-1.167-.458-.687-.458-1.666 0-1.563 1.291-2.563 1.312-1.02 3.334-1.02 2.208 0 3.52 1.083 1.334 1.083 1.334 2.833h-1.459q0-1.167-.958-1.917-.958-.77-2.437-.77-1.438 0-2.313.645-.855.625-.854 1.646 0 .98.708 1.52.729.543 2.646 1 1.918.439 2.854.96.959.5 1.417 1.228.48.709.48 1.73 0 1.666-1.355 2.666-1.334 1-3.5 1-2.291 0-3.73-1.104-1.416-1.125-1.416-2.833h1.458q.084 1.29 1.063 2 1 .708 2.625.708 1.52 0 2.458-.667.938-.666.938-1.687m6.345 3.333h-1.458V567.77h1.458zm-1.708-16.937q0-.417.27-.709.271-.291.73-.291.457 0 .729.291.27.292.27.709 0 .416-.27.687-.27.27-.73.271-.458 0-.728-.27a.93.93 0 0 1-.271-.688m7.908.437v3.354h2.73v1.188h-2.73v8.77q0 1.084.396 1.626.396.52 1.333.52.354 0 1.167-.104l.063 1.188q-.562.208-1.563.208-1.479 0-2.167-.875-.687-.874-.687-2.562v-8.771h-2.417v-1.188h2.417v-3.354zm13.166 3.354.062 2.25q.73-1.207 1.834-1.833a4.8 4.8 0 0 1 2.458-.646q2.105 0 3.125 1.188 1.042 1.187 1.063 3.562v8.625h-1.459v-8.646q0-1.749-.75-2.604-.73-.875-2.333-.875a3.67 3.67 0 0 0-2.396.854q-1.041.834-1.542 2.271v9h-1.437V567.77zm17.373 13.396q-1.668 0-3.021-.833a5.83 5.83 0 0 1-2.125-2.292q-.75-1.479-.75-3.312v-.521q0-1.896.729-3.417.75-1.52 2.062-2.375 1.313-.875 2.834-.875 2.395 0 3.791 1.625 1.417 1.626 1.417 4.459v.812h-9.375v.292q0 2.229 1.27 3.729 1.293 1.479 3.23 1.479 1.166 0 2.063-.417.895-.437 1.625-1.375l.916.688q-1.605 2.333-4.666 2.333m-.271-12.396q-1.625 0-2.75 1.209-1.125 1.187-1.375 3.229h7.896v-.167q-.063-1.896-1.084-3.083-1.02-1.188-2.687-1.188m12.163 4.334 3.541-5.334h1.73l-4.459 6.459 4.667 6.687h-1.73l-3.728-5.562-3.75 5.562h-1.709l4.646-6.687-4.458-6.459h1.708zm10.222-8.688v3.354h2.73v1.188h-2.73v8.77q0 1.084.396 1.626.396.52 1.333.52.354 0 1.167-.104l.062 1.188q-.562.208-1.562.208-1.479 0-2.167-.875-.687-.874-.687-2.562v-8.771h-2.417v-1.188h2.417v-3.354zm-289.156 44.021q0-2.647.667-5.146a16.7 16.7 0 0 1 2-4.562q1.312-2.062 2.812-2.959l.355.98q-.792.562-1.584 1.666-.791 1.083-1.416 2.604-.625 1.5-1 3.375c-.375 1.875-.375 2.667-.375 4.25q0 2.543.562 4.896.584 2.333 1.583 4.125 1.021 1.792 2.23 2.688l-.355.937q-1.541-.916-2.854-2.979a16.3 16.3 0 0 1-1.979-4.52q-.646-2.48-.646-5.355m13.202 7.396q-1.666 0-3.02-.833a5.83 5.83 0 0 1-2.125-2.292q-.75-1.479-.75-3.313v-.52q0-1.896.729-3.417.75-1.521 2.062-2.375 1.313-.875 2.834-.875 2.395 0 3.791 1.625 1.417 1.625 1.417 4.458v.813h-9.375v.291q0 2.23 1.27 3.73 1.293 1.479 3.23 1.479 1.167 0 2.062-.417.897-.438 1.625-1.375l.917.688q-1.605 2.333-4.667 2.333m-.27-12.396q-1.625 0-2.75 1.208-1.125 1.188-1.375 3.23h7.895v-.167q-.061-1.896-1.083-3.083-1.02-1.188-2.687-1.188m7.913 11.27q0-.416.27-.707.272-.313.75-.313.48 0 .75.313a.96.96 0 0 1 .292.708.96.96 0 0 1-.292.708q-.27.27-.75.271-.478 0-.75-.27a1 1 0 0 1-.27-.71m5.48-5.812q0-3.082 1.355-4.875 1.375-1.812 3.729-1.812 2.688 0 4.083 2.125l.063-1.896h1.354v12.875q0 2.542-1.417 4.02-1.416 1.48-3.854 1.48a5.8 5.8 0 0 1-2.625-.625q-1.23-.604-1.937-1.625l.812-.875q1.542 1.896 3.667 1.896 1.813 0 2.833-1.083 1.02-1.063 1.063-2.959v-1.666q-1.395 1.958-4.084 1.958-2.271 0-3.666-1.813-1.375-1.833-1.375-4.937v-.188zm1.48.25q0 2.52 1 3.98.999 1.437 2.833 1.437 2.688 0 3.813-2.396v-6.125q-.521-1.25-1.48-1.916-.958-.667-2.312-.667-1.833 0-2.854 1.437-1 1.438-1 4.25m20.576 6.438h-1.459v-18.667h1.459zm5.575 0h-1.459v-13.146h1.459zm-1.709-16.938q0-.416.271-.708.27-.291.73-.292.458 0 .728.292.27.291.271.708 0 .417-.27.688-.271.27-.73.27-.457 0-.729-.27a.93.93 0 0 1-.27-.688zm7.034 3.792.062 2.25q.729-1.209 1.833-1.833a4.8 4.8 0 0 1 2.459-.646q2.104 0 3.125 1.187 1.041 1.188 1.062 3.563v8.625h-1.458v-8.646q0-1.75-.75-2.604-.73-.875-2.333-.875a3.67 3.67 0 0 0-2.396.854q-1.043.834-1.542 2.27v9h-1.437v-13.145zm15.414 6.52-1.667 1.605v5.02h-1.458v-18.666h1.458v11.959l1.375-1.5 5.021-4.938h1.833l-5.562 5.542 6.062 7.604h-1.75zm16.932 3.293q0-1.085-.875-1.73-.875-.666-2.625-1.041t-2.708-.854-1.438-1.167q-.458-.687-.458-1.667 0-1.562 1.292-2.562 1.313-1.02 3.333-1.021 2.208 0 3.52 1.083 1.334 1.083 1.334 2.834h-1.458q0-1.167-.958-1.917-.96-.771-2.438-.771-1.438 0-2.312.646-.855.625-.855 1.646 0 .979.709 1.52.729.543 2.646 1 1.916.438 2.854.959.958.5 1.416 1.229.48.708.48 1.73 0 1.666-1.355 2.666-1.332 1-3.5 1-2.29 0-3.729-1.104-1.416-1.125-1.416-2.834h1.458q.083 1.292 1.062 2 1 .71 2.625.709 1.521 0 2.459-.667.937-.666.937-1.687m12.394 3.333h-1.458v-13.146h1.458zm-1.708-16.938q0-.416.27-.708.271-.291.73-.292c.459-.001.549.098.73.292q.27.291.27.708t-.27.688q-.271.27-.73.27c-.459 0-.549-.09-.73-.27a.93.93 0 0 1-.27-.688m7.033 3.792.063 2.25q.729-1.209 1.833-1.833a4.8 4.8 0 0 1 2.459-.646q2.103 0 3.125 1.187 1.041 1.188 1.062 3.563v8.625h-1.458v-8.646q0-1.75-.75-2.604-.729-.875-2.334-.875a3.67 3.67 0 0 0-2.395.854q-1.043.834-1.542 2.27v9h-1.438v-13.145zm20.588-3.354v3.354h2.73v1.188h-2.73v8.77q0 1.084.396 1.625.396.521 1.333.521.355 0 1.167-.104l.063 1.188q-.562.207-1.563.208-1.479 0-2.167-.875t-.687-2.563v-8.77h-2.417v-1.188h2.417v-3.354zm7.18 5.583q.729-1.187 1.833-1.812a4.86 4.86 0 0 1 2.459-.646q2.103 0 3.125 1.187 1.041 1.188 1.062 3.563v8.625h-1.458v-8.646q0-1.75-.75-2.604-.729-.875-2.334-.875a3.67 3.67 0 0 0-2.395.854q-1.043.834-1.542 2.27v9h-1.438v-18.666h1.438zm17.298 11.167q-1.667 0-3.021-.833a5.83 5.83 0 0 1-2.125-2.292q-.75-1.479-.75-3.313v-.52q0-1.896.73-3.417.75-1.521 2.062-2.375 1.313-.875 2.833-.875 2.396 0 3.792 1.625 1.416 1.625 1.416 4.458v.813h-9.375v.291q0 2.23 1.271 3.73 1.292 1.479 3.23 1.479 1.166 0 2.062-.417.896-.438 1.625-1.375l.916.688q-1.604 2.333-4.666 2.333m-.271-12.396q-1.625 0-2.75 1.208-1.125 1.188-1.375 3.23h7.896v-.167q-.063-1.896-1.084-3.083-1.02-1.188-2.687-1.188m18.17 10.146 4-11.146h1.5l-4.917 13.146h-1.166l-4.938-13.146h1.5zm9.505 2H606.5v-13.146h1.458zm-1.708-16.938q0-.416.271-.708.27-.291.73-.292.458 0 .728.292.27.291.271.708 0 .417-.27.688-.271.27-.73.27-.457 0-.729-.27a.93.93 0 0 1-.27-.688zm10.742 17.188q-1.667 0-3.021-.833a5.83 5.83 0 0 1-2.125-2.292q-.75-1.479-.75-3.313v-.52q0-1.896.73-3.417.75-1.521 2.062-2.375 1.313-.875 2.833-.875 2.395 0 3.792 1.625 1.416 1.625 1.416 4.458v.813h-9.375v.291q0 2.23 1.271 3.73 1.292 1.479 3.23 1.479 1.166 0 2.062-.417.896-.438 1.625-1.375l.916.688q-1.604 2.333-4.666 2.333m-.271-12.396q-1.625 0-2.75 1.208-1.125 1.188-1.375 3.23h7.896v-.167q-.063-1.896-1.084-3.083-1.02-1.188-2.687-1.188m11.184 9.125.208 1.125.292-1.187 3.166-10.063h1.23l3.125 9.98.354 1.374.27-1.27 2.688-10.084h1.52l-3.832 13.146h-1.23l-3.375-10.417-.166-.729-.167.73-3.312 10.416h-1.23l-3.812-13.146h1.48zm26.17-3.417q0 3.084-1.354 4.896-1.354 1.792-3.646 1.792-2.688 0-4.125-1.896v6.708h-1.459v-18.208h1.355l.083 1.854q1.416-2.083 4.104-2.083 2.355 0 3.688 1.792 1.354 1.77 1.354 4.937zm-1.459-.25q0-2.52-1.041-3.979-1.021-1.458-2.875-1.458-1.334 0-2.292.646-.959.645-1.458 1.875v6.291q.52 1.146 1.479 1.75.98.585 2.312.584 1.834 0 2.855-1.459 1.02-1.479 1.02-4.25m3.87-.083q0-1.896.729-3.396.75-1.52 2.083-2.354 1.355-.855 3.042-.854 2.625 0 4.25 1.833 1.646 1.833 1.646 4.875v.313q0 1.896-.75 3.416-.73 1.521-2.063 2.355-1.334.833-3.042.833-2.625 0-4.27-1.833-1.625-1.855-1.625-4.896zm1.458.417q0 2.354 1.23 3.875 1.228 1.5 3.207 1.5 1.959 0 3.167-1.5 1.23-1.522 1.23-4v-.292q0-1.5-.563-2.75-.542-1.25-1.563-1.937-1-.688-2.312-.688-1.938 0-3.167 1.52-1.23 1.522-1.23 4zm19.348-5.542a5.5 5.5 0 0 0-.98-.083q-1.354 0-2.29.75-.938.75-1.355 2.208v9.02h-1.438v-13.145h1.417l.021 2.083q1.167-2.312 3.708-2.312.605 0 .959.146zm5.164-4.604v3.354h2.729v1.188h-2.73v8.77q0 1.084.397 1.625.395.521 1.333.521.354 0 1.167-.104l.062 1.188q-.563.207-1.562.208-1.48 0-2.167-.875t-.688-2.563v-8.77h-2.416v-1.188h2.416v-3.354zm10.978 9.729q0-1.896.73-3.396.75-1.52 2.083-2.354 1.353-.855 3.041-.854 2.625 0 4.25 1.833 1.646 1.833 1.646 4.875v.313q0 1.896-.75 3.416-.73 1.521-2.062 2.355-1.334.833-3.042.833-2.625 0-4.271-1.833-1.625-1.855-1.625-4.896zm1.458.417q0 2.354 1.23 3.875 1.228 1.5 3.208 1.5 1.957 0 3.167-1.5 1.229-1.522 1.229-4v-.292q0-1.5-.563-2.75-.541-1.25-1.562-1.937-1-.688-2.313-.688-1.937 0-3.166 1.52-1.23 1.522-1.23 4zm19.348-5.542a5.5 5.5 0 0 0-.979-.083q-1.353 0-2.291.75c-.938.75-1.077 1.236-1.355 2.208v9.02h-1.437v-13.145h1.417l.02 2.083q1.167-2.312 3.709-2.312.604 0 .958.146zm-284.764 43.542.208 1.125.292-1.188 3.166-10.062h1.23l3.124 9.979.355 1.375.27-1.271 2.688-10.083h1.52l-3.833 13.146h-1.229l-3.375-10.417-.166-.73-.167.73-3.313 10.417h-1.229l-3.812-13.146h1.479zm17.045-7.896q.729-1.188 1.833-1.813 1.125-.645 2.458-.645 2.105 0 3.125 1.187 1.042 1.188 1.063 3.563v8.625h-1.458v-8.646q0-1.75-.75-2.604-.73-.875-2.334-.875a3.67 3.67 0 0 0-2.396.854q-1.041.833-1.541 2.27v9h-1.438v-18.666h1.438zm13.84 10.917h-1.459v-13.146h1.458zm-1.709-16.938q0-.417.27-.708.271-.292.73-.292c.459 0 .549.097.73.292q.27.291.27.708t-.27.688q-.271.27-.73.27c-.459 0-.549-.09-.73-.27a.93.93 0 0 1-.27-.688m10.512 15.958q1.522 0 2.542-.854 1.042-.854 1.125-2.229h1.396a4.1 4.1 0 0 1-.77 2.208 4.75 4.75 0 0 1-1.834 1.542 5.5 5.5 0 0 1-2.459.563q-2.583 0-4.104-1.792-1.5-1.813-1.5-4.854v-.438q0-1.937.667-3.416.687-1.5 1.958-2.313t2.98-.812q2.145 0 3.541 1.291 1.418 1.27 1.521 3.375h-1.396q-.104-1.542-1.125-2.479-1-.958-2.542-.958-1.979 0-3.062 1.416-1.083 1.417-1.083 3.98v.437q0 2.52 1.083 3.938 1.083 1.395 3.062 1.395m9.398-9.937q.729-1.188 1.833-1.813 1.125-.645 2.459-.645 2.103 0 3.125 1.187 1.041 1.188 1.062 3.563v8.625h-1.458v-8.646q0-1.75-.75-2.604-.729-.875-2.334-.875a3.67 3.67 0 0 0-2.395.854q-1.043.833-1.542 2.27v9h-1.438v-18.666h1.438zm22.43 8.833 3.833-11.062h1.563l-5.605 15.375-.291.687q-1.084 2.396-3.334 2.396-.52 0-1.125-.167l-.02-1.208.77.063q1.063 0 1.709-.521.666-.522 1.146-1.813l.645-1.77-4.958-13.042h1.583zm6.656-4.687q0-1.896.73-3.396.75-1.521 2.083-2.354 1.354-.855 3.042-.854 2.625 0 4.25 1.833 1.645 1.833 1.645 4.875v.312q0 1.896-.75 3.417-.729 1.521-2.062 2.354-1.334.834-3.042.834-2.625 0-4.27-1.834-1.626-1.854-1.626-4.896zm1.459.416q0 2.355 1.229 3.875 1.23 1.5 3.208 1.5 1.958 0 3.167-1.5 1.23-1.52 1.23-4v-.291q0-1.5-.563-2.75-.542-1.251-1.563-1.938-1-.687-2.312-.687-1.938 0-3.167 1.52-1.23 1.522-1.23 4zm21.744 4.688q-1.312 1.917-4.188 1.917-2.104 0-3.208-1.23-1.083-1.229-1.104-3.604v-8.562h1.437v8.375q0 3.75 3.042 3.75 3.145 0 4-2.604v-9.521h1.458v13.146h-1.416zm19.13-1.667q0-1.083-.876-1.729-.875-.666-2.625-1.042-1.75-.374-2.708-.854t-1.438-1.166q-.458-.688-.458-1.667 0-1.563 1.292-2.563 1.313-1.02 3.333-1.02 2.208 0 3.521 1.083 1.333 1.083 1.333 2.833h-1.458q0-1.167-.958-1.916-.96-.771-2.438-.771-1.437 0-2.312.646-.855.625-.855 1.645 0 .98.709 1.521.729.542 2.646 1 1.916.438 2.854.959.958.5 1.416 1.229.48.708.48 1.729 0 1.666-1.355 2.667-1.332 1-3.5 1-2.29 0-3.729-1.105-1.416-1.125-1.416-2.833h1.458q.084 1.292 1.062 2 1 .708 2.625.708 1.521 0 2.459-.666.937-.667.937-1.688zm15.282-3.104q0 3.084-1.354 4.896-1.354 1.791-3.646 1.792-2.687 0-4.125-1.896v6.708h-1.458v-18.208h1.354l.083 1.854q1.417-2.083 4.105-2.083 2.353 0 3.687 1.791 1.354 1.77 1.354 4.938zm-1.458-.25q0-2.52-1.042-3.98-1.02-1.457-2.875-1.457-1.334 0-2.291.645-.959.646-1.459 1.875v6.292q.52 1.146 1.48 1.75.978.583 2.312.583 1.833 0 2.854-1.458 1.02-1.48 1.02-4.25zm9.765 6.938q-1.667 0-3.021-.834a5.83 5.83 0 0 1-2.125-2.291q-.75-1.48-.75-3.313v-.52q0-1.897.73-3.417.75-1.521 2.062-2.375 1.312-.875 2.833-.875 2.395 0 3.792 1.625 1.416 1.624 1.416 4.458v.812h-9.375v.292q0 2.23 1.271 3.73 1.292 1.478 3.23 1.478 1.166 0 2.062-.416.896-.438 1.625-1.375l.916.687q-1.604 2.334-4.666 2.334m-.271-12.396q-1.625 0-2.75 1.208-1.125 1.188-1.375 3.23h7.896v-.167q-.063-1.896-1.084-3.084-1.02-1.187-2.687-1.187m12.892 11.166q1.52 0 2.542-.854 1.042-.854 1.125-2.229h1.396a4.1 4.1 0 0 1-.771 2.208 4.75 4.75 0 0 1-1.834 1.542 5.5 5.5 0 0 1-2.458.563q-2.583 0-4.104-1.792-1.5-1.813-1.5-4.854v-.438q0-1.937.667-3.416.686-1.5 1.958-2.313 1.27-.813 2.979-.812 2.145 0 3.542 1.291 1.416 1.27 1.52 3.375h-1.395q-.105-1.542-1.125-2.479-1-.958-2.542-.958-1.98 0-3.062 1.416-1.084 1.417-1.084 3.98v.437q0 2.52 1.084 3.938 1.083 1.395 3.062 1.395m9.585.98h-1.458v-13.146h1.458zm-1.708-16.938q0-.417.27-.708.271-.292.73-.292.457 0 .729.292.27.291.27.708t-.27.688q-.27.27-.73.27-.457 0-.729-.27a.93.93 0 0 1-.27-.688m6.533 16.938V638.29h-2.188v-1.187h2.188v-1.354q0-2.085 1.146-3.25 1.146-1.167 3.208-1.167 1.625 0 3.354.729l-.25 1.25a7.4 7.4 0 0 0-3-.646q-3 0-3 3.125v1.313h3.063v1.187h-3.063v11.959zm8.5 0h-1.458v-13.146h1.458zm9.069.25q-1.667 0-3.021-.834a5.83 5.83 0 0 1-2.125-2.291q-.75-1.48-.75-3.313v-.52q0-1.898.73-3.417.75-1.521 2.062-2.375 1.313-.875 2.833-.875 2.396 0 3.792 1.625 1.416 1.625 1.416 4.458v.812h-9.375v.292q0 2.23 1.271 3.73 1.292 1.478 3.23 1.478 1.166 0 2.062-.416.896-.438 1.625-1.375l.917.687q-1.605 2.334-4.667 2.334m-.271-12.396q-1.625 0-2.75 1.208-1.125 1.188-1.375 3.23h7.896v-.167q-.063-1.896-1.083-3.084-1.022-1.187-2.688-1.187m7.455 5.458q0-3.063 1.354-4.875 1.375-1.812 3.729-1.812 2.646 0 4.042 2.083v-7.375h1.458v18.667h-1.375l-.042-1.75q-1.395 2-4.125 2-2.271 0-3.666-1.834-1.375-1.833-1.375-4.937zm1.479.25q0 2.52 1 3.98.999 1.437 2.833 1.437 2.688 0 3.813-2.375v-6.167q-1.125-2.562-3.792-2.562-1.833 0-2.854 1.437-1 1.437-1 4.25m17.28-.52a19.7 19.7 0 0 1-.666 5.145 16.3 16.3 0 0 1-1.98 4.52q-1.29 2.064-2.854 3l-.354-.937q1.188-.855 2.208-2.645 1.022-1.771 1.605-4.146t.583-5.167a19.8 19.8 0 0 0-.583-4.833q-.584-2.355-1.625-4.188-1.02-1.833-2.188-2.687l.354-.917q1.542.916 2.834 2.98 1.29 2.04 1.979 4.562.687 2.5.687 5.312z"/><path d="M466.677 386.901h76.548v45.008h-76.548zm285.925 70.121h432.966v155.254H752.602z"/><path fill="#4285f4" fill-rule="nonzero" d="M772.102 490.214h2.937q2.105 0 3.105-1.041 1.02-1.042 1.02-2.792 0-1.667-1-2.604t-2.75-.938q-1.583 0-2.666.875-1.063.855-1.063 2.25h-5.52q0-2.166 1.166-3.895 1.188-1.73 3.292-2.709t4.646-.979q4.417 0 6.916 2.125 2.5 2.104 2.5 5.813 0 1.895-1.166 3.5-1.167 1.603-3.042 2.458 2.333.855 3.479 2.542 1.167 1.666 1.167 3.958 0 3.708-2.709 5.937-2.687 2.23-7.145 2.23-4.146 0-6.792-2.188t-2.646-5.812h5.52q0 1.561 1.168 2.562 1.166 1 2.895 1 1.959 0 3.063-1.042 1.125-1.042 1.125-2.77 0-4.146-4.583-4.146h-2.917z"/><path fill="#666" fill-rule="nonzero" d="m770.102 541.478.542 2.75.666-2.625 3.854-13.042h1.334l3.791 13.042.667 2.646.583-2.771 3.188-12.917h1.542l-4.542 17.688h-1.438l-4-13.834-.458-1.75-.437 1.75-4.105 13.834h-1.437l-4.5-17.688h1.52zm20.133-6.146q.729-1.188 1.834-1.813a4.86 4.86 0 0 1 2.458-.645q2.104 0 3.125 1.187 1.042 1.188 1.062 3.563v8.625h-1.458v-8.646q0-1.75-.75-2.604-.73-.875-2.333-.875a3.67 3.67 0 0 0-2.396.854q-1.042.833-1.542 2.27v9h-1.437v-18.666h1.437zm17.298 11.167q-1.666 0-3.02-.834a5.83 5.83 0 0 1-2.126-2.291q-.75-1.48-.75-3.313v-.52q0-1.897.73-3.417.75-1.521 2.062-2.375 1.313-.875 2.833-.875 2.396 0 3.792 1.625 1.417 1.624 1.417 4.458v.812h-9.375v.292q0 2.23 1.27 3.73 1.293 1.478 3.23 1.478 1.166 0 2.062-.416.896-.438 1.625-1.375l.917.687q-1.605 2.334-4.667 2.334m-.27-12.396q-1.625 0-2.75 1.208-1.125 1.188-1.376 3.23h7.896v-.167q-.062-1.896-1.083-3.084-1.02-1.187-2.688-1.187zm9.412-1 .063 2.25q.729-1.209 1.833-1.834 1.104-.645 2.459-.645 2.103 0 3.125 1.187 1.041 1.188 1.062 3.563v8.625h-1.458v-8.646q0-1.75-.75-2.604-.729-.875-2.334-.875a3.67 3.67 0 0 0-2.395.854q-1.042.833-1.542 2.27v9H815.3v-13.145zm26.797 11.479q-1.312 1.917-4.188 1.917-2.104 0-3.208-1.23-1.083-1.229-1.104-3.604v-8.562h1.437v8.375q0 3.75 3.042 3.75 3.145 0 4-2.604v-9.521h1.458v13.146h-1.417zm13.08-1.667q0-1.083-.874-1.729-.876-.667-2.625-1.042t-2.709-.854q-.958-.48-1.437-1.166-.459-.688-.459-1.667 0-1.563 1.292-2.563 1.313-1.02 3.333-1.02 2.209 0 3.521 1.083 1.335 1.083 1.334 2.833h-1.459q0-1.167-.958-1.916-.959-.771-2.438-.771-1.437 0-2.312.646-.855.625-.854 1.645 0 .98.708 1.521.729.542 2.646 1 1.918.438 2.854.959.958.5 1.417 1.229.48.708.479 1.729 0 1.666-1.354 2.667-1.335 1-3.5 1-2.292 0-3.73-1.105-1.416-1.125-1.416-2.833h1.458q.084 1.292 1.063 2 .999.708 2.625.708 1.52 0 2.458-.666.938-.667.938-1.688zm9.804 3.584q-1.666 0-3.02-.834a5.83 5.83 0 0 1-2.126-2.291q-.75-1.48-.75-3.313v-.52q0-1.897.73-3.417.75-1.521 2.062-2.375 1.313-.875 2.833-.875 2.397 0 3.792 1.625 1.417 1.624 1.417 4.458v.812h-9.375v.292q0 2.23 1.27 3.73 1.292 1.478 3.23 1.478 1.167 0 2.062-.416.896-.438 1.625-1.375l.917.687q-1.605 2.334-4.667 2.334m-.27-12.396q-1.626 0-2.75 1.208-1.125 1.188-1.376 3.23h7.896v-.167q-.062-1.896-1.083-3.084-1.02-1.187-2.688-1.187zm14.1.25a5.5 5.5 0 0 0-.98-.084q-1.354 0-2.29.75-.938.75-1.355 2.209v9.02h-1.438v-13.145h1.417l.02 2.083q1.168-2.312 3.71-2.312.603 0 .958.145zm12.438 9.896 4-11.146h1.5l-4.917 13.146h-1.166l-4.938-13.146h1.5zm9.506 2h-1.459v-13.146h1.459zm-1.709-16.938a1 1 0 0 1 .271-.708q.27-.292.73-.292.458 0 .728.292.27.291.271.708 0 .417-.27.688-.271.27-.73.27-.457 0-.729-.27a.93.93 0 0 1-.27-.688zm13.533 13.604q0-1.083-.875-1.729-.874-.667-2.625-1.042t-2.708-.854-1.437-1.166q-.459-.688-.459-1.667 0-1.563 1.292-2.563 1.313-1.02 3.333-1.02 2.209 0 3.521 1.083 1.333 1.083 1.333 2.833h-1.458q0-1.167-.958-1.916-.96-.771-2.438-.771-1.437 0-2.312.646-.855.625-.854 1.645 0 .98.708 1.521.729.542 2.646 1 1.917.438 2.854.959.958.5 1.417 1.229.48.708.479 1.729 0 1.666-1.354 2.667-1.335 1-3.5 1-2.292 0-3.73-1.105-1.416-1.125-1.416-2.833h1.458q.084 1.292 1.063 2 .999.708 2.625.708 1.52 0 2.458-.666.937-.667.937-1.688m6.346 3.334h-1.458v-13.146h1.458zm-1.708-16.938q0-.417.27-.708.271-.292.73-.292.457 0 .729.292.27.291.27.708t-.27.688q-.27.27-.73.27-.457 0-.729-.27a.93.93 0 0 1-.27-.688m7.908.438v3.354h2.73v1.187h-2.73v8.771q0 1.083.396 1.625.396.52 1.333.52.354 0 1.167-.103l.062 1.187q-.563.21-1.562.209-1.48 0-2.167-.875-.687-.876-.687-2.563v-8.77h-2.417v-1.188h2.417v-3.354zm13.617 13.166q0-1.083-.875-1.729-.874-.667-2.625-1.042c-1.751-.375-2.07-.534-2.708-.854q-.959-.48-1.438-1.166-.458-.688-.458-1.667 0-1.563 1.292-2.563 1.313-1.02 3.333-1.02 2.208 0 3.52 1.083 1.334 1.083 1.334 2.833h-1.458q0-1.167-.959-1.916-.958-.771-2.437-.771-1.438 0-2.313.646-.855.625-.854 1.645 0 .98.709 1.521.73.542 2.645 1 1.917.438 2.855.959.957.5 1.416 1.229.48.708.48 1.729 0 1.666-1.355 2.667-1.333 1-3.5 1-2.291 0-3.729-1.105-1.417-1.125-1.417-2.833h1.459q.083 1.292 1.062 2 1 .708 2.625.708 1.521 0 2.459-.666.937-.667.937-1.688m13.02-13.166v3.354h2.728v1.187h-2.729v8.771q0 1.083.396 1.625.396.52 1.333.52.354 0 1.167-.103l.062 1.187q-.562.21-1.562.209-1.479 0-2.167-.875-.687-.876-.687-2.563v-8.77h-2.417v-1.188h2.417v-3.354zm7.179 5.583q.729-1.188 1.833-1.813 1.126-.645 2.458-.645 2.105 0 3.125 1.187 1.042 1.188 1.063 3.563v8.625h-1.459v-8.646q0-1.75-.75-2.604-.729-.875-2.333-.875a3.67 3.67 0 0 0-2.396.854q-1.041.833-1.541 2.27v9h-1.438v-18.666h1.438zm17.298 11.167q-1.667 0-3.021-.834a5.83 5.83 0 0 1-2.125-2.291q-.75-1.48-.75-3.313v-.52q0-1.897.729-3.417.75-1.521 2.062-2.375a5 5 0 0 1 2.834-.875q2.395 0 3.791 1.625 1.417 1.624 1.417 4.458v.812h-9.375v.292q0 2.23 1.27 3.73 1.293 1.478 3.23 1.478 1.166 0 2.063-.416.895-.438 1.625-1.375l.916.687q-1.605 2.334-4.666 2.334m-.271-12.396q-1.625 0-2.75 1.208-1.125 1.188-1.375 3.23h7.896v-.167q-.063-1.896-1.084-3.084-1.02-1.187-2.687-1.187m15.461-1 .063 2.25q.729-1.209 1.833-1.834 1.104-.645 2.459-.645 2.103 0 3.125 1.187 1.041 1.188 1.062 3.563v8.625h-1.458v-8.646q0-1.75-.75-2.604-.729-.875-2.334-.875a3.67 3.67 0 0 0-2.395.854q-1.042.833-1.542 2.27v9h-1.438v-13.145zm17.373 13.396q-1.667 0-3.02-.834a5.83 5.83 0 0 1-2.126-2.291q-.75-1.48-.75-3.313v-.52q0-1.897.73-3.417.75-1.521 2.062-2.375 1.313-.875 2.833-.875 2.395 0 3.792 1.625 1.416 1.624 1.416 4.458v.812h-9.375v.292q0 2.23 1.271 3.73 1.292 1.478 3.23 1.478 1.166 0 2.062-.416.896-.438 1.625-1.375l.917.687q-1.605 2.334-4.667 2.334m-.27-12.396q-1.625 0-2.75 1.208-1.126 1.188-1.376 3.23h7.896v-.167q-.063-1.896-1.083-3.084-1.02-1.187-2.688-1.187zm12.162 4.333 3.542-5.333h1.729l-4.458 6.458 4.666 6.688h-1.729l-3.729-5.563-3.75 5.563h-1.708l4.645-6.688-4.458-6.458h1.708zm10.223-8.687v3.354h2.729v1.187h-2.73v8.771q0 1.083.396 1.625.396.52 1.334.52.354 0 1.166-.103l.063 1.187q-.562.21-1.563.209-1.479 0-2.166-.875-.688-.876-.688-2.563v-8.77h-2.416v-1.188h2.416v-3.354zm22.353 10.062q0 3.084-1.354 4.896-1.354 1.792-3.646 1.792-2.688 0-4.125-1.896v6.708h-1.458v-18.208h1.354l.083 1.854q1.417-2.083 4.104-2.083 2.355 0 3.688 1.791 1.354 1.77 1.354 4.938zm-1.458-.25q0-2.52-1.042-3.98-1.02-1.457-2.875-1.457-1.333 0-2.292.645-.958.646-1.458 1.875v6.292q.52 1.146 1.479 1.75.98.583 2.313.583 1.833 0 2.854-1.458 1.02-1.48 1.02-4.25zm12.973 6.688q-.21-.625-.271-1.834a5.1 5.1 0 0 1-1.958 1.542 6 6 0 0 1-2.5.542q-1.896 0-3.084-1.063-1.167-1.062-1.166-2.667 0-1.916 1.604-3.041c1.604-1.125 2.555-1.125 4.458-1.125h2.625v-1.48q0-1.416-.875-2.229-.855-.812-2.52-.812-1.522 0-2.522.792-1 .77-1 1.875l-1.458-.021q0-1.563 1.458-2.709 1.459-1.146 3.584-1.145 2.208 0 3.479 1.104 1.271 1.083 1.312 3.041v6.23q0 1.916.396 2.854v.146zm-4.563-1.042q1.458 0 2.604-.708 1.146-.71 1.667-1.875v-2.896h-2.604q-2.167.02-3.396.791t-1.23 2.125q0 1.104.813 1.834.834.729 2.146.729m9.012-5.646q0-3.083 1.354-4.875 1.375-1.812 3.73-1.812 2.686 0 4.083 2.125l.062-1.896h1.354v12.875q0 2.541-1.416 4.02-1.418 1.48-3.855 1.48a5.8 5.8 0 0 1-2.625-.625q-1.23-.605-1.937-1.625l.812-.875q1.542 1.896 3.667 1.896 1.813 0 2.833-1.084 1.02-1.062 1.063-2.958v-1.667q-1.396 1.959-4.083 1.959-2.272 0-3.667-1.813-1.375-1.833-1.375-4.937zm1.479.25q0 2.52 1 3.98 1 1.437 2.833 1.437 2.688 0 3.813-2.396v-6.125q-.52-1.25-1.48-1.917-.957-.666-2.312-.666-1.833 0-2.854 1.437-1 1.437-1 4.25m17.985 6.688q-1.666 0-3.02-.834a5.83 5.83 0 0 1-2.125-2.291q-.75-1.48-.75-3.313v-.52q0-1.897.729-3.417.75-1.521 2.062-2.375a5 5 0 0 1 2.834-.875q2.395 0 3.791 1.625 1.417 1.624 1.417 4.458v.812h-9.375v.292q0 2.23 1.27 3.73 1.293 1.478 3.23 1.478 1.167 0 2.062-.416.897-.438 1.625-1.375l.917.687q-1.604 2.334-4.667 2.334m-.27-12.396q-1.625 0-2.75 1.208-1.125 1.188-1.375 3.23h7.895v-.167q-.062-1.896-1.083-3.084-1.02-1.187-2.687-1.187m7.725 15.458-.854-.646q1.104-1.48 1.146-3.062v-1.896h1.416v1.52q0 2.542-1.708 4.084m13.372-19.812v3.354h2.73v1.187h-2.73v8.771q0 1.083.396 1.625.396.52 1.334.52.354 0 1.166-.103l.063 1.187q-.562.21-1.563.209-1.479 0-2.166-.875-.688-.876-.688-2.563v-8.77h-2.417v-1.188h2.417v-3.354zm7.18 5.583q.729-1.188 1.833-1.813 1.125-.645 2.459-.645 2.103 0 3.125 1.187 1.041 1.188 1.062 3.563v8.625h-1.458v-8.646q0-1.75-.75-2.604-.729-.875-2.334-.875a3.67 3.67 0 0 0-2.395.854q-1.043.833-1.542 2.27v9h-1.438v-18.666h1.438zm17.298 11.167q-1.667 0-3.02-.834a5.83 5.83 0 0 1-2.126-2.291q-.75-1.48-.75-3.313v-.52q0-1.897.73-3.417.75-1.521 2.062-2.375 1.313-.875 2.833-.875 2.396 0 3.792 1.625 1.416 1.624 1.416 4.458v.812h-9.375v.292q0 2.23 1.271 3.73 1.292 1.478 3.23 1.478 1.166 0 2.062-.416.896-.438 1.625-1.375l.917.687q-1.604 2.334-4.667 2.334m-.27-12.396q-1.626 0-2.75 1.208-1.126 1.188-1.376 3.23h7.896v-.167q-.063-1.896-1.083-3.084-1.021-1.187-2.688-1.187z"/><path fill="#4285f4" fill-rule="nonzero" d="m769.185 567.77.104 1.52q1.418-1.75 3.771-1.75 2.105 0 3.125 1.23 1.02 1.207 1.042 3.645v8.5h-3.521v-8.396q0-1.125-.48-1.625-.478-.5-1.624-.5-1.479 0-2.208 1.25v9.271h-3.521V567.77zm16.744 13.395q-2.895 0-4.708-1.77-1.812-1.792-1.813-4.73v-.354q0-1.98.75-3.52.77-1.563 2.167-2.397 1.417-.855 3.208-.854 2.71 0 4.25 1.709 1.542 1.688 1.542 4.812v1.417h-8.354q.167 1.29 1.02 2.083.855.77 2.167.77 2.021 0 3.167-1.478l1.73 1.937q-.793 1.125-2.147 1.75-1.333.625-2.979.625m-.396-10.791q-1.041 0-1.708.708-.645.708-.812 2.02h4.875v-.291q-.021-1.167-.646-1.792-.605-.645-1.709-.645m12.8 1.312 2.208-3.917h3.75l-3.729 6.438 3.896 6.708h-3.77l-2.355-4.125-2.312 4.125h-3.792l3.896-6.708-3.73-6.438h3.771zm11.844-7.146v3.23h2.25v2.583h-2.25v6.562q0 .73.27 1.042.292.312 1.084.312.583 0 1.042-.083v2.667a7.4 7.4 0 0 1-2.125.312q-3.71 0-3.771-3.729v-7.083h-1.917v-2.584h1.917v-3.229zm22.245 9.917q0 3.042-1.396 4.875-1.375 1.833-3.708 1.833-2 0-3.23-1.396v6.209h-3.5v-18.209h3.25l.126 1.292q1.27-1.52 3.333-1.52 2.417 0 3.77 1.79 1.356 1.792 1.355 4.96zm-3.52-.25q0-1.833-.647-2.813-.645-1-1.895-1-1.647 0-2.271 1.25v5.375q.645 1.313 2.291 1.313 2.521 0 2.521-4.125zm13.295 6.708a4.6 4.6 0 0 1-.354-1.187q-1.27 1.437-3.312 1.437-1.938 0-3.209-1.125-1.25-1.125-1.25-2.812 0-2.105 1.542-3.209 1.541-1.125 4.48-1.125h1.603v-.77q0-.897-.479-1.438-.458-.562-1.458-.562-.876 0-1.396.437-.5.417-.5 1.167h-3.5q0-1.147.687-2.104.71-.98 2-1.521 1.293-.563 2.896-.563 2.417 0 3.834 1.23 1.437 1.208 1.437 3.416v5.688q.022 1.875.52 2.833v.208zm-2.896-2.437q.771 0 1.417-.334.666-.354.98-.937v-2.271h-1.313q-2.625 0-2.792 1.833l-.02.209q0 .645.458 1.083.458.417 1.27.417m8.108-4.23q0-3.02 1.437-4.854 1.437-1.854 3.896-1.854 2.146 0 3.354 1.48l.146-1.25h3.187v12.708q0 1.728-.791 3-.77 1.27-2.209 1.937-1.416.667-3.312.667a7.2 7.2 0 0 1-2.833-.583q-1.354-.563-2.063-1.48l1.542-2.125q1.312 1.46 3.187 1.459 1.395 0 2.167-.75.792-.75.792-2.104v-.709q-1.23 1.375-3.209 1.375-2.355 0-3.833-1.854-1.458-1.854-1.458-4.917zm3.52.25q0 1.792.709 2.813.73 1 1.979 1 1.604 0 2.292-1.187v-5.542q-.71-1.188-2.271-1.188-1.27 0-2 1.042-.708 1.02-.709 3.063zm17.24 6.667q-2.895 0-4.708-1.77-1.812-1.792-1.812-4.73v-.354q0-1.98.75-3.52.77-1.563 2.167-2.397 1.416-.855 3.208-.854 2.708 0 4.25 1.709 1.542 1.688 1.542 4.812v1.417h-8.355q.168 1.29 1.021 2.083.855.77 2.167.77 2.02 0 3.167-1.478l1.729 1.937q-.792 1.125-2.146 1.75-1.333.625-2.98.625m-.395-10.791q-1.042 0-1.708.708-.647.708-.813 2.02h4.875v-.291q-.022-1.167-.646-1.792-.604-.645-1.708-.645m17.702 10.541h-3.541V562.25h3.541v18.666zm2.325-6.687q0-1.959.75-3.48.771-1.541 2.187-2.374 1.417-.834 3.271-.834 2.668 0 4.354 1.625 1.687 1.626 1.875 4.417l.021.896q0 3.021-1.687 4.854c-1.687 1.833-2.64 1.833-4.542 1.833q-2.833 0-4.542-1.812-1.687-1.834-1.687-4.98zm3.52.25q0 1.875.71 2.875.707.979 2.02.979 1.27 0 1.98-.98.728-.978.728-3.124 0-1.834-.729-2.834-.708-1.02-2.02-1.02-1.272 0-1.98 1-.708.999-.708 3.104zm18.712 6.437a4.6 4.6 0 0 1-.355-1.187q-1.27 1.437-3.312 1.437-1.938 0-3.208-1.125-1.25-1.125-1.25-2.812 0-2.105 1.541-3.209 1.542-1.125 4.48-1.125h1.604v-.77q0-.897-.48-1.438-.457-.562-1.458-.562-.874 0-1.396.437-.5.417-.5 1.167h-3.5q0-1.147.688-2.104.708-.98 2-1.521 1.29-.563 2.896-.563 2.416 0 3.833 1.23 1.437 1.208 1.437 3.416v5.688q.021 1.875.521 2.833v.208zm-2.896-2.437q.771 0 1.416-.334.667-.354.98-.937v-2.271h-1.313q-2.625 0-2.792 1.833l-.02.209q0 .645.458 1.083.46.417 1.27.417zm8.065-4.23q0-3.083 1.375-4.895 1.396-1.813 3.792-1.813 1.917 0 3.167 1.417v-6.708h3.52v18.666h-3.166l-.167-1.396q-1.312 1.646-3.375 1.646-2.332 0-3.75-1.833-1.395-1.833-1.396-5.083zm3.521.25q0 1.855.646 2.834t1.875.979q1.624 0 2.292-1.375v-5.187q-.668-1.355-2.271-1.355-2.542 0-2.542 4.105zm18.162 2.792q0-.645-.645-1.02-.625-.375-2.021-.667-4.71-.98-4.709-3.98 0-1.749 1.459-2.916 1.458-1.167 3.791-1.167 2.5 0 4 1.188 1.5 1.166 1.5 3.041h-3.5q0-.75-.5-1.229-.478-.5-1.5-.5-.895 0-1.375.396a1.26 1.26 0 0 0-.479 1.02q0 .584.542.938.562.355 1.875.625 1.312.25 2.208.584 2.77 1.02 2.771 3.541 0 1.792-1.542 2.917-1.541 1.104-3.979 1.104-1.645 0-2.937-.583-1.27-.605-2-1.625a3.75 3.75 0 0 1-.73-2.23h3.313q.063.939.708 1.438.646.5 1.709.5 1.02 0 1.52-.375.521-.396.521-1m12.839 3.625v-10.562h-1.959v-2.584h1.959v-1.104q0-2.23 1.27-3.437 1.272-1.23 3.542-1.23.73 0 1.792.25l-.042 2.73a4 4 0 0 0-1.062-.125q-1.98 0-1.98 1.854v1.062h2.605v2.584h-2.604v10.562zm15.56 0a4.6 4.6 0 0 1-.353-1.187q-1.272 1.437-3.313 1.437-1.938 0-3.208-1.125-1.25-1.125-1.25-2.812 0-2.105 1.541-3.209 1.542-1.125 4.48-1.125h1.604v-.77q0-.897-.48-1.438-.457-.562-1.458-.562-.874 0-1.396.437-.5.417-.5 1.167h-3.5q0-1.147.688-2.104.708-.98 2-1.521 1.291-.563 2.896-.563 2.416 0 3.833 1.23 1.437 1.208 1.438 3.416v5.688q.02 1.875.52 2.833v.208h-3.541zm-2.895-2.437q.77 0 1.417-.334.666-.354.979-.937v-2.271h-1.313q-2.625 0-2.791 1.833l-.021.209q0 .645.458 1.083.46.417 1.271.417m15.732-1.188q0-.645-.646-1.02-.625-.375-2.02-.667-4.71-.98-4.709-3.98 0-1.749 1.458-2.916 1.46-1.167 3.792-1.167 2.5 0 4 1.188 1.5 1.166 1.5 3.041h-3.5q0-.75-.5-1.229-.48-.5-1.5-.5-.895 0-1.375.396t-.48 1.02q0 .584.543.938.563.355 1.875.625 1.312.25 2.208.584 2.77 1.02 2.77 3.541 0 1.792-1.54 2.917-1.543 1.104-3.98 1.104-1.645 0-2.938-.583-1.27-.605-2-1.625a3.75 3.75 0 0 1-.729-2.23h3.313q.062.939.708 1.438.645.5 1.708.5 1.022 0 1.521-.375.52-.396.521-1m9.873-12.75v3.23h2.25v2.583h-2.25v6.562q0 .73.27 1.042.293.312 1.084.312.584 0 1.042-.083v2.667a7.4 7.4 0 0 1-2.125.312q-3.709 0-3.77-3.729v-7.083h-1.918v-2.584h1.917v-3.229zm10.26 16.625q-2.896 0-4.709-1.77-1.812-1.792-1.813-4.73v-.354q0-1.98.75-3.52.772-1.563 2.167-2.397 1.417-.855 3.208-.854 2.71 0 4.25 1.709 1.542 1.688 1.542 4.812v1.417h-8.354q.167 1.29 1.02 2.083.855.77 2.167.77 2.022 0 3.167-1.478l1.73 1.937q-.792 1.125-2.147 1.75-1.332.625-2.979.625zm-.397-10.791q-1.04 0-1.708.708-.645.708-.812 2.02h4.875v-.291q-.022-1.167-.646-1.792-.604-.645-1.709-.645m15.175.687a11 11 0 0 0-1.25-.083q-2 0-2.625 1.333v8.604h-3.5V567.77h3.313l.104 1.563q1.042-1.792 2.917-1.792.583 0 1.104.146z"/><path fill="#666" fill-rule="nonzero" d="M1029.612 580.915q-.208-.625-.27-1.833a5.1 5.1 0 0 1-1.959 1.542 6 6 0 0 1-2.5.541q-1.896 0-3.083-1.062-1.167-1.063-1.167-2.667 0-1.917 1.604-3.042t4.459-1.125h2.625v-1.479q0-1.416-.875-2.229-.855-.812-2.521-.812-1.521 0-2.52.791-1.001.772-1 1.875l-1.46-.02q0-1.563 1.46-2.709 1.457-1.146 3.582-1.146 2.209 0 3.48 1.104 1.27 1.084 1.312 3.042v6.23q0 1.915.396 2.853v.146zm-4.562-1.041q1.458 0 2.604-.709c1.146-.709 1.32-1.097 1.667-1.875v-2.896h-2.604q-2.168.021-3.396.792-1.23.77-1.23 2.125 0 1.104.813 1.833.833.73 2.146.73m17.47-2.292q0-1.083-.875-1.73-.875-.666-2.625-1.041t-2.708-.854-1.438-1.167q-.458-.687-.458-1.666 0-1.563 1.291-2.563 1.313-1.02 3.334-1.02 2.208 0 3.52 1.083 1.335 1.083 1.334 2.833h-1.458q0-1.167-.959-1.917-.958-.77-2.437-.77-1.438 0-2.313.645-.854.625-.854 1.646 0 .98.708 1.52.73.543 2.646 1 1.918.439 2.854.96.96.5 1.417 1.228.48.709.48 1.73 0 1.666-1.355 2.666-1.333 1-3.5 1-2.291 0-3.729-1.104-1.417-1.125-1.417-2.833h1.459q.083 1.29 1.062 2 1 .708 2.625.708 1.52 0 2.458-.667.938-.666.938-1.687m16.831-8.563a5.5 5.5 0 0 0-.979-.083q-1.353 0-2.291.75c-.938.75-1.077 1.236-1.355 2.208v9.021h-1.437V567.77h1.417l.02 2.084q1.167-2.313 3.709-2.313.604 0 .958.146zm7.159 12.146q-1.667 0-3.02-.833a5.83 5.83 0 0 1-2.126-2.292q-.75-1.479-.75-3.312v-.521q0-1.896.73-3.417.75-1.52 2.062-2.375 1.313-.875 2.833-.875 2.396 0 3.792 1.625 1.416 1.626 1.417 4.459v.812h-9.375v.292q0 2.229 1.27 3.729 1.292 1.479 3.23 1.479 1.166 0 2.062-.417.896-.437 1.625-1.375l.917.688q-1.604 2.333-4.667 2.333m-.27-12.396q-1.626 0-2.75 1.209-1.126 1.187-1.376 3.229h7.896v-.167q-.063-1.896-1.083-3.083t-2.688-1.188zm15.912 8.813q0-1.083-.875-1.73-.875-.666-2.625-1.041t-2.708-.854-1.438-1.167q-.458-.687-.458-1.666 0-1.563 1.292-2.563 1.313-1.02 3.333-1.02 2.208 0 3.52 1.083 1.335 1.083 1.334 2.833h-1.458q0-1.167-.958-1.917-.96-.77-2.438-.77-1.438 0-2.312.645-.855.625-.855 1.646 0 .98.709 1.52.729.543 2.646 1 1.916.439 2.854.96.958.5 1.416 1.228.48.709.48 1.73 0 1.666-1.355 2.666-1.333 1-3.5 1-2.29 0-3.729-1.104-1.416-1.125-1.416-2.833h1.458q.083 1.29 1.062 2 1 .708 2.625.708 1.521 0 2.459-.667.937-.666.937-1.687m3.908-3.438q0-1.895.73-3.395.75-1.522 2.083-2.355 1.353-.855 3.041-.854 2.625 0 4.25 1.834 1.646 1.833 1.646 4.875v.312q0 1.896-.75 3.417-.73 1.52-2.062 2.354-1.334.833-3.042.833-2.625 0-4.27-1.833-1.626-1.854-1.626-4.896zm1.458.417q0 2.355 1.23 3.875 1.228 1.5 3.208 1.5 1.958 0 3.167-1.5 1.229-1.52 1.229-4v-.292q0-1.5-.563-2.75-.541-1.25-1.562-1.937-1-.687-2.313-.688-1.937 0-3.166 1.521-1.23 1.52-1.23 4zm21.744 4.688q-1.312 1.916-4.187 1.916-2.104 0-3.208-1.229-1.083-1.229-1.105-3.604v-8.563h1.438v8.375q0 3.75 3.042 3.75 3.145 0 4-2.604v-9.52h1.458v13.145h-1.417zm11.269-10.23a5.5 5.5 0 0 0-.98-.083q-1.353 0-2.291.75c-.938.75-1.076 1.236-1.354 2.208v9.021h-1.438V567.77h1.417l.02 2.084q1.168-2.313 3.71-2.313.603 0 .957.146zm6.93 10.917q1.52 0 2.54-.854 1.042-.855 1.126-2.23h1.396a4.1 4.1 0 0 1-.771 2.209 4.75 4.75 0 0 1-1.834 1.542 5.5 5.5 0 0 1-2.458.562q-2.583 0-4.104-1.791-1.5-1.813-1.5-4.855v-.437q0-1.937.667-3.417.687-1.5 1.958-2.312 1.27-.813 2.98-.813 2.145 0 3.54 1.292 1.417 1.27 1.522 3.375h-1.396q-.105-1.542-1.125-2.48-1-.957-2.542-.958-1.98 0-3.062 1.417-1.084 1.416-1.084 3.98v.437q0 2.52 1.084 3.937 1.083 1.395 3.062 1.396zm13.042 1.23q-1.666 0-3.02-.834a5.83 5.83 0 0 1-2.125-2.292q-.75-1.479-.75-3.312v-.521q0-1.896.729-3.417.75-1.52 2.062-2.375 1.313-.875 2.834-.875 2.395 0 3.791 1.625 1.417 1.626 1.417 4.459v.812h-9.375v.292q0 2.229 1.27 3.729 1.293 1.479 3.23 1.479 1.167 0 2.062-.417.897-.437 1.625-1.375l.917.688q-1.604 2.333-4.667 2.333zm-.27-12.397q-1.626 0-2.75 1.209-1.126 1.187-1.375 3.229h7.895v-.167q-.062-1.896-1.083-3.083t-2.687-1.188m15.912 8.813q0-1.083-.875-1.73-.875-.666-2.625-1.041t-2.708-.854-1.437-1.167q-.459-.687-.459-1.666 0-1.563 1.292-2.563 1.313-1.02 3.333-1.02 2.208 0 3.521 1.083 1.333 1.083 1.333 2.833h-1.458q0-1.167-.958-1.917-.96-.77-2.438-.77-1.437 0-2.312.645-.854.625-.854 1.646 0 .98.708 1.52.729.543 2.646 1 1.917.439 2.854.96.958.5 1.417 1.228.48.709.479 1.73 0 1.666-1.354 2.666-1.334 1-3.5 1-2.292 0-3.73-1.104-1.416-1.125-1.416-2.833h1.458q.084 1.29 1.063 2 .999.708 2.625.708 1.52 0 2.458-.667.937-.666.937-1.687m-381.355 38q-.21-.626-.271-1.833a5.1 5.1 0 0 1-1.959 1.541 6 6 0 0 1-2.5.542q-1.896 0-3.083-1.063-1.167-1.062-1.167-2.666 0-1.917 1.604-3.042t4.459-1.125h2.625v-1.48q0-1.416-.875-2.228-.855-.813-2.521-.813-1.521 0-2.52.792-1.001.771-1 1.875l-1.46-.021q0-1.562 1.46-2.708 1.457-1.146 3.582-1.146 2.209 0 3.48 1.104 1.27 1.083 1.312 3.042v6.229q0 1.917.396 2.854v.146zm-4.563-1.042q1.458 0 2.604-.708c1.146-.708 1.32-1.097 1.667-1.875v-2.896h-2.604q-2.168.021-3.396.792-1.23.77-1.23 2.125 0 1.104.813 1.833.833.73 2.146.73zm15.657-10.854a5.5 5.5 0 0 0-.979-.083q-1.354 0-2.291.75c-.937.75-1.077 1.236-1.355 2.208v9.02h-1.437v-13.145h1.417l.02 2.083q1.167-2.312 3.709-2.312.604 0 .958.146zm7.159 12.146q-1.667 0-3.02-.833a5.83 5.83 0 0 1-2.126-2.292q-.75-1.479-.75-3.313v-.52q0-1.896.73-3.417.75-1.521 2.062-2.375 1.313-.875 2.833-.875 2.395 0 3.792 1.625 1.416 1.625 1.416 4.458v.813h-9.375v.291q0 2.23 1.271 3.73 1.292 1.479 3.23 1.479 1.166 0 2.062-.417.896-.438 1.625-1.375l.917.688q-1.605 2.333-4.667 2.333m-.27-12.396q-1.625 0-2.75 1.208-1.126 1.188-1.376 3.23h7.896v-.167q-.063-1.896-1.083-3.083t-2.688-1.188zm22.377 12.146q-.208-.625-.27-1.833a5.1 5.1 0 0 1-1.959 1.541 6 6 0 0 1-2.5.542q-1.895 0-3.083-1.063-1.167-1.062-1.167-2.666 0-1.917 1.604-3.042t4.459-1.125h2.625v-1.48q0-1.416-.875-2.228-.855-.813-2.521-.813-1.521 0-2.52.792-1.001.771-1 1.875l-1.46-.021q0-1.562 1.46-2.708 1.457-1.146 3.582-1.146 2.209 0 3.48 1.104 1.27 1.083 1.312 3.042v6.229q0 1.917.396 2.854v.146zm-4.562-1.042q1.458 0 2.604-.708c1.146-.708 1.32-1.097 1.667-1.875v-2.896h-2.604q-2.168.021-3.396.792-1.23.77-1.23 2.125 0 1.104.813 1.833.834.73 2.146.73zm11.22 1.042h-1.458v-18.667h1.458zm10.012-11.896a5.5 5.5 0 0 0-.979-.083q-1.353 0-2.291.75c-.938.75-1.077 1.236-1.355 2.208v9.02h-1.437v-13.145h1.417l.02 2.083q1.167-2.312 3.709-2.312.604 0 .958.146zm7.159 12.146q-1.667 0-3.02-.833a5.83 5.83 0 0 1-2.126-2.292q-.75-1.479-.75-3.313v-.52q0-1.896.73-3.417.75-1.521 2.062-2.375 1.313-.875 2.833-.875 2.395 0 3.792 1.625 1.416 1.625 1.417 4.458v.813h-9.375v.291q0 2.23 1.27 3.73 1.292 1.479 3.23 1.479 1.166 0 2.062-.417.896-.438 1.625-1.375l.917.688q-1.604 2.333-4.667 2.333m-.27-12.396q-1.625 0-2.75 1.208-1.126 1.188-1.376 3.23h7.896v-.167q-.063-1.896-1.083-3.083t-2.688-1.188zm16.329 12.146q-.21-.625-.271-1.833a5.1 5.1 0 0 1-1.958 1.541 6 6 0 0 1-2.5.542q-1.896 0-3.084-1.063-1.167-1.062-1.166-2.666 0-1.917 1.604-3.042c1.604-1.125 2.555-1.125 4.458-1.125h2.625v-1.48q0-1.416-.875-2.228-.855-.813-2.52-.813-1.522 0-2.522.792-1 .771-1 1.875l-1.458-.021q0-1.562 1.458-2.708 1.459-1.146 3.584-1.146 2.208 0 3.479 1.104 1.271 1.083 1.312 3.042v6.229q0 1.917.396 2.854v.146zm-4.563-1.042q1.458 0 2.604-.708c1.146-.708 1.32-1.097 1.667-1.875v-2.896h-2.604q-2.167.021-3.396.792-1.23.77-1.23 2.125 0 1.104.813 1.833.834.73 2.146.73zm9.012-5.646q0-3.062 1.354-4.875 1.375-1.812 3.73-1.812 2.645 0 4.04 2.083v-7.375h1.46v18.667h-1.376l-.041-1.75q-1.396 2-4.125 2-2.272 0-3.667-1.833-1.375-1.834-1.375-4.938zm1.48.25q-.001 2.52 1 3.98.999 1.437 2.832 1.437 2.688 0 3.813-2.375v-6.167q-1.125-2.562-3.792-2.562-1.833 0-2.854 1.437-1 1.438-1 4.25zm17.092 4.355 3.833-11.063h1.563l-5.604 15.375-.292.688q-1.083 2.395-3.333 2.395a4.3 4.3 0 0 1-1.125-.166l-.021-1.209.77.063q1.064 0 1.71-.521.666-.52 1.145-1.812l.646-1.771-4.959-13.042h1.584zm13.117-4.605q0-3.062 1.354-4.875 1.375-1.812 3.73-1.812 2.645 0 4.04 2.083v-7.375h1.46v18.667h-1.376l-.041-1.75q-1.397 2-4.125 2-2.272 0-3.667-1.833-1.375-1.834-1.375-4.938zm1.479.25q0 2.52 1 3.98 1 1.437 2.833 1.437 2.688 0 3.813-2.375v-6.167q-1.125-2.562-3.792-2.562-1.833 0-2.854 1.437-1 1.438-1 4.25m12.114-.333q0-1.896.729-3.396.75-1.52 2.083-2.354 1.355-.855 3.042-.854 2.625 0 4.25 1.833 1.646 1.833 1.646 4.875v.313q0 1.896-.75 3.416-.73 1.521-2.063 2.355-1.333.833-3.041.833-2.625 0-4.271-1.833-1.626-1.855-1.625-4.896zm1.458.417q0 2.354 1.23 3.875 1.228 1.5 3.208 1.5 1.957 0 3.166-1.5 1.23-1.522 1.23-4v-.292q0-1.5-.563-2.75-.541-1.25-1.563-1.937-1-.688-2.312-.688-1.937 0-3.167 1.52-1.23 1.522-1.229 4zm16.432 3.333.208 1.125.292-1.187 3.166-10.063h1.23l3.124 9.98.355 1.374.27-1.27 2.688-10.084h1.52l-3.833 13.146h-1.229l-3.375-10.417-.166-.729-.167.73-3.313 10.416H922.2l-3.812-13.146h1.479zm16.982-10.125.063 2.25q.729-1.209 1.833-1.833a4.8 4.8 0 0 1 2.458-.646q2.105 0 3.125 1.187 1.042 1.188 1.063 3.563v8.625h-1.458v-8.646q0-1.75-.75-2.604-.73-.875-2.334-.875a3.67 3.67 0 0 0-2.396.854q-1.041.834-1.541 2.27v9h-1.438v-13.145zm13.914 13.146h-1.458v-18.667h1.458zm3.138-6.771q0-1.896.73-3.396.75-1.52 2.082-2.354 1.355-.855 3.042-.854 2.625 0 4.25 1.833 1.646 1.833 1.646 4.875v.313q0 1.896-.75 3.416-.73 1.521-2.063 2.355-1.332.833-3.041.833-2.625 0-4.271-1.833-1.625-1.855-1.625-4.896zm1.458.417q0 2.354 1.23 3.875 1.228 1.5 3.208 1.5 1.957 0 3.166-1.5 1.23-1.522 1.23-4v-.292q0-1.5-.563-2.75-.542-1.25-1.562-1.937-1-.688-2.313-.688-1.937 0-3.167 1.52-1.229 1.522-1.229 4zm21.578 6.354q-.21-.626-.271-1.833a5.1 5.1 0 0 1-1.959 1.541 6 6 0 0 1-2.5.542q-1.895 0-3.083-1.063-1.167-1.062-1.167-2.666 0-1.917 1.605-3.042 1.603-1.125 4.458-1.125h2.625v-1.48q0-1.416-.875-2.228-.855-.813-2.52-.813-1.522 0-2.522.792-1 .771-1 1.875l-1.458-.021q0-1.562 1.458-2.708t3.584-1.146q2.208 0 3.479 1.104 1.27 1.083 1.312 3.042v6.229q0 1.917.396 2.854v.146zm-4.563-1.042q1.458 0 2.604-.708c1.146-.708 1.32-1.097 1.667-1.875v-2.896h-2.604q-2.168.021-3.396.792-1.23.77-1.23 2.125 0 1.104.813 1.833.834.73 2.146.73zm9.012-5.646q0-3.062 1.354-4.875 1.375-1.812 3.73-1.812 2.645 0 4.04 2.083v-7.375h1.46v18.667h-1.376l-.042-1.75q-1.395 2-4.125 2-2.27 0-3.666-1.833-1.375-1.834-1.375-4.938zm1.479.25q0 2.52 1 3.98 1 1.437 2.833 1.437 2.688 0 3.813-2.375v-6.167q-1.125-2.562-3.792-2.562-1.833 0-2.854 1.437-1 1.438-1 4.25m18.01 6.688q-1.668 0-3.021-.833a5.83 5.83 0 0 1-2.125-2.292q-.75-1.479-.75-3.313v-.52q0-1.896.729-3.417.75-1.521 2.062-2.375 1.313-.875 2.834-.875 2.395 0 3.791 1.625 1.417 1.625 1.417 4.458v.813h-9.375v.291q0 2.23 1.27 3.73 1.292 1.479 3.23 1.479 1.166 0 2.063-.417.895-.438 1.625-1.375l.916.688q-1.605 2.333-4.666 2.333m-.271-12.396q-1.625 0-2.75 1.208-1.125 1.188-1.375 3.23h7.896v-.167q-.063-1.896-1.084-3.083-1.02-1.188-2.687-1.188m7.454 5.458q0-3.062 1.355-4.875 1.375-1.812 3.729-1.812 2.645 0 4.041 2.083v-7.375h1.459v18.667h-1.375l-.042-1.75q-1.396 2-4.125 2-2.27 0-3.667-1.833-1.375-1.834-1.375-4.938zm1.48.25q0 2.52 1 3.98.999 1.437 2.833 1.437 2.688 0 3.812-2.375v-6.167q-1.125-2.562-3.791-2.562-1.834 0-2.854 1.437-1 1.438-1 4.25m12.8 5.563a1 1 0 0 1 .272-.708q.27-.313.75-.313c.48 0 .57.104.75.313q.291.291.291.708a.96.96 0 0 1-.291.708q-.27.27-.75.271c-.48.001-.57-.09-.75-.27a1 1 0 0 1-.271-.71z"/><path fill="#fff" d="M1067.952 197.605h122.793v207.72h-122.793z"/><path stroke="#ccc" stroke-linejoin="round" d="M1067.952 197.605h122.793v207.72h-122.793z"/><path fill="#efefef" d="M1067.946 197.605h122.792v22.998h-122.792z"/><path fill="#d9d9d9" d="M1074.244 202.398h15.818v13.442h-15.818z"/><path fill="#4285f4" d="M1078.328 234.527h43.353v39.475h-43.353zm50.743 0h48.338v9.538h-48.338zm0 14.981h35.876v9.538h-35.876zm-50.741 57.896h99.073v9.538h-99.074z"/><path fill="#d9d9d9" d="M1078.33 323.758h73.536v9.538h-73.537zm0-32.708h99.073v9.539h-99.074zm0 75.65h99.073v9.538h-99.074zm0 16.354h73.536v9.538h-73.537z"/><path fill="#4285f4" d="M1078.33 350.347h99.073v9.538h-99.074z"/><path d="M1057.565 153.369h171.723v323.994h-171.723z"/><path d="M1070.114 197.449h114.1v207.706h-114.1z"/><path stroke="#4285f4" stroke-linejoin="round" stroke-width="5" d="M1065.213 197.449h126v207.706h-126z"/><path fill="#ea9999" fill-opacity=".561" d="M826.788 364.822c0-10.6 8.587-19.194 19.18-19.194 5.087 0 9.966 2.023 13.563 5.622a19.2 19.2 0 0 1 5.618 13.572c0 10.6-8.588 19.194-19.18 19.194-10.594 0-19.181-8.593-19.181-19.194"/><path fill="#e06666" fill-opacity=".523" d="M833.084 364.828c0-7.124 5.769-12.899 12.885-12.899 3.417 0 6.695 1.36 9.111 3.778a12.9 12.9 0 0 1 3.774 9.12c0 7.124-5.769 12.9-12.885 12.9s-12.885-5.776-12.885-12.9z"/><path d="M830.672 360.206h44.753v32.579h-44.753z"/><path fill="#fff" d="M215.116 205.565H340.64V432H215.116z"/><path fill="#ccc" d="M228.17 360.665h42.29v38.551h-42.29zm49.542 0h47.202v9.323h-47.202zm0 14.628h35.023v9.322h-35.023zM228.17 242.874h42.29v38.551h-42.29zm49.542 0h47.202v9.323h-47.202zm0 14.628h35.023v9.322h-35.023zM228.17 301.77h42.29v38.55h-42.29zm49.542 0h47.202v9.322h-47.202zm0 14.627h35.023v9.323h-35.023z"/><path d="M207.392 162.247h173.591v327.568h-173.59z"/><path fill="#efefef" d="M218.04 206.836h119.892v22.46H218.04z"/><path fill="#d9d9d9" d="M224.189 211.517h15.444v13.127H224.19z"/></g><path fill="#b7b7b7" fill-rule="nonzero" d="M877.285 399.82H752.107V195.706h125.178v204.112zm-72.33 20.725c0-5.612 4.48-10.164 10.008-10.164 5.53 0 10.007 4.552 10.007 10.164 0 5.61-4.478 10.17-10.007 10.17-5.527-.008-10.008-4.56-10.008-10.17m80.73 9.224h.016V185.105h-.004c-.026-5.585-4.53-10.105-10.092-10.105-.04 0-.072.004-.108.004V175h-121.71c-5.553.004-10.054 4.524-10.084 10.105h-.002v244.662h.015c-.004.107-.015.212-.015.322 0 5.473 4.573 9.911 10.215 9.911.084 0 .165-.011.248-.013V440h121.579c5.49 0 9.956-4.436 9.956-9.911.002-.109-.011-.215-.015-.32m-545.1-21.949H215.406V203.706h125.178v204.112zm-72.33 20.725c0-5.612 4.48-10.164 10.008-10.164 5.529 0 10.007 4.552 10.007 10.164 0 5.61-4.478 10.17-10.007 10.17-5.528-.008-10.008-4.56-10.008-10.17m80.729 9.224H349V193.105h-.004c-.026-5.585-4.53-10.105-10.092-10.105-.04 0-.072.004-.108.004V183h-121.71c-5.553.004-10.054 4.524-10.084 10.105H207v244.662h.015c-.004.107-.015.212-.015.322 0 5.473 4.573 9.911 10.215 9.911.084 0 .165-.011.248-.013V448h121.579c5.49 0 9.956-4.436 9.956-9.911.002-.109-.011-.215-.015-.32"/></g></svg>