<svg xmlns="http://www.w3.org/2000/svg" xmlns:xlink="http://www.w3.org/1999/xlink" width="1201" height="512"><defs><path id="a" d="M-62-112h1280v720H-62z"/><path id="c" d="M0 0h250.734v472.903H0z"/></defs><g fill="none" fill-rule="evenodd"><mask id="b" fill="#fff"><use xlink:href="#a"/></mask><path fill="#fff" d="M-62-112h1280v720H-62z" mask="url(#b)"/><path fill="#fff" d="M678 87h181v327H678z" mask="url(#b)"/><path fill="#b7b7b7" d="M697 310h61v56h-61zm71 1h68v13h-68zm0 21h51v13h-51z" mask="url(#b)"/><path fill="#4285f4" d="M697 140h61v56h-61z" mask="url(#b)"/><path fill="#b7b7b7" d="M768 141h68v13h-68zm0 21h51v13h-51zm-71 63h61v56h-61z" mask="url(#b)"/><path fill="#4285f4" d="M768 226h68v13h-68z" mask="url(#b)"/><path fill="#b7b7b7" d="M768 247h51v13h-51z" mask="url(#b)"/><path d="M667 24h251v473H667z" mask="url(#b)"/><g mask="url(#b)"><g transform="translate(667 24)"><mask id="d" fill="#fff"><use xlink:href="#c"/></mask><g fill="#b7b7b7" fill-rule="nonzero" mask="url(#d)"><path d="M193.791 347.23H12.195V53.77h181.596v293.46zM88.862 377.028c0-8.068 6.5-14.613 14.518-14.613 8.021 0 14.518 6.545 14.518 14.613 0 8.066-6.497 14.622-14.518 14.622-8.019-.011-14.518-6.556-14.518-14.622m117.113 13.263H206V38.53h-.005C205.956 30.499 199.42 24 191.353 24c-.057 0-.104.005-.156.005V24H14.633C6.576 24.005.047 30.504.003 38.529H0v351.76h.022c-.006.152-.022.303-.022.461C0 398.62 6.634 405 14.82 405c.12 0 .238-.016.359-.02v.02h176.374c7.964 0 14.444-6.378 14.444-14.25.003-.155-.016-.309-.022-.459"/></g></g></g><path fill="#efefef" d="M682 89h173v32H682z" mask="url(#b)"/><path fill="#d9d9d9" d="M691 95h22v19h-22z" mask="url(#b)"/><path fill="#fff" d="M589 292h428v316H589z" mask="url(#b)"/><path d="M122 133h228v85H122z" mask="url(#b)"/><path fill="#3cc0ac" fill-rule="nonzero" d="M107.923 204.072 141 215.732V232l-50-21.162v-13.724L141 176v16.22l-33.077 11.852zM224 240h-16.858v-64.969L187 181.306v-13.708L222.164 155H224v85zm55.128-34.068-8.962 9.762V240H253v-85h17.166v38.513l7.587-10.534L298.997 155h21.15l-29.638 37.789L321 240h-20.438l-21.434-34.068zM328 240v-85h29.221c10.12 0 17.789 1.981 23.007 5.944 5.25 3.93 7.875 9.713 7.875 17.348 0 4.155-1.06 7.828-3.179 11.017-2.087 3.157-4.996 5.477-8.728 6.959 4.27 1.095 7.637 3.302 10.104 6.62 2.467 3.286 3.7 7.329 3.7 12.13 0 8.182-2.562 14.383-7.685 18.603-5.123 4.188-12.412 6.315-21.868 6.379H328zm17-37v23h14.937c4.098 0 7.3-.985 9.605-2.954 2.305-1.969 3.458-4.697 3.458-8.183 0-7.78-4.002-11.734-12.007-11.863H345zm0-13h12.88c8.747-.158 13.12-3.619 13.12-10.381 0-3.761-1.117-6.463-3.352-8.107-2.202-1.675-5.698-2.512-10.486-2.512H345v21z" mask="url(#b)"/><path d="M69 323h362v200H69z" mask="url(#b)"/><path fill="#666" fill-rule="nonzero" d="M95.014 358.52h-9.05l-2.03 5.48H81l8.233-21h2.492L100 364h-2.933l-2.053-5.48zm-8.19-2.28h7.352l-3.686-9.818-3.666 9.818z" mask="url(#b)"/><path fill="#3cc0ac" fill-rule="nonzero" d="M114.29 364.586H110V342h4.29v22.586zm8.007 0h-4.29v-15.902h4.29v15.902zm-4.54-20.012c0-.637.215-1.162.645-1.578.43-.415 1.014-.622 1.75-.622.721 0 1.298.207 1.728.622.444.416.666.941.666 1.578 0 .637-.222 1.163-.666 1.578-.43.415-1.007.623-1.729.623-.721 0-1.305-.208-1.749-.623-.43-.415-.645-.941-.645-1.578zm7.423 11.936c0-2.435.583-4.394 1.75-5.874 1.165-1.495 2.734-2.242 4.706-2.242 1.75 0 3.11.595 4.082 1.785l.187-1.495h3.853v15.383c0 1.383-.32 2.587-.958 3.612-.625 1.038-1.514 1.826-2.666 2.366s-2.499.81-4.04.81a8.677 8.677 0 0 1-3.415-.706c-1.111-.47-1.951-1.073-2.52-1.806l1.874-2.574c1.069 1.176 2.36 1.764 3.874 1.764 1.124 0 1.999-.304 2.624-.913.638-.595.958-1.446.958-2.553v-.852c-.986 1.108-2.277 1.661-3.874 1.661-1.93 0-3.485-.747-4.665-2.242-1.18-1.494-1.77-3.473-1.77-5.937v-.187zm4.248.312c0 1.439.292 2.567.875 3.383.583.817 1.381 1.225 2.395 1.225 1.291 0 2.221-.484 2.79-1.453v-6.684c-.569-.969-1.492-1.453-2.77-1.453-1.013 0-1.818.422-2.415 1.266-.583.83-.875 2.069-.875 3.716zm17.758-6.415c1.138-1.342 2.561-2.013 4.269-2.013 3.457 0 5.213 2 5.269 5.999v10.193h-4.27v-10.068c0-.914-.2-1.585-.604-2.014-.388-.443-1.034-.664-1.936-.664-1.25 0-2.16.484-2.728 1.453v11.293h-4.249V342h4.249v8.407zm17.855-5.625v3.902h2.728v3.114h-2.728v7.93c0 .595.111 1.024.333 1.287.222.25.653.374 1.291.374.472 0 .889-.035 1.25-.104v3.218a8.965 8.965 0 0 1-2.582.373c-2.985 0-4.506-1.501-4.561-4.504v-8.574h-2.333v-3.114h2.333v-3.902h4.269zm18.971 14.033 2.083-10.13h4.123l-4.082 15.9h-3.56l-3.02-10.005-3.02 10.006h-3.562l-4.06-15.902h4.102l2.083 10.11 2.915-10.11h3.082l2.916 10.13zm15.652 6.061c-2.333 0-4.235-.713-5.707-2.138-1.471-1.44-2.207-3.35-2.207-5.73v-.394c0-1.605.305-3.038.916-4.297.625-1.26 1.507-2.228 2.645-2.906 1.139-.678 2.437-1.017 3.894-1.017 2.18 0 3.895.685 5.144 2.055 1.25 1.37 1.875 3.314 1.875 5.833v1.744H196.06c.139 1.038.555 1.868 1.25 2.49.694.624 1.575.935 2.644.935 1.639 0 2.916-.588 3.832-1.765l2.104 2.325c-.64.9-1.507 1.606-2.604 2.118-1.083.498-2.29.747-3.623.747zm-.48-13.057c-.846 0-1.534.29-2.061.872-.528.567-.86 1.377-1 2.429h5.915v-.333c-.014-.94-.271-1.667-.77-2.18-.487-.525-1.18-.788-2.083-.788zm13.97 12.767h-4.29v-15.902h4.29v15.902zm-4.54-20.012c0-.637.215-1.162.645-1.578.43-.415 1.014-.622 1.75-.622.722 0 1.298.207 1.728.622.445.416.667.941.667 1.578 0 .637-.222 1.163-.667 1.578-.43.415-1.006.623-1.728.623s-1.305-.208-1.75-.623c-.43-.415-.645-.941-.645-1.578zm7.423 11.936c0-2.435.583-4.394 1.75-5.874 1.166-1.495 2.735-2.242 4.706-2.242 1.75 0 3.11.595 4.082 1.785l.187-1.495h3.853v15.383c0 1.383-.32 2.587-.958 3.612-.625 1.038-1.513 1.826-2.666 2.366-1.152.54-2.499.81-4.04.81a8.677 8.677 0 0 1-3.415-.706c-1.11-.47-1.95-1.073-2.52-1.806l1.874-2.574c1.07 1.176 2.36 1.764 3.874 1.764 1.124 0 2-.304 2.624-.913.639-.595.958-1.446.958-2.553v-.852c-.986 1.108-2.277 1.661-3.874 1.661-1.93 0-3.485-.747-4.665-2.242-1.18-1.494-1.77-3.473-1.77-5.937v-.187zm4.249.312c0 1.439.291 2.567.874 3.383.583.817 1.382 1.225 2.395 1.225 1.291 0 2.222-.484 2.79-1.453v-6.684c-.568-.969-1.492-1.453-2.769-1.453-1.014 0-1.819.422-2.416 1.266-.583.83-.874 2.069-.874 3.716zm17.757-6.415c1.138-1.342 2.561-2.013 4.27-2.013 3.456 0 5.212 2 5.268 5.999v10.193h-4.27v-10.068c0-.914-.2-1.585-.603-2.014-.389-.443-1.035-.664-1.937-.664-1.25 0-2.159.484-2.728 1.453v11.293h-4.249V342h4.249v8.407zm17.855-5.625v3.902h2.729v3.114h-2.729v7.93c0 .595.111 1.024.334 1.287.222.25.652.374 1.29.374a6.7 6.7 0 0 0 1.25-.104v3.218a8.965 8.965 0 0 1-2.582.373c-2.985 0-4.505-1.501-4.56-4.504v-8.574h-2.333v-3.114h2.332v-3.902h4.27zm21.555-1.599h4.416v14.822c0 1.356-.306 2.56-.917 3.612-.597 1.038-1.45 1.84-2.561 2.408-1.097.567-2.333.851-3.707.851-2.277 0-4.054-.574-5.332-1.723-1.263-1.148-1.895-2.775-1.895-4.878h4.457c0 1.038.222 1.813.666 2.325.445.498 1.146.747 2.104.747.833 0 1.5-.29 1.999-.872.514-.58.77-1.404.77-2.47v-14.822zm19.347 15.798c0-.845-.299-1.488-.896-1.93-.583-.444-1.645-.914-3.186-1.412-1.527-.499-2.742-.983-3.645-1.454-2.43-1.314-3.644-3.086-3.644-5.314 0-1.148.326-2.173.979-3.072.652-.914 1.59-1.626 2.811-2.138 1.222-.512 2.596-.768 4.124-.768 1.527 0 2.888.276 4.082.83 1.207.554 2.145 1.335 2.811 2.346.666 1.01 1 2.159 1 3.446H296.8c0-.983-.313-1.744-.937-2.284-.611-.553-1.479-.83-2.604-.83-1.083 0-1.923.228-2.52.685-.597.457-.895 1.059-.895 1.806 0 .692.347 1.273 1.041 1.744.708.47 1.75.913 3.124 1.328 2.513.748 4.346 1.682 5.498 2.803 1.152 1.12 1.729 2.511 1.729 4.172 0 1.855-.708 3.308-2.125 4.36-1.402 1.051-3.29 1.577-5.664 1.577-1.652 0-3.159-.297-4.52-.892-1.346-.61-2.38-1.433-3.102-2.47-.708-1.053-1.063-2.27-1.063-3.654h4.436c0 2.352 1.417 3.529 4.249 3.529 1.055 0 1.874-.208 2.457-.623.597-.43.896-1.024.896-1.785zm19.17 5.605h-4.291V342h4.29v22.586zm8.006 0h-4.29v-15.902h4.29v15.902zm-4.54-20.012c0-.637.215-1.162.645-1.578.43-.415 1.014-.622 1.75-.622.721 0 1.298.207 1.728.622.444.416.666.941.666 1.578 0 .637-.222 1.163-.666 1.578-.43.415-1.007.623-1.729.623-.721 0-1.305-.208-1.749-.623-.43-.415-.645-.941-.645-1.578zm22.417 12.206c0 2.547-.548 4.533-1.645 5.958-1.083 1.425-2.603 2.138-4.56 2.138-1.736 0-3.118-.657-4.145-1.972l-.187 1.682h-3.832V342h4.248v8.117c.986-1.149 2.277-1.723 3.874-1.723 1.957 0 3.484.712 4.581 2.138 1.111 1.425 1.666 3.432 1.666 6.02v.228zm-4.269-.311c0-1.605-.257-2.775-.77-3.508-.5-.748-1.257-1.121-2.27-1.121-1.361 0-2.298.553-2.812 1.66v6.27c.528 1.12 1.472 1.681 2.832 1.681 1.375 0 2.277-.678 2.708-2.034.208-.637.312-1.62.312-2.948zm15.855-3.799a11.09 11.09 0 0 0-1.54-.125c-1.611 0-2.666.547-3.166 1.64v10.4h-4.249v-15.9h4.02l.125 1.888c.847-1.453 2.027-2.18 3.54-2.18.472 0 .916.063 1.333.188l-.063 4.089zm10.864 11.916c-.208-.388-.354-.865-.438-1.433-1.027 1.149-2.367 1.723-4.019 1.723-1.569 0-2.867-.45-3.894-1.35-1.028-.899-1.541-2.034-1.541-3.404 0-1.688.624-2.982 1.874-3.881 1.263-.9 3.075-1.357 5.435-1.37h1.958v-.914c0-.733-.187-1.322-.562-1.764-.375-.443-.972-.665-1.791-.665-.708 0-1.27.173-1.687.52-.403.345-.604.816-.604 1.41h-4.27c0-.926.285-1.777.854-2.552.57-.79 1.375-1.405 2.416-1.848 1.042-.443 2.215-.664 3.52-.664 1.957 0 3.512.491 4.665 1.474 1.166.982 1.75 2.366 1.75 4.151v6.892c.013 1.509.221 2.65.624 3.425v.25h-4.29zm-3.54-2.948c.638 0 1.221-.139 1.749-.415.527-.291.916-.672 1.166-1.142v-2.72h-1.583c-2.138 0-3.276.734-3.415 2.2v.25c0 .526.187.962.562 1.308.375.346.882.519 1.52.519zm19.438-8.968a11.09 11.09 0 0 0-1.541-.125c-1.61 0-2.666.547-3.166 1.64v10.4h-4.248v-15.9h4.02l.124 1.888c.847-1.453 2.027-2.18 3.54-2.18.473 0 .917.063 1.333.188l-.062 4.089zm8.28 5.895 2.937-9.88H396l-6.414 18.37-.354.831c-.958 2.076-2.534 3.114-4.728 3.114-.61 0-1.235-.09-1.874-.27v-3.217l.645.02c.806 0 1.403-.124 1.791-.373.403-.25.716-.658.938-1.225l.5-1.308-5.582-15.943h4.582l2.978 9.881z" mask="url(#b)"/><path fill="#666" fill-rule="nonzero" d="M84.545 399.876v-13.804H82v-2.097h2.545v-1.64c0-1.702.451-3.017 1.355-3.944.918-.927 2.218-1.391 3.9-1.391a7.29 7.29 0 0 1 1.878.25l-.167 2.2a7.057 7.057 0 0 0-1.46-.146c-.89 0-1.578.263-2.065.79-.473.511-.71 1.245-.71 2.2v1.68h3.4v2.098h-3.4v13.804h-2.731zm8.413-8.096c0-1.564.306-2.968.918-4.214.626-1.245 1.488-2.2 2.586-2.864 1.099-.679 2.35-1.018 3.755-1.018 2.183 0 3.942.748 5.276 2.242 1.35 1.495 2.024 3.488 2.024 5.979v.187c0 1.55-.3 2.94-.897 4.172-.598 1.232-1.453 2.194-2.566 2.886-1.098.678-2.37 1.017-3.817 1.017-2.155 0-3.907-.748-5.256-2.242-1.348-1.495-2.023-3.48-2.023-5.958v-.187zm2.753.312c0 1.771.41 3.19 1.231 4.255.82 1.066 1.919 1.599 3.295 1.599 1.39 0 2.496-.54 3.317-1.62.82-1.079 1.23-2.594 1.23-4.546 0-1.743-.417-3.155-1.251-4.235-.834-1.093-1.94-1.64-3.316-1.64-1.35 0-2.44.54-3.275 1.62-.82 1.065-1.23 2.588-1.23 4.567zm22.942-5.688a9.859 9.859 0 0 0-1.334-.083c-1.794 0-3.01.754-3.65 2.262v11.293h-2.733v-15.901h2.67l.042 1.827c.89-1.412 2.155-2.118 3.796-2.118.542 0 .945.07 1.21.208v2.512zm11.36 13.472v-13.804h-2.545v-2.097h2.544v-1.64c0-1.702.452-3.017 1.356-3.944.918-.927 2.218-1.391 3.9-1.391a7.29 7.29 0 0 1 1.878.25l-.167 2.2a7.057 7.057 0 0 0-1.46-.146c-.89 0-1.578.263-2.065.79-.473.511-.71 1.245-.71 2.2v1.68h3.4v2.098h-3.4v13.804h-2.732zm19.009 0c-.153-.318-.279-.879-.376-1.681-1.28 1.314-2.795 1.972-4.547 1.972-1.585 0-2.885-.443-3.9-1.329-1.001-.885-1.502-2.006-1.502-3.363 0-1.66.633-2.947 1.898-3.86 1.266-.914 3.045-1.37 5.34-1.37h2.67v-1.267c0-.941-.293-1.695-.877-2.263-.57-.567-1.41-.851-2.523-.851-.974 0-1.794.25-2.461.747-.654.485-.98 1.073-.98 1.765h-2.733c0-.789.278-1.55.834-2.284.57-.747 1.342-1.335 2.315-1.764.974-.43 2.037-.644 3.192-.644 1.849 0 3.295.457 4.338 1.37 1.043.914 1.585 2.173 1.627 3.778v7.328c0 1.453.18 2.616.542 3.488v.228h-2.857zm-4.526-2.076c.848 0 1.654-.221 2.419-.664.779-.443 1.342-1.017 1.69-1.723v-3.26h-2.149c-3.351 0-5.026.977-5.026 2.928 0 .858.285 1.53.855 2.013.57.471 1.307.706 2.21.706zm20.413-2.138c0-.733-.278-1.3-.834-1.702-.557-.415-1.53-.768-2.92-1.059-1.377-.304-2.475-.657-3.296-1.058-.806-.416-1.404-.907-1.794-1.474-.389-.568-.584-1.246-.584-2.035 0-1.3.557-2.4 1.669-3.3 1.112-.9 2.53-1.35 4.255-1.35 1.808 0 3.274.464 4.4 1.391 1.127.927 1.69 2.118 1.69 3.57h-2.753c0-.747-.32-1.39-.96-1.93-.625-.54-1.418-.81-2.377-.81-1.001 0-1.787.222-2.357.665-.556.429-.834.99-.834 1.681 0 .65.257 1.149.771 1.495.529.332 1.474.65 2.837.955 1.377.29 2.482.65 3.316 1.08.849.414 1.474.92 1.877 1.515.418.595.626 1.321.626 2.18 0 1.41-.57 2.546-1.71 3.404-1.14.858-2.621 1.287-4.443 1.287-1.279 0-2.412-.222-3.4-.664-.987-.457-1.758-1.087-2.315-1.89-.556-.816-.834-1.695-.834-2.636h2.732c.056.913.425 1.64 1.106 2.18.681.526 1.585.789 2.711.789 1.03 0 1.857-.208 2.482-.623.626-.415.939-.969.939-1.66zm10.004-15.548v3.86h2.983v2.098h-2.983v9.86c0 .637.132 1.114.397 1.432.264.319.716.478 1.355.478.32 0 .751-.056 1.293-.166v2.2a7.877 7.877 0 0 1-2.085.29c-1.224 0-2.149-.366-2.774-1.1-.612-.733-.918-1.778-.918-3.134v-9.86h-2.92v-2.097h2.92v-3.861h2.732zm12.8 20.053c-2.17 0-3.936-.706-5.298-2.118-1.35-1.411-2.023-3.307-2.023-5.688v-.498c0-1.577.298-2.982.896-4.214.612-1.245 1.46-2.214 2.545-2.906a6.373 6.373 0 0 1 3.546-1.059c2.071 0 3.684.685 4.839 2.055 1.154 1.357 1.73 3.301 1.73 5.834v1.12h-10.824c.042 1.578.5 2.852 1.376 3.82.876.955 1.996 1.433 3.358 1.433.96 0 1.773-.194 2.44-.582a5.915 5.915 0 0 0 1.774-1.557l1.668 1.287c-1.335 2.049-3.344 3.073-6.028 3.073zm-.334-14.261c-1.113 0-2.044.4-2.795 1.204-.737.802-1.196 1.923-1.377 3.362h8.01v-.207c-.084-1.384-.46-2.457-1.127-3.218-.667-.76-1.571-1.141-2.711-1.141zm17.44.498a9.859 9.859 0 0 0-1.335-.083c-1.793 0-3.01.754-3.65 2.262v11.293h-2.732v-15.901h2.67l.042 1.827c.89-1.412 2.155-2.118 3.796-2.118.542 0 .945.07 1.21.208v2.512zm19.306 9.258c0-.733-.278-1.3-.834-1.702-.557-.415-1.53-.768-2.92-1.059-1.377-.304-2.475-.657-3.296-1.058-.806-.416-1.404-.907-1.794-1.474-.389-.568-.584-1.246-.584-2.035 0-1.3.557-2.4 1.669-3.3 1.112-.9 2.53-1.35 4.255-1.35 1.807 0 3.274.464 4.4 1.391 1.127.927 1.69 2.118 1.69 3.57h-2.753c0-.747-.32-1.39-.96-1.93-.625-.54-1.418-.81-2.377-.81-1.001 0-1.787.222-2.357.665-.556.429-.834.99-.834 1.681 0 .65.257 1.149.771 1.495.529.332 1.474.65 2.837.955 1.377.29 2.482.65 3.316 1.08.849.414 1.474.92 1.877 1.515.418.595.626 1.321.626 2.18 0 1.41-.57 2.546-1.71 3.404-1.14.858-2.621 1.287-4.443 1.287-1.279 0-2.412-.222-3.4-.664-.987-.457-1.758-1.087-2.315-1.89-.556-.816-.834-1.695-.834-2.636h2.732c.056.913.425 1.64 1.106 2.18.681.526 1.585.789 2.711.789 1.03 0 1.857-.208 2.482-.623.626-.415.939-.969.939-1.66zm16.157 2.636c-1.057 1.246-2.614 1.869-4.672 1.869-1.71 0-3.01-.492-3.9-1.474-.89-.983-1.342-2.443-1.356-4.38v-10.338h2.732v10.276c0 2.408.988 3.612 2.962 3.612 2.086 0 3.476-.775 4.171-2.325v-11.563h2.733v15.901h-2.607l-.063-1.578zm20.343-6.206c0 2.435-.563 4.394-1.69 5.874-1.126 1.467-2.634 2.2-4.525 2.2-2.017 0-3.574-.712-4.673-2.137l-.146 1.847h-2.502v-22.585h2.732v8.428c1.098-1.357 2.614-2.035 4.547-2.035 1.946 0 3.476.734 4.588 2.2 1.113 1.454 1.669 3.447 1.669 5.98v.228zm-2.732-.291c0-1.854-.362-3.287-1.085-4.297-.723-1.01-1.759-1.515-3.108-1.515-1.793 0-3.087.83-3.88 2.49v6.893c.835 1.66 2.142 2.49 3.922 2.49 1.307 0 2.322-.505 3.045-1.515.737-1.01 1.106-2.525 1.106-4.546zm15.465 3.861c0-.733-.278-1.3-.834-1.702-.556-.415-1.53-.768-2.92-1.059-1.377-.304-2.475-.657-3.295-1.058-.807-.416-1.405-.907-1.794-1.474-.39-.568-.584-1.246-.584-2.035 0-1.3.556-2.4 1.668-3.3 1.113-.9 2.531-1.35 4.255-1.35 1.808 0 3.275.464 4.401 1.391s1.69 2.118 1.69 3.57h-2.754c0-.747-.32-1.39-.959-1.93-.626-.54-1.418-.81-2.378-.81-1 0-1.786.222-2.357.665-.556.429-.834.99-.834 1.681 0 .65.257 1.149.772 1.495.528.332 1.474.65 2.836.955 1.377.29 2.482.65 3.317 1.08.848.414 1.474.92 1.877 1.515.417.595.626 1.321.626 2.18 0 1.41-.57 2.546-1.71 3.404-1.14.858-2.622 1.287-4.443 1.287-1.28 0-2.413-.222-3.4-.664-.987-.457-1.759-1.087-2.315-1.89-.556-.816-.834-1.695-.834-2.636h2.732c.055.913.424 1.64 1.105 2.18.682.526 1.585.789 2.712.789 1.029 0 1.856-.208 2.482-.623.625-.415.938-.969.938-1.66zm12.925 4.505c-2.17 0-3.935-.706-5.298-2.118-1.349-1.411-2.023-3.307-2.023-5.688v-.498c0-1.577.299-2.982.897-4.214.611-1.245 1.46-2.214 2.544-2.906a6.373 6.373 0 0 1 3.546-1.059c2.072 0 3.685.685 4.839 2.055 1.154 1.357 1.73 3.301 1.73 5.834v1.12h-10.824c.042 1.578.5 2.852 1.377 3.82.876.955 1.995 1.433 3.358 1.433.959 0 1.772-.194 2.44-.582a5.915 5.915 0 0 0 1.773-1.557l1.668 1.287c-1.335 2.049-3.344 3.073-6.027 3.073zm-.334-14.261c-1.113 0-2.044.4-2.795 1.204-.737.802-1.196 1.923-1.377 3.362h8.01v-.207c-.084-1.384-.46-2.457-1.127-3.218-.667-.76-1.57-1.141-2.711-1.141zm9.056 5.895c0-2.505.577-4.484 1.731-5.937 1.154-1.453 2.698-2.18 4.63-2.18 1.891 0 3.386.63 4.485 1.89l.125-1.6h2.503V406h-2.733v-7.598c-1.098 1.177-2.565 1.765-4.4 1.765-1.933 0-3.477-.748-4.63-2.242-1.141-1.495-1.711-3.474-1.711-5.937v-.187zm2.732.29c0 1.827.383 3.26 1.147 4.298.779 1.038 1.829 1.557 3.15 1.557 1.613 0 2.85-.713 3.712-2.139v-7.784c-.862-1.412-2.092-2.117-3.691-2.117-1.321 0-2.371.525-3.15 1.577-.779 1.038-1.168 2.574-1.168 4.609zm24.99 6.207c-1.057 1.246-2.614 1.869-4.672 1.869-1.71 0-3.01-.492-3.9-1.474-.89-.983-1.342-2.443-1.356-4.38v-10.338h2.732v10.276c0 2.408.987 3.612 2.962 3.612 2.085 0 3.476-.775 4.171-2.325v-11.563h2.732v15.901h-2.607l-.062-1.578zm13.439 1.869c-2.17 0-3.935-.706-5.298-2.118-1.349-1.411-2.023-3.307-2.023-5.688v-.498c0-1.577.299-2.982.897-4.214.612-1.245 1.46-2.214 2.544-2.906a6.373 6.373 0 0 1 3.546-1.059c2.072 0 3.685.685 4.839 2.055 1.154 1.357 1.731 3.301 1.731 5.834v1.12h-10.825c.042 1.578.5 2.852 1.377 3.82.876.955 1.995 1.433 3.358 1.433.96 0 1.773-.194 2.44-.582a5.915 5.915 0 0 0 1.773-1.557l1.669 1.287c-1.335 2.049-3.345 3.073-6.028 3.073zm-.334-14.261c-1.112 0-2.044.4-2.795 1.204-.737.802-1.196 1.923-1.376 3.362h8.009v-.207c-.084-1.384-.46-2.457-1.127-3.218-.667-.76-1.57-1.141-2.71-1.141zm12.31-1.931.083 1.993c1.224-1.523 2.823-2.284 4.797-2.284 3.38 0 5.083 1.896 5.11 5.688v10.504H355.4v-10.525c-.014-1.148-.278-1.992-.792-2.532-.515-.554-1.321-.83-2.42-.83-.89 0-1.669.235-2.336.705a4.834 4.834 0 0 0-1.564 1.848v11.334h-2.733v-15.901h2.587zm17.813-3.861v3.86h2.982v2.098h-2.982v9.86c0 .637.132 1.114.396 1.432.264.319.716.478 1.356.478.32 0 .75-.056 1.293-.166v2.2c-.71.194-1.404.29-2.086.29-1.223 0-2.148-.366-2.774-1.1-.612-.733-.917-1.778-.917-3.134v-9.86h-2.92v-2.097h2.92v-3.861h2.732zM96.503 427.876c0 2.434-.556 4.395-1.67 5.883-1.112 1.488-2.615 2.232-4.507 2.232-1.948 0-3.479-.612-4.592-1.836v7.699H83v-22.136h2.504l.126 1.773c1.113-1.377 2.657-2.065 4.633-2.065 1.934 0 3.458.723 4.57 2.17 1.114 1.446 1.67 3.456 1.67 6.03v.25zm-2.734-.293c0-1.808-.382-3.233-1.148-4.277-.765-1.043-1.815-1.564-3.151-1.564-1.656 0-2.901.73-3.736 2.19v7.636c.821 1.46 2.073 2.191 3.757 2.191 1.308 0 2.344-.515 3.11-1.544.779-1.043 1.168-2.587 1.168-4.632zm16.081 8.116c-.153-.32-.278-.883-.375-1.69-1.28 1.322-2.797 1.982-4.55 1.982-1.586 0-2.887-.445-3.903-1.335-1.002-.89-1.503-2.017-1.503-3.38 0-1.669.633-2.962 1.9-3.88 1.266-.918 3.047-1.377 5.342-1.377h2.672v-1.273c0-.946-.292-1.704-.877-2.274-.57-.57-1.412-.855-2.525-.855-.974 0-1.795.25-2.463.75-.654.487-.98 1.079-.98 1.774h-2.735c0-.793.278-1.558.835-2.295.57-.751 1.343-1.342 2.317-1.773.974-.432 2.038-.647 3.193-.647 1.85 0 3.298.459 4.341 1.377 1.044.918 1.586 2.184 1.628 3.797v7.365c0 1.46.18 2.629.543 3.505v.23h-2.86zm-4.529-2.086a4.74 4.74 0 0 0 2.421-.668c.78-.445 1.343-1.022 1.69-1.731v-3.276h-2.149c-3.353 0-5.03.98-5.03 2.942 0 .862.286 1.537.856 2.024.57.472 1.308.709 2.212.709zm10.472-6.03c0-2.503.577-4.485 1.732-5.946 1.155-1.474 2.678-2.211 4.57-2.211 1.949 0 3.472.688 4.571 2.065l.126-1.773h2.504v15.606c0 2.058-.612 3.686-1.837 4.882-1.224 1.196-2.873 1.794-4.946 1.794a8.076 8.076 0 0 1-3.381-.751c-1.1-.487-1.941-1.161-2.525-2.024l1.419-1.627c1.169 1.446 2.602 2.17 4.3 2.17 1.321 0 2.35-.376 3.088-1.127.751-.751 1.127-1.808 1.127-3.171v-1.356c-1.085 1.251-2.574 1.877-4.466 1.877-1.879 0-3.395-.75-4.55-2.253-1.155-1.502-1.732-3.554-1.732-6.155zm2.755.293c0 1.808.368 3.226 1.106 4.256.737 1.029 1.767 1.544 3.089 1.544 1.725 0 2.991-.786 3.798-2.358v-7.281c-.835-1.53-2.087-2.295-3.757-2.295-1.335 0-2.379.521-3.13 1.564-.738 1.03-1.106 2.553-1.106 4.57zm21.507 8.115c-2.17 0-3.938-.709-5.301-2.128-1.35-1.418-2.025-3.324-2.025-5.716v-.501c0-1.586.3-2.997.898-4.235.612-1.252 1.46-2.226 2.546-2.921a6.357 6.357 0 0 1 3.548-1.064c2.073 0 3.687.688 4.842 2.065 1.155 1.363 1.732 3.318 1.732 5.863v1.127h-10.832c.042 1.585.501 2.865 1.378 3.838.877.96 1.997 1.44 3.36 1.44.96 0 1.774-.195 2.442-.584a5.927 5.927 0 0 0 1.774-1.565l1.67 1.294c-1.336 2.058-3.347 3.087-6.032 3.087zm-.334-14.333c-1.113 0-2.045.404-2.797 1.21-.737.807-1.196 1.934-1.377 3.38h8.014v-.208c-.083-1.391-.459-2.47-1.127-3.234-.668-.765-1.572-1.148-2.713-1.148zm15.428 6.03h-7.222v-2.233h7.222v2.233zm5.614 8.011h-2.734V413h2.734v22.7zm3.65-8.136c0-1.572.306-2.984.919-4.236.626-1.251 1.488-2.211 2.588-2.879 1.099-.681 2.351-1.022 3.756-1.022 2.185 0 3.945.751 5.28 2.253 1.35 1.502 2.025 3.505 2.025 6.009v.188c0 1.557-.3 2.955-.897 4.193-.599 1.238-1.454 2.205-2.567 2.9-1.1.682-2.373 1.022-3.82 1.022-2.157 0-3.91-.75-5.26-2.253-1.349-1.502-2.024-3.498-2.024-5.988v-.187zm2.755.313c0 1.78.41 3.206 1.232 4.277.82 1.07 1.92 1.606 3.297 1.606 1.392 0 2.498-.542 3.319-1.627.82-1.085 1.231-2.608 1.231-4.57 0-1.752-.417-3.17-1.252-4.256-.835-1.098-1.941-1.648-3.319-1.648-1.35 0-2.442.543-3.276 1.628-.821 1.07-1.232 2.6-1.232 4.59zm25.107 7.823c-.153-.32-.278-.883-.376-1.69-1.28 1.322-2.797 1.982-4.55 1.982-1.586 0-2.887-.445-3.903-1.335-1.001-.89-1.502-2.017-1.502-3.38 0-1.669.633-2.962 1.899-3.88 1.266-.918 3.047-1.377 5.343-1.377h2.671v-1.273c0-.946-.292-1.704-.876-2.274-.57-.57-1.412-.855-2.526-.855-.974 0-1.794.25-2.462.75-.654.487-.981 1.079-.981 1.774h-2.734c0-.793.278-1.558.835-2.295.57-.751 1.342-1.342 2.316-1.773.974-.432 2.039-.647 3.193-.647 1.851 0 3.298.459 4.342 1.377 1.043.918 1.586 2.184 1.627 3.797v7.365c0 1.46.181 2.629.543 3.505v.23h-2.86zm-4.53-2.086c.85 0 1.657-.223 2.422-.668.779-.445 1.343-1.022 1.69-1.731v-3.276h-2.15c-3.353 0-5.03.98-5.03 2.942 0 .862.286 1.537.857 2.024.57.472 1.307.709 2.212.709zm10.451-6.03c0-2.461.578-4.436 1.733-5.925 1.168-1.488 2.699-2.232 4.591-2.232 1.865 0 3.346.64 4.446 1.92V413h2.734v22.7h-2.526l-.125-1.712c-1.1 1.336-2.623 2.003-4.57 2.003-1.851 0-3.36-.758-4.53-2.274-1.168-1.516-1.753-3.49-1.753-5.925v-.209zm2.734.293c0 1.822.376 3.247 1.127 4.277.752 1.015 1.788 1.523 3.11 1.523 1.725 0 2.992-.78 3.799-2.337v-7.344c-.821-1.502-2.08-2.253-3.778-2.253-1.336 0-2.38.521-3.13 1.564-.752 1.03-1.128 2.553-1.128 4.57zm24.31 3.588c0-.737-.279-1.307-.835-1.71-.557-.418-1.53-.773-2.922-1.065-1.378-.306-2.477-.66-3.298-1.064-.807-.417-1.405-.91-1.795-1.481-.39-.57-.584-1.252-.584-2.045 0-1.307.557-2.413 1.67-3.317 1.113-.904 2.532-1.356 4.257-1.356 1.81 0 3.277.466 4.404 1.398 1.127.932 1.69 2.128 1.69 3.588h-2.754c0-.75-.32-1.398-.96-1.94-.627-.543-1.42-.814-2.38-.814-1.001 0-1.788.223-2.358.668-.557.431-.835.994-.835 1.69 0 .654.258 1.154.772 1.502.529.334 1.475.654 2.839.96 1.377.292 2.483.653 3.318 1.085.849.417 1.475.925 1.879 1.523.417.598.626 1.328.626 2.19 0 1.419-.57 2.56-1.712 3.422-1.14.862-2.622 1.293-4.445 1.293-1.28 0-2.414-.222-3.402-.667-.988-.46-1.76-1.092-2.317-1.899-.556-.82-.835-1.704-.835-2.65h2.734c.056.919.425 1.649 1.107 2.191.681.529 1.586.793 2.713.793 1.03 0 1.857-.209 2.483-.626.627-.417.94-.974.94-1.669zm6.358 2.796c0-.473.14-.863.417-1.169.279-.32.696-.48 1.253-.48.57 0 1.002.16 1.294.48.292.306.438.696.438 1.169 0 .459-.146.841-.438 1.147-.292.306-.724.46-1.294.46-.557 0-.974-.154-1.253-.46-.278-.306-.417-.688-.417-1.147z" mask="url(#b)"/><path d="M558 323h391v200H558z" mask="url(#b)"/><path fill="#666" fill-rule="nonzero" d="M575.835 355.385v8.326H573v-21.248h7.92c2.35 0 4.19.598 5.524 1.793 1.334 1.182 2.001 2.748 2.001 4.7 0 2.06-.653 3.647-1.959 4.76s-3.175 1.67-5.607 1.67h-5.044zm0-2.287h5.086c1.514 0 2.675-.35 3.48-1.051.807-.701 1.21-1.718 1.21-3.05 0-1.265-.403-2.274-1.21-3.03-.805-.77-1.91-1.168-3.314-1.195h-5.252v8.326zm23.506-2.762a9.916 9.916 0 0 0-1.334-.082c-1.792 0-3.008.748-3.647 2.246v11.211h-2.73v-15.786h2.667l.042 1.813c.89-1.401 2.154-2.102 3.793-2.102.542 0 .945.069 1.21.206v2.494zM608.204 364c-2.168 0-3.933-.7-5.294-2.102-1.348-1.402-2.022-3.284-2.022-5.647v-.495c0-1.566.299-2.96.896-4.183.612-1.237 1.46-2.199 2.543-2.886a6.399 6.399 0 0 1 3.544-1.05c2.07 0 3.682.68 4.835 2.04 1.154 1.346 1.73 3.276 1.73 5.79v1.114h-10.818c.042 1.566.5 2.83 1.376 3.792.876.948 1.994 1.422 3.356 1.422.959 0 1.772-.193 2.439-.577a5.9 5.9 0 0 0 1.771-1.546l1.668 1.278c-1.334 2.033-3.342 3.05-6.024 3.05zm-.333-14.159c-1.112 0-2.043.399-2.794 1.196-.736.797-1.195 1.91-1.375 3.338h8.004v-.206c-.084-1.374-.459-2.438-1.126-3.194-.667-.756-1.57-1.134-2.71-1.134zm11.072 13.87v-13.705H616.4v-2.081h2.543v-1.628c0-1.69.451-2.996 1.354-3.916.918-.92 2.217-1.381 3.898-1.381.626 0 1.25.082 1.876.247l-.167 2.185a7.097 7.097 0 0 0-1.459-.144c-.889 0-1.577.26-2.063.783-.473.508-.709 1.236-.709 2.184v1.67h3.398v2.081h-3.398v13.705h-2.73zm15.411.289c-2.167 0-3.932-.7-5.294-2.102-1.348-1.402-2.022-3.284-2.022-5.647v-.495c0-1.566.299-2.96.896-4.183.612-1.237 1.46-2.199 2.543-2.886a6.399 6.399 0 0 1 3.544-1.05c2.07 0 3.682.68 4.836 2.04 1.153 1.346 1.73 3.276 1.73 5.79v1.114h-10.818c.041 1.566.5 2.83 1.375 3.792.876.948 1.994 1.422 3.356 1.422.96 0 1.772-.193 2.439-.577a5.9 5.9 0 0 0 1.772-1.546l1.667 1.278c-1.334 2.033-3.342 3.05-6.024 3.05zm-.333-14.159c-1.112 0-2.043.399-2.793 1.196-.737.797-1.195 1.91-1.376 3.338h8.004v-.206c-.083-1.374-.458-2.438-1.125-3.194-.667-.756-1.57-1.134-2.71-1.134zm13.427-5.75v3.834h2.98v2.081h-2.98v9.79c0 .632.132 1.106.396 1.422.264.316.716.474 1.355.474.32 0 .75-.055 1.292-.165v2.184a7.937 7.937 0 0 1-2.084.289c-1.223 0-2.147-.364-2.772-1.092-.612-.728-.917-1.766-.917-3.112v-9.79H641.8v-2.081h2.918v-3.834h2.73zm12.562 17.704c.973 0 1.82-.289 2.543-.866.736-.59 1.146-1.319 1.23-2.184h2.584c-.055.893-.375 1.751-.958 2.576-.57.81-1.341 1.463-2.314 1.958a6.871 6.871 0 0 1-3.085.721c-2.168 0-3.898-.714-5.19-2.143-1.279-1.443-1.918-3.408-1.918-5.895v-.453c0-1.539.285-2.906.855-4.101.57-1.196 1.39-2.123 2.46-2.783 1.07-.659 2.334-.989 3.793-.989 1.793 0 3.28.53 4.46 1.587 1.182 1.058 1.814 2.432 1.897 4.122h-2.584c-.084-1.017-.48-1.855-1.188-2.514-.695-.66-1.557-.99-2.585-.99-1.39 0-2.466.495-3.23 1.484-.765.99-1.147 2.418-1.147 4.287v.515c0 1.814.375 3.215 1.125 4.205.765.975 1.849 1.463 3.252 1.463zm12.152-11.954c1.209-1.47 2.786-2.205 4.731-2.205 3.377 0 5.08 1.883 5.107 5.647v10.428h-2.73v-10.448c-.014-1.14-.278-1.979-.793-2.515-.514-.55-1.32-.824-2.418-.824-.889 0-1.667.233-2.334.7a4.807 4.807 0 0 0-1.563 1.835v11.252h-2.73V341.29h2.73v8.552z" mask="url(#b)"/><path fill="#3cc0ac" fill-rule="nonzero" d="M697.544 363.814h-4.294v-16.062h4.294v16.062zM693 343.6c0-.643.215-1.174.646-1.593.43-.42 1.014-.63 1.75-.63.723 0 1.3.21 1.73.63.445.419.668.95.668 1.593s-.223 1.174-.667 1.594c-.43.42-1.008.629-1.73.629-.723 0-1.306-.21-1.75-.63-.432-.419-.647-.95-.647-1.593zm11.973 4.152.125 1.845c1.14-1.426 2.668-2.139 4.585-2.139 1.695 0 2.953.504 3.773 1.51.833.993 1.264 2.482 1.292 4.467v10.38h-4.273v-10.276c0-.908-.201-1.565-.604-1.97-.39-.42-1.035-.63-1.938-.63-1.21 0-2.113.517-2.71 1.552v11.323h-4.273v-16.062h4.023zm21.282 8.534h-8.295v-3.46h8.295v3.46zm9.403 2.286 2.98-10.82h4.44l-5.377 16.062h-4.065l-5.398-16.062h4.46l2.96 10.82zm13.814 5.242h-4.293v-16.062h4.293v16.062zm-4.544-20.214c0-.643.216-1.174.647-1.593.43-.42 1.014-.63 1.75-.63.723 0 1.3.21 1.73.63.445.419.667.95.667 1.593s-.222 1.174-.667 1.594c-.43.42-1.007.629-1.73.629-.722 0-1.306-.21-1.75-.63-.431-.419-.647-.95-.647-1.593zm15.392 20.508c-2.335 0-4.238-.72-5.711-2.16-1.473-1.454-2.21-3.383-2.21-5.787v-.399c0-1.621.306-3.068.917-4.34.626-1.273 1.508-2.251 2.647-2.936 1.14-.685 2.439-1.028 3.898-1.028 2.181 0 3.898.692 5.148 2.076 1.25 1.384 1.876 3.348 1.876 5.893v1.761h-10.171c.139 1.048.556 1.887 1.25 2.516.695.63 1.577.944 2.647.944 1.64 0 2.918-.594 3.835-1.782l2.105 2.348c-.639.909-1.507 1.622-2.605 2.139-1.084.503-2.293.755-3.626.755zm-.48-13.19c-.847 0-1.535.294-2.063.881-.528.573-.862 1.39-1 2.453h5.919v-.335c-.014-.95-.271-1.685-.772-2.202-.486-.531-1.18-.797-2.084-.797zm23.36 7.067 2.084-10.233h4.127l-4.085 16.062h-3.565l-3.022-10.107-3.022 10.107h-3.564l-4.064-16.062h4.106l2.084 10.212 2.918-10.212h3.085l2.918 10.233zm22.688-2.055c0 2.474-.563 4.46-1.689 5.955-1.111 1.482-2.612 2.223-4.502 2.223-1.611 0-2.918-.566-3.918-1.699V370h-4.252v-22.248h3.94l.145 1.573c1.042-1.244 2.39-1.867 4.044-1.867 1.973 0 3.501.734 4.585 2.202 1.098 1.454 1.647 3.467 1.647 6.04v.23zm-4.252-.315c0-1.495-.264-2.649-.792-3.46-.528-.81-1.292-1.216-2.293-1.216-1.348 0-2.272.517-2.772 1.552v6.563c.528 1.063 1.459 1.594 2.793 1.594 2.043 0 3.064-1.678 3.064-5.033zm6.239.021c0-1.593.305-3.012.917-4.256.611-1.259 1.486-2.223 2.626-2.894 1.14-.685 2.473-1.028 4.002-1.028 2.153 0 3.911.664 5.273 1.992 1.361 1.329 2.119 3.125 2.271 5.39l.021 1.11c0 2.461-.68 4.44-2.042 5.935-1.362 1.482-3.196 2.223-5.503 2.223-2.306 0-4.147-.741-5.523-2.223-1.362-1.482-2.042-3.502-2.042-6.06v-.189zm4.251.315c0 1.524.285 2.69.855 3.502.57.796 1.39 1.195 2.46 1.195 1.028 0 1.834-.399 2.417-1.195.584-.797.875-2.07.875-3.817 0-1.495-.291-2.656-.875-3.48-.583-.825-1.396-1.238-2.438-1.238-1.056 0-1.87.413-2.439 1.237-.57.811-.855 2.076-.855 3.796zm22.466-4.173a10.999 10.999 0 0 0-1.542-.126c-1.612 0-2.668.552-3.168 1.657v10.505h-4.252v-16.062h4.022l.125 1.908c.848-1.468 2.029-2.202 3.544-2.202.472 0 .917.063 1.333.19l-.062 4.13zm7.905-7.968v3.942h2.73v3.145h-2.73v8.01c0 .602.112 1.035.334 1.3.222.252.653.378 1.292.378.473 0 .89-.035 1.25-.105v3.25a8.895 8.895 0 0 1-2.584.378c-2.987 0-4.509-1.517-4.564-4.55v-8.66h-2.335v-3.146h2.335v-3.942h4.272zm17.133 20.004h-4.293V341h4.293v22.814zm8.013 0h-4.293v-16.062h4.293v16.062zM863.1 343.6c0-.643.215-1.174.646-1.593.43-.42 1.014-.63 1.75-.63.723 0 1.3.21 1.73.63.445.419.667.95.667 1.593s-.222 1.174-.667 1.594c-.43.42-1.007.629-1.73.629-.722 0-1.306-.21-1.75-.63-.431-.419-.646-.95-.646-1.593zm11.972 4.152.126 1.845c1.139-1.426 2.667-2.139 4.585-2.139 1.695 0 2.953.504 3.772 1.51.834.993 1.265 2.482 1.293 4.467v10.38h-4.273v-10.276c0-.908-.202-1.565-.605-1.97-.389-.42-1.035-.63-1.938-.63-1.209 0-2.112.517-2.71 1.552v11.323h-4.272v-16.062h4.022zm18.802 9.625-1.542 1.53v4.907h-4.252V341h4.252v12.644l.833-1.07 4.086-4.822h5.127l-5.774 6.69 6.274 9.372h-4.898l-4.106-6.437zm18.978 1.992c0-.517-.257-.923-.77-1.216-.515-.308-1.342-.58-2.481-.818-3.793-.811-5.69-2.44-5.69-4.886 0-1.426.584-2.614 1.75-3.565 1.182-.95 2.724-1.426 4.628-1.426 2.015 0 3.626.483 4.835 1.447 1.223.95 1.834 2.195 1.834 3.733h-4.252c0-.615-.201-1.119-.604-1.51-.389-.405-1-.608-1.834-.608-.723 0-1.278.16-1.667.482-.39.322-.584.734-.584 1.237 0 .476.222.86.667 1.154.445.293 1.195.552 2.25.775 1.07.21 1.967.448 2.69.713 2.25.825 3.376 2.265 3.376 4.32 0 1.468-.625 2.656-1.876 3.565-1.236.894-2.848 1.342-4.835 1.342-1.334 0-2.522-.238-3.564-.713-1.029-.49-1.841-1.147-2.439-1.971-.583-.839-.875-1.748-.875-2.726h4.043c.028.769.306 1.356.834 1.761.528.406 1.23.608 2.105.608.806 0 1.417-.154 1.834-.461.417-.322.625-.734.625-1.237z" mask="url(#b)"/><path fill="#666" fill-rule="nonzero" d="M572 391.727c0-2.437.576-4.392 1.73-5.866 1.166-1.473 2.694-2.21 4.583-2.21 1.862 0 3.34.633 4.438 1.9v-8.262h2.73v22.473h-2.521l-.125-1.694c-1.098 1.322-2.619 1.983-4.563 1.983-1.848 0-3.355-.75-4.522-2.251-1.167-1.501-1.75-3.456-1.75-5.866v-.207zm2.73.29c0 1.803.375 3.215 1.125 4.234.75 1.005 1.785 1.508 3.104 1.508 1.723 0 2.987-.772 3.792-2.314v-7.27c-.82-1.488-2.076-2.231-3.771-2.231-1.334 0-2.375.516-3.125 1.549-.75 1.019-1.126 2.527-1.126 4.523zm24.83 6.175c-1.055 1.24-2.611 1.86-4.667 1.86-1.708 0-3.007-.49-3.896-1.467-.89-.978-1.34-2.43-1.354-4.359V383.94h2.729v10.225c0 2.396.986 3.594 2.959 3.594 2.083 0 3.472-.772 4.167-2.314V383.94h2.73v15.822h-2.605l-.063-1.57zm14.509-11.835a9.887 9.887 0 0 0-1.333-.083c-1.792 0-3.008.75-3.647 2.252v11.236h-2.73V383.94h2.668l.041 1.818c.89-1.405 2.153-2.107 3.793-2.107.541 0 .944.069 1.208.207v2.499zm5.473 13.405h-2.73V383.94h2.73v15.822zm-2.938-20.015c0-.44.132-.812.396-1.115.277-.303.68-.455 1.208-.455.528 0 .93.152 1.209.455.277.303.416.675.416 1.115 0 .44-.139.806-.416 1.095-.278.29-.681.434-1.209.434s-.93-.145-1.208-.434c-.264-.29-.396-.654-.396-1.095zm9.894 4.193.083 1.983c1.223-1.515 2.82-2.272 4.793-2.272 3.375 0 5.077 1.887 5.104 5.66v10.451h-2.73V389.29c-.013-1.143-.277-1.983-.79-2.52-.515-.55-1.32-.826-2.418-.826-.889 0-1.667.234-2.333.702a4.814 4.814 0 0 0-1.563 1.838v11.278h-2.73V383.94h2.584zm13.44 7.787c0-2.478.577-4.44 1.73-5.887 1.152-1.46 2.673-2.189 4.562-2.189 1.945 0 3.466.682 4.563 2.045l.125-1.756h2.5v15.45c0 2.038-.61 3.65-1.833 4.834-1.222 1.184-2.868 1.776-4.938 1.776a8.12 8.12 0 0 1-3.375-.744c-1.098-.482-1.938-1.15-2.521-2.003l1.417-1.611c1.166 1.432 2.597 2.148 4.292 2.148 1.32 0 2.347-.372 3.083-1.115.75-.744 1.125-1.79 1.125-3.14v-1.343c-1.083 1.24-2.57 1.86-4.458 1.86-1.876 0-3.39-.744-4.543-2.231-1.152-1.488-1.729-3.519-1.729-6.094zm2.75.29c0 1.79.369 3.194 1.105 4.213.736 1.019 1.764 1.529 3.083 1.529 1.723 0 2.987-.778 3.792-2.334v-7.21c-.833-1.514-2.083-2.271-3.75-2.271-1.333 0-2.375.516-3.125 1.549-.736 1.019-1.105 2.527-1.105 4.523zm25.284 7.745h-2.73V383.94h2.73v15.822zm-2.938-20.015c0-.44.132-.812.396-1.115.278-.303.68-.455 1.208-.455.528 0 .93.152 1.209.455.277.303.416.675.416 1.115 0 .44-.139.806-.416 1.095-.278.29-.681.434-1.209.434s-.93-.145-1.208-.434c-.264-.29-.396-.654-.396-1.095zm6.644 11.98c0-2.437.576-4.392 1.73-5.866 1.166-1.473 2.694-2.21 4.583-2.21 1.861 0 3.34.633 4.438 1.9v-8.262h2.73v22.473h-2.522l-.125-1.694c-1.097 1.322-2.618 1.983-4.563 1.983-1.847 0-3.354-.75-4.52-2.251-1.168-1.501-1.751-3.456-1.751-5.866v-.207zm2.73.29c0 1.803.374 3.215 1.124 4.234.75 1.005 1.785 1.508 3.105 1.508 1.722 0 2.986-.772 3.792-2.314v-7.27c-.82-1.488-2.077-2.231-3.771-2.231-1.334 0-2.375.516-3.126 1.549-.75 1.019-1.125 2.527-1.125 4.523zm17.934 7.745h-2.73V377.29h2.73v22.473zm10.998.29c-2.167 0-3.93-.703-5.292-2.108-1.347-1.404-2.021-3.29-2.021-5.66v-.495c0-1.57.299-2.967.896-4.193.611-1.24 1.458-2.203 2.542-2.892a6.384 6.384 0 0 1 3.542-1.053c2.07 0 3.68.682 4.834 2.045 1.153 1.35 1.73 3.284 1.73 5.804v1.115h-10.815c.042 1.57.5 2.837 1.376 3.801.875.95 1.993 1.425 3.354 1.425.959 0 1.771-.193 2.438-.578a5.902 5.902 0 0 0 1.771-1.55l1.667 1.281c-1.334 2.038-3.34 3.057-6.022 3.057zm-.333-14.19c-1.111 0-2.042.398-2.792 1.197-.736.799-1.195 1.914-1.375 3.346h8v-.206c-.083-1.377-.458-2.444-1.124-3.202-.667-.757-1.57-1.136-2.71-1.136zm20.901-5.764v3.842h2.98v2.086h-2.98v9.812c0 .633.132 1.108.396 1.425.264.317.715.475 1.354.475.32 0 .75-.055 1.292-.165v2.19a7.914 7.914 0 0 1-2.083.288c-1.223 0-2.146-.365-2.772-1.094-.61-.73-.916-1.77-.916-3.12v-9.81h-2.917v-2.087h2.917v-3.842h2.73zm9.12 19.664h-2.73V383.94h2.73v15.822zm-2.939-20.015c0-.44.132-.812.396-1.115.278-.303.68-.455 1.209-.455.527 0 .93.152 1.208.455.278.303.417.675.417 1.115 0 .44-.14.806-.417 1.095-.278.29-.68.434-1.208.434-.528 0-.931-.145-1.209-.434-.264-.29-.396-.654-.396-1.095zm9.874 4.193.083 1.756c1.167-1.363 2.744-2.045 4.73-2.045 2.236 0 3.757.847 4.563 2.54a6.019 6.019 0 0 1 2.063-1.838c.86-.468 1.868-.702 3.02-.702 3.501 0 5.28 1.838 5.335 5.515v10.596h-2.73v-10.451c0-1.13-.264-1.97-.792-2.52-.513-.565-1.382-.847-2.604-.847-1.014 0-1.854.303-2.521.909-.667.592-1.056 1.397-1.167 2.416v10.493h-2.75v-10.369c0-2.3-1.132-3.45-3.396-3.45-1.792 0-3.022.758-3.688 2.273v11.546h-2.73V383.94h2.584zm30.542 16.111c-2.167 0-3.93-.702-5.292-2.107-1.347-1.404-2.021-3.29-2.021-5.66v-.495c0-1.57.299-2.967.896-4.193.611-1.24 1.458-2.203 2.542-2.892a6.384 6.384 0 0 1 3.542-1.053c2.07 0 3.68.682 4.834 2.045 1.153 1.35 1.73 3.284 1.73 5.804v1.115H765.92c.042 1.57.5 2.837 1.376 3.801.875.95 1.993 1.425 3.354 1.425.959 0 1.771-.193 2.438-.578a5.902 5.902 0 0 0 1.771-1.55l1.667 1.281c-1.334 2.038-3.34 3.057-6.022 3.057zm-.333-14.19c-1.111 0-2.042.4-2.792 1.198-.736.799-1.195 1.914-1.375 3.346h8v-.206c-.083-1.377-.458-2.444-1.124-3.202-.667-.757-1.57-1.136-2.71-1.136zm20.151 13.901h-2.73V383.94h2.73v15.822zm-2.938-20.015c0-.44.132-.812.396-1.115.278-.303.68-.455 1.209-.455.527 0 .93.152 1.208.455.278.303.417.675.417 1.115 0 .44-.14.806-.417 1.095-.278.29-.68.434-1.208.434-.528 0-.931-.145-1.209-.434-.264-.29-.396-.654-.396-1.095zm8.665 20.015v-13.736h-2.542v-2.086h2.542v-1.632c0-1.693.452-3.001 1.355-3.924.916-.923 2.215-1.384 3.896-1.384.625 0 1.25.083 1.875.248l-.167 2.19a7.077 7.077 0 0 0-1.458-.145c-.889 0-1.577.261-2.063.785-.472.51-.708 1.239-.708 2.19v1.672h3.396v2.086h-3.396v13.736h-2.73zm19.197-15.822.084 1.983c1.222-1.515 2.82-2.272 4.792-2.272 3.375 0 5.077 1.887 5.105 5.66v10.451h-2.73V389.29c-.014-1.143-.278-1.983-.792-2.52-.514-.55-1.32-.826-2.417-.826-.889 0-1.666.234-2.333.702a4.814 4.814 0 0 0-1.563 1.838v11.278h-2.73V383.94h2.584zm13.357 7.767c0-1.556.306-2.954.917-4.193.625-1.24 1.486-2.19 2.583-2.85 1.098-.676 2.348-1.013 3.75-1.013 2.182 0 3.939.744 5.272 2.23 1.348 1.488 2.021 3.47 2.021 5.95v.185c0 1.543-.298 2.927-.896 4.152-.597 1.226-1.451 2.183-2.562 2.871-1.098.675-2.369 1.012-3.813 1.012-2.153 0-3.904-.743-5.25-2.23-1.348-1.488-2.022-3.464-2.022-5.929v-.185zm2.75.31c0 1.762.41 3.173 1.23 4.234.82 1.06 1.917 1.59 3.292 1.59 1.389 0 2.493-.537 3.313-1.61.82-1.075 1.229-2.583 1.229-4.524 0-1.735-.417-3.14-1.25-4.214-.834-1.088-1.938-1.632-3.313-1.632-1.348 0-2.438.537-3.271 1.611-.82 1.06-1.23 2.575-1.23 4.544zm18.918-11.919v3.842h2.98v2.086h-2.98v9.812c0 .633.132 1.108.396 1.425.264.317.715.475 1.354.475.32 0 .75-.055 1.292-.165v2.19a7.914 7.914 0 0 1-2.083.288c-1.223 0-2.147-.365-2.772-1.094-.61-.73-.916-1.77-.916-3.12v-9.81h-2.917v-2.087h2.917v-3.842h2.73zm12.91 11.609c0-1.556.306-2.954.917-4.193.625-1.24 1.486-2.19 2.584-2.85 1.097-.676 2.347-1.013 3.75-1.013 2.18 0 3.938.744 5.271 2.23 1.348 1.488 2.022 3.47 2.022 5.95v.185c0 1.543-.3 2.927-.896 4.152-.598 1.226-1.452 2.183-2.563 2.871-1.098.675-2.369 1.012-3.813 1.012-2.153 0-3.903-.743-5.25-2.23-1.348-1.488-2.022-3.464-2.022-5.929v-.185zm2.75.31c0 1.762.41 3.173 1.23 4.234.82 1.06 1.917 1.59 3.292 1.59 1.389 0 2.493-.537 3.313-1.61.82-1.075 1.229-2.583 1.229-4.524 0-1.735-.417-3.14-1.25-4.214-.834-1.088-1.938-1.632-3.313-1.632-1.347 0-2.438.537-3.271 1.611-.82 1.06-1.23 2.575-1.23 4.544zm17.793-8.077.084 1.983c1.222-1.515 2.82-2.272 4.792-2.272 3.375 0 5.077 1.887 5.104 5.66v10.451h-2.729V389.29c-.014-1.143-.278-1.983-.792-2.52-.514-.55-1.32-.826-2.417-.826-.889 0-1.667.234-2.333.702a4.814 4.814 0 0 0-1.563 1.838v11.278h-2.73V383.94h2.584zm31.42 15.822c-.152-.317-.277-.874-.375-1.673-1.277 1.308-2.791 1.962-4.542 1.962-1.583 0-2.882-.44-3.896-1.322-1-.88-1.5-1.996-1.5-3.346 0-1.652.632-2.933 1.896-3.842 1.264-.909 3.042-1.363 5.334-1.363h2.667v-1.26c0-.936-.292-1.687-.875-2.251-.57-.565-1.41-.847-2.521-.847-.973 0-1.792.248-2.459.743-.653.482-.98 1.068-.98 1.756h-2.729c0-.785.278-1.542.834-2.272.57-.744 1.34-1.329 2.312-1.756.973-.427 2.035-.64 3.188-.64 1.848 0 3.292.454 4.334 1.363 1.042.91 1.584 2.162 1.625 3.76v7.29c0 1.447.18 2.603.542 3.47v.228h-2.854zm-4.52-2.065c.846 0 1.652-.22 2.416-.661.778-.441 1.34-1.012 1.688-1.715v-3.243h-2.146c-3.348 0-5.022.971-5.022 2.913 0 .853.285 1.521.855 2.003.57.468 1.305.703 2.208.703zm-328.66 33.774c0-.737-.278-1.308-.834-1.711-.556-.418-1.529-.773-2.918-1.065-1.376-.306-2.474-.66-3.294-1.064-.806-.418-1.404-.912-1.793-1.482-.39-.57-.584-1.252-.584-2.046 0-1.307.556-2.414 1.668-3.318 1.112-.904 2.53-1.357 4.253-1.357 1.807 0 3.273.466 4.399 1.399 1.125.932 1.688 2.129 1.688 3.59h-2.752c0-.752-.32-1.399-.959-1.942-.625-.542-1.417-.813-2.376-.813-1 0-1.786.222-2.356.667-.556.432-.834.995-.834 1.691 0 .654.257 1.155.771 1.503.529.334 1.474.654 2.836.96 1.376.292 2.48.654 3.314 1.085.848.417 1.474.925 1.877 1.524.417.598.625 1.328.625 2.191 0 1.42-.57 2.56-1.71 3.423-1.139.863-2.62 1.294-4.44 1.294-1.279 0-2.411-.223-3.398-.668-.987-.459-1.758-1.092-2.314-1.9-.556-.82-.834-1.704-.834-2.65h2.731c.056.919.424 1.649 1.105 2.192.681.528 1.584.793 2.71.793 1.029 0 1.856-.209 2.481-.626.625-.418.938-.974.938-1.67zm9.25 4.237h-2.732V413h2.731v22.708zm3.645-8.14c0-1.572.306-2.985.917-4.237.626-1.252 1.488-2.212 2.586-2.88 1.098-.682 2.348-1.023 3.752-1.023 2.182 0 3.94.752 5.275 2.254 1.348 1.503 2.022 3.507 2.022 6.011v.188c0 1.559-.3 2.957-.897 4.195-.597 1.239-1.452 2.206-2.564 2.901-1.098.682-2.37 1.023-3.815 1.023-2.154 0-3.905-.751-5.254-2.254-1.348-1.503-2.022-3.5-2.022-5.99v-.188zm2.752.313c0 1.781.41 3.207 1.23 4.279.82 1.071 1.918 1.607 3.294 1.607 1.39 0 2.495-.543 3.315-1.628.82-1.085 1.23-2.61 1.23-4.57 0-1.754-.417-3.173-1.251-4.259-.834-1.099-1.939-1.648-3.315-1.648-1.348 0-2.44.542-3.273 1.627-.82 1.072-1.23 2.602-1.23 4.592zm29.352 4.05 3.086-12.21h2.73l-4.648 15.987h-2.23l-3.878-12.126-3.774 12.126h-2.21l-4.649-15.987h2.731l3.148 11.959 3.711-11.96h2.19l3.793 12.21zm18.65-12.21.084 2.003c1.223-1.53 2.821-2.296 4.795-2.296 3.377 0 5.08 1.907 5.107 5.719v10.56h-2.73v-10.58c-.015-1.156-.279-2.004-.793-2.547-.514-.557-1.32-.835-2.418-.835-.89 0-1.668.237-2.335.71a4.852 4.852 0 0 0-1.564 1.857v11.396h-2.73V419.72h2.584zM666.338 436c-2.168 0-3.933-.71-5.295-2.129-1.349-1.42-2.023-3.325-2.023-5.719v-.5c0-1.587.3-2.999.897-4.237.611-1.253 1.46-2.227 2.543-2.922a6.343 6.343 0 0 1 3.544-1.065c2.071 0 3.683.69 4.837 2.067 1.153 1.363 1.73 3.318 1.73 5.864v1.127h-10.82c.042 1.587.5 2.867 1.376 3.84.876.96 1.995 1.44 3.357 1.44.959 0 1.772-.194 2.439-.584a5.923 5.923 0 0 0 1.772-1.565l1.668 1.294c-1.334 2.06-3.343 3.089-6.025 3.089zm-.334-14.338c-1.112 0-2.043.403-2.793 1.21-.737.807-1.196 1.934-1.376 3.381h8.005v-.209c-.083-1.39-.458-2.47-1.126-3.235-.667-.765-1.57-1.147-2.71-1.147zm13.43-5.824v3.883h2.981v2.107h-2.98v9.914c0 .64.131 1.12.395 1.44.264.32.716.48 1.355.48.32 0 .75-.055 1.293-.167v2.213a7.846 7.846 0 0 1-2.085.292c-1.223 0-2.147-.369-2.773-1.106-.611-.738-.917-1.788-.917-3.152v-9.914h-2.919v-2.107h2.919v-3.883h2.731zm20.298 16.092 3.086-12.21h2.73l-4.648 15.988h-2.23l-3.878-12.126-3.774 12.126h-2.21l-4.649-15.987h2.731l3.148 11.959 3.711-11.96h2.19l3.793 12.21zm7.852-4.362c0-1.572.306-2.985.917-4.237.626-1.252 1.488-2.212 2.586-2.88 1.098-.682 2.348-1.023 3.752-1.023 2.182 0 3.94.752 5.275 2.254 1.348 1.503 2.022 3.507 2.022 6.011v.188c0 1.559-.299 2.957-.897 4.195-.597 1.239-1.452 2.206-2.564 2.901-1.098.682-2.37 1.023-3.815 1.023-2.154 0-3.905-.751-5.254-2.254-1.348-1.503-2.022-3.5-2.022-5.99v-.188zm2.752.313c0 1.781.41 3.207 1.23 4.279.82 1.071 1.918 1.607 3.294 1.607 1.39 0 2.495-.543 3.315-1.628.82-1.085 1.23-2.61 1.23-4.57 0-1.754-.417-3.173-1.251-4.259-.834-1.099-1.939-1.648-3.315-1.648-1.348 0-2.439.542-3.273 1.627-.82 1.072-1.23 2.602-1.23 4.592zm22.931-5.719a9.797 9.797 0 0 0-1.334-.083c-1.793 0-3.009.758-3.648 2.275v11.354h-2.731V419.72h2.668l.042 1.836c.89-1.42 2.154-2.129 3.794-2.129.542 0 .945.07 1.21.209v2.525zm6.977 6.137-1.71 1.794v5.615h-2.73V413h2.73v13.733l1.46-1.753 4.982-5.26h3.315l-6.212 6.68 6.921 9.308h-3.19l-5.566-7.41z" mask="url(#b)"/><path fill="#4285f4" d="M491 145h172.03L687 169l-23.97 24H491z" mask="url(#b)"/><path d="M495 145h218v40H495z" mask="url(#b)"/><path fill="#fff" fill-rule="nonzero" d="m515.03 178-7.03-5.872 7.03-5.831 1.628 1.627-5.174 4.183 5.174 4.245L515.03 178zm11.746-.247-.063-1.38a8.01 8.01 0 0 1-.709.659c-.236.192-.5.364-.793.515a4.91 4.91 0 0 1-.96.33 4.71 4.71 0 0 1-1.126.123c-.542 0-1.022-.082-1.44-.247a3.107 3.107 0 0 1-1.022-.66 2.786 2.786 0 0 1-.626-1.03 3.978 3.978 0 0 1-.208-1.318c0-.495.104-.948.313-1.36.208-.426.528-.79.96-1.092.444-.303.987-.536 1.627-.701.653-.179 1.418-.268 2.294-.268h1.398v-.618a1.9 1.9 0 0 0-.125-.721 1.174 1.174 0 0 0-.375-.556 1.698 1.698 0 0 0-.668-.35 3.335 3.335 0 0 0-.98-.124c-.626 0-1.245.068-1.857.206a8.97 8.97 0 0 0-1.774.597v-2.019a10.7 10.7 0 0 1 1.753-.474 10.329 10.329 0 0 1 2.086-.206c.779 0 1.446.076 2.003.227.57.137 1.036.357 1.398.66.375.288.646.658.813 1.112.181.44.271.954.271 1.545v7.15h-2.19zm-.355-4.636h-1.564c-.432 0-.8.041-1.106.123-.292.083-.536.2-.73.35a1.246 1.246 0 0 0-.397.495 1.486 1.486 0 0 0-.125.598c0 .426.14.755.417.989.279.22.654.33 1.127.33.362 0 .73-.124 1.106-.372.39-.26.813-.631 1.272-1.112v-1.401zm23.533 4.636v-6.82c0-1.154-.431-1.731-1.294-1.731-.43 0-.848.172-1.251.515-.39.343-.8.81-1.231 1.401v6.635h-2.546v-14.568h2.546v3.586l-.126 1.895c.21-.247.425-.474.647-.68a3.63 3.63 0 0 1 .71-.515c.264-.137.542-.24.834-.309.306-.069.64-.103 1.001-.103.543 0 1.016.09 1.419.268.403.165.737.412 1.001.742.279.316.487.7.626 1.154.14.44.209.94.209 1.504v7.026h-2.545zm12.246-6.408a4.275 4.275 0 0 0-.063-.99 2.054 2.054 0 0 0-.25-.68 1.028 1.028 0 0 0-.417-.39 1.304 1.304 0 0 0-.585-.124c-.375 0-.765.15-1.168.453-.39.302-.827.804-1.314 1.504v6.635h-2.608v-10.467h2.316l.083 1.524c.181-.274.376-.515.584-.72a3.53 3.53 0 0 1 .73-.557 3.92 3.92 0 0 1 .898-.35 4.518 4.518 0 0 1 1.084-.124c.529 0 1.002.09 1.42.268.416.178.764.446 1.042.803.278.358.487.81.626 1.36.14.536.195 1.154.167 1.855H562.2zm14.144.37c0 .165-.007.385-.02.66 0 .275-.015.536-.042.783h-6.968c0 .453.07.858.208 1.216.153.343.355.638.605.886.265.233.578.412.94.535.375.124.785.186 1.23.186.515 0 1.064-.041 1.648-.124a14.25 14.25 0 0 0 1.836-.391v1.998c-.278.083-.577.158-.897.227-.32.055-.647.103-.98.144a12.43 12.43 0 0 1-2.003.165c-.807 0-1.53-.117-2.17-.35a4.451 4.451 0 0 1-1.627-1.01 4.353 4.353 0 0 1-1.023-1.628c-.236-.659-.354-1.421-.354-2.287 0-.851.118-1.62.354-2.307.237-.701.57-1.298 1.002-1.793a4.17 4.17 0 0 1 1.565-1.154 5.083 5.083 0 0 1 2.065-.412c.75 0 1.412.117 1.982.35.584.22 1.07.536 1.46.948.39.412.682.907.876 1.484.209.563.313 1.188.313 1.875zm-2.587-.37c.014-.412-.034-.77-.146-1.072a1.99 1.99 0 0 0-.459-.741 1.8 1.8 0 0 0-.667-.454 2.25 2.25 0 0 0-.814-.144c-.64 0-1.168.213-1.585.639-.404.412-.647 1.003-.73 1.772h4.401zm14.625-6.017a7.869 7.869 0 0 0-1.106-.247 7.822 7.822 0 0 0-1.273-.103c-.306 0-.59.041-.855.124-.25.082-.473.213-.668.391a1.83 1.83 0 0 0-.438.639c-.097.26-.146.584-.146.968v1.69h4.152v1.957h-4.152v7.006h-2.566v-7.006h-3.087v-1.957h3.087v-1.587c0-.741.105-1.38.313-1.916.223-.536.536-.968.939-1.298a3.67 3.67 0 0 1 1.44-.742 6.825 6.825 0 0 1 1.898-.247c.459 0 .89.027 1.293.082.418.055.807.124 1.169.206v2.04zm2.17 5.77v-2h8.97v2h-8.97zm0 4.059v-1.999h8.97v1.999h-8.97zm16.397-7.356c.737.027 1.3-.048 1.69-.227.39-.178.584-.487.584-.927 0-.234-.049-.426-.146-.577a2.417 2.417 0 0 0-.334-.412 3.742 3.742 0 0 1-.313-.453c-.097-.165-.146-.385-.146-.66 0-.206.035-.398.104-.577.07-.192.174-.357.313-.494a1.43 1.43 0 0 1 .501-.35c.195-.083.41-.124.647-.124.32 0 .598.069.834.206.237.124.438.295.605.515.167.22.292.48.376.783.083.302.125.618.125.948 0 .563-.104 1.085-.313 1.566-.195.48-.494.9-.897 1.257-.39.343-.89.618-1.502.824-.598.192-1.307.288-2.128.288v-1.586zm-5.466 0c.737.027 1.294-.048 1.669-.227.39-.178.584-.487.584-.927 0-.234-.048-.426-.146-.577a2.417 2.417 0 0 0-.334-.412 3.742 3.742 0 0 1-.313-.453c-.097-.165-.146-.385-.146-.66 0-.206.035-.398.105-.577.083-.192.187-.357.313-.494.139-.151.306-.268.5-.35a1.8 1.8 0 0 1 .668-.124c.32 0 .598.069.834.206.237.124.438.295.605.515.167.22.292.48.376.783.083.302.125.618.125.948 0 .563-.104 1.085-.313 1.566-.195.48-.494.9-.897 1.257-.39.343-.89.618-1.502.824-.612.192-1.321.288-2.128.288v-1.586zm16.982 6.14c.292 0 .563.055.813.165.25.11.466.254.647.432.181.179.32.392.417.64.112.246.167.514.167.803 0 .274-.055.535-.167.783a2.117 2.117 0 0 1-.417.638c-.18.179-.396.323-.647.433-.25.11-.521.165-.813.165a1.95 1.95 0 0 1-.793-.165 2.206 2.206 0 0 1-.626-.433 2.494 2.494 0 0 1-.438-.638 2.118 2.118 0 0 1-.146-.783c0-.289.049-.557.146-.804a2.097 2.097 0 0 1 1.064-1.071c.25-.11.515-.165.793-.165zm11.745 0c.292 0 .563.055.814.165.25.11.466.254.646.432.181.179.32.392.418.64.111.246.167.514.167.803 0 .274-.056.535-.167.783a2.117 2.117 0 0 1-.418.638c-.18.179-.396.323-.646.433a2 2 0 0 1-.814.165 1.95 1.95 0 0 1-.793-.165 2.206 2.206 0 0 1-.625-.433 2.494 2.494 0 0 1-.439-.638 2.118 2.118 0 0 1-.146-.783c0-.289.05-.557.146-.804a2.118 2.118 0 0 1 1.064-1.071c.25-.11.515-.165.793-.165zm11.746 0c.292 0 .563.055.813.165.25.11.466.254.647.432.18.179.32.392.417.64.111.246.167.514.167.803 0 .274-.056.535-.167.783a2.117 2.117 0 0 1-.417.638c-.18.179-.397.323-.647.433-.25.11-.521.165-.813.165a1.95 1.95 0 0 1-.793-.165 2.206 2.206 0 0 1-.626-.433 2.494 2.494 0 0 1-.438-.638 2.118 2.118 0 0 1-.146-.783c0-.289.048-.557.146-.804a2.097 2.097 0 0 1 1.064-1.071c.25-.11.514-.165.793-.165z" mask="url(#b)"/><path d="M572 291.5h353" mask="url(#b)"/><path stroke="#ccc" stroke-linejoin="round" stroke-width="2" d="M572 291.5h353" mask="url(#b)"/><path fill="#4285f4" d="M491 218h172.03L687 242l-23.97 24H491z" mask="url(#b)"/><path d="M495 218h218v40H495z" mask="url(#b)"/><path fill="#fff" fill-rule="nonzero" d="m515.03 251-7.03-5.872 7.03-5.831 1.628 1.627-5.174 4.183 5.174 4.245L515.03 251zm11.746-.247-.063-1.38a8.01 8.01 0 0 1-.709.659c-.236.192-.5.364-.793.515a4.91 4.91 0 0 1-.96.33 4.71 4.71 0 0 1-1.126.123c-.542 0-1.022-.082-1.44-.247a3.107 3.107 0 0 1-1.022-.66 2.786 2.786 0 0 1-.626-1.03 3.978 3.978 0 0 1-.208-1.318c0-.495.104-.948.313-1.36.208-.426.528-.79.96-1.092.444-.303.987-.536 1.627-.701.653-.179 1.418-.268 2.294-.268h1.398v-.618a1.9 1.9 0 0 0-.125-.721 1.174 1.174 0 0 0-.375-.556 1.698 1.698 0 0 0-.668-.35 3.335 3.335 0 0 0-.98-.124c-.626 0-1.245.068-1.857.206a8.97 8.97 0 0 0-1.774.597v-2.019a10.7 10.7 0 0 1 1.753-.474 10.329 10.329 0 0 1 2.086-.206c.779 0 1.446.076 2.003.227.57.137 1.036.357 1.398.66.375.288.646.658.813 1.112.181.44.271.954.271 1.545v7.15h-2.19zm-.355-4.636h-1.564c-.432 0-.8.041-1.106.123-.292.083-.536.2-.73.35a1.246 1.246 0 0 0-.397.495 1.486 1.486 0 0 0-.125.598c0 .426.14.755.417.989.279.22.654.33 1.127.33.362 0 .73-.124 1.106-.372.39-.26.813-.631 1.272-1.112v-1.401zm23.533 4.636v-6.82c0-1.154-.431-1.731-1.294-1.731-.43 0-.848.172-1.251.515-.39.343-.8.81-1.231 1.401v6.635h-2.546v-14.568h2.546v3.586l-.126 1.895c.21-.247.425-.474.647-.68a3.63 3.63 0 0 1 .71-.515c.264-.137.542-.24.834-.309.306-.069.64-.103 1.001-.103.543 0 1.016.09 1.419.268.403.165.737.412 1.001.742.279.316.487.7.626 1.154.14.44.209.94.209 1.504v7.026h-2.545zm12.246-6.408a4.275 4.275 0 0 0-.063-.99 2.054 2.054 0 0 0-.25-.68 1.028 1.028 0 0 0-.417-.39 1.304 1.304 0 0 0-.585-.124c-.375 0-.765.15-1.168.453-.39.302-.827.804-1.314 1.504v6.635h-2.608v-10.467h2.316l.083 1.524c.181-.274.376-.515.584-.72a3.53 3.53 0 0 1 .73-.557 3.92 3.92 0 0 1 .898-.35 4.518 4.518 0 0 1 1.084-.124c.529 0 1.002.09 1.42.268.416.178.764.446 1.042.803.278.358.487.81.626 1.36.14.536.195 1.154.167 1.855H562.2zm14.144.37c0 .165-.007.385-.02.66 0 .275-.015.536-.042.783h-6.968c0 .453.07.858.208 1.216.153.343.355.638.605.886.265.233.578.412.94.535.375.124.785.186 1.23.186.515 0 1.064-.041 1.648-.124a14.25 14.25 0 0 0 1.836-.391v1.998c-.278.083-.577.158-.897.227-.32.055-.647.103-.98.144a12.43 12.43 0 0 1-2.003.165c-.807 0-1.53-.117-2.17-.35a4.451 4.451 0 0 1-1.627-1.01 4.353 4.353 0 0 1-1.023-1.628c-.236-.659-.354-1.421-.354-2.287 0-.851.118-1.62.354-2.307.237-.701.57-1.298 1.002-1.793a4.17 4.17 0 0 1 1.565-1.154 5.083 5.083 0 0 1 2.065-.412c.75 0 1.412.117 1.982.35.584.22 1.07.536 1.46.948.39.412.682.907.876 1.484.209.563.313 1.188.313 1.875zm-2.587-.37c.014-.412-.034-.77-.146-1.072a1.99 1.99 0 0 0-.459-.741 1.8 1.8 0 0 0-.667-.454 2.25 2.25 0 0 0-.814-.144c-.64 0-1.168.213-1.585.639-.404.412-.647 1.003-.73 1.772h4.401zm14.625-6.017a7.869 7.869 0 0 0-1.106-.247 7.822 7.822 0 0 0-1.273-.103c-.306 0-.59.041-.855.124-.25.082-.473.213-.668.391a1.83 1.83 0 0 0-.438.639c-.097.26-.146.584-.146.968v1.69h4.152v1.957h-4.152v7.006h-2.566v-7.006h-3.087v-1.957h3.087v-1.587c0-.741.105-1.38.313-1.916.223-.536.536-.968.939-1.298a3.67 3.67 0 0 1 1.44-.742 6.825 6.825 0 0 1 1.898-.247c.459 0 .89.027 1.293.082.418.055.807.124 1.169.206v2.04zm2.17 5.77v-2h8.97v2h-8.97zm0 4.059v-1.999h8.97v1.999h-8.97zm16.397-7.356c.737.027 1.3-.048 1.69-.227.39-.178.584-.487.584-.927 0-.234-.049-.426-.146-.577a2.417 2.417 0 0 0-.334-.412 3.742 3.742 0 0 1-.313-.453c-.097-.165-.146-.385-.146-.66 0-.206.035-.398.104-.577.07-.192.174-.357.313-.494a1.43 1.43 0 0 1 .501-.35c.195-.083.41-.124.647-.124.32 0 .598.069.834.206.237.124.438.295.605.515.167.22.292.48.376.783.083.302.125.618.125.948 0 .563-.104 1.085-.313 1.566-.195.48-.494.9-.897 1.257-.39.343-.89.618-1.502.824-.598.192-1.307.288-2.128.288v-1.586zm-5.466 0c.737.027 1.294-.048 1.669-.227.39-.178.584-.487.584-.927 0-.234-.048-.426-.146-.577a2.417 2.417 0 0 0-.334-.412 3.742 3.742 0 0 1-.313-.453c-.097-.165-.146-.385-.146-.66 0-.206.035-.398.105-.577.083-.192.187-.357.313-.494.139-.151.306-.268.5-.35a1.8 1.8 0 0 1 .668-.124c.32 0 .598.069.834.206.237.124.438.295.605.515.167.22.292.48.376.783.083.302.125.618.125.948 0 .563-.104 1.085-.313 1.566-.195.48-.494.9-.897 1.257-.39.343-.89.618-1.502.824-.612.192-1.321.288-2.128.288v-1.586zm16.982 6.14c.292 0 .563.055.813.165.25.11.466.254.647.432.181.179.32.392.417.64.112.246.167.514.167.803 0 .274-.055.535-.167.783a2.117 2.117 0 0 1-.417.638c-.18.179-.396.323-.647.433-.25.11-.521.165-.813.165a1.95 1.95 0 0 1-.793-.165 2.206 2.206 0 0 1-.626-.433 2.494 2.494 0 0 1-.438-.638 2.118 2.118 0 0 1-.146-.783c0-.289.049-.557.146-.804a2.097 2.097 0 0 1 1.064-1.071c.25-.11.515-.165.793-.165zm11.745 0c.292 0 .563.055.814.165.25.11.466.254.646.432.181.179.32.392.418.64.111.246.167.514.167.803 0 .274-.056.535-.167.783a2.117 2.117 0 0 1-.418.638c-.18.179-.396.323-.646.433a2 2 0 0 1-.814.165 1.95 1.95 0 0 1-.793-.165 2.206 2.206 0 0 1-.625-.433 2.494 2.494 0 0 1-.439-.638 2.118 2.118 0 0 1-.146-.783c0-.289.05-.557.146-.804a2.118 2.118 0 0 1 1.064-1.071c.25-.11.515-.165.793-.165zm11.746 0c.292 0 .563.055.813.165.25.11.466.254.647.432.18.179.32.392.417.64.111.246.167.514.167.803 0 .274-.056.535-.167.783a2.117 2.117 0 0 1-.417.638c-.18.179-.397.323-.647.433-.25.11-.521.165-.813.165a1.95 1.95 0 0 1-.793-.165 2.206 2.206 0 0 1-.626-.433 2.494 2.494 0 0 1-.438-.638 2.118 2.118 0 0 1-.146-.783c0-.289.048-.557.146-.804a2.097 2.097 0 0 1 1.064-1.071c.25-.11.514-.165.793-.165z" mask="url(#b)"/><path d="M82 291.5h318" mask="url(#b)"/><path stroke="#ccc" stroke-linejoin="round" stroke-width="2" d="M82 291.5h318" mask="url(#b)"/><path fill="#fff" d="M968 24h95v161h-95z" mask="url(#b)"/><path stroke="#ccc" stroke-linejoin="round" d="M968 24h95v161h-95z" mask="url(#b)"/><path fill="#efefef" d="M968 24h95v18h-95z" mask="url(#b)"/><path fill="#d9d9d9" d="M973 28h12v10h-12zm2 25h34v31h-34zm40 0h38v7h-38zm0 12h28v7h-28zm-39 44h77v7h-77zm0 13h57v7h-57zm0-25h77v7h-77zm0 58h77v7h-77zm0 13h57v7h-57zm0-25h77v7h-77z" mask="url(#b)"/><path fill="#fff" d="M1031 148h95v161h-95z" mask="url(#b)"/><path stroke="#ccc" stroke-linejoin="round" d="M1031 148h95v161h-95z" mask="url(#b)"/><path fill="#efefef" d="M1031 148h95v18h-95z" mask="url(#b)"/><path fill="#d9d9d9" d="M1036 152h12v10h-12zm3 24h34v31h-34zm39 1h38v7h-38zm0 11h28v7h-28zm-39 45h77v7h-77zm0 13h57v7h-57zm0-25h77v7h-77zm0 58h77v7h-77zm0 13h57v7h-57zm0-25h77v7h-77z" mask="url(#b)"/><path d="M757 164c52.5 0 78.75-14.75 105-29.5S914.5 105 967 105" mask="url(#b)"/><path stroke="#3cc0ac" stroke-linejoin="round" stroke-width="4" d="M757 164c52.468 0 78.701-14.774 104.935-29.549 13.117-7.387 26.234-14.774 42.63-20.315 8.198-2.77 17.216-5.079 27.463-6.695.64-.1 1.286-.199 1.936-.294L935 107" mask="url(#b)"/><path fill="#3cc0ac" stroke="#3cc0ac" stroke-width="4" d="M936.172 116 960 105.369 935 98z" mask="url(#b)"/><path d="M835 233c49 0 73.5-1.25 98-2.5s49-2.5 98-2.5" mask="url(#b)"/><path stroke="#3cc0ac" stroke-linejoin="round" stroke-width="4" d="M835 233c48.994 0 73.491-1.304 97.988-2.608 12.249-.652 24.497-1.304 39.808-1.793 7.655-.245 16.076-.449 25.646-.591L999 228" mask="url(#b)"/><path fill="#3cc0ac" stroke="#3cc0ac" stroke-width="4" d="m999.107 238 23.893-9.152L999 220z" mask="url(#b)"/></g></svg>