<svg xmlns="http://www.w3.org/2000/svg" xmlns:xlink="http://www.w3.org/1999/xlink" width="960" height="540"><defs><path id="a" d="M0 0h960v540H0z"/></defs><g fill="none" fill-rule="evenodd"><mask id="b" fill="#fff"><use xlink:href="#a"/></mask><g mask="url(#b)"><path fill="#fff" d="M0 0h960v540H0z"/><path d="M50.061 20.218h351.024v69.07H50.06z"/><path fill="#424242" fill-rule="nonzero" d="M62.999 33.994h12.094c2.177 0 4.161.458 5.953 1.375 1.791.917 3.198 2.198 4.218 3.844 1.032 1.645 1.547 3.526 1.547 5.64 0 2.104-.515 3.99-1.547 5.656-1.02 1.667-2.427 2.959-4.218 3.875-1.792.907-3.776 1.36-5.953 1.36h-5.61v12.625H63V33.994zm12.281 15.61c1.604 0 2.86-.464 3.766-1.391.916-.927 1.375-2.047 1.375-3.36s-.459-2.422-1.375-3.328c-.907-.917-2.162-1.375-3.766-1.375h-5.797v9.453h5.797zm16.14-5.72h5.89v3.266h.39c.605-1.146 1.548-2.094 2.829-2.844 1.281-.76 2.693-1.14 4.234-1.14 1.115 0 2.136.177 3.063.531v6.281a22.314 22.314 0 0 0-2.188-.687 7.78 7.78 0 0 0-1.89-.219c-1.855 0-3.329.672-4.422 2.016-1.084 1.343-1.625 3.041-1.625 5.093V68.37h-6.282V43.884zm30.524 25.25c-2.437 0-4.63-.557-6.578-1.671-1.948-1.125-3.474-2.672-4.578-4.641s-1.656-4.182-1.656-6.64c0-2.344.541-4.516 1.625-6.516s2.583-3.589 4.5-4.766c1.927-1.187 4.073-1.781 6.437-1.781 2.532 0 4.709.547 6.531 1.64a10.62 10.62 0 0 1 4.157 4.47c.948 1.885 1.422 3.978 1.422 6.28 0 .73-.052 1.433-.157 2.11h-18.375c.323 1.948 1.1 3.427 2.329 4.437 1.229 1.01 2.708 1.516 4.437 1.516 1.438 0 2.677-.313 3.719-.938a6.888 6.888 0 0 0 2.468-2.515l5.094 2.484c-2.5 4.354-6.291 6.531-11.375 6.531zm5.813-15.984c-.073-.77-.36-1.531-.86-2.281-.49-.75-1.177-1.37-2.062-1.86-.875-.5-1.901-.75-3.078-.75-1.51 0-2.802.443-3.875 1.329-1.073.875-1.85 2.062-2.328 3.562h12.203zm13.055-3.89h-4.375v-5.376h4.375v-1.343c0-2.782.828-4.964 2.485-6.547 1.666-1.583 3.843-2.375 6.53-2.375 1.542 0 2.87.177 3.985.531v6.14c-.604-.26-1.14-.452-1.61-.577-.458-.125-.994-.188-1.609-.188-1.052 0-1.9.302-2.546.906-.636.605-.954 1.438-.954 2.5v.953h6v5.375h-6v19.11h-6.28v-19.11zm27.212 19.874c-2.437 0-4.63-.557-6.578-1.671-1.948-1.125-3.474-2.672-4.578-4.641s-1.656-4.182-1.656-6.64c0-2.344.542-4.516 1.625-6.516s2.583-3.589 4.5-4.766c1.927-1.187 4.073-1.781 6.437-1.781 2.532 0 4.709.547 6.532 1.64a10.62 10.62 0 0 1 4.156 4.47c.948 1.885 1.422 3.978 1.422 6.28 0 .73-.052 1.433-.157 2.11h-18.375c.323 1.948 1.1 3.427 2.329 4.437s2.708 1.516 4.437 1.516c1.438 0 2.677-.313 3.719-.938s1.864-1.463 2.469-2.515l5.093 2.484c-2.5 4.354-6.291 6.531-11.375 6.531zm5.813-15.984c-.073-.77-.36-1.531-.86-2.281-.49-.75-1.177-1.37-2.062-1.86-.875-.5-1.901-.75-3.078-.75-1.51 0-2.802.443-3.875 1.329-1.073.875-1.85 2.062-2.328 3.562h12.203zm20.83 15.61c-1.218 0-2.343-.183-3.374-.547-1.02-.375-1.85-.886-2.484-1.532-1.51-1.437-2.266-3.484-2.266-6.14V49.259h-4.266v-5.375h4.266v-6.906h6.297v6.906h6v5.375h-6V59.4c0 1.24.27 2.136.812 2.688.448.51 1.219.765 2.313.765.604 0 1.104-.078 1.5-.234.406-.167.927-.443 1.562-.828v6.14a11.59 11.59 0 0 1-4.36.828zm20.06.374c-2.468 0-4.677-.552-6.625-1.656-1.948-1.104-3.474-2.646-4.578-4.625-1.104-1.99-1.656-4.229-1.656-6.719 0-2.5.552-4.734 1.656-6.703s2.63-3.51 4.578-4.625c1.948-1.125 4.157-1.687 6.625-1.687 2.72 0 5.052.583 7 1.75 1.959 1.167 3.37 2.823 4.235 4.969l-5.766 2.406c-1.02-2.177-2.844-3.266-5.469-3.266-1.916 0-3.494.656-4.734 1.969-1.23 1.312-1.844 3.042-1.844 5.187 0 2.178.615 3.922 1.844 5.235 1.24 1.302 2.818 1.953 4.734 1.953 2.657 0 4.578-1.151 5.766-3.453l5.703 2.5c-1.052 2.146-2.557 3.812-4.516 5-1.947 1.177-4.265 1.765-6.953 1.765zm15.989-35.14h6.281v8.687l-.39 4.282h.39c.708-1.157 1.734-2.084 3.078-2.782a9.207 9.207 0 0 1 4.36-1.062c2.979 0 5.26.89 6.843 2.672 1.584 1.77 2.375 4.224 2.375 7.36v15.218h-6.281V53.916c0-1.563-.427-2.776-1.281-3.64-.844-.865-1.969-1.298-3.375-1.298-1.667 0-3.037.672-4.11 2.016s-1.609 2.99-1.609 4.937V68.37h-6.281V33.994zm32.443 7.203a3.964 3.964 0 0 1-2.89-1.188c-.793-.802-1.188-1.765-1.188-2.89 0-1.115.395-2.063 1.187-2.844a3.966 3.966 0 0 1 2.89-1.187c1.115 0 2.063.395 2.844 1.187.792.781 1.188 1.73 1.188 2.844 0 1.125-.396 2.088-1.188 2.89-.78.792-1.729 1.188-2.843 1.188zm-3.172 2.687h6.297V68.37h-6.297V43.884zm12.825 0h5.89v3.079h.391c.74-1.188 1.781-2.125 3.125-2.813s2.797-1.031 4.36-1.031c2.947 0 5.187.896 6.718 2.687 1.542 1.792 2.313 4.24 2.313 7.344v15.22h-6.297V53.916c0-1.563-.401-2.776-1.203-3.64-.792-.865-1.907-1.298-3.344-1.298-1.698 0-3.068.656-4.11 1.969s-1.562 2.958-1.562 4.937V68.37h-6.281V43.884zm39.793 35.625c-3.104 0-5.682-.697-7.734-2.093-2.052-1.396-3.427-3.068-4.125-5.016l5.906-2.406c.51 1.219 1.292 2.177 2.344 2.875 1.062.708 2.265 1.062 3.61 1.062 1.978 0 3.551-.609 4.718-1.828 1.167-1.208 1.75-2.932 1.75-5.172V65.01h-.375c-.77 1.084-1.781 1.917-3.031 2.5-1.25.573-2.672.86-4.266.86-2.02 0-3.906-.521-5.656-1.563-1.74-1.041-3.136-2.51-4.188-4.406-1.052-1.906-1.578-4.125-1.578-6.656s.526-4.745 1.578-6.64c1.052-1.907 2.448-3.381 4.188-4.423a10.868 10.868 0 0 1 5.656-1.562c1.594 0 3.016.292 4.266.875 1.25.573 2.26 1.4 3.03 2.484h.376v-2.594h6.047v22.797c0 2.625-.51 4.896-1.531 6.813-1.021 1.927-2.48 3.411-4.375 4.453-1.886 1.042-4.089 1.562-6.61 1.562zm.094-16.859c1.76 0 3.26-.614 4.5-1.844 1.25-1.229 1.875-2.916 1.875-5.062 0-2.208-.615-3.912-1.844-5.11s-2.74-1.796-4.531-1.796-3.313.609-4.563 1.828c-1.25 1.208-1.875 2.9-1.875 5.078s.625 3.875 1.875 5.094c1.25 1.208 2.771 1.812 4.563 1.812z"/><path fill="#fff" d="M59.056 106.509h342.016V326.98H59.056z"/><path stroke="#bdbdbd" stroke-linejoin="round" d="M59.056 106.509h342.016V326.98H59.056z"/><path fill="#eee" d="M89.468 126.745h160.818v89.48H89.468zm193.846 0h87.339v10.646h-87.339zm0 15.78h87.339v10.646h-87.339zm0 15.781h87.339v10.646h-87.339z"/><path fill="#34a853" d="M298.215 171.218h70.299v10.645h-70.3z"/><path stroke="#34a853" stroke-linejoin="round" stroke-width="12" d="M298.215 171.218h70.299v10.645h-70.3z"/><path fill="#34a853" d="M290.23 201.347h78.268v43.056H290.23z"/><path stroke="#34a853" stroke-linejoin="round" stroke-width="12" d="M290.23 201.347h78.268v43.056H290.23z"/><path fill="#eee" d="M292.373 253.418h78.268v43.055h-78.268zM89.468 228.604h160.818v10.646H89.468zm0 16.703h160.818v10.646H89.468zm0 16.703h160.818v10.646H89.468z"/><path fill="#34a853" d="M89.468 295.415h160.818v10.646H89.468z"/><path stroke="#34a853" stroke-linejoin="round" stroke-width="12" d="M89.468 295.415h160.818v10.646H89.468z"/><path fill="#fdedc5" d="M468.604 106.508h200.63v115.56h-200.63zm230.952 0h200.63v115.56h-200.63zm0 147.657h200.63v115.559h-200.63z"/><path fill="#fff" d="M492.764 185.1h152.315v21.513H492.764z"/><path stroke="#34a853" stroke-linejoin="round" stroke-width="8" d="M492.764 185.1h152.315v21.513H492.764z"/><path fill="#34a853" d="M492.764 185.1h102.205v21.513H492.764z"/><path stroke="#34a853" stroke-linejoin="round" stroke-width="8" d="M492.764 185.1h102.205v21.513H492.764z"/><path fill="#fff" d="M723.716 185.1H876.03v21.513H723.716z"/><path stroke="#34a853" stroke-linejoin="round" stroke-width="8" d="M723.716 185.1H876.03v21.513H723.716z"/><path fill="#34a853" d="M723.716 185.1h87.338v21.513h-87.338z"/><path stroke="#34a853" stroke-linejoin="round" stroke-width="8" d="M723.716 185.1h87.338v21.513h-87.338z"/><path fill="#fff" d="M723.716 324.312H876.03v21.512H723.716z"/><path stroke="#34a853" stroke-linejoin="round" stroke-width="8" d="M723.716 324.312H876.03v21.512H723.716z"/><path fill="#34a853" d="M723.716 324.312h24.85v21.511h-24.85z"/><path stroke="#34a853" stroke-linejoin="round" stroke-width="8" d="M723.716 324.312h24.85v21.511h-24.85z"/><path d="M371.264 184.57c29.52 0 44.28 2.826 59.04 5.653 14.759 2.827 29.519 5.653 59.039 5.653"/><path stroke="#e94235" stroke-dasharray="16 12" stroke-linejoin="round" stroke-width="4" d="M371.264 184.57c29.52 0 44.28 2.826 59.04 5.653 7.38 1.413 14.759 2.827 23.984 3.887a238.454 238.454 0 0 0 9.245.88l1.821.131"/><path fill="#e94235" stroke="#e94235" stroke-width="4" d="m465.146 201.725 18.352-6.033-17.936-7.175z"/><path d="M370.88 240.376c198.253 0 396.505-16.881 396.505-33.763"/><path stroke="#e94235" stroke-dasharray="16 12" stroke-linejoin="round" stroke-width="4" d="M370.88 240.376c99.127 0 198.253-4.22 272.597-10.55 37.173-3.166 68.15-6.859 89.833-10.816a317.72 317.72 0 0 0 7.69-1.495c1.207-.251 2.376-.503 3.507-.756l1.02-.233"/><path fill="#e94235" stroke="#e94235" stroke-width="4" d="m748.257 222.543 13.802-13.515-19.26 1.48z"/><path d="M253.149 300.815c117.642 0 187.4 14.19 235.284 27.19 47.886 13.001 73.899 24.814 123.854 27.19 49.956 2.376 123.854-4.686 123.854-9.372"/><path stroke="#e94235" stroke-dasharray="16 12" stroke-linejoin="round" stroke-width="4" d="M253.149 300.815c117.642 0 187.4 14.19 235.284 27.19 47.886 13.001 73.899 24.814 123.854 27.19 24.978 1.188 55.941.016 80.66-2.038 6.18-.513 11.97-1.082 17.178-1.683.65-.075 1.292-.15 1.925-.227l.692-.085"/><path fill="#e94235" stroke="#e94235" stroke-width="4" d="m714.212 357.604 16.228-10.48-19.168-2.403z"/><path d="M458.762 44.218h433.764v43.055H458.762z"/><path fill="#424242" fill-rule="nonzero" d="M469.402 35.16h5.047c.907 0 1.73.188 2.47.563a4.29 4.29 0 0 1 1.765 1.593c.427.688.64 1.474.64 2.36 0 .875-.213 1.661-.64 2.36a4.398 4.398 0 0 1-1.766 1.609c-.74.375-1.562.562-2.469.562h-2.343v5.266h-2.704V35.16zm5.125 6.5c.667 0 1.188-.193 1.563-.578a1.95 1.95 0 0 0 .578-1.406c0-.552-.193-1.016-.578-1.39-.375-.386-.896-.579-1.563-.579h-2.421v3.953h2.421zm6.716-2.39h2.453v1.359h.172c.25-.48.64-.875 1.172-1.188s1.12-.468 1.766-.468c.468 0 .895.073 1.28.218v2.625a9.032 9.032 0 0 0-.921-.296c-.24-.063-.5-.094-.781-.094-.771 0-1.386.281-1.844.844-.448.562-.672 1.27-.672 2.125v5.078h-2.625V39.27zm12.721 10.515c-1.01 0-1.927-.229-2.75-.687a5.01 5.01 0 0 1-1.906-1.938c-.458-.823-.687-1.745-.687-2.765 0-.98.224-1.886.671-2.72a5.244 5.244 0 0 1 1.891-1.984 5.028 5.028 0 0 1 2.672-.734c1.062 0 1.969.23 2.719.688a4.395 4.395 0 0 1 1.734 1.859c.396.781.594 1.65.594 2.61 0 .301-.021.593-.063.874h-7.656c.135.813.458 1.433.969 1.86.51.416 1.125.625 1.844.625.604 0 1.12-.13 1.546-.391.438-.26.787-.61 1.047-1.047l2.11 1.031c-1.042 1.813-2.62 2.72-4.735 2.72zm2.422-6.656a2.059 2.059 0 0 0-.36-.938 2.312 2.312 0 0 0-.859-.78c-.364-.21-.791-.313-1.28-.313-.626 0-1.162.182-1.61.547-.448.364-.771.859-.969 1.484h5.078zm5.43-1.61h-1.812v-2.25h1.813v-.562c0-1.156.344-2.062 1.031-2.719.698-.666 1.61-1 2.734-1 .636 0 1.188.073 1.657.219v2.563a5.251 5.251 0 0 0-.672-.235 2.533 2.533 0 0 0-.672-.078c-.438 0-.792.125-1.063.375-.26.25-.39.599-.39 1.047v.39h2.5v2.25h-2.5v7.954h-2.625V41.52zm11.348 8.266c-1.01 0-1.927-.229-2.75-.687a5.01 5.01 0 0 1-1.906-1.938c-.458-.823-.687-1.745-.687-2.765 0-.98.223-1.886.671-2.72a5.244 5.244 0 0 1 1.891-1.984 5.028 5.028 0 0 1 2.672-.734c1.062 0 1.969.23 2.719.688a4.395 4.395 0 0 1 1.734 1.859c.396.781.594 1.65.594 2.61 0 .301-.021.593-.063.874h-7.656c.135.813.458 1.433.969 1.86.51.416 1.125.625 1.844.625.604 0 1.12-.13 1.546-.391.438-.26.787-.61 1.047-1.047l2.11 1.031c-1.042 1.813-2.62 2.72-4.735 2.72zm2.422-6.656a2.059 2.059 0 0 0-.36-.938 2.312 2.312 0 0 0-.859-.78c-.364-.21-.791-.313-1.28-.313-.626 0-1.162.182-1.61.547-.448.364-.771.859-.969 1.484h5.078zm8.675 6.5c-.51 0-.98-.073-1.407-.219a2.847 2.847 0 0 1-1.031-.64c-.625-.594-.937-1.448-.937-2.563V41.52h-1.782v-2.25h1.782v-2.875h2.609v2.875h2.5v2.25h-2.5v4.218c0 .521.114.89.344 1.11.187.218.51.328.968.328.25 0 .459-.031.625-.094.167-.073.386-.187.657-.344v2.547a4.876 4.876 0 0 1-1.828.344zm8.359.156c-1.021 0-1.943-.229-2.766-.687a4.901 4.901 0 0 1-1.906-1.922c-.458-.834-.687-1.766-.687-2.797 0-1.042.229-1.974.687-2.797a4.901 4.901 0 0 1 1.906-1.922c.823-.469 1.745-.703 2.766-.703 1.135 0 2.11.245 2.922.734a4.134 4.134 0 0 1 1.765 2.063l-2.406 1c-.427-.906-1.187-1.36-2.281-1.36-.802 0-1.458.277-1.969.829-.51.541-.765 1.26-.765 2.156 0 .906.255 1.635.765 2.187.51.542 1.167.813 1.969.813 1.104 0 1.906-.484 2.406-1.453l2.375 1.047c-.437.895-1.062 1.588-1.875 2.078-.812.49-1.781.734-2.906.734zm6.663-14.625h2.625v3.61l-.172 1.78h.172c.292-.478.714-.864 1.266-1.155a3.913 3.913 0 0 1 1.828-.438c1.24 0 2.187.37 2.843 1.11.667.739 1 1.76 1 3.062v6.344h-2.625v-6.016c0-.656-.177-1.161-.53-1.516-.355-.364-.824-.546-1.407-.546-.698 0-1.27.28-1.719.843-.437.552-.656 1.235-.656 2.047v5.188h-2.625V35.16zm16.72 4.11h2.453v1.28h.172c.302-.489.734-.874 1.297-1.155a3.88 3.88 0 0 1 1.812-.438c1.23 0 2.162.375 2.797 1.125.646.74.969 1.755.969 3.047v6.344h-2.625v-6.016c0-.656-.167-1.161-.5-1.516-.333-.364-.797-.546-1.39-.546-.709 0-1.282.276-1.72.828-.426.541-.64 1.224-.64 2.047v5.203h-2.625V39.27zm16.761 10.515c-1.01 0-1.927-.229-2.75-.687a5.01 5.01 0 0 1-1.906-1.938c-.458-.823-.688-1.745-.688-2.765 0-.98.224-1.886.672-2.72a5.244 5.244 0 0 1 1.891-1.984 5.028 5.028 0 0 1 2.672-.734c1.062 0 1.969.23 2.719.688a4.395 4.395 0 0 1 1.734 1.859c.396.781.594 1.65.594 2.61 0 .301-.021.593-.063.874h-7.656c.135.813.458 1.433.969 1.86.51.416 1.125.625 1.843.625.605 0 1.12-.13 1.547-.391.438-.26.787-.61 1.047-1.047l2.11 1.031c-1.042 1.813-2.62 2.72-4.735 2.72zm2.422-6.656a2.059 2.059 0 0 0-.36-.938 2.312 2.312 0 0 0-.859-.78c-.364-.21-.791-.313-1.28-.313-.626 0-1.162.182-1.61.547-.448.364-.771.859-.969 1.484h5.078zm6.853 1.156-3.516-5.015h3.094l1.937 2.921h.125l1.828-2.921h3.188l-3.578 5.015 3.578 5.188H585.6l-1.953-2.985h-.125l-1.922 2.985h-3.094l3.532-5.188zm12.641 5.344c-.51 0-.979-.073-1.406-.219a2.847 2.847 0 0 1-1.031-.64c-.625-.594-.938-1.448-.938-2.563V41.52h-1.78v-2.25h1.78v-2.875h2.61v2.875h2.5v2.25h-2.5v4.218c0 .521.114.89.344 1.11.187.218.51.328.968.328.25 0 .459-.031.625-.094.167-.073.386-.187.657-.344v2.547a4.876 4.876 0 0 1-1.829.344zm8.525-10.36h2.453v1.25h.156c.281-.447.688-.817 1.219-1.109.542-.302 1.156-.453 1.844-.453.927 0 1.765.23 2.515.688s1.339 1.104 1.766 1.937c.427.823.64 1.755.64 2.797 0 1.052-.213 1.99-.64 2.812a4.801 4.801 0 0 1-1.766 1.907c-.75.458-1.588.687-2.515.687-.688 0-1.302-.146-1.844-.437-.542-.292-.948-.657-1.219-1.094h-.156l.156 1.437v4.094h-2.61V39.27zm5.219 8.11c.49 0 .947-.125 1.375-.375a2.84 2.84 0 0 0 1.015-1.063c.26-.458.39-.979.39-1.562 0-.594-.13-1.115-.39-1.563a2.59 2.59 0 0 0-1.015-1.046 2.676 2.676 0 0 0-2.735 0 2.7 2.7 0 0 0-1.031 1.046c-.25.448-.375.97-.375 1.563 0 .583.125 1.104.375 1.562.26.448.604.802 1.031 1.063.427.25.88.375 1.36.375zm10.524 2.406c-1.083 0-1.974-.312-2.672-.937-.687-.636-1.031-1.47-1.031-2.5 0-.677.177-1.276.531-1.797.365-.521.86-.922 1.484-1.203s1.318-.422 2.079-.422c1.052 0 1.953.156 2.703.469v-.438c0-.562-.214-1.016-.64-1.36-.418-.354-.975-.53-1.673-.53-.49 0-.958.114-1.406.343a3.317 3.317 0 0 0-1.094.86l-1.687-1.313c.49-.646 1.11-1.14 1.86-1.484s1.562-.516 2.437-.516c1.562 0 2.75.36 3.562 1.078s1.219 1.771 1.219 3.156v6.282h-2.578v-1.047h-.157c-.312.406-.718.734-1.218.984s-1.073.375-1.72.375zm.61-2.031c.76 0 1.364-.245 1.812-.734.448-.49.672-1.058.672-1.704a4.912 4.912 0 0 0-2.14-.484c-1.366 0-2.048.505-2.048 1.516 0 .416.146.755.438 1.015.302.26.724.39 1.265.39zm12.088 6.36c-1.292 0-2.365-.292-3.219-.876-.854-.573-1.427-1.265-1.719-2.078l2.454-1c.208.5.53.896.968 1.188.448.291.953.437 1.516.437.823 0 1.48-.255 1.969-.765.49-.5.734-1.214.734-2.141v-.813h-.172a2.983 2.983 0 0 1-1.25 1.047c-.52.24-1.114.36-1.781.36-.844 0-1.63-.214-2.36-.641-.718-.437-1.301-1.052-1.75-1.844-.437-.802-.656-1.729-.656-2.781s.22-1.974.657-2.766c.448-.791 1.03-1.4 1.75-1.828a4.506 4.506 0 0 1 2.359-.656c.667 0 1.26.12 1.781.36.521.239.938.583 1.25 1.03h.172V39.27h2.516v9.5c0 1.093-.214 2.041-.64 2.843a4.395 4.395 0 0 1-1.829 1.844c-.781.438-1.698.656-2.75.656zm.031-7.016a2.6 2.6 0 0 0 1.89-.766c.522-.52.782-1.23.782-2.125 0-.917-.26-1.625-.781-2.125-.51-.5-1.14-.75-1.89-.75a2.6 2.6 0 0 0-1.891.766c-.521.5-.782 1.203-.782 2.109s.26 1.615.782 2.125a2.6 2.6 0 0 0 1.89.766zm12.427 2.687c-1.01 0-1.927-.229-2.75-.687a5.01 5.01 0 0 1-1.906-1.938c-.458-.823-.688-1.745-.688-2.765 0-.98.224-1.886.672-2.72a5.244 5.244 0 0 1 1.89-1.984 5.028 5.028 0 0 1 2.673-.734c1.062 0 1.969.23 2.719.688a4.395 4.395 0 0 1 1.734 1.859c.396.781.594 1.65.594 2.61 0 .301-.021.593-.063.874h-7.656c.135.813.458 1.433.969 1.86.51.416 1.125.625 1.843.625.605 0 1.12-.13 1.547-.391.438-.26.787-.61 1.047-1.047l2.11 1.031c-1.042 1.813-2.62 2.72-4.735 2.72zm2.422-6.656a2.059 2.059 0 0 0-.36-.938 2.312 2.312 0 0 0-.859-.78c-.364-.21-.791-.313-1.281-.313-.625 0-1.161.182-1.61.547-.447.364-.77.859-.968 1.484h5.078zm8.512 6.656c-1.24 0-2.245-.25-3.016-.75-.76-.51-1.291-1.172-1.593-1.984l2.328-1.016c.218.48.52.844.906 1.094.396.24.854.36 1.375.36.48 0 .88-.074 1.203-.22.323-.156.484-.406.484-.75 0-.333-.15-.583-.453-.75-.291-.166-.729-.317-1.312-.453l-1.203-.265c-.823-.198-1.51-.558-2.063-1.078-.542-.532-.812-1.193-.812-1.985 0-.583.177-1.11.53-1.578.355-.469.834-.828 1.438-1.078.605-.25 1.276-.375 2.016-.375 2.104 0 3.51.74 4.219 2.219l-2.25.984c-.396-.729-1.031-1.094-1.906-1.094-.459 0-.823.084-1.094.25-.26.167-.39.38-.39.641 0 .48.452.839 1.359 1.078l1.5.36c1.01.25 1.77.635 2.28 1.156.522.52.782 1.161.782 1.922 0 .656-.193 1.234-.578 1.734-.375.5-.896.89-1.563 1.172-.656.27-1.385.406-2.187.406zm14.1 0c-.74 0-1.407-.146-2-.437a3.327 3.327 0 0 1-1.36-1.203c-.313-.51-.469-1.094-.469-1.75 0-1.084.406-1.928 1.219-2.532s1.838-.906 3.078-.906c.615 0 1.182.068 1.703.203.531.125.938.276 1.219.453v-.625c0-.76-.271-1.37-.813-1.828-.53-.458-1.203-.687-2.015-.687a3.42 3.42 0 0 0-1.578.375c-.48.24-.86.583-1.141 1.03l-1.281-.968a4.125 4.125 0 0 1 1.656-1.437c.708-.344 1.49-.516 2.344-.516 1.385 0 2.468.365 3.25 1.094.791.719 1.187 1.708 1.187 2.969v6.453h-1.61V48.02h-.093c-.292.49-.73.906-1.312 1.25s-1.245.515-1.985.515zm.171-1.5c.573 0 1.104-.146 1.594-.437a3.33 3.33 0 0 0 1.172-1.172c.302-.5.453-1.042.453-1.625-.323-.209-.719-.38-1.188-.516s-.963-.203-1.484-.203c-.927 0-1.63.193-2.11.578a1.851 1.851 0 0 0-.703 1.5c0 .563.214 1.016.641 1.36s.969.515 1.625.515zm15.526 1.5c-1.22 0-2.151-.36-2.797-1.078-.646-.719-.969-1.724-.969-3.016V39.27h1.688v6.156c0 .979.218 1.698.656 2.156.448.448 1.041.672 1.781.672.583 0 1.094-.151 1.531-.453a3.242 3.242 0 0 0 1.047-1.203c.25-.5.375-1.021.375-1.563V39.27h1.688v10.203h-1.61v-1.485h-.078c-.281.51-.729.938-1.344 1.282s-1.27.515-1.968.515zm10.98 0c-1.084 0-1.996-.255-2.735-.765a4.243 4.243 0 0 1-1.563-1.97l1.531-.671c.25.604.625 1.073 1.125 1.406a2.9 2.9 0 0 0 1.641.5c.646 0 1.193-.125 1.64-.375.459-.26.688-.635.688-1.125 0-.417-.182-.755-.547-1.015-.354-.26-.916-.485-1.687-.672l-1.25-.328c-.813-.198-1.48-.537-2-1.016-.521-.48-.781-1.1-.781-1.86 0-.583.177-1.098.53-1.546.355-.448.824-.792 1.407-1.032a5.041 5.041 0 0 1 1.906-.359c.896 0 1.693.193 2.39.578.699.386 1.194.927 1.485 1.625l-1.468.672c-.459-.906-1.266-1.36-2.422-1.36-.563 0-1.058.13-1.485.391-.416.26-.625.589-.625.985 0 .375.146.682.438.922.302.229.745.416 1.328.562l1.484.375c1 .26 1.75.64 2.25 1.14.51.5.766 1.11.766 1.829a2.66 2.66 0 0 1-.547 1.656c-.354.469-.838.828-1.453 1.078s-1.297.375-2.047.375zm10.543 0c-.968 0-1.843-.229-2.625-.687a4.925 4.925 0 0 1-1.812-1.938c-.427-.823-.64-1.745-.64-2.765 0-.98.202-1.886.609-2.72s.984-1.494 1.734-1.984c.76-.49 1.625-.734 2.594-.734 1 0 1.864.224 2.594.672a4.353 4.353 0 0 1 1.703 1.844c.396.791.593 1.692.593 2.703 0 .156-.015.328-.046.515h-8.079c.042.771.23 1.427.563 1.97.333.53.755.931 1.266 1.202.51.26 1.046.39 1.609.39 1.333 0 2.338-.614 3.016-1.843l1.437.703a4.989 4.989 0 0 1-1.766 1.953c-.76.48-1.677.72-2.75.72zm2.938-6.5a3.108 3.108 0 0 0-.36-1.265c-.208-.428-.541-.787-1-1.079-.447-.302-1.02-.453-1.718-.453-.802 0-1.485.26-2.047.782-.552.51-.917 1.182-1.094 2.015h6.219zm3.791-4.015h1.61v1.64h.078c.208-.562.599-1.026 1.172-1.39.572-.365 1.171-.547 1.796-.547.47 0 .87.067 1.204.203v1.844a3.107 3.107 0 0 0-1.438-.329c-.5 0-.958.141-1.375.422a3.1 3.1 0 0 0-.984 1.14 3.18 3.18 0 0 0-.375 1.517v5.703h-1.688V39.27zm12.14 0h1.61v1.5h.078c.302-.521.744-.954 1.328-1.297a3.604 3.604 0 0 1 1.86-.516c.75 0 1.4.182 1.952.547.552.354.948.828 1.188 1.422a4.041 4.041 0 0 1 1.422-1.422c.593-.365 1.286-.547 2.078-.547 1.177 0 2.057.36 2.64 1.078.594.708.891 1.672.891 2.89v6.548h-1.672V43.19c0-.948-.193-1.635-.578-2.062-.385-.427-.958-.64-1.719-.64-.51 0-.974.15-1.39.452a3.07 3.07 0 0 0-.969 1.172 3.702 3.702 0 0 0-.344 1.594v5.766H731.9v-6.266c0-.958-.193-1.651-.578-2.078-.385-.427-.953-.64-1.703-.64-.5 0-.959.15-1.375.452a3.118 3.118 0 0 0-.985 1.204 3.816 3.816 0 0 0-.343 1.609v5.719h-1.688V39.27zm20.67 10.515c-.74 0-1.406-.146-2-.437a3.327 3.327 0 0 1-1.36-1.203c-.312-.51-.468-1.094-.468-1.75 0-1.084.406-1.928 1.219-2.532s1.838-.906 3.078-.906c.615 0 1.182.068 1.703.203.531.125.938.276 1.219.453v-.625c0-.76-.271-1.37-.813-1.828-.53-.458-1.203-.687-2.015-.687a3.42 3.42 0 0 0-1.578.375c-.48.24-.86.583-1.141 1.03l-1.281-.968a4.125 4.125 0 0 1 1.656-1.437c.708-.344 1.49-.516 2.344-.516 1.385 0 2.468.365 3.25 1.094.791.719 1.187 1.708 1.187 2.969v6.453h-1.61V48.02h-.093c-.292.49-.73.906-1.312 1.25-.584.343-1.245.515-1.985.515zm.172-1.5c.573 0 1.104-.146 1.594-.437a3.33 3.33 0 0 0 1.172-1.172c.302-.5.453-1.042.453-1.625-.323-.209-.719-.38-1.188-.516s-.963-.203-1.484-.203c-.927 0-1.63.193-2.11.578a1.851 1.851 0 0 0-.703 1.5c0 .563.214 1.016.641 1.36.427.343.969.515 1.625.515zm10.108.547-4.22-9.562h1.845l3.203 7.578h.03l3.079-7.578h1.844l-6.297 14.515h-1.766l2.282-4.953zm10.725-9.562h1.813l3.172 8.203h.03l3.204-8.203h1.781l-4.156 10.203h-1.719l-4.125-10.203zm12.405-1.875c-.333 0-.62-.12-.86-.36a1.176 1.176 0 0 1-.359-.86c0-.343.12-.63.36-.859.24-.24.526-.359.86-.359.343 0 .63.12.859.36.24.229.359.515.359.859 0 .333-.12.62-.36.86a1.14 1.14 0 0 1-.859.359zm-.844 1.875h1.704v10.203h-1.704V39.27zm7.911 10.515c-1.083 0-1.995-.255-2.734-.765a4.243 4.243 0 0 1-1.563-1.97l1.531-.671c.25.604.625 1.073 1.125 1.406a2.9 2.9 0 0 0 1.641.5c.646 0 1.193-.125 1.64-.375.459-.26.688-.635.688-1.125 0-.417-.182-.755-.547-1.015-.354-.26-.916-.485-1.687-.672l-1.25-.328c-.813-.198-1.48-.537-2-1.016-.521-.48-.782-1.1-.782-1.86 0-.583.178-1.098.532-1.546.354-.448.823-.792 1.406-1.032a5.041 5.041 0 0 1 1.906-.359c.896 0 1.693.193 2.39.578.699.386 1.194.927 1.485 1.625l-1.469.672c-.458-.906-1.265-1.36-2.421-1.36-.563 0-1.058.13-1.485.391-.416.26-.625.589-.625.985 0 .375.146.682.438.922.302.229.745.416 1.328.562l1.484.375c1 .26 1.75.64 2.25 1.14.51.5.766 1.11.766 1.829a2.66 2.66 0 0 1-.547 1.656c-.354.469-.839.828-1.453 1.078-.615.25-1.297.375-2.047.375zm6.813-12.39c-.333 0-.62-.12-.86-.36a1.176 1.176 0 0 1-.359-.86c0-.343.12-.63.36-.859.24-.24.526-.359.86-.359.343 0 .63.12.858.36.24.229.36.515.36.859 0 .333-.12.62-.36.86a1.14 1.14 0 0 1-.859.359zm-.844 1.875h1.703v10.203h-1.703V39.27zm8.186 10.359c-.417 0-.802-.063-1.156-.188a2.627 2.627 0 0 1-.89-.546c-.532-.51-.798-1.214-.798-2.11v-5.969h-1.781V39.27h1.781v-2.875h1.703v2.875h2.5v1.546h-2.5v5.563c0 .552.105.963.313 1.234.25.292.614.438 1.094.438a1.94 1.94 0 0 0 1.125-.344v1.672a2.17 2.17 0 0 1-.61.187 4.08 4.08 0 0 1-.781.063zm11.288.156c-.74 0-1.406-.146-2-.437a3.327 3.327 0 0 1-1.36-1.203c-.312-.51-.468-1.094-.468-1.75 0-1.084.406-1.928 1.219-2.532s1.838-.906 3.078-.906c.614 0 1.182.068 1.703.203.531.125.937.276 1.219.453v-.625c0-.76-.271-1.37-.813-1.828-.531-.458-1.203-.687-2.015-.687a3.42 3.42 0 0 0-1.579.375c-.479.24-.859.583-1.14 1.03l-1.281-.968a4.125 4.125 0 0 1 1.656-1.437c.708-.344 1.49-.516 2.344-.516 1.385 0 2.468.365 3.25 1.094.791.719 1.187 1.708 1.187 2.969v6.453h-1.61V48.02h-.093c-.292.49-.73.906-1.313 1.25-.583.343-1.244.515-1.984.515zm.172-1.5c.573 0 1.104-.146 1.594-.437a3.33 3.33 0 0 0 1.172-1.172c.302-.5.453-1.042.453-1.625-.323-.209-.719-.38-1.188-.516s-.963-.203-1.484-.203c-.927 0-1.63.193-2.11.578a1.851 1.851 0 0 0-.703 1.5c0 .563.214 1.016.641 1.36.427.343.969.515 1.625.515zm10.92 1.344c-.417 0-.802-.063-1.156-.188a2.627 2.627 0 0 1-.89-.546c-.532-.51-.798-1.214-.798-2.11v-5.969h-1.781V39.27h1.781v-2.875h1.703v2.875h2.5v1.546h-2.5v5.563c0 .552.105.963.313 1.234.25.292.614.438 1.094.438a1.94 1.94 0 0 0 1.125-.344v1.672a2.17 2.17 0 0 1-.61.187 4.08 4.08 0 0 1-.781.063zm8.038-14.469h1.688v14.313h-1.688V35.16zm8.808 14.625c-1 0-1.901-.24-2.704-.719a5.079 5.079 0 0 1-1.859-1.953c-.448-.823-.672-1.734-.672-2.734s.224-1.912.672-2.734a5.05 5.05 0 0 1 1.86-1.97c.802-.478 1.703-.718 2.703-.718s1.9.24 2.703.719a5.014 5.014 0 0 1 1.875 1.969c.448.822.672 1.734.672 2.734s-.224 1.911-.672 2.734a5.043 5.043 0 0 1-1.875 1.953c-.802.48-1.703.72-2.703.72zm0-1.531c.635 0 1.218-.156 1.75-.469.541-.312.974-.76 1.296-1.344.334-.593.5-1.28.5-2.062 0-.792-.166-1.48-.5-2.063a3.407 3.407 0 0 0-1.296-1.359 3.389 3.389 0 0 0-1.75-.469c-.625 0-1.214.157-1.766.469-.542.313-.974.766-1.297 1.36-.323.583-.484 1.27-.484 2.062 0 .781.161 1.469.484 2.062a3.429 3.429 0 0 0 1.297 1.344c.552.313 1.14.469 1.766.469zm5.907-8.984h1.766l2.406 8.062h.031l2.578-8.062h1.735l2.578 8.046h.031l2.422-8.046h1.719l-3.313 10.203h-1.719l-2.64-8.141-2.61 8.14h-1.703l-3.28-10.202zm-376.713 24h1.61v1.515h.078c.312-.51.776-.943 1.39-1.297a4.172 4.172 0 0 1 2.094-.531c.917 0 1.745.234 2.485.703.74.458 1.322 1.104 1.75 1.938.427.823.64 1.75.64 2.78s-.213 1.96-.64 2.782-1.01 1.469-1.75 1.938c-.74.458-1.568.687-2.485.687-.77 0-1.469-.172-2.094-.515-.614-.355-1.078-.787-1.39-1.297h-.078l.078 1.406v4.406h-1.688V63.27zm5 8.984a3.1 3.1 0 0 0 1.657-.484c.52-.323.932-.777 1.234-1.36.312-.583.469-1.26.469-2.031 0-.781-.157-1.464-.47-2.047a3.397 3.397 0 0 0-1.233-1.36 3.092 3.092 0 0 0-1.657-.484c-.604 0-1.166.162-1.687.485-.51.323-.922.776-1.235 1.359s-.468 1.266-.468 2.047c0 .77.156 1.448.468 2.031s.724 1.037 1.235 1.36c.52.322 1.083.484 1.687.484zm6.938-8.984h1.61v1.64h.078c.208-.562.599-1.026 1.172-1.39.573-.365 1.172-.547 1.797-.547.468 0 .87.067 1.203.203v1.844a3.107 3.107 0 0 0-1.438-.329c-.5 0-.958.141-1.375.422a3.1 3.1 0 0 0-.984 1.14 3.18 3.18 0 0 0-.375 1.517v5.703h-1.688V63.27zm8.5-1.875c-.333 0-.62-.12-.859-.36-.24-.24-.36-.526-.36-.86 0-.343.12-.63.36-.859.24-.24.526-.359.86-.359.343 0 .63.12.859.36.24.229.36.515.36.859 0 .333-.12.62-.36.86-.23.239-.516.359-.86.359zm-.843 1.875h1.703v10.203h-1.703V63.27zm8.95 10.515c-1 0-1.9-.24-2.702-.719a5.079 5.079 0 0 1-1.86-1.953c-.448-.823-.671-1.734-.671-2.734s.223-1.912.671-2.734a5.05 5.05 0 0 1 1.86-1.97c.802-.478 1.703-.718 2.703-.718s1.9.24 2.703.719a5.014 5.014 0 0 1 1.875 1.969c.448.822.672 1.734.672 2.734s-.224 1.911-.672 2.734a5.043 5.043 0 0 1-1.875 1.953c-.802.48-1.703.72-2.703.72zm0-1.531a3.38 3.38 0 0 0 1.75-.469c.543-.312.975-.76 1.298-1.344.333-.593.5-1.28.5-2.062 0-.792-.167-1.48-.5-2.063-.323-.593-.755-1.046-1.297-1.359a3.389 3.389 0 0 0-1.75-.469c-.625 0-1.214.157-1.766.469a3.412 3.412 0 0 0-1.297 1.36c-.323.583-.484 1.27-.484 2.062 0 .781.161 1.469.484 2.062a3.429 3.429 0 0 0 1.297 1.344c.552.313 1.14.469 1.766.469zm7.033-8.984h1.61v1.64h.078c.208-.562.599-1.026 1.172-1.39.573-.365 1.172-.547 1.797-.547.468 0 .87.067 1.203.203v1.844a3.107 3.107 0 0 0-1.438-.329c-.5 0-.958.141-1.375.422a3.1 3.1 0 0 0-.984 1.14 3.18 3.18 0 0 0-.375 1.517v5.703h-1.688V63.27zm8.5-1.875c-.333 0-.62-.12-.859-.36-.24-.24-.36-.526-.36-.86 0-.343.12-.63.36-.859.24-.24.526-.359.86-.359.343 0 .63.12.859.36.24.229.36.515.36.859 0 .333-.12.62-.36.86-.23.239-.516.359-.86.359zm-.843 1.875h1.703v10.203h-1.703V63.27zm8.185 10.359c-.416 0-.802-.063-1.156-.188a2.627 2.627 0 0 1-.89-.546c-.532-.51-.797-1.214-.797-2.11v-5.969h-1.782V63.27h1.782v-2.875h1.703v2.875h2.5v1.546h-2.5v5.563c0 .552.104.963.312 1.234.25.292.615.438 1.094.438a1.94 1.94 0 0 0 1.125-.344v1.672a2.17 2.17 0 0 1-.61.187 4.08 4.08 0 0 1-.78.063zm6.608-.797-4.219-9.562h1.844l3.203 7.578h.031l3.078-7.578h1.844l-6.297 14.515h-1.766l2.282-4.953zm6.92.766c-.354 0-.657-.125-.907-.375s-.375-.552-.375-.907c0-.354.125-.65.375-.89.25-.25.553-.375.907-.375.364 0 .666.125.906.375.25.24.375.536.375.89 0 .355-.125.657-.375.907-.24.25-.542.375-.906.375zm10.772-12.828h-4.032v-1.61h9.72v1.61h-4v12.703h-1.688V60.77zm7.478-1.61h1.688v4.219l-.078 1.39h.078c.281-.52.724-.953 1.328-1.296a4.03 4.03 0 0 1 2-.516c1.24 0 2.182.365 2.828 1.094.656.719.984 1.677.984 2.875v6.547h-1.687V67.19c0-.916-.234-1.593-.703-2.03-.469-.449-1.078-.673-1.828-.673-.532 0-1.021.162-1.469.485-.448.323-.802.74-1.063 1.25-.26.5-.39 1.02-.39 1.562v5.688h-1.688V59.16zm12.28 2.235c-.333 0-.62-.12-.859-.36s-.36-.526-.36-.86c0-.343.12-.63.36-.859.24-.24.526-.359.86-.359.343 0 .63.12.859.36.24.229.36.515.36.859 0 .333-.12.62-.36.86-.23.239-.516.359-.86.359zm-.843 1.875h1.703v10.203h-1.703V63.27zm7.91 10.515c-1.083 0-1.995-.255-2.734-.765a4.243 4.243 0 0 1-1.563-1.97l1.532-.671c.25.604.625 1.073 1.125 1.406.5.333 1.046.5 1.64.5.646 0 1.193-.125 1.64-.375.46-.26.688-.635.688-1.125 0-.417-.182-.755-.547-1.015-.354-.26-.916-.485-1.687-.672l-1.25-.328c-.813-.198-1.48-.537-2-1.016-.52-.48-.781-1.1-.781-1.86 0-.583.177-1.098.53-1.546.355-.448.824-.792 1.407-1.032a5.041 5.041 0 0 1 1.906-.359c.896 0 1.693.193 2.391.578.698.386 1.193.927 1.484 1.625l-1.468.672c-.459-.906-1.266-1.36-2.422-1.36-.563 0-1.057.13-1.485.391-.416.26-.625.589-.625.985 0 .375.146.682.438.922.302.229.745.416 1.328.562l1.484.375c1 .26 1.75.64 2.25 1.14.51.5.766 1.11.766 1.829a2.66 2.66 0 0 1-.547 1.656c-.354.469-.838.828-1.453 1.078-.615.25-1.297.375-2.047.375zm15.163 0c-.98 0-1.865-.234-2.657-.703a5 5 0 0 1-1.843-1.937c-.438-.823-.657-1.745-.657-2.766 0-1.031.22-1.958.657-2.781A4.862 4.862 0 0 1 584 63.66c.792-.469 1.678-.703 2.657-.703 1.114 0 2.047.255 2.797.766a4.225 4.225 0 0 1 1.609 2.047l-1.547.64c-.25-.625-.625-1.099-1.125-1.422-.5-.333-1.104-.5-1.812-.5a3.05 3.05 0 0 0-1.672.5c-.521.323-.938.782-1.25 1.375-.313.584-.47 1.255-.47 2.016s.157 1.432.47 2.016.729 1.041 1.25 1.375c.52.322 1.078.484 1.672.484.718 0 1.338-.167 1.859-.5.52-.333.906-.807 1.156-1.422l1.531.64a4.55 4.55 0 0 1-1.687 2.048c-.76.51-1.688.765-2.781.765zm9.46 0c-.74 0-1.406-.146-2-.437a3.327 3.327 0 0 1-1.36-1.203c-.312-.51-.468-1.094-.468-1.75 0-1.084.406-1.928 1.219-2.532s1.838-.906 3.078-.906c.615 0 1.182.068 1.703.203.531.125.938.276 1.219.453v-.625c0-.76-.27-1.37-.813-1.828-.53-.458-1.203-.687-2.015-.687a3.42 3.42 0 0 0-1.578.375c-.48.24-.86.583-1.141 1.03l-1.281-.968a4.125 4.125 0 0 1 1.656-1.437c.708-.344 1.49-.516 2.344-.516 1.385 0 2.469.365 3.25 1.094.791.719 1.187 1.708 1.187 2.969v6.453h-1.61V72.02h-.093c-.291.49-.729.906-1.312 1.25-.584.343-1.245.515-1.985.515zm.172-1.5c.573 0 1.104-.146 1.594-.437a3.33 3.33 0 0 0 1.172-1.172c.302-.5.453-1.042.453-1.625-.323-.209-.719-.38-1.188-.516s-.963-.203-1.484-.203c-.927 0-1.63.193-2.11.578a1.851 1.851 0 0 0-.702 1.5c0 .563.213 1.016.64 1.36.427.343.969.515 1.625.515zm7.198-9.015h1.61v1.5h.078c.281-.5.729-.928 1.344-1.282a3.88 3.88 0 0 1 1.968-.531c1.219 0 2.151.36 2.797 1.078.656.708.985 1.672.985 2.89v6.548h-1.704V67.19c0-.948-.229-1.635-.687-2.062-.448-.427-1.068-.64-1.86-.64a2.47 2.47 0 0 0-1.468.468 3.19 3.19 0 0 0-1.016 1.203c-.24.5-.36 1.026-.36 1.578v5.735h-1.687V63.27zm19.407 10.515c-1.083 0-1.995-.255-2.734-.765a4.243 4.243 0 0 1-1.563-1.97l1.532-.671c.25.604.625 1.073 1.125 1.406.5.333 1.046.5 1.64.5.646 0 1.193-.125 1.64-.375.46-.26.688-.635.688-1.125 0-.417-.182-.755-.547-1.015-.354-.26-.916-.485-1.687-.672l-1.25-.328c-.813-.198-1.48-.537-2-1.016-.52-.48-.781-1.1-.781-1.86 0-.583.177-1.098.53-1.546.355-.448.824-.792 1.407-1.032a5.041 5.041 0 0 1 1.906-.359c.896 0 1.693.193 2.391.578.698.386 1.193.927 1.484 1.625l-1.468.672c-.459-.906-1.266-1.36-2.422-1.36-.563 0-1.058.13-1.485.391-.416.26-.625.589-.625.985 0 .375.146.682.438.922.302.229.745.416 1.328.562l1.484.375c1 .26 1.75.64 2.25 1.14.51.5.766 1.11.766 1.829a2.66 2.66 0 0 1-.547 1.656c-.354.469-.838.828-1.453 1.078-.615.25-1.297.375-2.047.375zm5.735-10.515h1.61v1.515h.078c.312-.51.776-.943 1.39-1.297a4.172 4.172 0 0 1 2.094-.531c.917 0 1.745.234 2.484.703.74.458 1.323 1.104 1.75 1.938.427.823.641 1.75.641 2.78s-.214 1.96-.64 2.782c-.428.823-1.011 1.469-1.75 1.938-.74.458-1.568.687-2.485.687-.77 0-1.469-.172-2.094-.515-.614-.355-1.078-.787-1.39-1.297h-.078l.078 1.406v4.406h-1.688V63.27zm5 8.984c.583 0 1.136-.162 1.656-.484a3.401 3.401 0 0 0 1.235-1.36c.312-.583.469-1.26.469-2.031 0-.781-.157-1.464-.47-2.047a3.397 3.397 0 0 0-1.234-1.36 3.092 3.092 0 0 0-1.656-.484 3.14 3.14 0 0 0-1.687.485c-.51.323-.922.776-1.235 1.359s-.468 1.266-.468 2.047c0 .77.156 1.448.468 2.031s.724 1.037 1.235 1.36c.52.322 1.083.484 1.687.484zm11.57 1.531c-.97 0-1.844-.229-2.626-.687a4.925 4.925 0 0 1-1.812-1.938c-.427-.823-.64-1.745-.64-2.765 0-.98.202-1.886.609-2.72s.984-1.494 1.734-1.984c.76-.49 1.625-.734 2.594-.734 1 0 1.864.224 2.594.672a4.353 4.353 0 0 1 1.703 1.844c.396.791.593 1.692.593 2.703 0 .156-.015.328-.046.515h-8.079c.042.771.23 1.427.563 1.97.333.53.755.931 1.266 1.202.51.26 1.046.39 1.609.39 1.333 0 2.339-.614 3.016-1.843l1.437.703a4.989 4.989 0 0 1-1.766 1.953c-.76.48-1.677.72-2.75.72zm2.937-6.5a3.108 3.108 0 0 0-.36-1.265c-.208-.428-.541-.787-1-1.079-.447-.302-1.02-.453-1.718-.453-.802 0-1.485.26-2.047.782-.552.51-.917 1.182-1.094 2.015h6.219zm8.423 6.5c-.97 0-1.844-.229-2.625-.687a4.925 4.925 0 0 1-1.813-1.938c-.427-.823-.64-1.745-.64-2.765 0-.98.203-1.886.609-2.72s.984-1.494 1.734-1.984c.76-.49 1.625-.734 2.594-.734 1 0 1.864.224 2.594.672a4.353 4.353 0 0 1 1.703 1.844c.396.791.594 1.692.594 2.703 0 .156-.016.328-.047.515h-8.078c.041.771.229 1.427.562 1.97.333.53.755.931 1.266 1.202.51.26 1.047.39 1.609.39 1.333 0 2.339-.614 3.016-1.843l1.437.703a4.989 4.989 0 0 1-1.765 1.953c-.76.48-1.678.72-2.75.72zm2.937-6.5a3.108 3.108 0 0 0-.36-1.265c-.208-.428-.541-.787-1-1.079-.447-.302-1.02-.453-1.718-.453-.802 0-1.484.26-2.047.782-.552.51-.917 1.182-1.094 2.015h6.219zm8.22 6.5c-.917 0-1.745-.229-2.485-.687a4.934 4.934 0 0 1-1.75-1.938c-.427-.823-.64-1.75-.64-2.781s.213-1.958.64-2.781c.427-.834 1.01-1.48 1.75-1.938a4.544 4.544 0 0 1 2.484-.703c.782 0 1.474.177 2.079.531.614.354 1.083.787 1.406 1.297h.078l-.078-1.406V59.16h1.703v14.313h-1.625v-1.5h-.078c-.323.51-.792.942-1.406 1.297-.605.343-1.297.515-2.079.515zm.187-1.531c.604 0 1.161-.162 1.672-.484.51-.323.922-.777 1.234-1.36s.469-1.26.469-2.031c0-.781-.156-1.464-.469-2.047s-.724-1.036-1.234-1.36a3.067 3.067 0 0 0-1.672-.484 3.09 3.09 0 0 0-1.656.485c-.521.323-.938.78-1.25 1.375s-.47 1.27-.47 2.03.157 1.438.47 2.032a3.51 3.51 0 0 0 1.25 1.36c.52.322 1.073.484 1.656.484zm15.852 1.531c-1.219 0-2.151-.36-2.797-1.078-.646-.719-.969-1.724-.969-3.016V63.27h1.688v6.156c0 .979.218 1.698.656 2.156.448.448 1.042.672 1.781.672.583 0 1.094-.151 1.531-.453a3.242 3.242 0 0 0 1.047-1.203c.25-.5.375-1.021.375-1.563V63.27h1.688v10.203h-1.61v-1.485h-.078c-.281.51-.729.938-1.343 1.282a3.97 3.97 0 0 1-1.97.515zm7.454-10.515h1.61v1.515h.078c.312-.51.776-.943 1.39-1.297a4.172 4.172 0 0 1 2.094-.531c.917 0 1.745.234 2.484.703.74.458 1.323 1.104 1.75 1.938.427.823.641 1.75.641 2.78s-.214 1.96-.64 2.782c-.428.823-1.011 1.469-1.75 1.938-.74.458-1.568.687-2.485.687-.77 0-1.469-.172-2.094-.515-.614-.355-1.078-.787-1.39-1.297h-.079l.079 1.406v4.406h-1.688V63.27zm5 8.984c.583 0 1.136-.162 1.656-.484a3.401 3.401 0 0 0 1.235-1.36c.312-.583.468-1.26.468-2.031 0-.781-.156-1.464-.468-2.047a3.397 3.397 0 0 0-1.235-1.36 3.092 3.092 0 0 0-1.656-.484 3.14 3.14 0 0 0-1.687.485c-.51.323-.922.776-1.235 1.359s-.469 1.266-.469 2.047c0 .77.157 1.448.47 2.031s.723 1.037 1.234 1.36c.52.322 1.083.484 1.687.484zm11.6-8.984h1.61v1.515h.078c.312-.51.776-.943 1.39-1.297a4.172 4.172 0 0 1 2.094-.531c.917 0 1.745.234 2.484.703.74.458 1.323 1.104 1.75 1.938.427.823.641 1.75.641 2.78s-.214 1.96-.64 2.782-1.011 1.469-1.75 1.938c-.74.458-1.568.687-2.485.687-.77 0-1.469-.172-2.094-.515-.614-.355-1.078-.787-1.39-1.297h-.079l.079 1.406v4.406h-1.688V63.27zm5 8.984a3.1 3.1 0 0 0 1.656-.484 3.401 3.401 0 0 0 1.235-1.36c.312-.583.469-1.26.469-2.031 0-.781-.157-1.464-.47-2.047a3.397 3.397 0 0 0-1.234-1.36 3.092 3.092 0 0 0-1.656-.484 3.14 3.14 0 0 0-1.687.485c-.51.323-.922.776-1.235 1.359s-.469 1.266-.469 2.047c0 .77.157 1.448.47 2.031s.723 1.037 1.234 1.36c.52.322 1.083.484 1.687.484zm10.288 1.531c-.74 0-1.406-.146-2-.437a3.327 3.327 0 0 1-1.36-1.203c-.312-.51-.468-1.094-.468-1.75 0-1.084.406-1.928 1.219-2.532s1.838-.906 3.078-.906c.615 0 1.182.068 1.703.203.531.125.938.276 1.219.453v-.625c0-.76-.271-1.37-.813-1.828-.53-.458-1.203-.687-2.015-.687a3.42 3.42 0 0 0-1.578.375c-.48.24-.86.583-1.141 1.03l-1.281-.968a4.125 4.125 0 0 1 1.656-1.437c.708-.344 1.49-.516 2.344-.516 1.385 0 2.468.365 3.25 1.094.791.719 1.187 1.708 1.187 2.969v6.453h-1.61V72.02h-.093c-.292.49-.73.906-1.312 1.25s-1.245.515-1.985.515zm.172-1.5c.573 0 1.104-.146 1.594-.437a3.33 3.33 0 0 0 1.172-1.172c.302-.5.453-1.042.453-1.625-.323-.209-.719-.38-1.188-.516s-.963-.203-1.484-.203c-.927 0-1.63.193-2.11.578a1.851 1.851 0 0 0-.703 1.5c0 .563.214 1.016.641 1.36s.969.515 1.625.515zm11.567 5.828c-1.198 0-2.188-.281-2.969-.843s-1.302-1.235-1.562-2.016l1.562-.656a2.886 2.886 0 0 0 1.094 1.422c.531.364 1.156.546 1.875.546 1.052 0 1.87-.307 2.453-.921.583-.605.875-1.47.875-2.594v-1.14h-.078c-.333.52-.807.947-1.422 1.28-.604.323-1.292.485-2.062.485a4.509 4.509 0 0 1-2.407-.672c-.729-.458-1.307-1.094-1.734-1.906-.427-.813-.64-1.74-.64-2.782 0-1.03.213-1.953.64-2.765.427-.823 1.005-1.459 1.734-1.906a4.432 4.432 0 0 1 2.407-.688c.77 0 1.458.161 2.062.484.615.323 1.089.756 1.422 1.297h.078V63.27h1.625v9.796c0 1.646-.458 2.896-1.375 3.75-.906.865-2.099 1.297-3.578 1.297zm0-5.984a3.17 3.17 0 0 0 1.672-.453c.5-.313.9-.755 1.203-1.328s.453-1.25.453-2.032c0-.802-.15-1.49-.453-2.062s-.703-1.01-1.203-1.313a3.17 3.17 0 0 0-1.672-.453 3.17 3.17 0 0 0-1.688.469c-.5.302-.9.74-1.203 1.313-.291.572-.437 1.255-.437 2.046 0 .782.146 1.464.437 2.047.302.584.703 1.026 1.203 1.328.51.292 1.073.438 1.688.438zm11.902 1.656c-.968 0-1.843-.229-2.625-.687a4.925 4.925 0 0 1-1.812-1.938c-.427-.823-.64-1.745-.64-2.765 0-.98.202-1.886.609-2.72s.984-1.494 1.734-1.984c.76-.49 1.625-.734 2.594-.734 1 0 1.864.224 2.594.672a4.353 4.353 0 0 1 1.703 1.844c.396.791.593 1.692.593 2.703 0 .156-.015.328-.046.515h-8.079c.042.771.23 1.427.563 1.97.333.53.755.931 1.266 1.202.51.26 1.046.39 1.609.39 1.333 0 2.338-.614 3.016-1.843l1.437.703a4.989 4.989 0 0 1-1.766 1.953c-.76.48-1.677.72-2.75.72zm2.938-6.5a3.108 3.108 0 0 0-.36-1.265c-.208-.428-.541-.787-1-1.079-.447-.302-1.02-.453-1.718-.453-.802 0-1.485.26-2.047.782-.552.51-.917 1.182-1.094 2.015h6.219zm8.431-8.125h1.688v14.313h-1.688V59.16zm8.808 14.625c-1 0-1.901-.24-2.703-.719a5.079 5.079 0 0 1-1.86-1.953c-.448-.823-.672-1.734-.672-2.734s.224-1.912.672-2.734a5.05 5.05 0 0 1 1.86-1.97c.802-.478 1.703-.718 2.703-.718s1.9.24 2.703.719a5.014 5.014 0 0 1 1.875 1.969c.448.822.672 1.734.672 2.734s-.224 1.911-.672 2.734a5.043 5.043 0 0 1-1.875 1.953c-.802.48-1.703.72-2.703.72zm0-1.531c.635 0 1.218-.156 1.75-.469.541-.312.974-.76 1.297-1.344.333-.593.5-1.28.5-2.062 0-.792-.167-1.48-.5-2.063a3.416 3.416 0 0 0-1.297-1.359 3.389 3.389 0 0 0-1.75-.469c-.625 0-1.214.157-1.766.469-.542.313-.974.766-1.297 1.36-.323.583-.484 1.27-.484 2.062 0 .781.161 1.469.484 2.062a3.429 3.429 0 0 0 1.297 1.344c.552.313 1.14.469 1.766.469zm10.482 1.531c-.74 0-1.406-.146-2-.437a3.327 3.327 0 0 1-1.36-1.203c-.312-.51-.468-1.094-.468-1.75 0-1.084.406-1.928 1.219-2.532s1.838-.906 3.078-.906c.615 0 1.182.068 1.703.203.531.125.938.276 1.219.453v-.625c0-.76-.271-1.37-.813-1.828-.53-.458-1.203-.687-2.015-.687a3.42 3.42 0 0 0-1.578.375c-.48.24-.86.583-1.141 1.03l-1.281-.968a4.125 4.125 0 0 1 1.656-1.437c.708-.344 1.49-.516 2.344-.516 1.385 0 2.468.365 3.25 1.094.791.719 1.187 1.708 1.187 2.969v6.453h-1.61V72.02h-.093c-.292.49-.73.906-1.312 1.25-.584.343-1.245.515-1.985.515zm.172-1.5c.573 0 1.104-.146 1.594-.437a3.33 3.33 0 0 0 1.172-1.172c.302-.5.453-1.042.453-1.625-.323-.209-.719-.38-1.188-.516s-.963-.203-1.484-.203c-.927 0-1.63.193-2.11.578a1.851 1.851 0 0 0-.703 1.5c0 .563.214 1.016.641 1.36.427.343.969.515 1.625.515zm11.426 1.5c-.916 0-1.745-.229-2.484-.687a4.934 4.934 0 0 1-1.75-1.938c-.427-.823-.64-1.75-.64-2.781s.213-1.958.64-2.781c.427-.834 1.01-1.48 1.75-1.938a4.544 4.544 0 0 1 2.484-.703c.782 0 1.474.177 2.078.531.615.354 1.084.787 1.407 1.297h.078l-.078-1.406V59.16h1.703v14.313h-1.625v-1.5h-.078c-.323.51-.792.942-1.407 1.297-.604.343-1.296.515-2.078.515zm.188-1.531c.604 0 1.161-.162 1.672-.484.51-.323.922-.777 1.234-1.36s.469-1.26.469-2.031c0-.781-.156-1.464-.469-2.047s-.724-1.036-1.234-1.36a3.067 3.067 0 0 0-1.672-.484c-.584 0-1.136.162-1.656.485-.521.323-.938.78-1.25 1.375s-.47 1.27-.47 2.03.157 1.438.47 2.032a3.51 3.51 0 0 0 1.25 1.36c.52.322 1.072.484 1.656.484zm10.971 1.531c-1.083 0-1.995-.255-2.734-.765a4.243 4.243 0 0 1-1.563-1.97l1.531-.671c.25.604.625 1.073 1.125 1.406a2.9 2.9 0 0 0 1.641.5c.646 0 1.193-.125 1.64-.375.459-.26.688-.635.688-1.125 0-.417-.182-.755-.547-1.015-.354-.26-.916-.485-1.687-.672l-1.25-.328c-.813-.198-1.48-.537-2-1.016-.521-.48-.781-1.1-.781-1.86 0-.583.177-1.098.53-1.546.355-.448.824-.792 1.407-1.032a5.041 5.041 0 0 1 1.906-.359c.896 0 1.693.193 2.39.578.699.386 1.194.927 1.485 1.625l-1.468.672c-.459-.906-1.266-1.36-2.422-1.36-.563 0-1.058.13-1.485.391-.416.26-.625.589-.625.985 0 .375.146.682.438.922.302.229.745.416 1.328.562l1.484.375c1 .26 1.75.64 2.25 1.14.51.5.766 1.11.766 1.829a2.66 2.66 0 0 1-.547 1.656c-.354.469-.838.828-1.453 1.078s-1.297.375-2.047.375zm7.023-.187c-.355 0-.657-.125-.907-.375s-.375-.552-.375-.907c0-.354.125-.65.375-.89.25-.25.552-.375.907-.375.364 0 .666.125.906.375.25.24.375.536.375.89 0 .355-.125.657-.375.907-.24.25-.542.375-.906.375z"/><path d="M563.907 254.501h116.188v89.469H563.907zM540.21 130.055h57.411v33.756H540.21zm230.952 0h57.41v33.756h-57.41zm0 142.608h57.41v33.756h-57.41zM89.468 135.858h160.83v70.635H89.468zM59.055 385.25h586.016v77.543H59.055z"/><path fill="#4a86e8" fill-rule="nonzero" d="M81.852 416.899a9.234 9.234 0 0 1-3.719.781c-1.677 0-3.203-.396-4.578-1.188a8.609 8.609 0 0 1-3.219-3.25c-.78-1.385-1.172-2.9-1.172-4.546s.391-3.157 1.172-4.532 1.855-2.458 3.22-3.25c1.374-.791 2.9-1.187 4.577-1.187s3.198.396 4.563 1.187a8.576 8.576 0 0 1 3.234 3.25c.792 1.375 1.188 2.886 1.188 4.532 0 1.312-.25 2.536-.75 3.671s-1.198 2.12-2.094 2.954l1.328 1.968-2.406 1.61-1.344-2zm-3.719-2.297c.625 0 1.276-.12 1.953-.36l-1.875-2.812 2.391-1.625 1.875 2.828c.448-.5.792-1.083 1.031-1.75a6.5 6.5 0 0 0 .36-2.187c0-1.146-.256-2.167-.766-3.063a5.222 5.222 0 0 0-2.078-2.094c-.875-.5-1.839-.75-2.89-.75s-2.016.25-2.891.75a5.25 5.25 0 0 0-2.063 2.094c-.5.896-.75 1.917-.75 3.063 0 1.156.25 2.182.75 3.078a5.386 5.386 0 0 0 2.063 2.093c.875.49 1.838.735 2.89.735zm16.035 3.078c-1.469 0-2.588-.458-3.36-1.375s-1.155-2.188-1.155-3.813v-7.437h3.14v7.047c0 .833.198 1.49.594 1.969.406.468.937.703 1.594.703.896 0 1.61-.328 2.14-.985s.797-1.49.797-2.5v-6.234h3.14v12.234h-2.952v-1.53h-.188a3.937 3.937 0 0 1-1.562 1.405c-.657.344-1.386.516-2.188.516zm11.736-13.969a2.01 2.01 0 0 1-1.454-.594c-.395-.406-.593-.89-.593-1.453s.198-1.036.593-1.422c.407-.395.891-.593 1.454-.593s1.036.198 1.421.593c.396.386.594.86.594 1.422s-.198 1.047-.594 1.453a1.905 1.905 0 0 1-1.421.594zm-1.579 1.344h3.141v12.234h-3.14v-12.234zm12.043 12.625c-1.23 0-2.333-.276-3.313-.828a5.907 5.907 0 0 1-2.297-2.313c-.552-1-.828-2.125-.828-3.375 0-1.24.276-2.349.828-3.328a6.016 6.016 0 0 1 2.297-2.328c.98-.562 2.084-.844 3.313-.844 1.364 0 2.531.292 3.5.875a4.938 4.938 0 0 1 2.11 2.485l-2.876 1.203c-.51-1.094-1.422-1.64-2.734-1.64-.958 0-1.745.327-2.36.984-.614.656-.921 1.52-.921 2.593 0 1.094.307 1.97.921 2.625s1.402.985 2.36.985c1.323 0 2.281-.578 2.875-1.735l2.86 1.25c-.532 1.073-1.287 1.907-2.266 2.5-.97.594-2.125.891-3.47.891zm7.986-17.578h3.156v9.36h.157l4.39-4.407h3.875v.187l-4.64 4.532 4.843 7.328v.187h-3.718l-3.328-5.359-1.579 1.562v3.797h-3.156v-17.187zm13.416 0h3.156v17.187h-3.156v-17.187zm8.021 3.61a2.01 2.01 0 0 1-1.453-.595c-.396-.406-.593-.89-.593-1.453s.197-1.036.593-1.422c.407-.395.89-.593 1.453-.593s1.037.198 1.422.593c.396.386.594.86.594 1.422s-.198 1.047-.594 1.453c-.385.396-.86.594-1.422.594zm-1.578 1.343h3.14v12.234h-3.14v-12.234zm6.397 0h2.953v1.531h.203c.365-.594.88-1.062 1.547-1.406a4.764 4.764 0 0 1 2.188-.516c1.468 0 2.588.448 3.36 1.344.77.896 1.155 2.12 1.155 3.672v7.61h-3.14v-7.22c0-.791-.203-1.4-.61-1.828-.395-.437-.953-.656-1.672-.656-.854 0-1.541.328-2.062.985-.51.656-.766 1.484-.766 2.484v6.234h-3.156v-12.234zm14.376-4.953h3.156v9.36h.157l4.39-4.407h3.875v.187l-4.64 4.532 4.843 7.328v.187h-3.718l-3.329-5.359-1.578 1.562v3.797h-3.156v-17.187zm18.938 4.953h2.953v1.484h.188c.344-.53.833-.974 1.469-1.328.645-.364 1.38-.547 2.203-.547 1.104 0 2.11.276 3.015.828s1.615 1.329 2.125 2.329c.51.99.766 2.104.766 3.343 0 1.271-.255 2.401-.766 3.391a5.73 5.73 0 0 1-2.125 2.297c-.906.552-1.911.828-3.015.828-.823 0-1.563-.177-2.219-.531-.646-.354-1.13-.797-1.453-1.328h-.188l.188 1.734v4.922h-3.14v-17.422zm6.266 9.719c.594 0 1.146-.151 1.656-.453.51-.313.917-.74 1.219-1.282.312-.541.469-1.166.469-1.875 0-.698-.157-1.317-.47-1.859a3.173 3.173 0 0 0-1.218-1.266 3.222 3.222 0 0 0-3.297 0c-.51.292-.916.714-1.218 1.266-.303.542-.454 1.161-.454 1.86 0 .708.151 1.333.454 1.874.302.542.708.97 1.218 1.282a3.224 3.224 0 0 0 1.64.453zm8.756-9.719h2.953v1.625h.203c.302-.573.771-1.047 1.406-1.422a4.127 4.127 0 0 1 2.11-.562c.562 0 1.078.083 1.547.25v3.156a7.497 7.497 0 0 0-1.11-.344 3.856 3.856 0 0 0-.937-.11c-.927 0-1.662.34-2.203 1.016-.542.667-.813 1.51-.813 2.532v6.093h-3.156v-12.234zm15.262 12.625c-1.208 0-2.302-.281-3.28-.844a6.047 6.047 0 0 1-2.298-2.312c-.552-.99-.828-2.1-.828-3.328a6.7 6.7 0 0 1 .813-3.25 6.404 6.404 0 0 1 2.265-2.391c.959-.594 2.031-.89 3.219-.89 1.26 0 2.344.275 3.25.827a5.246 5.246 0 0 1 2.078 2.235c.48.937.719 1.979.719 3.125 0 .375-.026.729-.078 1.062h-9.188c.156.98.542 1.72 1.156 2.22.625.5 1.365.75 2.22.75.728 0 1.348-.157 1.859-.47a3.59 3.59 0 0 0 1.25-1.25l2.53 1.25c-1.239 2.177-3.135 3.266-5.687 3.266zm2.907-8a2.4 2.4 0 0 0-.422-1.14c-.24-.376-.584-.688-1.032-.938-.437-.25-.953-.375-1.546-.375-.75 0-1.396.224-1.938.672-.531.437-.917 1.031-1.156 1.781h6.094zm6.535-1.938h-2.187v-2.687h2.187v-.672c0-1.396.417-2.49 1.25-3.281.833-.792 1.922-1.188 3.266-1.188.76 0 1.422.089 1.984.266v3.062a6.358 6.358 0 0 0-.812-.28 3.042 3.042 0 0 0-.797-.095c-.532 0-.959.151-1.282.454-.312.302-.468.718-.468 1.25v.484h3v2.687h-3v9.547h-3.141v-9.547zm13.598 9.938c-1.208 0-2.302-.281-3.281-.844a6.047 6.047 0 0 1-2.297-2.312c-.552-.99-.828-2.1-.828-3.328 0-1.167.27-2.25.812-3.25a6.404 6.404 0 0 1 2.266-2.391c.958-.594 2.031-.89 3.219-.89 1.26 0 2.344.275 3.25.827a5.246 5.246 0 0 1 2.078 2.235c.48.937.719 1.979.719 3.125 0 .375-.026.729-.078 1.062h-9.188c.156.98.542 1.72 1.156 2.22.625.5 1.365.75 2.22.75.728 0 1.348-.157 1.858-.47a3.59 3.59 0 0 0 1.25-1.25l2.532 1.25c-1.24 2.177-3.136 3.266-5.688 3.266zm2.906-8c-.03-.385-.171-.766-.421-1.14-.24-.376-.584-.688-1.032-.938-.437-.25-.953-.375-1.547-.375-.75 0-1.395.224-1.937.672-.531.437-.917 1.031-1.156 1.781h6.093zm10.416 7.797a5.07 5.07 0 0 1-1.672-.266c-.51-.187-.927-.443-1.25-.765-.75-.72-1.125-1.74-1.125-3.063v-5.64h-2.14v-2.688h2.14v-3.469h3.14v3.469h3v2.687h-3v5.063c0 .625.136 1.073.407 1.344.23.25.615.375 1.156.375.302 0 .552-.037.75-.11.198-.083.459-.218.781-.406v3.063a5.914 5.914 0 0 1-2.187.406zm10.037.203c-1.229 0-2.333-.276-3.312-.828a5.907 5.907 0 0 1-2.297-2.313c-.552-1-.828-2.125-.828-3.375 0-1.24.276-2.349.828-3.328a6.016 6.016 0 0 1 2.297-2.328c.98-.562 2.083-.844 3.312-.844 1.365 0 2.532.292 3.5.875a4.938 4.938 0 0 1 2.11 2.485l-2.875 1.203c-.51-1.094-1.422-1.64-2.735-1.64-.958 0-1.744.327-2.359.984-.615.656-.922 1.52-.922 2.593 0 1.094.307 1.97.922 2.625.615.657 1.401.985 2.36.985 1.322 0 2.28-.578 2.874-1.735l2.86 1.25c-.531 1.073-1.287 1.907-2.266 2.5-.969.594-2.125.891-3.469.891zm7.987-17.578h3.156v4.344l-.203 2.14h.203c.344-.573.849-1.036 1.516-1.39a4.682 4.682 0 0 1 2.203-.532c1.479 0 2.614.448 3.406 1.344.802.885 1.203 2.11 1.203 3.672v7.61h-3.156v-7.22c0-.791-.214-1.4-.64-1.828-.417-.437-.98-.656-1.688-.656-.834 0-1.516.339-2.047 1.016-.531.666-.797 1.49-.797 2.469v6.218h-3.156v-17.187zm20.182 17.578c-1.208 0-2.302-.281-3.281-.844a6.047 6.047 0 0 1-2.297-2.312c-.552-.99-.828-2.1-.828-3.328 0-1.167.27-2.25.812-3.25a6.404 6.404 0 0 1 2.266-2.391c.958-.594 2.031-.89 3.219-.89 1.26 0 2.343.275 3.25.827a5.246 5.246 0 0 1 2.078 2.235c.479.937.719 1.979.719 3.125 0 .375-.026.729-.079 1.062h-9.187c.156.98.542 1.72 1.156 2.22.625.5 1.365.75 2.219.75.73 0 1.349-.157 1.86-.47a3.59 3.59 0 0 0 1.25-1.25l2.53 1.25c-1.239 2.177-3.135 3.266-5.687 3.266zm2.906-8c-.03-.385-.172-.766-.422-1.14-.24-.376-.583-.688-1.03-.938-.438-.25-.954-.375-1.548-.375-.75 0-1.396.224-1.937.672-.531.437-.917 1.031-1.156 1.781h6.093zm10.224 8c-1.49 0-2.693-.302-3.61-.906-.916-.615-1.562-1.412-1.937-2.39l2.813-1.22c.26.573.625 1.01 1.093 1.313.469.291 1.016.437 1.64.437.584 0 1.063-.088 1.438-.265.386-.188.579-.49.579-.907a.972.972 0 0 0-.532-.906c-.343-.198-.87-.375-1.578-.531l-1.437-.313c-.99-.24-1.813-.677-2.47-1.312s-.983-1.422-.983-2.36c0-.708.208-1.343.625-1.906.427-.562 1.005-.994 1.734-1.297.73-.302 1.531-.453 2.406-.453 2.531 0 4.224.891 5.078 2.672l-2.687 1.172c-.49-.865-1.26-1.297-2.313-1.297-.541 0-.974.1-1.297.297-.323.198-.484.448-.484.75 0 .583.547 1.016 1.64 1.297l1.798.437c1.218.303 2.135.766 2.75 1.391.614.625.921 1.396.921 2.313a3.35 3.35 0 0 1-.687 2.078c-.448.593-1.073 1.062-1.875 1.406-.792.333-1.667.5-2.625.5zm14.86-13.969a2.01 2.01 0 0 1-1.452-.594c-.396-.406-.594-.89-.594-1.453s.198-1.036.594-1.422c.406-.395.89-.593 1.453-.593s1.036.198 1.422.593c.396.386.593.86.593 1.422s-.197 1.047-.593 1.453c-.386.396-.86.594-1.422.594zm-1.577 1.344h3.14v12.234h-3.14v-12.234zm6.397 0h2.953v1.531h.203c.364-.594.88-1.062 1.547-1.406a4.764 4.764 0 0 1 2.187-.516c1.469 0 2.589.448 3.36 1.344.77.896 1.156 2.12 1.156 3.672v7.61h-3.14v-7.22c0-.791-.204-1.4-.61-1.828-.396-.437-.953-.656-1.672-.656-.854 0-1.542.328-2.063.985-.51.656-.765 1.484-.765 2.484v6.234h-3.156v-12.234zm14.36 3.406h8.125v2.781h-8.125v-2.78zm9.816-3.406h3.578l3.094 7.969h.187l3.141-7.969h3.531l-5.234 12.234h-3.11l-5.187-12.234zm17.013-1.344a2.01 2.01 0 0 1-1.453-.594c-.396-.406-.594-.89-.594-1.453s.198-1.036.594-1.422c.406-.395.89-.593 1.453-.593s1.036.198 1.422.593c.395.386.593.86.593 1.422s-.198 1.047-.593 1.453c-.386.396-.86.594-1.422.594zm-1.578 1.344h3.14v12.234h-3.14v-12.234zm12.01 12.625c-1.208 0-2.301-.281-3.28-.844a6.047 6.047 0 0 1-2.297-2.312c-.552-.99-.828-2.1-.828-3.328 0-1.167.27-2.25.812-3.25a6.404 6.404 0 0 1 2.266-2.391c.958-.594 2.03-.89 3.218-.89 1.26 0 2.344.275 3.25.827a5.246 5.246 0 0 1 2.079 2.235c.479.937.718 1.979.718 3.125 0 .375-.026.729-.078 1.062h-9.187c.156.98.541 1.72 1.156 2.22.625.5 1.364.75 2.219.75.729 0 1.349-.157 1.859-.47a3.59 3.59 0 0 0 1.25-1.25l2.531 1.25c-1.24 2.177-3.135 3.266-5.687 3.266zm2.907-8c-.031-.385-.172-.766-.422-1.14-.24-.376-.583-.688-1.031-.938-.438-.25-.953-.375-1.547-.375-.75 0-1.396.224-1.937.672-.532.437-.917 1.031-1.157 1.781h6.094zm3.848-4.625h3.531l2.11 7.937h.156l2.453-7.937h3.219l2.453 7.937h.156l2.125-7.937h3.469l-3.906 12.234h-3.391l-2.484-7.922h-.172l-2.469 7.922h-3.36l-3.89-12.234zm21.258 0h2.953v1.484h.187c.344-.53.834-.974 1.469-1.328.646-.364 1.38-.547 2.203-.547 1.104 0 2.11.276 3.016.828s1.614 1.329 2.125 2.329c.51.99.765 2.104.765 3.343 0 1.271-.255 2.401-.765 3.391a5.73 5.73 0 0 1-2.125 2.297 5.688 5.688 0 0 1-3.016.828c-.823 0-1.562-.177-2.219-.531-.646-.354-1.13-.797-1.453-1.328h-.187l.187 1.734v4.922h-3.14v-17.422zm6.265 9.719c.594 0 1.146-.151 1.656-.453.51-.313.917-.74 1.22-1.282.312-.541.468-1.166.468-1.875 0-.698-.156-1.317-.469-1.859a3.173 3.173 0 0 0-1.219-1.266 3.222 3.222 0 0 0-3.297 0c-.51.292-.916.714-1.218 1.266-.302.542-.453 1.161-.453 1.86 0 .708.15 1.333.453 1.874.302.542.708.97 1.219 1.282.52.302 1.067.453 1.64.453zm14.736 2.906c-1.26 0-2.391-.281-3.391-.844a6.127 6.127 0 0 1-2.312-2.328c-.553-.99-.829-2.104-.829-3.344 0-1.208.276-2.307.829-3.297a5.957 5.957 0 0 1 2.312-2.343c1-.573 2.13-.86 3.39-.86 1.25 0 2.37.287 3.36.86a5.957 5.957 0 0 1 2.313 2.343c.552.99.828 2.089.828 3.297 0 1.24-.276 2.354-.828 3.344a6.127 6.127 0 0 1-2.313 2.328c-.99.563-2.11.844-3.36.844zm0-2.906c.604 0 1.161-.146 1.672-.438.52-.291.932-.708 1.234-1.25.302-.541.453-1.182.453-1.922 0-.718-.151-1.349-.453-1.89a3.167 3.167 0 0 0-1.234-1.25 3.312 3.312 0 0 0-1.672-.438c-.605 0-1.167.146-1.688.438a3.3 3.3 0 0 0-1.234 1.25c-.302.541-.453 1.172-.453 1.89s.15 1.354.453 1.907a3.28 3.28 0 0 0 1.234 1.265 3.394 3.394 0 0 0 1.688.438zm24.363 2.703a5.12 5.12 0 0 1-1.687-.266c-.51-.187-.927-.443-1.25-.765-.75-.72-1.125-1.74-1.125-3.063v-5.64h-2.125v-2.688h2.125v-3.469h3.14v3.469h3v2.687h-3v5.063c0 .625.141 1.073.422 1.344.22.25.6.375 1.141.375.312 0 .568-.037.766-.11.198-.083.458-.218.78-.406v3.063a5.914 5.914 0 0 1-2.187.406zm-15.703-12.422h2.953v1.625h.203c.313-.594.797-1.068 1.454-1.422a4.275 4.275 0 0 1 2.109-.547c.552 0 .937.047 1.156.14v3.079c-.396-.156-.89-.234-1.484-.234-.99 0-1.776.317-2.36.953-.583.635-.875 1.505-.875 2.61v6.03h-3.156v-12.234zm26.016-4.953h3.156v17.187h-3.156v-17.187zm8.021 3.61a2.01 2.01 0 0 1-1.453-.595c-.396-.406-.593-.89-.593-1.453s.197-1.036.593-1.422c.407-.395.89-.593 1.453-.593s1.037.198 1.422.593c.396.386.594.86.594 1.422s-.198 1.047-.594 1.453c-.385.396-.86.594-1.422.594zm-1.578 1.343h3.14v12.234h-3.14v-12.234zm6.397 0h2.953v1.531h.203c.365-.594.88-1.062 1.547-1.406a4.764 4.764 0 0 1 2.188-.516c1.468 0 2.588.448 3.36 1.344.77.896 1.155 2.12 1.155 3.672v7.61h-3.14v-7.22c0-.791-.203-1.4-.61-1.828-.395-.437-.953-.656-1.672-.656-.854 0-1.541.328-2.062.985-.51.656-.766 1.484-.766 2.484v6.234h-3.156v-12.234zm14.376-4.953h3.156v9.36h.157l4.39-4.407h3.875v.187l-4.64 4.532 4.843 7.328v.187h-3.718l-3.329-5.359-1.578 1.562v3.797h-3.156v-17.187zm17.832 17.578c-1.49 0-2.692-.302-3.61-.906-.916-.615-1.562-1.412-1.937-2.39l2.813-1.22c.26.573.625 1.01 1.094 1.313.468.291 1.015.437 1.64.437.584 0 1.063-.088 1.438-.265.385-.188.578-.49.578-.907a.972.972 0 0 0-.531-.906c-.344-.198-.87-.375-1.578-.531l-1.438-.313c-.99-.24-1.812-.677-2.469-1.312s-.984-1.422-.984-2.36c0-.708.208-1.343.625-1.906.427-.562 1.005-.994 1.734-1.297.73-.302 1.532-.453 2.407-.453 2.53 0 4.224.891 5.078 2.672l-2.688 1.172c-.49-.865-1.26-1.297-2.312-1.297-.542 0-.974.1-1.297.297s-.485.448-.485.75c0 .583.547 1.016 1.641 1.297l1.797.437c1.219.303 2.135.766 2.75 1.391.615.625.922 1.396.922 2.313 0 .78-.23 1.474-.688 2.078-.448.593-1.073 1.062-1.875 1.406-.791.333-1.666.5-2.625.5zm18.346 0c-1.105 0-2.11-.276-3.016-.828s-1.62-1.318-2.14-2.297c-.521-.99-.782-2.12-.782-3.39 0-1.24.26-2.355.781-3.344.521-1 1.235-1.776 2.141-2.329.906-.552 1.911-.828 3.016-.828.833 0 1.567.183 2.203.547.635.354 1.125.797 1.469 1.328h.187l-.187-1.734v-4.703h3.109v17.187h-2.922v-1.468h-.187c-.323.53-.808.974-1.454 1.328-.645.354-1.385.531-2.218.531zm.515-2.906a3.2 3.2 0 0 0 1.657-.453 3.4 3.4 0 0 0 1.234-1.282c.302-.541.453-1.166.453-1.875 0-.698-.151-1.317-.453-1.859a3.141 3.141 0 0 0-1.234-1.266 3.195 3.195 0 0 0-3.282 0c-.51.292-.916.714-1.218 1.266-.303.542-.454 1.161-.454 1.86 0 .708.151 1.333.454 1.874.302.542.708.97 1.218 1.282a3.14 3.14 0 0 0 1.625.453zm13.785 2.906c-1.469 0-2.589-.458-3.36-1.375-.77-.917-1.156-2.188-1.156-3.813v-7.437h3.14v7.047c0 .833.199 1.49.595 1.969.406.468.937.703 1.593.703.896 0 1.61-.328 2.141-.985s.797-1.49.797-2.5v-6.234h3.14v12.234h-2.953v-1.53h-.187a3.937 3.937 0 0 1-1.563 1.405c-.656.344-1.385.516-2.187.516zm9.954-12.625h2.953v1.625h.203c.302-.573.771-1.047 1.406-1.422a4.127 4.127 0 0 1 2.11-.562c.562 0 1.078.083 1.547.25v3.156a7.497 7.497 0 0 0-1.11-.344 3.856 3.856 0 0 0-.937-.11c-.927 0-1.662.34-2.203 1.016-.542.667-.813 1.51-.813 2.532v6.093h-3.156v-12.234zm12.03-1.344a2.01 2.01 0 0 1-1.454-.594c-.396-.406-.594-.89-.594-1.453s.198-1.036.594-1.422c.406-.395.89-.593 1.453-.593s1.037.198 1.422.593c.396.386.594.86.594 1.422s-.198 1.047-.594 1.453c-.385.396-.86.594-1.422.594zm-1.579 1.344h3.14v12.234h-3.14v-12.234zm6.397 0h2.953v1.531h.203c.365-.594.88-1.062 1.547-1.406a4.764 4.764 0 0 1 2.188-.516c1.468 0 2.588.448 3.359 1.344.77.896 1.156 2.12 1.156 3.672v7.61h-3.14v-7.22c0-.791-.204-1.4-.61-1.828-.396-.437-.953-.656-1.672-.656-.854 0-1.541.328-2.062.985-.51.656-.766 1.484-.766 2.484v6.234h-3.156v-12.234zm19.896 17.797c-1.552 0-2.838-.35-3.859-1.047-1.02-.688-1.708-1.52-2.062-2.5l2.953-1.203c.25.614.64 1.094 1.172 1.437.53.354 1.13.532 1.796.532.99 0 1.777-.308 2.36-.922.594-.604.89-1.464.89-2.578v-.97h-.203c-.385.553-.89.975-1.515 1.266-.615.282-1.323.422-2.125.422-1.01 0-1.953-.26-2.828-.78-.865-.522-1.563-1.256-2.094-2.204-.531-.958-.797-2.068-.797-3.328s.266-2.365.797-3.313c.531-.958 1.229-1.698 2.094-2.218a5.434 5.434 0 0 1 2.828-.782c.802 0 1.51.146 2.125.438.625.281 1.13.698 1.515 1.25h.203v-1.297h3.016v11.39c0 1.313-.255 2.448-.766 3.407a5.228 5.228 0 0 1-2.187 2.219c-.938.52-2.042.78-3.313.78zm.047-8.422c.886 0 1.641-.307 2.266-.922s.937-1.458.937-2.531c0-1.104-.312-1.953-.937-2.547-.615-.604-1.37-.906-2.266-.906-.895 0-1.656.307-2.28.922-.615.604-.923 1.447-.923 2.53s.308 1.933.922 2.548c.625.604 1.386.906 2.281.906zM71.368 432.711a2.01 2.01 0 0 1-1.454-.594c-.395-.406-.593-.89-.593-1.453s.198-1.036.593-1.422c.407-.395.891-.593 1.454-.593s1.036.198 1.421.593c.396.386.594.86.594 1.422s-.198 1.047-.594 1.453a1.905 1.905 0 0 1-1.421.594zm-1.579 1.344h3.141v12.234h-3.14v-12.234zm11.543 12.625c-1.104 0-2.11-.276-3.016-.828s-1.62-1.318-2.14-2.297c-.521-.99-.782-2.12-.782-3.39 0-1.24.26-2.355.782-3.344.52-1 1.234-1.776 2.14-2.329a5.688 5.688 0 0 1 3.016-.828c.833 0 1.568.183 2.203.547.636.354 1.125.797 1.469 1.328h.187l-.187-1.734v-4.703h3.11v17.187H85.19v-1.468h-.187c-.323.53-.807.974-1.453 1.328s-1.386.531-2.219.531zm.516-2.906c.593 0 1.145-.151 1.656-.453a3.4 3.4 0 0 0 1.234-1.282c.302-.541.453-1.166.453-1.875 0-.698-.15-1.317-.453-1.859a3.141 3.141 0 0 0-1.234-1.266 3.195 3.195 0 0 0-3.281 0c-.51.292-.917.714-1.22 1.266-.301.542-.452 1.161-.452 1.86 0 .708.15 1.333.453 1.874.302.542.708.97 1.219 1.282a3.14 3.14 0 0 0 1.625.453zm9.362-14.672h3.157v17.187H91.21v-17.187zm11.855 17.578c-1.209 0-2.302-.281-3.282-.844a6.047 6.047 0 0 1-2.296-2.312c-.553-.99-.829-2.1-.829-3.328 0-1.167.271-2.25.813-3.25a6.404 6.404 0 0 1 2.266-2.391c.958-.594 2.03-.89 3.218-.89 1.26 0 2.344.275 3.25.827a5.246 5.246 0 0 1 2.078 2.235c.48.937.72 1.979.72 3.125 0 .375-.027.729-.079 1.062h-9.187c.156.98.541 1.72 1.156 2.22.625.5 1.364.75 2.219.75.729 0 1.348-.157 1.859-.47a3.59 3.59 0 0 0 1.25-1.25l2.531 1.25c-1.24 2.177-3.135 3.266-5.687 3.266zm2.906-8c-.031-.385-.172-.766-.422-1.14-.24-.376-.583-.688-1.031-.938-.438-.25-.953-.375-1.547-.375-.75 0-1.396.224-1.938.672-.53.437-.916 1.031-1.156 1.781h6.094zm16.391 7.797a5.07 5.07 0 0 1-1.672-.266c-.51-.187-.927-.443-1.25-.765-.75-.72-1.125-1.74-1.125-3.063v-5.64h-2.14v-2.688h2.14v-3.469h3.141v3.469h3v2.687h-3v5.063c0 .625.136 1.073.406 1.344.23.25.615.375 1.157.375.302 0 .552-.037.75-.11.198-.083.458-.218.78-.406v3.063a5.914 5.914 0 0 1-2.187.406zm6.605-13.766a2.01 2.01 0 0 1-1.453-.594c-.396-.406-.593-.89-.593-1.453s.197-1.036.593-1.422c.407-.395.89-.593 1.453-.593s1.037.198 1.422.593c.396.386.594.86.594 1.422s-.198 1.047-.594 1.453c-.385.396-.86.594-1.422.594zm-1.578 1.344h3.14v12.234h-3.14v-12.234zm6.397 0h2.953v1.531h.203a3.99 3.99 0 0 1 1.532-1.406c.656-.344 1.385-.516 2.187-.516.865 0 1.615.203 2.25.61.636.406 1.094.922 1.375 1.547a4.512 4.512 0 0 1 1.64-1.547c.699-.407 1.516-.61 2.454-.61 1.396 0 2.458.427 3.187 1.282.73.854 1.094 2.01 1.094 3.468v7.875h-3.125v-7.297c0-.77-.182-1.364-.547-1.78-.354-.417-.854-.626-1.5-.626-.812 0-1.463.328-1.953.985-.49.645-.734 1.494-.734 2.546v6.172h-3.14v-7.297c0-.77-.188-1.364-.563-1.78-.375-.417-.907-.626-1.594-.626-.77 0-1.39.328-1.86.985-.468.645-.703 1.494-.703 2.546v6.172h-3.156v-12.234zm27.598 12.625c-1.208 0-2.302-.281-3.28-.844a6.047 6.047 0 0 1-2.298-2.312c-.552-.99-.828-2.1-.828-3.328 0-1.167.271-2.25.813-3.25a6.404 6.404 0 0 1 2.265-2.391c.959-.594 2.032-.89 3.22-.89 1.26 0 2.343.275 3.25.827a5.246 5.246 0 0 1 2.077 2.235c.48.937.719 1.979.719 3.125 0 .375-.026.729-.078 1.062h-9.188c.157.98.542 1.72 1.157 2.22.625.5 1.364.75 2.218.75.73 0 1.35-.157 1.86-.47a3.59 3.59 0 0 0 1.25-1.25l2.531 1.25c-1.24 2.177-3.135 3.266-5.688 3.266zm2.907-8a2.4 2.4 0 0 0-.422-1.14c-.24-.376-.583-.688-1.031-.938-.438-.25-.954-.375-1.547-.375-.75 0-1.396.224-1.938.672-.531.437-.916 1.031-1.156 1.781h6.094zm12.844-5.969a2.01 2.01 0 0 1-1.453-.594c-.396-.406-.594-.89-.594-1.453s.198-1.036.594-1.422c.406-.395.89-.593 1.453-.593s1.037.198 1.422.593c.396.386.594.86.594 1.422s-.198 1.047-.594 1.453c-.385.396-.86.594-1.422.594zm-1.578 1.344h3.14v12.234h-3.14v-12.234zm7.725 2.687h-2.187v-2.687h2.187v-.672c0-1.396.417-2.49 1.25-3.281.833-.792 1.922-1.188 3.266-1.188.76 0 1.422.089 1.984.266v3.062a6.358 6.358 0 0 0-.812-.28 3.042 3.042 0 0 0-.797-.095c-.532 0-.959.151-1.282.454-.312.302-.468.718-.468 1.25v.484h3v2.687h-3v9.547h-3.14v-9.547zm14.2-2.687h2.953v1.531h.203c.365-.594.88-1.062 1.547-1.406a4.764 4.764 0 0 1 2.188-.516c1.468 0 2.588.448 3.359 1.344.77.896 1.156 2.12 1.156 3.672v7.61h-3.14v-7.22c0-.791-.204-1.4-.61-1.828-.396-.437-.953-.656-1.672-.656-.854 0-1.541.328-2.062.985-.51.656-.766 1.484-.766 2.484v6.234h-3.156v-12.234zm20.235 12.625c-1.26 0-2.39-.281-3.39-.844a6.127 6.127 0 0 1-2.313-2.328c-.552-.99-.828-2.104-.828-3.344 0-1.208.276-2.307.828-3.297a5.957 5.957 0 0 1 2.313-2.343c1-.573 2.13-.86 3.39-.86 1.25 0 2.37.287 3.36.86a5.957 5.957 0 0 1 2.312 2.343c.552.99.828 2.089.828 3.297 0 1.24-.276 2.354-.828 3.344a6.127 6.127 0 0 1-2.312 2.328c-.99.563-2.11.844-3.36.844zm0-2.906c.604 0 1.162-.146 1.672-.438.521-.291.932-.708 1.235-1.25s.453-1.182.453-1.922c0-.718-.151-1.349-.453-1.89a3.167 3.167 0 0 0-1.235-1.25 3.312 3.312 0 0 0-1.672-.438c-.604 0-1.166.146-1.687.438a3.31 3.31 0 0 0-1.235 1.25c-.302.541-.453 1.172-.453 1.89s.151 1.354.453 1.907a3.28 3.28 0 0 0 1.235 1.265 3.39 3.39 0 0 0 1.687.438zm13.869 2.703a5.07 5.07 0 0 1-1.672-.266c-.51-.187-.927-.443-1.25-.765-.75-.72-1.125-1.74-1.125-3.063v-5.64h-2.14v-2.688h2.14v-3.469h3.14v3.469h3v2.687h-3v5.063c0 .625.136 1.073.407 1.344.23.25.615.375 1.156.375.302 0 .552-.037.75-.11.198-.083.459-.218.781-.406v3.063a5.914 5.914 0 0 1-2.187.406zm16.18.203c-1.261 0-2.391-.281-3.391-.844a6.127 6.127 0 0 1-2.313-2.328c-.552-.99-.828-2.104-.828-3.344 0-1.208.276-2.307.828-3.297a5.957 5.957 0 0 1 2.313-2.343c1-.573 2.13-.86 3.39-.86 1.25 0 2.37.287 3.36.86a5.957 5.957 0 0 1 2.312 2.343c.552.99.828 2.089.828 3.297 0 1.24-.276 2.354-.828 3.344a6.127 6.127 0 0 1-2.312 2.328c-.99.563-2.11.844-3.36.844zm0-2.906a3.31 3.31 0 0 0 1.671-.438c.52-.291.932-.708 1.234-1.25s.454-1.182.454-1.922c0-.718-.151-1.349-.454-1.89a3.167 3.167 0 0 0-1.234-1.25 3.312 3.312 0 0 0-1.672-.438c-.604 0-1.166.146-1.687.438a3.31 3.31 0 0 0-1.235 1.25c-.302.541-.453 1.172-.453 1.89s.151 1.354.453 1.907a3.28 3.28 0 0 0 1.235 1.265 3.39 3.39 0 0 0 1.687.438zm8.66-9.719h2.953v1.531h.203c.365-.594.88-1.062 1.547-1.406a4.764 4.764 0 0 1 2.187-.516c1.47 0 2.589.448 3.36 1.344.77.896 1.156 2.12 1.156 3.672v7.61h-3.14v-7.22c0-.791-.204-1.4-.61-1.828-.396-.437-.953-.656-1.672-.656-.854 0-1.542.328-2.062.985-.51.656-.766 1.484-.766 2.484v6.234h-3.156v-12.234zm23.742 12.625c-1.292 0-2.354-.38-3.188-1.14-.833-.761-1.25-1.761-1.25-3 0-.813.214-1.532.64-2.157.438-.625 1.032-1.104 1.782-1.437.75-.334 1.583-.5 2.5-.5 1.26 0 2.339.182 3.234.546v-.53c0-.667-.255-1.21-.765-1.626-.5-.416-1.172-.625-2.016-.625-.573 0-1.13.136-1.672.406-.53.26-.974.605-1.328 1.032l-2.015-1.578a5.937 5.937 0 0 1 2.234-1.782 6.842 6.842 0 0 1 2.922-.625c1.875 0 3.297.433 4.265 1.297.98.865 1.47 2.13 1.47 3.797v7.531h-3.095v-1.25h-.187c-.375.48-.865.875-1.469 1.188-.594.302-1.281.453-2.062.453zm.75-2.453c.906 0 1.625-.292 2.156-.875a2.912 2.912 0 0 0 .812-2.047 5.907 5.907 0 0 0-2.562-.578c-1.635 0-2.453.604-2.453 1.812 0 .5.177.907.531 1.22.354.312.86.468 1.516.468zm19.236 2.453c-1.49 0-2.693-.302-3.61-.906-.916-.615-1.562-1.412-1.937-2.39l2.813-1.22c.26.573.625 1.01 1.093 1.313.47.291 1.016.437 1.64.437.584 0 1.063-.088 1.438-.265.386-.188.579-.49.579-.907a.972.972 0 0 0-.532-.906c-.343-.198-.87-.375-1.578-.531l-1.437-.313c-.99-.24-1.813-.677-2.47-1.312s-.983-1.422-.983-2.36c0-.708.208-1.343.625-1.906.427-.562 1.005-.994 1.734-1.297.73-.302 1.531-.453 2.406-.453 2.531 0 4.224.891 5.078 2.672l-2.687 1.172c-.49-.865-1.26-1.297-2.313-1.297-.541 0-.974.1-1.297.297-.322.198-.484.448-.484.75 0 .583.547 1.016 1.64 1.297l1.798.437c1.218.303 2.135.766 2.75 1.391.614.625.921 1.396.921 2.313a3.35 3.35 0 0 1-.687 2.078c-.448.593-1.073 1.062-1.875 1.406-.792.333-1.667.5-2.625.5zm7.464-17.578h3.156v17.187h-3.156v-17.187zm11.979 17.578c-1.26 0-2.39-.281-3.39-.844a6.127 6.127 0 0 1-2.313-2.328c-.552-.99-.828-2.104-.828-3.344 0-1.208.276-2.307.828-3.297a5.957 5.957 0 0 1 2.312-2.343c1-.573 2.13-.86 3.391-.86 1.25 0 2.37.287 3.36.86a5.957 5.957 0 0 1 2.312 2.343c.552.99.828 2.089.828 3.297 0 1.24-.276 2.354-.828 3.344a6.127 6.127 0 0 1-2.313 2.328c-.99.563-2.109.844-3.359.844zm0-2.906c.604 0 1.161-.146 1.672-.438.52-.291.932-.708 1.234-1.25s.453-1.182.453-1.922c0-.718-.15-1.349-.453-1.89a3.167 3.167 0 0 0-1.234-1.25 3.312 3.312 0 0 0-1.672-.438c-.604 0-1.167.146-1.688.438-.51.291-.921.708-1.234 1.25-.302.541-.453 1.172-.453 1.89s.151 1.354.453 1.907a3.28 3.28 0 0 0 1.234 1.265 3.397 3.397 0 0 0 1.688.438zm7.301-9.719h3.531l2.11 7.937h.156l2.453-7.937h3.219l2.453 7.937h.156l2.125-7.937h3.47l-3.907 12.234h-3.39l-2.485-7.922h-.172l-2.469 7.922h-3.36l-3.89-12.234zm26.967 0h2.954v1.531h.203c.364-.594.88-1.062 1.547-1.406a4.764 4.764 0 0 1 2.187-.516c1.469 0 2.589.448 3.36 1.344.77.896 1.156 2.12 1.156 3.672v7.61h-3.14v-7.22c0-.791-.204-1.4-.61-1.828-.396-.437-.953-.656-1.672-.656-.854 0-1.542.328-2.063.985-.51.656-.765 1.484-.765 2.484v6.234h-3.157v-12.234zm20.11 12.625c-1.208 0-2.301-.281-3.28-.844a6.047 6.047 0 0 1-2.297-2.312c-.552-.99-.828-2.1-.828-3.328 0-1.167.27-2.25.812-3.25a6.404 6.404 0 0 1 2.266-2.391c.958-.594 2.031-.89 3.218-.89 1.26 0 2.344.275 3.25.827a5.246 5.246 0 0 1 2.079 2.235c.479.937.718 1.979.718 3.125 0 .375-.026.729-.078 1.062h-9.187c.156.98.541 1.72 1.156 2.22.625.5 1.365.75 2.219.75.729 0 1.349-.157 1.86-.47a3.59 3.59 0 0 0 1.25-1.25l2.53 1.25c-1.24 2.177-3.135 3.266-5.687 3.266zm2.907-8c-.031-.385-.172-.766-.422-1.14-.24-.376-.583-.688-1.031-.938-.438-.25-.953-.375-1.547-.375-.75 0-1.396.224-1.937.672-.532.437-.917 1.031-1.157 1.781h6.094zm10.416 7.797a5.07 5.07 0 0 1-1.672-.266c-.51-.187-.927-.443-1.25-.765-.75-.72-1.125-1.74-1.125-3.063v-5.64h-2.141v-2.688h2.14v-3.469h3.141v3.469h3v2.687h-3v5.063c0 .625.136 1.073.407 1.344.229.25.614.375 1.156.375.302 0 .552-.037.75-.11.198-.083.458-.218.781-.406v3.063a5.914 5.914 0 0 1-2.187.406zm3.704-12.422h3.531l2.11 7.937h.156l2.453-7.937h3.219l2.453 7.937h.156l2.125-7.937h3.469l-3.906 12.234h-3.391l-2.484-7.922h-.172l-2.469 7.922h-3.36l-3.89-12.234zm26.97 12.625c-1.26 0-2.39-.281-3.39-.844a6.127 6.127 0 0 1-2.312-2.328c-.552-.99-.829-2.104-.829-3.344 0-1.208.277-2.307.829-3.297a5.957 5.957 0 0 1 2.312-2.343c1-.573 2.13-.86 3.39-.86 1.25 0 2.37.287 3.36.86a5.957 5.957 0 0 1 2.313 2.343c.552.99.828 2.089.828 3.297 0 1.24-.276 2.354-.828 3.344a6.127 6.127 0 0 1-2.313 2.328c-.99.563-2.11.844-3.36.844zm0-2.906c.605 0 1.162-.146 1.673-.438.52-.291.932-.708 1.234-1.25.302-.541.453-1.182.453-1.922 0-.718-.151-1.349-.453-1.89a3.167 3.167 0 0 0-1.234-1.25 3.312 3.312 0 0 0-1.672-.438c-.604 0-1.167.146-1.688.438a3.3 3.3 0 0 0-1.234 1.25c-.302.541-.453 1.172-.453 1.89s.15 1.354.453 1.907a3.28 3.28 0 0 0 1.234 1.265 3.397 3.397 0 0 0 1.688.438zm8.661-9.719h2.953v1.625h.204c.302-.573.77-1.047 1.406-1.422a4.127 4.127 0 0 1 2.11-.562c.562 0 1.077.083 1.546.25v3.156a7.497 7.497 0 0 0-1.11-.344 3.856 3.856 0 0 0-.937-.11c-.927 0-1.661.34-2.203 1.016-.542.667-.812 1.51-.812 2.532v6.093h-3.157v-12.234zm10.368-4.953h3.157v9.36h.156l4.39-4.407h3.875v.187l-4.64 4.532 4.844 7.328v.187h-3.72l-3.327-5.359-1.578 1.562v3.797H437v-17.187z"/><path d="M674.59 391.514h234.554v89.48H674.591z"/></g></g></svg>