<svg xmlns="http://www.w3.org/2000/svg" xmlns:xlink="http://www.w3.org/1999/xlink" width="1280" height="735"><defs><path id="a" d="M0 0h1280v720H0z"/></defs><g fill="none" fill-rule="evenodd"><mask id="b" fill="#fff"><use xlink:href="#a"/></mask><g mask="url(#b)"><path fill="#fff" d="M0 0h1280v720H0z"/><path fill="#fff" d="M396.443 233.717h137.771v237.869h-137.77z"/><path stroke="#ccc" stroke-linejoin="round" d="M396.443 233.717h137.771v237.869h-137.77z"/><path fill="#efefef" d="M396.437 233.717h137.77v26.336h-137.77z"/><path fill="#d9d9d9" d="M403.503 239.205h17.747V254.6h-17.747zm4.582 36.792h48.64v45.206h-48.64zm56.933 0h54.233v10.923h-54.233zm0 17.155h40.252v10.923h-40.252zm-56.932 66.3h111.16v10.923h-111.16zm0 18.728h82.507v10.922h-82.507zm0-37.455h111.16v10.923h-111.16zm0 86.629h111.16v10.922h-111.16zm0 18.728h82.507v10.922h-82.507zm0-37.455h111.16v10.923h-111.16z"/><path d="M25.323 19.892h1229.354v80.167H25.323z"/><path fill="#666" fill-rule="nonzero" d="m46.76 64.664.938 4.708 1.146-4.5 6.583-22.354h2.313l6.5 22.354 1.125 4.542 1-4.75 5.479-22.146h2.625l-7.771 30.334H64.24l-6.875-23.73-.771-3-.75 3-7.042 23.73h-2.458l-7.75-30.334h2.625zm34.542-10.542q1.23-2.02 3.146-3.125a8.24 8.24 0 0 1 4.187-1.104q3.626 0 5.396 2.042t1.792 6.125v14.792h-2.48V58.039q-.02-3.021-1.291-4.5-1.25-1.48-4.02-1.48-2.313 0-4.105 1.46-1.77 1.437-2.625 3.895v15.438h-2.48v-32h2.48zm35.167 18.73q-.375-1.063-.48-3.146-1.312 1.708-3.354 2.646a10.3 10.3 0 0 1-4.291.916q-3.25 0-5.271-1.812-2-1.813-2-4.584 0-3.291 2.729-5.208 2.75-1.917 7.646-1.917h4.52v-2.562q0-2.416-1.5-3.792-1.478-1.395-4.333-1.396-2.604 0-4.312 1.334-1.709 1.333-1.708 3.208l-2.5-.02q0-2.688 2.5-4.647 2.5-1.98 6.145-1.979 3.77 0 5.938 1.896 2.187 1.875 2.25 5.25v10.667q0 3.27.687 4.896v.25zm-7.834-1.792q2.5 0 4.459-1.208 1.979-1.208 2.875-3.23v-4.958h-4.459q-3.729.042-5.833 1.375-2.104 1.312-2.104 3.625 0 1.896 1.396 3.146 1.416 1.25 3.666 1.25m20.334-26.521v5.77h4.666v2.043h-4.666v15.02q0 1.874.666 2.792.689.917 2.271.917.625 0 2.021-.209l.104 2.042q-.98.354-2.667.354-2.561 0-3.729-1.479-1.166-1.5-1.166-4.396V52.352h-4.146V50.31h4.146v-5.771zm23 28.313h-2.5V50.31h2.5zm-2.938-29.063q0-.708.458-1.187.46-.5 1.25-.5.792 0 1.25.5.48.479.48 1.187t-.48 1.188q-.458.479-1.25.479-.79 0-1.25-.48-.458-.479-.458-1.187m23.208 23.333q0-1.854-1.5-2.979-1.479-1.125-4.479-1.75-3-.645-4.666-1.458-1.647-.834-2.459-2.021-.79-1.188-.791-2.875 0-2.667 2.229-4.396 2.23-1.75 5.708-1.75 3.771 0 6.042 1.875 2.291 1.854 2.291 4.854h-2.5q0-1.98-1.666-3.291-1.645-1.313-4.167-1.313-2.458 0-3.958 1.104-1.48 1.084-1.48 2.834 0 1.687 1.23 2.625 1.25.915 4.52 1.687 3.293.771 4.917 1.646 1.647.875 2.438 2.104t.791 2.98q0 2.853-2.312 4.562-2.292 1.708-6 1.708-3.938 0-6.396-1.896-2.437-1.916-2.437-4.833h2.5q.145 2.187 1.833 3.417 1.708 1.208 4.5 1.208 2.604 0 4.208-1.146t1.605-2.896zm37.834-5.333q0 5.208-2.375 8.354-2.355 3.126-6.375 3.125-3.417 0-5.521-2.375v10.625h-6.02V50.31h5.583l.208 2.208q2.187-2.625 5.708-2.625 4.167 0 6.48 3.084 2.312 3.082 2.312 8.5zm-6.021-.437q0-3.147-1.125-4.855-1.103-1.708-3.23-1.708-2.832 0-3.895 2.167v9.229q1.104 2.229 3.938 2.229 4.312 0 4.312-7.062m22.417-5.396a16 16 0 0 0-2.167-.167q-3.416 0-4.48 2.313v14.75h-6.02V50.31h5.688l.166 2.687q1.813-3.105 5.021-3.104 1 0 1.875.271zm12.875 17.312q-4.959 0-8.084-3.041-3.105-3.042-3.104-8.105v-.583q0-3.396 1.313-6.062 1.312-2.688 3.708-4.125 2.416-1.46 5.5-1.459 4.625 0 7.27 2.917 2.668 2.916 2.668 8.27v2.459H234.26q.292 2.208 1.75 3.542 1.48 1.333 3.73 1.333 3.478 0 5.437-2.52l2.958 3.312q-1.354 1.915-3.666 3-2.313 1.062-5.125 1.062m-.688-18.5q-1.791 0-2.916 1.209-1.105 1.208-1.417 3.458h8.375v-.48q-.042-1.999-1.083-3.083-1.042-1.104-2.959-1.104m15.021 18.084V54.727h-3.354V50.31h3.354v-1.917q0-3.792 2.167-5.875 2.187-2.104 6.104-2.104 1.25 0 3.062.417l-.062 4.666q-.75-.187-1.833-.187-3.396 0-3.396 3.187v1.813h4.479v4.417h-4.48v18.125zm23.52.416q-4.958 0-8.082-3.041-3.105-3.042-3.105-8.105v-.583q0-3.396 1.313-6.062 1.313-2.688 3.708-4.125 2.417-1.46 5.5-1.459 4.626 0 7.271 2.917 2.667 2.916 2.667 8.27v2.459h-14.354q.29 2.208 1.75 3.542 1.479 1.333 3.729 1.333 3.48 0 5.437-2.52l2.959 3.312q-1.354 1.915-3.667 3-2.313 1.062-5.125 1.062zm-.687-18.5q-1.791 0-2.916 1.209-1.104 1.208-1.417 3.458h8.375v-.48q-.042-1.999-1.083-3.083-1.041-1.104-2.959-1.104m20.584-10v5.542h3.854v4.417h-3.854v11.25q0 1.25.479 1.791.48.542 1.833.542a9.6 9.6 0 0 0 1.771-.146v4.563a12.4 12.4 0 0 1-3.646.541q-6.333 0-6.458-6.396V54.727h-3.292V50.31h3.292v-5.542h6.02zm16.583 23.646q1.667 0 2.708-.917 1.042-.916 1.084-2.437h5.646a7.8 7.8 0 0 1-1.25 4.208q-1.23 1.896-3.375 2.959-2.126 1.041-4.709 1.041-4.833 0-7.625-3.062-2.79-3.084-2.791-8.5v-.396q0-5.208 2.77-8.313t7.605-3.104q4.229 0 6.77 2.417 2.563 2.395 2.605 6.396h-5.646q-.043-1.75-1.084-2.834-1.04-1.104-2.75-1.104-2.103 0-3.187 1.542-1.062 1.521-1.063 4.958v.625q0 3.48 1.063 5t3.229 1.521m18.75-15.646q2.396-2.874 6.02-2.875 7.335 0 7.438 8.521v14.438h-6.02V58.58q0-1.938-.834-2.854-.833-.938-2.77-.938-2.647 0-3.834 2.042v16.02h-6.02v-32h6.02v11.917zm23.521 11.667q.042-2.458.667-3.958.624-1.5 2.687-3.521 2.063-2.042 2.646-2.875a6.6 6.6 0 0 0 .917-1.854q.333-1.021.333-2.313 0-2.604-1.396-4.083-1.375-1.5-3.854-1.5-2.5 0-4.042 1.437-1.521 1.418-1.562 3.854h-2.48q.043-3.416 2.313-5.458 2.272-2.062 5.77-2.062 3.585-.001 5.647 2.104 2.083 2.083 2.083 5.666 0 2.25-1.02 4.23-1.022 1.958-3.876 4.583-2.355 1.98-2.354 5.75zm-.333 6.958q0-.708.437-1.187.46-.5 1.27-.5.793 0 1.25.5.48.48.48 1.187 0 .688-.48 1.167-.457.458-1.25.458-.81 0-1.27-.458a1.67 1.67 0 0 1-.437-1.167"/><path d="M128.602 532.157h410.96v128.546h-410.96z"/><path fill="#ea4335" fill-rule="nonzero" d="m160.352 568.315 3.062-16.188h4.667l-5.042 22.75h-4.708l-3.708-15.229-3.709 15.23h-4.708l-5.062-22.75h4.687l3.063 16.145 3.75-16.146h3.979zm14.734 6.562h-4.52v-16.916h4.52zm-4.791-21.291q0-1 .666-1.646.688-.667 1.854-.667t1.855.667q.687.646.687 1.646 0 1.042-.708 1.708-.688.645-1.834.646-1.124 0-1.833-.646-.687-.666-.687-1.708m13.922.229v4.146h2.895v3.312h-2.895v8.438q0 .937.354 1.354.354.396 1.375.396.75 0 1.333-.104v3.416a9.1 9.1 0 0 1-2.73.417q-4.75 0-4.853-4.792v-9.125h-2.459v-3.312h2.459v-4.146zm9.812 6q1.791-2.167 4.52-2.167 5.502 0 5.563 6.396v10.833h-4.5V564.17q0-1.458-.625-2.146-.624-.687-2.083-.687-1.98 0-2.875 1.52v12.021h-4.52v-24h4.52zm12.802 6.458q0-2.52.958-4.479.98-1.98 2.792-3.062 1.812-1.084 4.23-1.084 3.415 0 5.583 2.104 2.166 2.084 2.416 5.688l.021 1.146q0 3.895-2.167 6.25t-5.833 2.354q-3.645 0-5.833-2.333-2.167-2.355-2.167-6.396zm4.5.313q0 2.416.896 3.687.917 1.271 2.604 1.271 1.645 0 2.563-1.25.937-1.27.937-4.02 0-2.376-.937-3.667-.918-1.292-2.584-1.292t-2.583 1.292q-.896 1.29-.896 3.979m24.406 6.562q-1.665 2.042-4.625 2.042-2.708 0-4.145-1.563-1.417-1.562-1.459-4.583v-11.083h4.521v10.937q0 2.625 2.396 2.625 2.313 0 3.167-1.583v-11.98h4.52v16.917h-4.25zm13.198-19.333v4.146h2.896v3.312h-2.896v8.438q0 .937.354 1.354.355.396 1.375.396.75 0 1.334-.104v3.416a9.1 9.1 0 0 1-2.73.417q-4.749 0-4.854-4.792v-9.125h-2.458v-3.312h2.458v-4.146zm18.365 13.042v8.02h-4.688v-22.75h8.875q2.564 0 4.5.938 1.938.938 2.98 2.667 1.062 1.729 1.062 3.916 0 3.354-2.292 5.292-2.291 1.917-6.333 1.917zm0-3.792h4.187q1.853 0 2.834-.875.979-.875.979-2.5 0-1.666-1-2.688-.98-1.041-2.708-1.083H267.3zm25.14-.854a12 12 0 0 0-1.625-.125q-2.562 0-3.354 1.729v11.062h-4.52v-16.916h4.27l.125 2.02q1.355-2.333 3.771-2.333.75 0 1.396.209zm9.667 12.979q-3.73 0-6.062-2.27-2.334-2.293-2.334-6.084v-.438q0-2.562.98-4.562 1-2 2.791-3.084 1.812-1.104 4.125-1.104 3.459 0 5.458 2.188t2 6.208v1.854h-10.77q.208 1.647 1.312 2.646 1.104 1 2.792 1 2.604 0 4.083-1.896l2.208 2.5q-1 1.438-2.75 2.25-1.728.792-3.833.792m-.52-13.875q-1.335 0-2.188.917-.834.895-1.063 2.583h6.292v-.354q-.042-1.5-.833-2.313-.77-.833-2.209-.833zm11.275 13.562v-13.604h-2.52v-3.312h2.52v-1.438q0-2.833 1.625-4.396 1.626-1.583 4.563-1.583.938 0 2.312.313l-.062 3.5q-.562-.146-1.375-.146-2.542 0-2.542 2.396v1.354h3.354v3.312h-3.354v13.604zm17.636.313q-3.729 0-6.063-2.27-2.333-2.293-2.333-6.084v-.438q0-2.562.98-4.562.999-2 2.79-3.084 1.814-1.104 4.126-1.104 3.458 0 5.458 2.188t2 6.208v1.854h-10.77q.207 1.647 1.312 2.646 1.104 1 2.791 1 2.605 0 4.084-1.896l2.208 2.5q-1 1.438-2.75 2.25-1.729.792-3.833.792m-.521-13.875q-1.333 0-2.188.917-.833.895-1.062 2.583h6.292v-.354q-.042-1.5-.834-2.313-.771-.833-2.208-.833m15.443-7.5v4.146h2.895v3.312h-2.895v8.438q0 .937.354 1.354.354.396 1.375.396.75 0 1.333-.104v3.416a9.1 9.1 0 0 1-2.729.417q-4.75 0-4.854-4.792v-9.125h-2.459v-3.312h2.459v-4.146zm12.437 17.73q1.25 0 2.021-.688.792-.688.812-1.834h4.25a5.8 5.8 0 0 1-.958 3.167q-.917 1.416-2.52 2.208-1.584.792-3.522.792-3.624 0-5.729-2.292-2.083-2.312-2.083-6.375v-.312q0-3.896 2.062-6.23 2.084-2.333 5.709-2.333 3.166 0 5.083 1.813t1.958 4.812h-4.25q-.02-1.312-.812-2.125-.77-.833-2.063-.833-1.562 0-2.375 1.146t-.812 3.729v.458q0 2.625.792 3.771.812 1.125 2.437 1.125zm14.063-11.73q1.791-2.167 4.52-2.167 5.5 0 5.563 6.396v10.833h-4.5V564.17q0-1.458-.625-2.146t-2.083-.687q-1.98 0-2.875 1.52v12.021h-4.521v-24h4.52v8.938zm13.718 12.833q0-1.062.709-1.729.729-.687 1.833-.687c1.104 0 1.347.229 1.833.687q.73.667.73 1.73t-.73 1.728q-.708.667-1.833.667-1.104 0-1.833-.667-.708-.666-.709-1.729m0-12.791q0-1.063.709-1.73.729-.687 1.833-.687c1.104 0 1.347.23 1.833.687q.73.667.73 1.73t-.73 1.729q-.708.666-1.833.666-1.104 0-1.833-.666-.708-.667-.709-1.73z"/><path fill="#666" fill-rule="nonzero" d="M152.644 603.884h-7.667v6.25h8.917v1.917h-11.23v-17.688h11.105v1.917h-8.792v5.687h7.667zm11.908 8.167q-.188-.396-.312-1.375-1.563 1.625-3.75 1.625-1.938 0-3.188-1.104-1.23-1.104-1.229-2.792 0-2.042 1.542-3.167 1.563-1.146 4.396-1.146h2.187v-1.041q0-1.188-.708-1.875-.687-.708-2.063-.709-1.208 0-2.02.625-.813.605-.813 1.459h-2.27q0-.98.687-1.896.708-.916 1.896-1.438 1.208-.54 2.645-.541 2.271 0 3.563 1.146 1.291 1.125 1.333 3.104v6.041q0 1.813.459 2.896v.188zm-3.729-1.709q1.063 0 2-.541.959-.562 1.375-1.438v-2.687h-1.75q-4.146 0-4.146 2.416 0 1.063.709 1.667.708.583 1.812.583m14.427.125q1.187 0 2.083-.729.916-.729 1-1.833h2.125q-.063 1.125-.77 2.146-.71 1.02-1.917 1.646a5.5 5.5 0 0 1-2.521.604q-2.688 0-4.271-1.792-1.584-1.791-1.583-4.917v-.375q0-1.917.687-3.395.708-1.5 2.02-2.313 1.334-.833 3.126-.833 2.208 0 3.667 1.333 1.478 1.313 1.562 3.417h-2.125q-.084-1.27-.958-2.084-.876-.833-2.146-.833-1.708 0-2.667 1.23-.937 1.228-.937 3.562v.437q0 2.27.937 3.5t2.688 1.23zm9.979-9.958q1.5-1.833 3.895-1.833 4.166 0 4.209 4.687v8.688h-2.25v-8.688q-.02-1.437-.667-2.104-.625-.687-1.98-.687-1.082 0-1.916.583a4.14 4.14 0 0 0-1.291 1.542v9.354h-2.23v-18.667h2.23zm25.275 8.063q0-.917-.688-1.417t-2.395-.854q-1.71-.375-2.709-.875-1-.52-1.479-1.23-.48-.708-.48-1.687 0-1.605 1.355-2.708 1.375-1.125 3.5-1.125 2.23 0 3.625 1.146t1.396 2.958h-2.25q0-.938-.792-1.604t-1.979-.667q-1.23 0-1.917.542-.687.52-.687 1.396 0 .812.646 1.229.645.417 2.312.791 1.688.376 2.73.896 1.041.522 1.541 1.25.52.73.52 1.792 0 1.77-1.416 2.833-1.395 1.063-3.646 1.063-1.583 0-2.812-.563-1.209-.563-1.896-1.562a3.75 3.75 0 0 1-.687-2.167h2.25q.062 1.125.895 1.792.855.666 2.25.666 1.272 0 2.042-.52.77-.522.77-1.375zm13.284 2.187q-1.313 1.542-3.854 1.542-2.104 0-3.208-1.23-1.083-1.228-1.104-3.604v-8.562h2.25v8.5q0 2.98 2.437 2.98 2.563 0 3.417-1.918v-9.562h2.25v13.146h-2.146zm16.734-5.125q0 3-1.396 4.833-1.375 1.834-3.708 1.834-2.5 0-3.854-1.771l-.104 1.52h-2.063v-18.666h2.23v6.98q1.374-1.688 3.75-1.688 2.394 0 3.77 1.812 1.375 1.792 1.375 4.938zm-2.25-.27q0-2.292-.896-3.542-.875-1.25-2.541-1.25-2.23 0-3.209 2.062v5.688q1.042 2.062 3.23 2.062 1.625 0 2.52-1.25c.895-1.25.896-2.09.896-3.77M251 608.571q0-.917-.688-1.417t-2.396-.854q-1.708-.375-2.708-.875-1-.52-1.48-1.23-.478-.708-.478-1.687 0-1.605 1.354-2.708 1.374-1.125 3.5-1.125 2.229 0 3.625 1.146t1.396 2.958h-2.25q0-.938-.792-1.604t-1.98-.667q-1.229 0-1.916.542-.687.52-.687 1.396 0 .812.645 1.229.647.417 2.313.791 1.688.376 2.73.896 1.04.522 1.54 1.25.522.73.522 1.792 0 1.77-1.417 2.833-1.395 1.063-3.646 1.063-1.583 0-2.812-.563-1.209-.563-1.896-1.562a3.75 3.75 0 0 1-.688-2.167h2.25q.062 1.125.896 1.792.855.666 2.25.666 1.27 0 2.042-.52.77-.522.77-1.375zm10.617 3.729q-2.666 0-4.354-1.75-1.666-1.77-1.666-4.709v-.416q0-1.958.75-3.48.75-1.541 2.083-2.395a5.3 5.3 0 0 1 2.917-.875q2.562 0 3.979 1.687 1.416 1.687 1.416 4.834v.916h-8.895q.04 1.959 1.125 3.167 1.105 1.188 2.77 1.187 1.188 0 2.021-.479a5.1 5.1 0 0 0 1.438-1.291l1.375 1.062q-1.645 2.542-4.959 2.542m-.27-11.792q-1.354 0-2.292 1-.916.98-1.125 2.771h6.583v-.167q-.105-1.708-.937-2.646-.813-.957-2.23-.958zm7.449 4.854q0-3.082 1.417-4.875 1.437-1.812 3.833-1.812 2.333 0 3.667 1.562l.104-1.333h2.062v18.208h-2.25v-6.27q-1.354 1.458-3.625 1.458-2.375 0-3.791-1.854-1.417-1.854-1.417-4.917zm2.25.271q0 2.25.958 3.542.959 1.29 2.563 1.291 2.02 0 3.062-1.77v-6.438q-1.062-1.75-3.041-1.75-1.626 0-2.584 1.292-.958 1.291-.958 3.833m20.554 5.125q-1.313 1.542-3.854 1.542-2.103 0-3.208-1.23-1.083-1.228-1.104-3.604v-8.562h2.25v8.5q0 2.98 2.437 2.98 2.564 0 3.417-1.918v-9.562h2.25v13.146h-2.146zm11.047 1.542q-2.667 0-4.355-1.75-1.665-1.77-1.666-4.709v-.416q0-1.958.75-3.48.75-1.541 2.083-2.395a5.3 5.3 0 0 1 2.917-.875q2.563 0 3.979 1.687c1.416 1.687 1.417 2.736 1.417 4.834v.916h-8.896q.042 1.959 1.125 3.167 1.105 1.188 2.77 1.187 1.188 0 2.021-.479a5.1 5.1 0 0 0 1.438-1.291l1.375 1.062q-1.646 2.542-4.958 2.542m-.271-11.792q-1.354 0-2.292 1-.916.98-1.125 2.771h6.583v-.167q-.103-1.708-.937-2.646-.813-.957-2.23-.958zm10.137-1.604.062 1.646q1.5-1.875 3.938-1.875 4.166 0 4.208 4.687v8.688h-2.25v-8.688q-.02-1.437-.667-2.104-.624-.687-1.979-.687-1.083 0-1.917.583a4.14 4.14 0 0 0-1.291 1.542v9.354h-2.23v-13.146zm14.641-3.188v3.188h2.459v1.75h-2.459v8.146q0 .792.313 1.187.333.396 1.125.396.396 0 1.083-.146v1.813a6.4 6.4 0 0 1-1.73.25q-1.5 0-2.27-.917c-.77-.917-.77-1.472-.77-2.583v-8.146h-2.397v-1.75h2.396v-3.188zm22.326 9.917q0 3-1.375 4.833-1.355 1.834-3.709 1.834-2.396 0-3.77-1.521v6.333h-2.23v-18.208h2.042l.104 1.458q1.375-1.687 3.813-1.687 2.375 0 3.75 1.791 1.375 1.772 1.375 4.959zm-2.23-.27q0-2.21-.958-3.5-.937-1.293-2.604-1.292-2.041 0-3.063 1.812v6.271q1.022 1.812 3.105 1.812 1.604 0 2.562-1.27.958-1.292.958-3.834zm13.206 6.687q-.187-.396-.312-1.375-1.563 1.625-3.75 1.625-1.938 0-3.188-1.104-1.23-1.104-1.229-2.792 0-2.042 1.542-3.167 1.562-1.146 4.395-1.146h2.188v-1.041q0-1.188-.708-1.875-.688-.708-2.063-.709-1.208 0-2.02.625-.813.605-.813 1.459h-2.271q0-.98.687-1.896.71-.916 1.896-1.438a6.4 6.4 0 0 1 2.646-.541q2.271 0 3.563 1.146 1.29 1.124 1.333 3.104v6.041q0 1.813.458 2.896v.188zm-3.729-1.709q1.062 0 2-.541.958-.562 1.375-1.438v-2.687h-1.75q-4.146 0-4.146 2.416 0 1.063.708 1.667.71.583 1.813.583m8.614-4.979q0-3.062 1.417-4.875 1.416-1.812 3.77-1.812 2.397 0 3.75 1.687l.105-1.458h2.062v12.833q0 2.542-1.52 4-1.5 1.48-4.063 1.48a6.9 6.9 0 0 1-2.792-.605q-1.354-.603-2.062-1.666l1.166-1.334q1.439 1.77 3.542 1.771 1.624 0 2.542-.917.916-.916.916-2.604v-1.125q-1.333 1.563-3.666 1.563-2.313 0-3.75-1.854-1.417-1.875-1.417-5.084m2.25.271q0 2.208.917 3.48.916 1.27 2.562 1.27 2.125 0 3.104-1.937v-6q-1.02-1.875-3.083-1.875-1.646 0-2.583 1.27-.917 1.272-.917 3.792m17.685 6.667q-2.668 0-4.354-1.75-1.667-1.77-1.667-4.709v-.416q0-1.958.75-3.48.75-1.541 2.083-2.395a5.3 5.3 0 0 1 2.917-.875q2.562 0 3.98 1.687 1.416 1.687 1.416 4.834v.916h-8.896q.042 1.959 1.125 3.167 1.105 1.188 2.77 1.187 1.189 0 2.022-.479a5.1 5.1 0 0 0 1.437-1.291l1.375 1.062q-1.646 2.542-4.958 2.542m-.271-11.792q-1.355 0-2.292 1-.916.98-1.125 2.771h6.584v-.167q-.104-1.708-.938-2.646-.812-.957-2.229-.958m16.274-1.604.062 1.458q1.438-1.687 3.896-1.687 2.751 0 3.75 2.104a4.9 4.9 0 0 1 1.709-1.52q1.062-.585 2.479-.584 4.333 0 4.396 4.562v8.813h-2.23v-8.667q0-1.416-.645-2.104-.646-.708-2.167-.708-1.25 0-2.083.75-.812.75-.959 2v8.729h-2.25v-8.604q0-2.875-2.812-2.875-2.209 0-3.021 1.875v9.604h-2.25v-13.146zm27.802 13.146q-.188-.396-.312-1.375-1.563 1.625-3.75 1.625-1.938 0-3.188-1.104-1.23-1.104-1.23-2.792 0-2.042 1.543-3.167 1.562-1.146 4.395-1.146h2.188v-1.041q0-1.188-.708-1.875-.688-.708-2.063-.709-1.21 0-2.02.625-.813.605-.813 1.459h-2.271q0-.98.687-1.896.71-.916 1.896-1.438a6.4 6.4 0 0 1 2.646-.541q2.27 0 3.563 1.146 1.29 1.124 1.333 3.104v6.041q0 1.813.458 2.896v.188zm-3.73-1.709q1.064 0 2-.541.96-.562 1.376-1.438v-2.687h-1.75q-4.146 0-4.146 2.416 0 1.063.708 1.667.71.583 1.813.583zm13.266-1.583 3.062-9.854h2.396l-5.27 15.167q-1.23 3.291-3.896 3.291l-.438-.041-.833-.167v-1.813l.604.042q1.146 0 1.77-.458.646-.459 1.063-1.688l.5-1.333-4.687-13h2.458zm16.677-13.042v3.188h2.459v1.75h-2.459v8.146q0 .792.313 1.187.333.396 1.125.396.396 0 1.083-.146v1.813a6.4 6.4 0 0 1-1.729.25q-1.5 0-2.27-.917-.772-.916-.772-2.583v-8.146h-2.395v-1.75h2.395v-3.188zm13.189 16.334q-.188-.396-.313-1.375-1.563 1.625-3.75 1.625-1.938 0-3.187-1.104-1.23-1.104-1.23-2.792 0-2.042 1.542-3.167 1.563-1.146 4.396-1.146h2.187v-1.041q0-1.188-.708-1.875-.687-.708-2.062-.709-1.21 0-2.021.625-.813.605-.813 1.459h-2.27q0-.98.687-1.896.708-.916 1.896-1.438 1.207-.54 2.646-.541 2.27 0 3.562 1.146 1.292 1.124 1.333 3.104v6.041q0 1.813.459 2.896v.188zm-3.73-1.709q1.063 0 2-.541.96-.562 1.375-1.438v-2.687h-1.75q-4.146 0-4.145 2.416 0 1.063.708 1.667.708.583 1.812.583m12.823-4.375-1.417 1.459v4.625h-2.25v-18.667h2.25v11.292l1.208-1.438 4.084-4.333h2.729l-5.104 5.5 5.708 7.646h-2.646zm14.135 6.334q-2.667 0-4.354-1.75-1.667-1.77-1.667-4.709v-.416q0-1.958.75-3.48.75-1.541 2.084-2.395a5.3 5.3 0 0 1 2.916-.875q2.563 0 3.98 1.687t1.416 4.834v.916h-8.896q.042 1.958 1.125 3.167 1.104 1.188 2.771 1.187 1.188 0 2.02-.479a5.1 5.1 0 0 0 1.438-1.291l1.375 1.062q-1.646 2.542-4.958 2.542m-.27-11.792q-1.355 0-2.292 1-.918.98-1.125 2.771h6.583v-.167q-.105-1.708-.938-2.646-.811-.957-2.229-.958zm15.657 8.063q0-.917-.688-1.417t-2.396-.854q-1.707-.375-2.708-.875-1-.52-1.48-1.23-.478-.708-.478-1.687 0-1.605 1.354-2.708 1.375-1.125 3.5-1.125 2.229 0 3.625 1.146t1.396 2.958h-2.25q0-.938-.792-1.604-.791-.667-1.98-.667-1.228 0-1.916.542-.687.52-.687 1.396 0 .812.646 1.229.644.417 2.312.791 1.688.376 2.73.896 1.042.522 1.54 1.25.522.73.522 1.792 0 1.77-1.417 2.833-1.396 1.063-3.646 1.063-1.583 0-2.812-.563-1.209-.563-1.896-1.562a3.75 3.75 0 0 1-.688-2.167h2.25q.062 1.125.896 1.792.855.666 2.25.666 1.27 0 2.042-.52.77-.522.77-1.375zm-357.142 34.667q0-.916-.687-1.416t-2.396-.855q-1.71-.375-2.709-.875-1-.52-1.479-1.229-.48-.708-.479-1.687 0-1.604 1.354-2.709 1.376-1.125 3.5-1.125 2.23 0 3.625 1.146t1.396 2.959h-2.25q0-.937-.792-1.605-.79-.666-1.979-.666-1.23 0-1.916.541-.688.522-.688 1.396 0 .813.646 1.23.645.416 2.312.791 1.688.375 2.73.896 1.041.52 1.541 1.25.52.729.521 1.792 0 1.77-1.417 2.833-1.395 1.062-3.645 1.062-1.584 0-2.813-.562-1.208-.562-1.896-1.563a3.75 3.75 0 0 1-.687-2.166h2.25q.062 1.125.896 1.791.853.667 2.25.667 1.27 0 2.041-.52.771-.522.771-1.376m7.618 3.48h-2.25v-13.146h2.25zm-2.438-16.626q0-.54.334-.916.333-.396.979-.396.666 0 1 .396.354.375.354.916 0 .543-.354.917-.334.354-1 .354-.645 0-.98-.354a1.33 1.33 0 0 1-.333-.917m5.495 9.938q0-3.063 1.417-4.875 1.416-1.812 3.77-1.813 2.397 0 3.75 1.688l.105-1.458h2.062v12.833q0 2.542-1.52 4-1.5 1.48-4.063 1.48a6.9 6.9 0 0 1-2.792-.605q-1.353-.604-2.062-1.667l1.167-1.333q1.438 1.77 3.541 1.77 1.625 0 2.542-.916t.917-2.604v-1.125q-1.334 1.563-3.667 1.562-2.313 0-3.75-1.854-1.416-1.875-1.417-5.083m2.25.27q0 2.21.917 3.48c.917 1.27 1.465 1.27 2.562 1.27q2.126 0 3.105-1.937v-6q-1.02-1.875-3.084-1.875-1.646 0-2.583 1.271-.917 1.27-.917 3.792zm14.373-6.728.062 1.645q1.5-1.875 3.938-1.875 4.166 0 4.208 4.688v8.687h-2.25v-8.687q-.02-1.437-.667-2.104-.624-.688-1.979-.688-1.083 0-1.916.584a4.14 4.14 0 0 0-1.292 1.541v9.354h-2.23v-13.145zm14.037 13.145h-2.25v-13.145h2.25zm-2.437-16.625q0-.54.333-.916.333-.396.98-.396.666 0 1 .396.353.375.353.916 0 .543-.354.917-.333.354-1 .354-.646 0-.979-.354a1.33 1.33 0 0 1-.333-.917m6.786 16.625v-11.395h-2.083v-1.75h2.083v-1.105q0-2.208 1.25-3.437 1.25-1.23 3.563-1.23 1.354 0 3.437.75l-.375 1.897q-1.52-.605-2.896-.605-1.458 0-2.104.646-.625.646-.625 1.938v1.146h2.688v1.75h-2.688v11.395zm9.354 0h-2.25v-13.145h2.25zm8.94-1.583q1.188 0 2.084-.729.916-.729 1-1.833h2.125q-.063 1.125-.77 2.145-.71 1.022-1.917 1.646a5.5 5.5 0 0 1-2.521.604q-2.688 0-4.271-1.791-1.584-1.793-1.583-4.917v-.375q0-1.917.687-3.396.708-1.5 2.02-2.312 1.334-.834 3.126-.834 2.208 0 3.667 1.334 1.478 1.313 1.562 3.416h-2.125q-.084-1.27-.958-2.083-.876-.833-2.146-.833-1.71 0-2.667 1.229-.937 1.23-.937 3.562v.438q0 2.27.937 3.5t2.688 1.23zm15.855 1.583q-.188-.395-.313-1.375-1.563 1.625-3.75 1.625-1.938 0-3.187-1.104-1.23-1.104-1.23-2.791 0-2.042 1.542-3.167 1.563-1.146 4.396-1.146h2.187v-1.042q0-1.187-.708-1.875-.687-.708-2.062-.708-1.21 0-2.021.625-.813.605-.813 1.458h-2.27q0-.978.687-1.895.708-.916 1.896-1.438 1.207-.542 2.646-.542 2.27 0 3.562 1.146 1.292 1.125 1.333 3.104v6.042q0 1.813.459 2.896v.187zm-3.73-1.708q1.063 0 2-.542.96-.563 1.375-1.437v-2.688h-1.75q-4.146 0-4.145 2.417 0 1.062.708 1.667.708.583 1.812.583m11.281-11.437.062 1.645q1.5-1.875 3.938-1.875 4.166 0 4.208 4.688v8.687h-2.25v-8.687q-.021-1.437-.666-2.104-.626-.688-1.98-.688-1.083 0-1.916.584a4.14 4.14 0 0 0-1.292 1.541v9.354h-2.229v-13.145zm14.642-3.188v3.188h2.458v1.75h-2.458v8.145q0 .792.312 1.188.333.396 1.125.396.396 0 1.083-.146v1.812a6.4 6.4 0 0 1-1.729.25q-1.5 0-2.27-.916-.771-.916-.771-2.584v-8.145h-2.396v-1.75h2.396v-3.188zm14.283 0v3.188h2.459v1.75h-2.459v8.145q0 .792.313 1.188.333.396 1.125.396.396 0 1.083-.146v1.812a6.4 6.4 0 0 1-1.729.25q-1.5 0-2.27-.916-.772-.916-.772-2.584v-8.145h-2.396v-1.75h2.396v-3.188zm7.522 16.333h-2.25v-13.145h2.25zm-2.438-16.625q0-.54.334-.916.333-.396.979-.396.667 0 1 .396.354.375.354.916 0 .543-.354.917-.333.354-1 .354-.645 0-.98-.354a1.33 1.33 0 0 1-.333-.917m8.141 3.48.063 1.458q1.437-1.688 3.895-1.688 2.751 0 3.75 2.105a4.9 4.9 0 0 1 1.709-1.521q1.062-.584 2.479-.584 4.333 0 4.396 4.563v8.812h-2.23v-8.666q0-1.417-.645-2.104-.646-.71-2.167-.709-1.25 0-2.083.75-.812.75-.959 2v8.73h-2.25v-8.605q0-2.875-2.812-2.875-2.209 0-3.02 1.875v9.604h-2.25v-13.145zm25.135 13.395q-2.666 0-4.354-1.75-1.666-1.77-1.666-4.708v-.417q0-1.958.75-3.479.75-1.54 2.083-2.396a5.3 5.3 0 0 1 2.917-.875q2.562 0 3.979 1.688 1.416 1.688 1.416 4.833v.917h-8.895q.04 1.958 1.125 3.167 1.105 1.187 2.77 1.187 1.188 0 2.021-.479a5.1 5.1 0 0 0 1.438-1.292l1.375 1.063q-1.645 2.541-4.959 2.541m-.27-11.791q-1.354 0-2.292 1-.916.98-1.125 2.77h6.583v-.166q-.105-1.708-.937-2.646-.813-.958-2.23-.958zm17.211-4.792v3.188h2.458v1.75h-2.458v8.145q0 .792.313 1.188.333.396 1.125.396.395 0 1.083-.146v1.812a6.4 6.4 0 0 1-1.73.25q-1.5 0-2.27-.916c-.77-.916-.771-1.472-.771-2.584v-8.145h-2.396v-1.75h2.396v-3.188zm4.237 9.646q0-1.937.75-3.48.77-1.541 2.125-2.374t3.083-.834q2.688 0 4.333 1.855 1.668 1.854 1.667 4.937v.167q0 1.917-.729 3.437-.73 1.521-2.104 2.375-1.355.855-3.146.854-2.667 0-4.333-1.854-1.646-1.875-1.646-4.937zm2.25.27q0 2.19 1.02 3.522 1.022 1.312 2.709 1.312 1.729 0 2.73-1.333 1-1.355 1-3.771 0-2.166-1.022-3.5-1.02-1.354-2.729-1.354-1.667 0-2.687 1.333-1.02 1.312-1.021 3.792zm21.136 6.417h-2.25v-18.666h2.25zm2.995-6.687q0-1.937.75-3.48.77-1.541 2.125-2.374t3.083-.834q2.687 0 4.334 1.855 1.665 1.854 1.666 4.937v.167q0 1.917-.729 3.437-.729 1.521-2.104 2.375-1.354.855-3.146.854-2.667 0-4.333-1.854-1.646-1.875-1.646-4.937zm2.25.27q0 2.19 1.02 3.522 1.021 1.312 2.71 1.312 1.728 0 2.728-1.333 1-1.355 1-3.771 0-2.166-1.02-3.5-1.02-1.354-2.73-1.354-1.666 0-2.687 1.333-1.02 1.312-1.021 3.792zm20.645 6.417q-.188-.395-.313-1.375-1.561 1.625-3.75 1.625-1.937 0-3.187-1.104-1.23-1.104-1.23-2.791 0-2.042 1.542-3.167 1.563-1.146 4.396-1.146h2.188v-1.042q0-1.187-.709-1.875-.687-.708-2.062-.708-1.21 0-2.021.625-.813.605-.813 1.458h-2.27q0-.978.687-1.895.708-.916 1.896-1.438 1.207-.542 2.646-.542 2.27 0 3.562 1.146 1.292 1.125 1.334 3.104v6.042q0 1.813.458 2.896v.187zm-3.73-1.708a3.9 3.9 0 0 0 2-.542q.96-.562 1.376-1.437v-2.688h-1.75q-4.146 0-4.146 2.417 0 1.062.708 1.667.708.583 1.813.583zm8.594-4.979q0-3.021 1.437-4.854 1.439-1.833 3.75-1.834 2.313 0 3.667 1.563v-6.854h2.25v18.666h-2.063l-.125-1.416q-1.332 1.666-3.75 1.666-2.27 0-3.729-1.875-1.437-1.875-1.437-4.875zm2.25.27q0 2.23.916 3.5.938 1.25 2.563 1.25 2.145 0 3.125-1.916v-6.042q-1.02-1.854-3.104-1.854-1.646 0-2.584 1.271-.916 1.27-.916 3.792zm12.383 5.23q0-.583.333-.958.354-.396 1.042-.396.708 0 1.062.396.354.376.354.958 0 .562-.354.937c-.354.375-.59.375-1.062.375q-.688 0-1.042-.375-.333-.375-.333-.937"/><path fill="#fff" d="M758.766 337.453h39.097v32.966h-39.097z"/><path fill="#ea9999" fill-opacity=".561" d="M396.447 233.68h137.785v237.858H396.447z"/><path stroke="#ea4335" stroke-linejoin="round" stroke-width="2" d="M396.447 233.68h137.785v237.858H396.447z"/><path d="M586.667 173.169v515.527"/><path stroke="#999" stroke-dasharray="4 3" stroke-linejoin="round" d="M586.667 173.169v515.527"/><path d="M223.866 318.464h199.476v68.661H223.866z"/><path fill="#ea4335" fill-rule="nonzero" d="M241.096 351.42h7.729v2.937H237.45V336.67h3.646zm9.032-3.75q0-1.959.75-3.48.77-1.541 2.188-2.375 1.416-.833 3.27-.833 2.667 0 4.355 1.625t1.875 4.417l.02.896q0 3.02-1.687 4.854-1.687 1.833-4.542 1.833-2.834 0-4.541-1.812-1.688-1.834-1.688-4.98zm3.52.25q0 1.875.71 2.875.707.978 2.02.979 1.27 0 1.98-.98.728-.978.728-3.124 0-1.834-.729-2.834-.708-1.02-2.02-1.02-1.272 0-1.98 1-.708.998-.708 3.104zm18.712 6.437a4.6 4.6 0 0 1-.354-1.187q-1.272 1.437-3.313 1.437-1.938 0-3.208-1.125-1.25-1.125-1.25-2.812 0-2.105 1.541-3.209 1.542-1.125 4.48-1.125h1.604v-.77q0-.897-.48-1.438-.457-.563-1.458-.563-.874 0-1.396.438-.5.417-.5 1.167h-3.5q0-1.146.688-2.105.708-.979 2-1.52 1.291-.563 2.896-.563 2.416 0 3.833 1.23 1.438 1.208 1.438 3.416v5.687q.02 1.875.52 2.834v.208zm-2.896-2.437q.77 0 1.417-.334.666-.354.979-.937v-2.271h-1.313q-2.625 0-2.791 1.833l-.021.209q0 .645.458 1.083.46.417 1.27.417zm8.065-4.23q0-3.083 1.375-4.895 1.397-1.813 3.792-1.813 1.917 0 3.167 1.417v-6.709h3.52v18.667h-3.166l-.167-1.396q-1.312 1.646-3.375 1.646-2.332 0-3.75-1.833-1.396-1.834-1.396-5.084m3.521.25q0 1.853.646 2.834.646.979 1.875.979 1.625 0 2.292-1.375v-5.188q-.667-1.353-2.271-1.354-2.542 0-2.542 4.104m28.67 1.646 1.729-8.375h3.396l-3.355 13.146h-2.937l-2.5-8.27-2.48 8.27h-2.937l-3.354-13.146h3.396l1.708 8.354 2.417-8.354h2.52zM320 342.65q1.395-1.667 3.52-1.667 4.271 0 4.333 4.958v8.417h-3.52v-8.312q0-1.146-.48-1.667-.478-.542-1.625-.542-1.54 0-2.229 1.188v9.333h-3.5V335.69h3.5zm16.544 11.958q-2.896 0-4.709-1.77-1.812-1.793-1.812-4.73v-.354q0-1.98.75-3.521.771-1.562 2.166-2.396 1.417-.854 3.209-.854 2.708 0 4.25 1.708 1.54 1.688 1.541 4.813v1.417h-8.354q.167 1.29 1.021 2.083.855.77 2.167.77 2.02 0 3.166-1.478l1.73 1.937q-.793 1.125-2.146 1.75-1.334.625-2.98.625zm-.396-10.792q-1.042 0-1.709.709-.645.708-.812 2.02h4.875v-.291q-.022-1.167-.646-1.792-.604-.646-1.708-.646m11.029-2.604.104 1.521q1.416-1.75 3.77-1.75 2.105 0 3.126 1.23 1.02 1.207 1.041 3.645v8.5h-3.52v-8.396q0-1.124-.48-1.625-.479-.5-1.625-.5-1.479 0-2.208 1.25v9.271h-3.52v-13.146zM240.45 375.878l.104 1.52q1.416-1.75 3.77-1.75 2.105 0 3.126 1.23 1.02 1.207 1.041 3.646v8.5h-3.52v-8.396q0-1.125-.48-1.625-.478-.5-1.625-.5-1.479 0-2.208 1.25v9.27h-3.52v-13.145zm18.306 13.146a4.6 4.6 0 0 1-.354-1.188q-1.27 1.438-3.312 1.438-1.938 0-3.209-1.125-1.25-1.125-1.25-2.813 0-2.104 1.542-3.208 1.541-1.125 4.48-1.125h1.603v-.771q0-.895-.479-1.437-.458-.563-1.458-.563-.876 0-1.396.438-.5.416-.5 1.166h-3.5q0-1.146.687-2.104.71-.98 2-1.52 1.293-.563 2.896-.563 2.417 0 3.834 1.229 1.437 1.208 1.437 3.417v5.687q.022 1.875.52 2.833v.209zm-2.896-2.438q.771 0 1.417-.333.666-.354.98-.938v-2.27h-1.313q-2.625 0-2.792 1.833l-.02.208q0 .645.458 1.084.458.416 1.27.416m13.363-1.854 2.437-8.854h3.667l-4.438 13.146h-3.354l-4.416-13.146h3.666zm11.363 4.292h-3.542v-13.146h3.542zm-3.73-16.542q0-.792.521-1.292.521-.52 1.438-.52.896 0 1.416.52.542.5.542 1.292c0 .792-.18.965-.542 1.313q-.521.5-1.416.5-.897 0-1.438-.5-.52-.522-.52-1.313zm6.096 9.875q0-3.021 1.437-4.854 1.437-1.854 3.896-1.854 2.146 0 3.354 1.479l.146-1.25h3.187v12.708q0 1.73-.791 3-.77 1.27-2.209 1.938-1.416.666-3.312.666a7.2 7.2 0 0 1-2.833-.583q-1.354-.562-2.063-1.48l1.542-2.124q1.312 1.458 3.187 1.458 1.396 0 2.167-.75.792-.75.792-2.104v-.708q-1.23 1.375-3.209 1.375-2.354 0-3.833-1.854-1.458-1.855-1.458-4.917zm3.52.25q0 1.791.709 2.813.73 1 1.979 1 1.604 0 2.292-1.188v-5.542q-.71-1.187-2.271-1.187-1.27 0-2 1.042-.708 1.02-.709 3.062m18.803 6.417a4.6 4.6 0 0 1-.354-1.188q-1.27 1.438-3.312 1.438-1.937 0-3.209-1.125-1.25-1.125-1.25-2.813 0-2.104 1.542-3.208 1.541-1.125 4.48-1.125h1.603v-.771q0-.896-.479-1.437-.458-.563-1.458-.563-.876 0-1.396.438-.5.416-.5 1.166h-3.5q0-1.146.687-2.104.71-.98 2-1.52 1.293-.563 2.896-.563 2.417 0 3.834 1.229 1.437 1.208 1.437 3.417v5.687q.021 1.875.521 2.833v.209zm-2.896-2.438q.772 0 1.417-.333.667-.354.98-.938v-2.27h-1.313q-2.625 0-2.792 1.833l-.02.208q0 .645.458 1.084.458.416 1.27.416m12.816-13.937v3.229h2.25v2.583h-2.25v6.563q0 .729.27 1.041.292.313 1.084.313.583 0 1.042-.083v2.666a7.4 7.4 0 0 1-2.125.313q-3.709 0-3.771-3.73v-7.083h-1.917v-2.583h1.917v-3.23h3.5zm10.26 16.625q-2.896 0-4.71-1.771-1.812-1.792-1.812-4.73v-.353q0-1.98.75-3.521.77-1.562 2.167-2.396 1.416-.855 3.208-.854 2.71 0 4.25 1.708 1.542 1.688 1.542 4.813v1.416h-8.354q.166 1.292 1.02 2.084.855.77 2.167.77 2.022 0 3.167-1.479l1.73 1.938q-.793 1.125-2.147 1.75-1.334.625-2.979.625zm-.397-10.792q-1.042 0-1.708.708-.645.709-.813 2.021h4.875v-.291q-.02-1.167-.645-1.792-.605-.645-1.709-.646m7.967 8.813q0-.834.562-1.355.584-.52 1.417-.52.875 0 1.437.52.563.521.563 1.355 0 .832-.563 1.354-.562.5-1.437.5-.855 0-1.417-.5-.562-.522-.562-1.354"/><path d="M794.485 436.574h332.682v85.67H794.485z"/><path fill="#4285f4" fill-rule="nonzero" d="M811.714 466.238v6.23h-3.646V454.78h6.896q2 0 3.5.729 1.52.729 2.333 2.083.813 1.334.813 3.042 0 2.604-1.792 4.104-1.77 1.5-4.917 1.5zm0-2.958h3.25q1.437 0 2.187-.667.771-.687.771-1.958 0-1.292-.77-2.084-.75-.812-2.105-.833h-3.333zm19.545-.667a11 11 0 0 0-1.25-.083q-2.001 0-2.625 1.333v8.604h-3.5v-13.146h3.312l.104 1.563q1.042-1.792 2.917-1.792.583 0 1.104.146zm7.508 10.104q-2.895 0-4.708-1.77-1.812-1.792-1.812-4.73v-.354q0-1.98.75-3.52.771-1.563 2.166-2.397 1.417-.854 3.209-.854 2.708 0 4.25 1.709 1.54 1.688 1.541 4.812v1.417h-8.354q.167 1.29 1.02 2.083.855.77 2.168.77 2.02 0 3.166-1.478l1.73 1.937q-.793 1.125-2.146 1.75-1.334.625-2.98.625m-.395-10.791q-1.042 0-1.709.708-.645.709-.812 2.02h4.875v-.29q-.022-1.168-.646-1.793-.604-.645-1.708-.645m8.758 10.541v-10.562h-1.959v-2.584h1.959v-1.104q0-2.23 1.27-3.437 1.272-1.23 3.542-1.23.73 0 1.792.25l-.042 2.73a4 4 0 0 0-1.062-.125q-1.98 0-1.98 1.854v1.062h2.605v2.584h-2.604v10.562zm13.707.25q-2.896 0-4.709-1.77-1.812-1.792-1.812-4.73v-.354q0-1.98.75-3.52.771-1.563 2.166-2.397 1.417-.854 3.209-.854 2.708 0 4.25 1.709 1.54 1.688 1.541 4.812v1.417h-8.354q.167 1.29 1.021 2.083.855.77 2.167.77 2.02 0 3.166-1.478l1.73 1.937q-.793 1.125-2.146 1.75-1.334.625-2.98.625zm-.396-10.791q-1.042 0-1.709.708-.645.709-.812 2.02h4.875v-.29q-.021-1.168-.646-1.793-.604-.645-1.708-.645m11.987-5.834v3.23h2.25v2.583h-2.25v6.562q0 .73.27 1.042.292.312 1.084.312.584 0 1.042-.083v2.667a7.4 7.4 0 0 1-2.125.312q-3.709 0-3.771-3.729v-7.083h-1.917v-2.584h1.917v-3.229zm9.676 13.792q.979 0 1.583-.52.604-.543.625-1.438h3.292a4.43 4.43 0 0 1-.73 2.458q-.707 1.104-1.958 1.73-1.25.603-2.75.603-2.812 0-4.458-1.791-1.625-1.793-1.625-4.959v-.229q0-3.042 1.625-4.833 1.625-1.813 4.438-1.813 2.457 0 3.937 1.396 1.5 1.395 1.52 3.73h-3.29q-.022-1.022-.626-1.647-.604-.645-1.604-.645-1.23 0-1.854.895-.625.897-.625 2.896v.354q0 2.042.604 2.938.626.875 1.896.875m10.93-9.125q1.395-1.667 3.521-1.667 4.271 0 4.333 4.959v8.416h-3.52v-8.312q0-1.146-.48-1.667-.479-.542-1.625-.542-1.54 0-2.229 1.188v9.333h-3.5v-18.666h3.5zm28.53 5.25q.001 3.167-1.354 4.937-1.332 1.771-3.75 1.771-2.145 0-3.416-1.646l-.167 1.396h-3.146v-18.666h3.5v6.708q1.23-1.417 3.209-1.417 2.395 0 3.75 1.771 1.375 1.75 1.375 4.958zm-3.5-.25q0-1.98-.645-2.896-.625-.917-1.875-.917-1.667 0-2.313 1.355v5.187q.646 1.395 2.334 1.396 1.708 0 2.229-1.688.27-.791.27-2.437m11.713 6.958q-2.895 0-4.708-1.77-1.812-1.792-1.813-4.73v-.354q0-1.98.75-3.52.77-1.563 2.167-2.397 1.416-.854 3.208-.854 2.71 0 4.25 1.709 1.542 1.688 1.542 4.812v1.417h-8.354q.167 1.29 1.02 2.083.855.77 2.167.77 2.021 0 3.167-1.478l1.73 1.937q-.793 1.125-2.147 1.75-1.333.625-2.979.625m-.396-10.791q-1.042 0-1.708.708-.645.709-.812 2.02h4.875v-.29q-.022-1.168-.646-1.793-.605-.645-1.709-.645m8.759 10.541v-10.562h-1.959v-2.584h1.959v-1.104q0-2.23 1.27-3.437 1.272-1.23 3.542-1.23.729 0 1.792.25l-.042 2.73a4 4 0 0 0-1.062-.125q-1.98 0-1.98 1.854v1.062h2.605v2.584h-2.605v10.562zm7.394-6.687q0-1.959.75-3.48.771-1.541 2.187-2.374 1.417-.834 3.271-.834 2.668 0 4.354 1.625 1.688 1.626 1.875 4.417l.021.896q0 3.021-1.687 4.854c-1.687 1.833-2.64 1.833-4.542 1.833q-2.833 0-4.542-1.812-1.687-1.833-1.687-4.98zm3.52.25q0 1.875.709 2.875.708.98 2.02.979 1.272 0 1.98-.98.73-.979.73-3.124 0-1.833-.73-2.834-.708-1.02-2.02-1.02-1.272 0-1.98 1t-.708 3.104zm18.482-3.417a11 11 0 0 0-1.25-.083q-2 0-2.625 1.333v8.604h-3.5v-13.146h3.313l.104 1.563q1.042-1.792 2.917-1.792.583 0 1.104.146zm7.51 10.104q-2.896 0-4.71-1.77-1.811-1.792-1.812-4.73v-.354q0-1.98.75-3.52.77-1.563 2.167-2.397 1.417-.854 3.208-.854 2.71 0 4.25 1.709 1.542 1.688 1.542 4.812v1.417h-8.354q.167 1.29 1.02 2.083.855.77 2.167.77 2.021 0 3.167-1.478l1.73 1.937q-.793 1.125-2.147 1.75-1.333.625-2.979.625zm-.397-10.791q-1.041 0-1.708.708-.645.709-.812 2.02h4.875v-.29q-.021-1.168-.646-1.793-.605-.645-1.709-.645m17.224-2.605.104 1.521q1.416-1.75 3.77-1.75 2.105 0 3.126 1.23 1.02 1.207 1.041 3.645v8.5h-3.52v-8.396q0-1.124-.48-1.625-.478-.5-1.625-.5-1.479 0-2.208 1.25v9.271h-3.52v-13.146zm18.306 13.146a4.6 4.6 0 0 1-.354-1.187q-1.27 1.437-3.312 1.437-1.938 0-3.209-1.125-1.25-1.125-1.25-2.812 0-2.104 1.542-3.209 1.541-1.125 4.48-1.125h1.603v-.77q0-.897-.479-1.438-.459-.562-1.458-.562-.876 0-1.396.437-.5.417-.5 1.167h-3.5q0-1.147.687-2.104.71-.98 2-1.521 1.292-.563 2.896-.563 2.417 0 3.834 1.23 1.437 1.208 1.437 3.416v5.688q.022 1.875.52 2.833v.208h-3.54zm-2.896-2.437q.77 0 1.417-.334.665-.354.98-.937v-2.27h-1.313q-2.625 0-2.792 1.832l-.02.209q0 .645.458 1.083.458.417 1.27.417m13.363-1.854 2.437-8.855h3.667l-4.438 13.146h-3.354l-4.416-13.146h3.666zm11.362 4.291h-3.541v-13.146h3.541zm-3.729-16.541q0-.792.521-1.292.521-.52 1.438-.52.896 0 1.416.52.542.5.542 1.292 0 .791-.542 1.312-.521.5-1.416.5-.897 0-1.438-.5-.52-.521-.52-1.312zm6.096 9.875q0-3.02 1.437-4.855 1.437-1.854 3.896-1.854 2.146 0 3.354 1.48l.146-1.25h3.187v12.708q0 1.73-.791 3-.77 1.27-2.209 1.937-1.416.667-3.312.667a7.2 7.2 0 0 1-2.833-.583q-1.354-.562-2.063-1.48l1.542-2.125q1.312 1.46 3.187 1.459 1.396 0 2.167-.75.792-.75.792-2.104v-.709q-1.23 1.375-3.209 1.375-2.354 0-3.833-1.854-1.458-1.854-1.458-4.917zm3.52.25q0 1.792.709 2.812.73 1 1.979 1 1.604 0 2.292-1.187v-5.542q-.71-1.188-2.271-1.188-1.27 0-2 1.042-.709 1.02-.709 3.063m18.803 6.416a4.6 4.6 0 0 1-.354-1.187q-1.27 1.437-3.312 1.437-1.938 0-3.209-1.125-1.25-1.125-1.25-2.812 0-2.104 1.542-3.209 1.541-1.125 4.48-1.125h1.603v-.77q0-.897-.479-1.438-.458-.562-1.458-.562-.876 0-1.396.437-.5.417-.5 1.167h-3.5q0-1.147.687-2.104.71-.98 2-1.521 1.293-.563 2.896-.563 2.417 0 3.834 1.23 1.437 1.208 1.437 3.416v5.688q.021 1.875.52 2.833v.208zm-2.896-2.437q.772 0 1.417-.334.666-.354.98-.937v-2.27h-1.313q-2.625 0-2.792 1.832l-.02.209q0 .645.458 1.083.458.417 1.27.417m12.816-13.938v3.23h2.25v2.583h-2.25v6.562q0 .73.27 1.042.292.312 1.084.312.583 0 1.042-.083v2.667a7.4 7.4 0 0 1-2.125.312q-3.709 0-3.771-3.729v-7.083h-1.917v-2.584h1.917v-3.229zm10.26 16.625q-2.896 0-4.71-1.77-1.812-1.792-1.812-4.73v-.354q0-1.98.75-3.52.77-1.563 2.167-2.397 1.416-.854 3.208-.854 2.71 0 4.25 1.709 1.542 1.688 1.542 4.812v1.417h-8.354q.166 1.29 1.02 2.083.855.77 2.167.77 2.022 0 3.167-1.478l1.73 1.937q-.793 1.125-2.147 1.75-1.334.625-2.979.625zm-.397-10.791q-1.041 0-1.708.708-.645.709-.813 2.02h4.875v-.29q-.02-1.168-.645-1.793-.605-.645-1.709-.645m7.967 8.812q0-.833.562-1.354.584-.52 1.417-.52.874 0 1.437.52.563.521.563 1.354t-.563 1.354q-.563.5-1.437.5-.855 0-1.417-.5-.562-.52-.562-1.354"/><path fill="#fff" d="M988.72 180.797h84.659v143.211H988.72z"/><path stroke="#ccc" stroke-linejoin="round" d="M988.72 180.797h84.659v143.211H988.72z"/><path fill="#efefef" d="M988.716 180.797h84.658v15.856h-84.658z"/><path fill="#d9d9d9" d="M993.058 184.101h10.906v9.268h-10.906z"/><path fill="#4285f4" d="M995.874 206.253h29.89v27.216h-29.89zm34.985 0h33.325v6.576h-33.325zm0 10.327h24.734v6.577h-24.734zm-34.984 39.917h68.306v6.576h-68.306z"/><path fill="#d9d9d9" d="M995.875 267.772h50.699v6.577h-50.7zm0-22.549h68.306v6.576h-68.306zm0 52.155h68.306v6.576h-68.306zm0 11.275h50.699v6.576h-50.7z"/><path fill="#4285f4" d="M995.875 286.104h68.306v6.576h-68.306z"/><path d="M988.71 180.059h84.704V323.26h-84.703z"/><path stroke="#999" stroke-linejoin="round" d="M988.71 180.059h84.704V323.26h-84.703z"/><path fill="#fff" d="M1047.634 239.99h84.659V383.2h-84.66z"/><path stroke="#ccc" stroke-linejoin="round" d="M1047.634 239.99h84.659V383.2h-84.66z"/><path fill="#efefef" d="M1047.63 239.99h84.658v15.856h-84.658z"/><path fill="#d9d9d9" d="M1051.972 243.294h10.906v9.268h-10.906z"/><path fill="#4285f4" d="M1054.788 265.445h29.889v27.217h-29.89zm34.984 0h33.326v6.576h-33.326zm0 10.329h24.735v6.576h-24.735zm-34.984 39.916h68.306v6.576h-68.306z"/><path fill="#d9d9d9" d="M1054.788 326.965h50.7v6.576h-50.7zm0-22.55h68.306v6.576h-68.306zm0 52.156h68.306v6.576h-68.306zm0 11.275h50.7v6.576h-50.7z"/><path fill="#4285f4" d="M1054.788 345.296h68.306v6.576h-68.306z"/><path d="M1047.624 239.251h84.704v143.202h-84.704z"/><path stroke="#999" stroke-linejoin="round" d="M1047.624 239.251h84.704v143.202h-84.704z"/><path fill="#fff" d="M1103.902 321.399h84.659V464.61h-84.659z"/><path stroke="#ccc" stroke-linejoin="round" d="M1103.902 321.399h84.659V464.61h-84.659z"/><path fill="#efefef" d="M1103.898 321.399h84.658v15.856h-84.658z"/><path fill="#d9d9d9" d="M1108.24 324.703h10.906v9.268h-10.906z"/><path fill="#4285f4" d="M1111.056 346.854h29.89v27.217h-29.89zm34.984 0h33.326v6.576h-33.325zm0 10.329h24.735v6.576h-24.734zm-34.983 39.917h68.306v6.575h-68.306z"/><path fill="#d9d9d9" d="M1111.057 408.374h50.699v6.576h-50.7zm0-22.55h68.306v6.576h-68.306zm0 52.156h68.306v6.576h-68.306zm0 11.275h50.699v6.576h-50.7z"/><path fill="#4285f4" d="M1111.057 426.705h68.306v6.576h-68.306z"/><path d="M1103.893 320.66h84.703v143.203h-84.703z"/><path stroke="#999" stroke-linejoin="round" d="M1103.893 320.66h84.703v143.203h-84.703z"/><path d="M1107.954 182.488h76.549v45.008h-76.549zM697.099 532.157h494.11v100.116H697.1z"/><path fill="#4285f4" fill-rule="nonzero" d="m728.849 568.315 3.062-16.188h4.667l-5.042 22.75h-4.708l-3.708-15.229-3.709 15.23h-4.708l-5.062-22.75h4.687l3.063 16.145 3.75-16.146h3.979zm14.734 6.562h-4.52v-16.916h4.52zm-4.791-21.291q0-1 .666-1.646.688-.667 1.854-.667t1.855.667q.687.646.687 1.646 0 1.042-.708 1.708-.688.645-1.834.646-1.124 0-1.833-.646-.687-.666-.687-1.708m13.921.229v4.146h2.896v3.312h-2.896v8.438q0 .937.355 1.354.354.396 1.375.396.75 0 1.333-.104v3.416a9.1 9.1 0 0 1-2.73.417q-4.75 0-4.853-4.792v-9.125h-2.459v-3.312h2.459v-4.146zm9.813 6q1.791-2.167 4.52-2.167 5.501 0 5.563 6.396v10.833h-4.5V564.17q0-1.458-.625-2.146-.624-.687-2.083-.687-1.98 0-2.875 1.52v12.021h-4.52v-24h4.52zm26.458 7.042v8.02h-4.687v-22.75h8.875q2.562 0 4.5.938 1.937.938 2.979 2.667 1.062 1.729 1.062 3.916 0 3.354-2.291 5.292-2.293 1.917-6.334 1.917zm0-3.792h4.188q1.854 0 2.833-.875c.979-.875.98-1.417.98-2.5q0-1.666-1-2.688-.98-1.041-2.709-1.083h-4.292zm25.14-.854a12 12 0 0 0-1.624-.125q-2.562 0-3.354 1.729v11.062h-4.521v-16.916h4.27l.126 2.02q1.355-2.333 3.77-2.333.75 0 1.396.209zm9.668 12.979q-3.73 0-6.063-2.27-2.333-2.293-2.333-6.084v-.438q0-2.562.979-4.562 1-2 2.792-3.084 1.812-1.104 4.125-1.104 3.458 0 5.458 2.188t2 6.208v1.854h-10.77q.207 1.647 1.312 2.646 1.104 1 2.791 1 2.604 0 4.084-1.896l2.208 2.5q-1 1.438-2.75 2.25-1.729.792-3.833.792m-.521-13.875q-1.334 0-2.188.917-.833.895-1.062 2.583h6.291v-.354q-.04-1.5-.833-2.313-.771-.833-2.208-.833m11.276 13.562v-13.604h-2.521v-3.312h2.52v-1.438q0-2.833 1.626-4.396 1.625-1.583 4.562-1.583.938 0 2.313.313l-.063 3.5q-.562-.146-1.375-.146-2.541 0-2.541 2.396v1.354h3.354v3.312h-3.354v13.604zm17.635.313q-3.73 0-6.062-2.27-2.334-2.293-2.334-6.084v-.438q0-2.562.98-4.562 1-2 2.791-3.084 1.813-1.104 4.125-1.104 3.458 0 5.459 2.188t2 6.208v1.854H848.37q.208 1.647 1.312 2.646 1.104 1 2.792 1 2.604 0 4.083-1.896l2.209 2.5q-1 1.438-2.75 2.25-1.73.792-3.834.792m-.52-13.875q-1.335 0-2.188.917-.834.895-1.063 2.583h6.292v-.354q-.042-1.5-.833-2.313-.77-.833-2.209-.833zm15.442-7.5v4.146H870v3.312h-2.896v8.438q0 .937.354 1.354.355.396 1.375.396.75 0 1.334-.104v3.416a9.1 9.1 0 0 1-2.73.417q-4.749 0-4.854-4.792v-9.125h-2.458v-3.312h2.458v-4.146zm12.438 17.73q1.25 0 2.02-.688.792-.688.813-1.834h4.25a5.8 5.8 0 0 1-.958 3.167q-.918 1.416-2.521 2.208-1.584.792-3.521.792-3.625 0-5.73-2.292-2.082-2.312-2.083-6.375v-.312q0-3.896 2.063-6.23 2.084-2.333 5.708-2.333 3.167 0 5.084 1.813t1.958 4.812h-4.25q-.021-1.312-.813-2.125-.77-.833-2.062-.833-1.562 0-2.375 1.146t-.813 3.729v.458q0 2.625.792 3.771.813 1.125 2.438 1.125zm14.062-11.73q1.792-2.167 4.52-2.167 5.502 0 5.563 6.396v10.833h-4.5V564.17q0-1.458-.625-2.146-.624-.687-2.083-.687-1.98 0-2.875 1.52v12.021h-4.52v-24h4.52zm13.719 12.833q0-1.062.708-1.729.729-.687 1.834-.687t1.833.687q.729.667.729 1.73t-.73 1.728q-.707.667-1.832.667-1.105 0-1.834-.667-.708-.666-.708-1.729m0-12.791q0-1.063.708-1.73.729-.687 1.834-.687t1.833.687q.729.667.729 1.73t-.73 1.729q-.707.666-1.832.666-1.105 0-1.834-.666-.708-.667-.708-1.73z"/><path fill="#666" fill-rule="nonzero" d="M711.161 612.05v-17.687h5.771q2.875 0 4.334 1.188t1.458 3.52q0 1.25-.708 2.209-.71.938-1.917 1.458 1.416.417 2.25 1.542.833 1.125.833 2.667 0 2.375-1.541 3.75-1.542 1.354-4.355 1.354zm2.313-8.27v6.354h3.854q1.625 0 2.563-.833.957-.854.958-2.334 0-3.187-3.48-3.187zm0-1.875h3.542q1.52 0 2.437-.75.917-.77.917-2.083 0-1.458-.854-2.125-.855-.667-2.584-.667h-3.458zm18.257 10.396q-2.668 0-4.354-1.75-1.667-1.77-1.667-4.709v-.416q0-1.958.75-3.48.75-1.541 2.083-2.395a5.3 5.3 0 0 1 2.917-.875q2.562 0 3.98 1.687 1.416 1.687 1.416 4.834v.916h-8.896q.042 1.959 1.125 3.167 1.104 1.188 2.77 1.187 1.189 0 2.022-.479a5.1 5.1 0 0 0 1.437-1.291l1.375 1.062q-1.646 2.542-4.958 2.542m-.271-11.792q-1.355 0-2.292 1-.916.98-1.125 2.771h6.584v-.167q-.105-1.708-.938-2.646-.812-.957-2.229-.958m9.116 11.542v-11.396h-2.083v-1.75h2.083v-1.354q0-2.104 1.125-3.25 1.125-1.167 3.187-1.167.792 0 1.542.208l-.125 1.834a5.6 5.6 0 0 0-1.208-.125q-1.083 0-1.688.646-.583.645-.583 1.833v1.375h2.792v1.75h-2.792v11.396zm6.927-6.688q0-1.937.75-3.479.772-1.542 2.125-2.375 1.354-.833 3.084-.833 2.687 0 4.333 1.854 1.667 1.854 1.667 4.937v.167q0 1.917-.73 3.438-.729 1.52-2.104 2.375-1.353.855-3.145.854-2.667 0-4.334-1.854-1.646-1.875-1.646-4.938zm2.25.271q0 2.187 1.021 3.521 1.02 1.312 2.709 1.312 1.728 0 2.729-1.333 1-1.355 1-3.77 0-2.168-1.021-3.5-1.02-1.355-2.73-1.355-1.665 0-2.687 1.333-1.02 1.313-1.02 3.792zm18.895-4.708a7 7 0 0 0-1.125-.084q-2.208 0-3 1.875v9.334h-2.229v-13.146h2.188l.02 1.52q1.105-1.75 3.146-1.75.646 0 1 .167zm7.27 11.375q-2.668 0-4.354-1.75-1.667-1.77-1.667-4.709v-.416q0-1.958.75-3.48.75-1.541 2.083-2.395a5.3 5.3 0 0 1 2.917-.875q2.562 0 3.98 1.687 1.416 1.687 1.416 4.834v.916h-8.896q.042 1.959 1.125 3.167 1.105 1.188 2.77 1.187 1.189 0 2.022-.479a5.1 5.1 0 0 0 1.437-1.291l1.375 1.062q-1.646 2.542-4.958 2.542m-.27-11.792q-1.356 0-2.293 1-.916.98-1.125 2.771h6.584v-.167q-.104-1.708-.938-2.646-.812-.957-2.229-.958zm16.294-1.604.062 1.646q1.5-1.875 3.938-1.875 4.166 0 4.208 4.687v8.688h-2.25v-8.688q-.02-1.437-.667-2.104-.624-.687-1.979-.687-1.082 0-1.916.583a4.14 4.14 0 0 0-1.292 1.542v9.354h-2.23v-13.146zm19.704 13.146q-.188-.396-.313-1.375-1.562 1.625-3.75 1.625-1.937 0-3.187-1.104-1.23-1.104-1.23-2.792 0-2.042 1.542-3.167 1.563-1.146 4.396-1.146h2.188v-1.041q0-1.188-.709-1.875-.687-.708-2.062-.709-1.21 0-2.02.625-.814.605-.813 1.459h-2.271q0-.98.687-1.896.708-.916 1.896-1.438a6.4 6.4 0 0 1 2.646-.541q2.27 0 3.562 1.146 1.293 1.124 1.334 3.104v6.041q0 1.813.458 2.896v.188zm-3.73-1.709q1.065 0 2-.541.96-.562 1.376-1.438v-2.687h-1.75q-4.146 0-4.146 2.416 0 1.063.708 1.667.708.583 1.813.583zm13.307-1.333 3.25-10.104h2.292l-4.708 13.146h-1.709l-4.77-13.146h2.291zm10.153 3.042h-2.25v-13.146h2.25zm-2.437-16.625q0-.542.333-.917.334-.396.98-.396.666 0 1 .396.354.375.354.917 0 .54-.355.916-.333.355-1 .355-.645 0-.979-.355a1.33 1.33 0 0 1-.333-.916m5.495 9.937q0-3.062 1.417-4.875 1.415-1.812 3.77-1.812 2.397 0 3.75 1.687l.105-1.458h2.062v12.833q0 2.542-1.52 4-1.5 1.48-4.063 1.48a6.9 6.9 0 0 1-2.792-.605q-1.354-.603-2.062-1.666l1.166-1.334q1.439 1.77 3.542 1.771 1.624 0 2.542-.917.915-.916.916-2.604v-1.125q-1.333 1.563-3.666 1.563-2.313 0-3.75-1.854-1.417-1.875-1.417-5.084m2.25.271q0 2.208.917 3.48.916 1.27 2.562 1.27 2.125 0 3.104-1.937v-6q-1.02-1.875-3.083-1.875-1.646 0-2.583 1.27-.918 1.272-.917 3.792m20.351 6.417q-.187-.396-.312-1.375-1.563 1.625-3.75 1.625-1.937 0-3.188-1.104-1.229-1.104-1.229-2.792 0-2.042 1.542-3.167 1.563-1.146 4.396-1.146h2.187v-1.041q0-1.188-.708-1.875-.687-.708-2.063-.709-1.208 0-2.02.625-.813.605-.813 1.459h-2.27q0-.98.687-1.896.708-.916 1.896-1.438 1.208-.54 2.645-.541 2.271 0 3.563 1.146 1.291 1.125 1.333 3.104v6.041q0 1.813.459 2.896v.188zm-3.729-1.709q1.063 0 2-.541.959-.562 1.375-1.438v-2.687h-1.75q-4.146 0-4.146 2.416 0 1.063.709 1.667.708.583 1.812.583m12.198-14.625v3.188h2.458v1.75h-2.458v8.146q0 .792.312 1.187.333.396 1.125.396.396 0 1.083-.146v1.813a6.4 6.4 0 0 1-1.729.25q-1.5 0-2.27-.917-.771-.916-.771-2.583v-8.146h-2.396v-1.75h2.396v-3.188zm7.521 16.334h-2.25v-13.146h2.25zm-2.437-16.625q0-.542.333-.917.333-.396.98-.396.666 0 1 .396.353.375.353.917 0 .54-.354.916-.333.355-1 .355-.645 0-.98-.355a1.33 1.33 0 0 1-.332-.916m5.432 9.937q0-1.937.75-3.479.77-1.542 2.125-2.375t3.083-.833q2.688 0 4.334 1.854 1.666 1.854 1.666 4.937v.167q0 1.917-.729 3.438-.729 1.52-2.104 2.375-1.354.855-3.146.854-2.667 0-4.333-1.854-1.646-1.875-1.646-4.938zm2.25.271q0 2.187 1.02 3.521 1.021 1.312 2.71 1.312 1.728 0 2.728-1.333 1-1.355 1-3.77 0-2.168-1.02-3.5-1.02-1.355-2.73-1.355-1.666 0-2.687 1.333-1.02 1.313-1.021 3.792m14.666-6.729.062 1.646q1.5-1.875 3.938-1.875 4.166 0 4.208 4.687v8.688h-2.25v-8.688q-.02-1.437-.667-2.104-.624-.687-1.979-.687-1.083 0-1.917.583a4.14 4.14 0 0 0-1.291 1.542v9.354h-2.23v-13.146zm11.516 16.667-1.27-.875q1.146-1.584 1.187-3.271v-2.042h2.208v1.771q0 1.23-.604 2.458-.605 1.23-1.52 1.959zm22.208-9.938q0 3-1.375 4.833-1.355 1.834-3.709 1.834-2.396 0-3.77-1.521v6.333h-2.23v-18.208h2.042l.104 1.458q1.375-1.687 3.813-1.687 2.374 0 3.75 1.791 1.375 1.771 1.375 4.959zm-2.23-.27q0-2.21-.958-3.5-.937-1.293-2.604-1.292-2.042 0-3.063 1.812v6.271q1.021 1.812 3.105 1.812 1.604 0 2.562-1.27.959-1.292.958-3.834zm11.456-4.438a7 7 0 0 0-1.125-.084q-2.208 0-3 1.875v9.334h-2.229v-13.146h2.188l.02 1.52q1.105-1.75 3.146-1.75.645 0 1 .167zm1.216 4.437q0-1.937.75-3.479.77-1.542 2.125-2.375t3.083-.833q2.688 0 4.334 1.854 1.665 1.854 1.666 4.937v.167q0 1.917-.729 3.438-.729 1.52-2.104 2.375-1.354.855-3.146.854-2.667 0-4.333-1.854-1.646-1.875-1.646-4.938zm2.25.271q0 2.187 1.02 3.521 1.021 1.312 2.71 1.312 1.729 0 2.728-1.333 1-1.355 1-3.77 0-2.168-1.02-3.5-1.02-1.355-2.73-1.355-1.666 0-2.687 1.333-1.02 1.313-1.021 3.792m20.645 6.417q-.188-.396-.313-1.375-1.562 1.625-3.75 1.625-1.937 0-3.187-1.104-1.23-1.104-1.23-2.792 0-2.042 1.542-3.167 1.563-1.146 4.396-1.146h2.188v-1.041q0-1.188-.709-1.875-.687-.708-2.062-.709-1.21 0-2.02.625-.814.605-.813 1.459h-2.271q0-.98.687-1.896.708-.916 1.896-1.438a6.4 6.4 0 0 1 2.646-.541q2.27 0 3.562 1.146 1.293 1.125 1.334 3.104v6.041q0 1.813.458 2.896v.188zm-3.73-1.709q1.064 0 2-.541.96-.562 1.376-1.438v-2.687h-1.75q-4.146 0-4.146 2.416 0 1.063.708 1.667.708.583 1.813.583zm14.427.125q1.188 0 2.084-.729.915-.729 1-1.833h2.125q-.064 1.125-.771 2.146-.709 1.02-1.917 1.646a5.5 5.5 0 0 1-2.52.604q-2.688 0-4.272-1.792-1.583-1.791-1.583-4.917v-.375q0-1.917.688-3.395.708-1.5 2.02-2.313 1.334-.833 3.125-.833 2.21 0 3.667 1.333 1.479 1.312 1.563 3.417h-2.125q-.084-1.27-.959-2.084-.874-.833-2.146-.833-1.708 0-2.666 1.23-.938 1.228-.938 3.562v.437q0 2.27.938 3.5t2.687 1.23zm10.792-14.75v3.188h2.458v1.75h-2.458v8.146q0 .792.312 1.187.333.396 1.125.396.396 0 1.083-.146v1.813a6.4 6.4 0 0 1-1.729.25q-1.5 0-2.27-.917-.772-.916-.771-2.583v-8.146h-2.396v-1.75h2.396v-3.188zm7.521 16.334h-2.25v-13.146h2.25zm-2.438-16.625q0-.542.334-.917.333-.396.979-.396.667 0 1 .396.354.375.354.917 0 .54-.354.916-.333.355-1 .355-.645 0-.98-.355a1.33 1.33 0 0 1-.333-.916m10.37 13.583 3.25-10.104h2.292l-4.708 13.146h-1.709l-4.77-13.146h2.291zm12.995 3.292q-2.666 0-4.354-1.75-1.666-1.77-1.666-4.709v-.416q0-1.958.75-3.48.75-1.541 2.083-2.395a5.3 5.3 0 0 1 2.917-.875q2.562 0 3.979 1.687 1.416 1.687 1.416 4.834v.916h-8.895q.04 1.959 1.125 3.167 1.105 1.188 2.77 1.187 1.188 0 2.021-.479a5.1 5.1 0 0 0 1.438-1.291l1.375 1.062q-1.645 2.542-4.959 2.542m-.27-11.792q-1.355 0-2.292 1-.916.98-1.125 2.771h6.583v-.167q-.105-1.708-.937-2.646-.813-.957-2.23-.958zm10.449 11.542h-2.25v-18.667h2.25zm7.89-3.292 3.063-9.854h2.396l-5.27 15.167q-1.23 3.291-3.897 3.291l-.437-.041-.834-.167v-1.813l.605.042q1.145 0 1.77-.458.646-.459 1.063-1.688l.5-1.333-4.688-13h2.459zm24.72-3.125q0 3-1.375 4.833-1.355 1.834-3.709 1.834-2.396 0-3.77-1.521v6.333h-2.23v-18.208h2.042l.104 1.458q1.375-1.687 3.813-1.687 2.375 0 3.75 1.791 1.374 1.771 1.375 4.959zm-2.23-.27q0-2.21-.958-3.5-.937-1.293-2.604-1.292-2.042 0-3.062 1.812v6.271q1.02 1.812 3.104 1.812 1.604 0 2.562-1.27.96-1.292.959-3.834zm11.456-4.438a7 7 0 0 0-1.125-.084q-2.208 0-3 1.875v9.334h-2.229v-13.146h2.188l.02 1.52q1.105-1.75 3.146-1.75.645 0 1 .167zm7.27 11.375q-2.668 0-4.354-1.75-1.667-1.77-1.667-4.709v-.416q0-1.958.75-3.48.75-1.541 2.083-2.395a5.3 5.3 0 0 1 2.917-.875q2.562 0 3.98 1.687 1.416 1.687 1.416 4.834v.916h-8.896q.042 1.959 1.125 3.167 1.105 1.188 2.77 1.187 1.189 0 2.022-.479a5.1 5.1 0 0 0 1.437-1.291l1.375 1.062q-1.646 2.542-4.958 2.542m-.27-11.792q-1.356 0-2.293 1-.916.98-1.125 2.771h6.584v-.167q-.104-1.708-.938-2.646-.812-.957-2.229-.958zm9.115 11.542v-11.396h-2.083v-1.75h2.083v-1.354q0-2.104 1.125-3.25 1.125-1.167 3.187-1.167.792 0 1.542.208l-.125 1.834a5.6 5.6 0 0 0-1.208-.125q-1.083 0-1.688.646-.583.645-.583 1.833v1.375h2.792v1.75h-2.792v11.396zm12.677.25q-2.666 0-4.354-1.75-1.665-1.77-1.666-4.709v-.416q0-1.958.75-3.48.75-1.541 2.083-2.395a5.3 5.3 0 0 1 2.917-.875q2.562 0 3.979 1.687 1.416 1.687 1.416 4.834v.916h-8.895q.04 1.959 1.125 3.167 1.105 1.188 2.77 1.187 1.188 0 2.021-.479a5.1 5.1 0 0 0 1.438-1.291l1.375 1.062q-1.645 2.542-4.959 2.542m-.27-11.792q-1.354 0-2.292 1-.917.98-1.125 2.771h6.583v-.167q-.105-1.708-.937-2.646-.813-.957-2.23-.958zm11.053-4.792v3.188h2.458v1.75h-2.458v8.146q0 .792.313 1.187.333.396 1.125.396.395 0 1.083-.146v1.813a6.4 6.4 0 0 1-1.73.25q-1.5 0-2.27-.917c-.77-.917-.771-1.472-.771-2.583v-8.146h-2.396v-1.75h2.396v-3.188zm10.355 14.75q1.187 0 2.083-.729.917-.729 1-1.833h2.125q-.062 1.125-.77 2.146-.71 1.02-1.917 1.646a5.5 5.5 0 0 1-2.521.604q-2.687 0-4.271-1.792-1.583-1.791-1.583-4.917v-.375q0-1.916.687-3.395.708-1.5 2.021-2.313 1.333-.833 3.125-.833 2.208 0 3.667 1.333 1.48 1.313 1.562 3.417h-2.125q-.083-1.27-.958-2.084-.876-.833-2.146-.833-1.708 0-2.667 1.23-.937 1.228-.937 3.562v.437q0 2.27.937 3.5t2.688 1.23zm9.979-9.958q1.5-1.833 3.896-1.833 4.166 0 4.208 4.687v8.688h-2.25v-8.688q-.02-1.437-.667-2.104-.625-.687-1.979-.687-1.083 0-1.917.583a4.14 4.14 0 0 0-1.291 1.542v9.354h-2.23v-18.667h2.23zm-404.697 35.083a7 7 0 0 0-1.125-.083q-2.208 0-3 1.875v9.333h-2.229v-13.145h2.188l.02 1.52q1.105-1.75 3.146-1.75.645 0 1 .167zm7.27 11.375q-2.668 0-4.354-1.75-1.667-1.77-1.667-4.708v-.417q0-1.958.75-3.479.75-1.54 2.083-2.396a5.3 5.3 0 0 1 2.917-.875q2.562 0 3.98 1.688 1.416 1.688 1.416 4.833v.917h-8.896q.042 1.959 1.125 3.167 1.104 1.187 2.771 1.187 1.188 0 2.02-.479a5.1 5.1 0 0 0 1.438-1.292l1.375 1.063q-1.646 2.541-4.958 2.541m-.27-11.791q-1.356 0-2.293 1-.916.98-1.125 2.77h6.584v-.166q-.105-1.708-.938-2.646-.812-.958-2.229-.958zm15.657 8.062q0-.916-.688-1.416t-2.396-.855q-1.708-.375-2.708-.875-1-.52-1.48-1.229-.478-.708-.478-1.687 0-1.604 1.354-2.709 1.375-1.125 3.5-1.125 2.229 0 3.625 1.146t1.396 2.959h-2.25q0-.937-.792-1.605-.791-.666-1.98-.666-1.228 0-1.916.541-.687.522-.687 1.396 0 .813.646 1.23.644.416 2.312.791 1.687.375 2.73.896 1.041.52 1.54 1.25.522.729.522 1.792 0 1.77-1.417 2.833-1.395 1.062-3.646 1.062-1.583 0-2.812-.562-1.209-.562-1.896-1.563a3.75 3.75 0 0 1-.688-2.166h2.25q.063 1.125.896 1.791.855.667 2.25.667 1.27 0 2.042-.52.77-.521.77-1.376zm4.576-3.208q0-1.937.75-3.48.77-1.541 2.125-2.374t3.083-.834q2.688 0 4.334 1.855 1.665 1.854 1.666 4.937v.167q0 1.917-.729 3.437-.729 1.521-2.104 2.375-1.355.855-3.146.854-2.667 0-4.333-1.854-1.647-1.875-1.646-4.937zm2.25.27q0 2.19 1.02 3.522 1.022 1.312 2.709 1.312 1.73 0 2.73-1.333 1-1.355 1-3.771 0-2.166-1.022-3.5-1.02-1.354-2.729-1.354-1.666 0-2.687 1.333-1.02 1.312-1.021 3.792zm20.645 5.126q-1.313 1.542-3.854 1.541-2.105 0-3.209-1.229-1.083-1.229-1.104-3.604v-8.562h2.25v8.5q0 2.979 2.438 2.979 2.562 0 3.416-1.917v-9.562h2.25v13.145h-2.146zm11.963-9.834a7 7 0 0 0-1.125-.083q-2.21 0-3 1.875v9.333h-2.23v-13.145h2.188l.02 1.52q1.105-1.75 3.147-1.75.645 0 1 .167zm7.102 9.542q1.188 0 2.084-.729.915-.729 1-1.833h2.125q-.063 1.125-.771 2.145-.708 1.022-1.917 1.646a5.5 5.5 0 0 1-2.52.604q-2.688 0-4.271-1.791-1.584-1.793-1.584-4.917v-.375q0-1.917.688-3.396.708-1.5 2.02-2.312 1.334-.834 3.126-.834 2.208 0 3.666 1.334 1.479 1.313 1.563 3.416h-2.125q-.083-1.27-.959-2.083-.874-.833-2.145-.833-1.71 0-2.667 1.229-.938 1.23-.938 3.562v.438q0 2.27.938 3.5t2.687 1.23zm13.188 1.833q-2.667 0-4.355-1.75-1.666-1.77-1.666-4.708v-.417q0-1.958.75-3.479.75-1.54 2.083-2.396a5.3 5.3 0 0 1 2.917-.875q2.563 0 3.979 1.688c1.416 1.688 1.417 2.736 1.417 4.833v.917h-8.896q.042 1.959 1.125 3.167 1.105 1.187 2.77 1.187 1.188 0 2.021-.479a5.1 5.1 0 0 0 1.438-1.292l1.375 1.063q-1.646 2.541-4.958 2.541m-.271-11.791q-1.355 0-2.292 1-.916.98-1.125 2.77h6.583v-.166q-.103-1.708-.937-2.646-.813-.958-2.23-.958zm15.657 8.062q0-.916-.687-1.416t-2.396-.855q-1.709-.375-2.708-.875-1-.52-1.48-1.229-.479-.708-.479-1.687 0-1.604 1.355-2.709 1.374-1.125 3.5-1.125 2.229 0 3.625 1.146t1.395 2.959h-2.25q0-.937-.791-1.605-.792-.666-1.98-.666-1.229 0-1.916.541-.687.522-.688 1.396 0 .813.646 1.23.646.416 2.313.791 1.688.375 2.729.896c1.041.521 1.208.764 1.542 1.25q.52.729.52 1.792 0 1.77-1.416 2.833-1.395 1.062-3.646 1.062-1.584 0-2.813-.562-1.208-.562-1.895-1.563a3.75 3.75 0 0 1-.688-2.166h2.25q.063 1.125.896 1.791.855.667 2.25.667 1.27 0 2.042-.52.77-.521.77-1.376m12.443 3.48v-11.396h-2.083v-1.75h2.083v-1.355q0-2.103 1.125-3.25 1.125-1.166 3.187-1.166.792 0 1.542.208l-.125 1.833a5.6 5.6 0 0 0-1.208-.125q-1.083 0-1.688.646-.583.645-.583 1.834v1.375h2.792v1.75h-2.792v11.395h-2.25zm6.927-6.688q0-1.937.75-3.48.771-1.541 2.125-2.374t3.084-.834q2.687 0 4.333 1.855 1.667 1.854 1.667 4.937v.167q0 1.917-.73 3.437-.729 1.521-2.104 2.375-1.354.855-3.145.854-2.667 0-4.334-1.854-1.646-1.875-1.646-4.937zm2.25.27q0 2.19 1.021 3.522 1.02 1.312 2.709 1.312 1.728 0 2.729-1.333 1-1.355 1-3.771 0-2.166-1.021-3.5-1.02-1.354-2.73-1.354-1.665 0-2.687 1.333-1.02 1.312-1.02 3.792zm18.895-4.708a7 7 0 0 0-1.125-.083q-2.208 0-3 1.875v9.333h-2.229v-13.145h2.188l.02 1.52q1.105-1.75 3.146-1.75.645 0 1 .167zm19.305 4.709q0 3-1.375 4.833-1.355 1.833-3.709 1.833-2.396 0-3.77-1.52v6.333h-2.23v-18.208h2.042l.104 1.458q1.375-1.688 3.813-1.688 2.375 0 3.75 1.792 1.375 1.77 1.375 4.958zm-2.23-.271q0-2.208-.958-3.5-.937-1.292-2.604-1.292-2.041 0-3.063 1.813v6.27q1.022 1.813 3.105 1.813 1.604 0 2.562-1.27.958-1.293.958-3.834m11.456-4.438a7 7 0 0 0-1.125-.083q-2.208 0-3 1.875v9.333h-2.229v-13.145h2.188l.02 1.52q1.104-1.75 3.146-1.75.645 0 1 .167zm7.27 11.375q-2.668 0-4.354-1.75-1.667-1.77-1.667-4.708v-.417q0-1.958.75-3.479.75-1.54 2.083-2.396a5.3 5.3 0 0 1 2.917-.875q2.562 0 3.98 1.688 1.416 1.688 1.416 4.833v.917h-8.896q.042 1.959 1.125 3.167 1.104 1.187 2.77 1.187 1.188 0 2.022-.479a5.1 5.1 0 0 0 1.437-1.292l1.375 1.063q-1.646 2.541-4.958 2.541m-.271-11.791q-1.354 0-2.292 1-.916.98-1.125 2.77h6.584v-.166q-.105-1.708-.938-2.646-.813-.958-2.229-.958m7.45 4.854q0-3.021 1.437-4.854t3.75-1.834 3.666 1.563v-6.854h2.25v18.666h-2.062l-.125-1.416q-1.334 1.666-3.75 1.666-2.27 0-3.73-1.875-1.437-1.875-1.437-4.875v-.187zm2.25.27q0 2.23.916 3.5.938 1.25 2.562 1.25 2.147 0 3.125-1.916v-6.042q-1.02-1.854-3.104-1.854-1.646 0-2.583 1.271-.917 1.27-.917 3.792zm14.778 6.417h-2.25v-13.145h2.25zm-2.438-16.625q0-.54.334-.916.333-.396.979-.396.667 0 1 .396.354.375.354.916 0 .543-.354.917-.333.354-1 .354-.645 0-.98-.354a1.33 1.33 0 0 1-.333-.917m11.308 15.042q1.187 0 2.083-.729.917-.729 1-1.833h2.125q-.062 1.125-.77 2.145-.71 1.022-1.917 1.646a5.5 5.5 0 0 1-2.521.604q-2.687 0-4.271-1.791-1.583-1.793-1.583-4.917v-.375q0-1.917.687-3.396.708-1.5 2.021-2.312 1.333-.834 3.125-.834 2.208 0 3.667 1.334 1.48 1.313 1.562 3.416h-2.125q-.083-1.27-.958-2.083-.876-.833-2.146-.833-1.708 0-2.667 1.229-.937 1.23-.937 3.562v.438q0 2.27.937 3.5t2.688 1.23zm10.791-14.75v3.188h2.458v1.75h-2.458v8.145q0 .792.313 1.188.333.396 1.125.396.396 0 1.083-.146v1.812a6.4 6.4 0 0 1-1.73.25q-1.5 0-2.27-.916c-.77-.916-.77-1.472-.77-2.584v-8.145h-2.397v-1.75h2.396v-3.188zm13.188 16.333q-.187-.395-.312-1.375-1.563 1.625-3.75 1.625-1.938 0-3.188-1.104-1.23-1.104-1.229-2.791 0-2.042 1.542-3.167 1.562-1.146 4.396-1.146h2.187v-1.042q0-1.187-.708-1.875-.688-.708-2.063-.708-1.208 0-2.02.625-.813.605-.813 1.458h-2.27q0-.978.687-1.895.708-.916 1.895-1.438 1.209-.542 2.646-.542 2.271 0 3.563 1.146 1.29 1.125 1.333 3.104v6.042q0 1.813.458 2.896v.187zm-3.729-1.708q1.062 0 2-.542.958-.562 1.375-1.437v-2.688h-1.75q-4.146 0-4.146 2.417 0 1.062.709 1.667.708.583 1.812.583m20.28-4.708q0 3-1.395 4.833-1.375 1.833-3.708 1.833-2.5 0-3.855-1.77l-.104 1.52h-2.062v-18.666h2.229v6.979q1.376-1.688 3.75-1.688 2.396 0 3.77 1.813 1.376 1.791 1.376 4.937zm-2.25-.271q0-2.292-.895-3.542-.874-1.25-2.542-1.25-2.229 0-3.208 2.063v5.687q1.04 2.063 3.23 2.063 1.624 0 2.52-1.25t.896-3.771zm7.519 6.687h-2.25v-18.666h2.25zm9.037.25q-2.667 0-4.355-1.75-1.665-1.77-1.666-4.708v-.417q0-1.958.75-3.479.75-1.54 2.083-2.396a5.3 5.3 0 0 1 2.917-.875q2.562 0 3.979 1.688t1.417 4.833v.917h-8.896q.042 1.958 1.125 3.167 1.104 1.187 2.77 1.187 1.188 0 2.021-.479a5.1 5.1 0 0 0 1.438-1.292l1.375 1.063q-1.646 2.541-4.958 2.541m-.271-11.791q-1.355 0-2.292 1-.916.98-1.125 2.77h6.583v-.166q-.104-1.708-.937-2.646-.813-.958-2.23-.958zm16.294-1.604.063 1.645q1.5-1.875 3.937-1.875 4.167 0 4.209 4.688v8.687h-2.25v-8.687q-.02-1.437-.667-2.104-.624-.688-1.979-.688-1.083 0-1.917.584a4.14 4.14 0 0 0-1.291 1.541v9.354h-2.23v-13.145zm17.038 13.395q-2.668 0-4.354-1.75-1.667-1.77-1.667-4.708v-.417q0-1.958.75-3.479.75-1.54 2.083-2.396a5.3 5.3 0 0 1 2.917-.875q2.562 0 3.98 1.688 1.416 1.688 1.416 4.833v.917h-8.896q.042 1.959 1.125 3.167 1.104 1.187 2.77 1.187 1.189 0 2.022-.479a5.1 5.1 0 0 0 1.437-1.292l1.375 1.063q-1.646 2.541-4.958 2.541m-.27-11.791q-1.356 0-2.293 1-.916.98-1.125 2.77h6.584v-.166q-.105-1.708-.938-2.646-.812-.958-2.229-.958zm12.407 3.187 2.916-4.791h2.625l-4.291 6.5 4.437 6.645h-2.604l-3.042-4.916-3.041 4.916h-2.604l4.437-6.645-4.312-6.5h2.604zm10.974-7.979v3.188h2.458v1.75h-2.458v8.145q0 .792.312 1.188.333.396 1.125.396.396 0 1.084-.146v1.812a6.4 6.4 0 0 1-1.73.25q-1.5 0-2.27-.916-.771-.916-.771-2.584v-8.145h-2.396v-1.75h2.396v-3.188zm22.325 9.917q0 3-1.375 4.833-1.354 1.833-3.708 1.833-2.396 0-3.771-1.52v6.333h-2.23v-18.208h2.042l.105 1.458q1.374-1.688 3.812-1.688 2.375 0 3.75 1.792 1.375 1.77 1.375 4.958zm-2.23-.271q0-2.208-.957-3.5-.938-1.292-2.605-1.292-2.041 0-3.062 1.813v6.27q1.02 1.813 3.104 1.813 1.605 0 2.563-1.27.957-1.293.958-3.834zm13.207 6.687q-.188-.395-.313-1.375-1.562 1.625-3.75 1.625-1.937 0-3.187-1.104-1.23-1.104-1.23-2.791 0-2.042 1.542-3.167 1.563-1.146 4.396-1.146h2.188v-1.042q0-1.187-.709-1.875-.687-.708-2.062-.708-1.21 0-2.021.625-.813.605-.813 1.458h-2.27q0-.978.687-1.895.708-.916 1.896-1.438 1.207-.542 2.646-.542 2.27 0 3.562 1.146 1.292 1.125 1.334 3.104v6.042q0 1.813.458 2.896v.187zm-3.73-1.708a3.9 3.9 0 0 0 2-.542q.96-.562 1.376-1.437v-2.688h-1.75q-4.146 0-4.146 2.417 0 1.062.708 1.667.708.583 1.813.583zm8.614-4.979q0-3.063 1.417-4.875t3.771-1.813q2.395 0 3.75 1.688l.104-1.458h2.063v12.833q0 2.542-1.521 4-1.5 1.48-4.063 1.48a6.9 6.9 0 0 1-2.791-.605q-1.354-.604-2.063-1.667l1.167-1.333q1.438 1.77 3.541 1.77 1.626 0 2.542-.916.917-.917.917-2.604v-1.125q-1.334 1.563-3.667 1.562-2.313 0-3.75-1.854-1.416-1.875-1.417-5.083m2.25.27q0 2.21.917 3.48c.917 1.27 1.465 1.27 2.563 1.27q2.124 0 3.104-1.937v-6q-1.02-1.875-3.084-1.875-1.646 0-2.583 1.271-.917 1.27-.917 3.792zm17.685 6.667q-2.666 0-4.354-1.75-1.665-1.77-1.666-4.708v-.417q0-1.958.75-3.479.75-1.54 2.083-2.396a5.3 5.3 0 0 1 2.917-.875q2.562 0 3.979 1.688 1.416 1.688 1.416 4.833v.917h-8.895q.04 1.959 1.125 3.167 1.104 1.187 2.77 1.187 1.188 0 2.021-.479a5.1 5.1 0 0 0 1.438-1.292l1.375 1.063q-1.645 2.541-4.959 2.541m-.27-11.791q-1.354 0-2.292 1-.917.98-1.125 2.77h6.583v-.166q-.105-1.708-.937-2.646-.813-.958-2.23-.958zm15.657 8.062q0-.916-.687-1.416t-2.396-.855q-1.71-.375-2.709-.875-1-.52-1.479-1.229-.48-.708-.479-1.687 0-1.604 1.354-2.709 1.376-1.125 3.5-1.125 2.23 0 3.625 1.146t1.396 2.959h-2.25q0-.937-.792-1.605-.79-.666-1.979-.666-1.23 0-1.916.541-.688.522-.688 1.396 0 .813.646 1.23.645.416 2.312.791 1.688.375 2.73.896 1.041.52 1.541 1.25.521.729.521 1.792 0 1.77-1.417 2.833-1.395 1.062-3.645 1.062-1.583 0-2.813-.562-1.207-.562-1.896-1.563a3.75 3.75 0 0 1-.687-2.166h2.25q.062 1.125.896 1.791.855.667 2.25.667 1.27 0 2.041-.52.771-.521.771-1.376m5.222 2.292q0-.583.333-.958.355-.396 1.042-.396.708 0 1.063.396.354.376.354.958 0 .562-.354.937c-.354.375-.59.375-1.063.375q-.687 0-1.042-.375-.333-.375-.333-.937"/><path d="M32.707 84.93h1081.07v71.77H32.708z"/><path fill="#4285f4" fill-rule="nonzero" d="M51.436 119.63v8.02H46.75V104.9h8.875q2.562 0 4.5.938 1.936.938 2.979 2.667 1.062 1.729 1.062 3.917 0 3.354-2.291 5.291-2.293 1.917-6.334 1.917zm0-3.792h4.188q1.854 0 2.833-.875.98-.874.98-2.5 0-1.666-1-2.687-.98-1.043-2.71-1.083h-4.29zm25.14-.854a12 12 0 0 0-1.624-.125q-2.564 0-3.354 1.73v11.062h-4.521v-16.917h4.27l.126 2.021q1.354-2.334 3.77-2.333.75 0 1.396.208l-.062 4.354zm9.667 12.98q-3.73 0-6.062-2.271-2.334-2.292-2.333-6.084v-.437q0-2.564.979-4.563 1-1.999 2.791-3.083 1.814-1.104 4.125-1.104 3.459 0 5.459 2.187 2 2.188 2 6.209v1.854H82.43q.208 1.645 1.312 2.646t2.792 1q2.604 0 4.083-1.896l2.209 2.5q-1 1.437-2.75 2.25-1.729.79-3.834.791zm-.52-13.876q-1.335 0-2.188.917-.834.895-1.062 2.583h6.291v-.354q-.042-1.5-.833-2.312-.771-.834-2.208-.834m18.817 5.646h-8.79v-3.646h8.791zm2.927-.666q0-3.96 1.771-6.292 1.77-2.355 4.854-2.354 2.459 0 4.063 1.854v-8.625h4.541v24h-4.083l-.208-1.792q-1.688 2.104-4.354 2.104-2.98 0-4.792-2.354-1.791-2.355-1.792-6.541m4.5.333q0 2.374.834 3.646.832 1.25 2.416 1.25 2.084 0 2.938-1.75v-6.688q-.834-1.75-2.917-1.75-3.27 0-3.27 5.292zm13.532-.354q0-2.52.958-4.48.979-1.979 2.792-3.062t4.229-1.083q3.417 0 5.583 2.104 2.167 2.084 2.417 5.687l.02 1.146q0 3.895-2.166 6.25t-5.833 2.354q-3.646 0-5.834-2.333-2.166-2.354-2.166-6.396zm4.5.312q0 2.416.895 3.688.918 1.27 2.605 1.27 1.645 0 2.562-1.25.938-1.27.938-4.02 0-2.376-.938-3.667-.917-1.292-2.583-1.292t-2.584 1.292q-.895 1.292-.895 3.98zm28.99 2.146 2.228-10.77h4.354l-4.312 16.916h-3.792l-3.187-10.646-3.209 10.646h-3.77l-4.313-16.917h4.354l2.209 10.75 3.104-10.75h3.25zm12.973-10.77.146 1.958q1.812-2.271 4.854-2.271 2.688 0 4 1.583c1.312 1.583 1.32 2.632 1.333 4.73v10.916h-4.5v-10.813q0-1.437-.625-2.083-.624-.645-2.083-.646-1.917 0-2.854 1.625v11.917h-4.52v-16.917h4.25zm18.526 16.916h-4.52v-24h4.52zm3.026-8.604q0-2.52.959-4.48.978-1.979 2.791-3.062t4.23-1.083q3.416 0 5.583 2.104 2.167 2.084 2.416 5.687l.021 1.146q0 3.895-2.166 6.25-2.168 2.355-5.834 2.354-3.646 0-5.833-2.333-2.167-2.354-2.167-6.396zm4.5.312q0 2.416.896 3.688.917 1.27 2.604 1.27 1.646 0 2.563-1.25.937-1.27.937-4.02 0-2.376-.937-3.667-.917-1.292-2.584-1.292-1.666 0-2.583 1.292-.896 1.292-.896 3.98zm24.094 8.292q-.312-.605-.458-1.52-1.647 1.832-4.271 1.832-2.48 0-4.125-1.437-1.625-1.437-1.625-3.625 0-2.688 1.979-4.125 2-1.438 5.77-1.458h2.084v-.959q0-1.186-.604-1.875-.605-.708-1.896-.708-1.146 0-1.792.542-.645.54-.645 1.5h-4.521q0-1.459.896-2.709.916-1.25 2.562-1.958 1.666-.73 3.73-.73 3.124 0 4.958 1.584 1.833 1.563 1.833 4.417v7.312q.021 2.417.687 3.646v.27h-4.562zm-3.75-3.146q1 0 1.833-.437.855-.459 1.271-1.209v-2.896h-1.687q-3.396 0-3.605 2.334l-.02.27q0 .855.583 1.396.604.542 1.625.542m10.406-5.437q0-3.96 1.771-6.292 1.77-2.355 4.854-2.354 2.459 0 4.063 1.854v-8.625h4.541v24h-4.083l-.208-1.792q-1.688 2.104-4.354 2.104-2.98 0-4.792-2.354-1.792-2.355-1.792-6.541m4.5.333q0 2.374.834 3.646.832 1.25 2.416 1.25 2.084 0 2.938-1.75v-6.688q-.834-1.75-2.917-1.75-3.27 0-3.27 5.292zm18.99 8.25h-4.521v-16.917h4.52zm-4.792-21.292q0-1 .667-1.646.687-.666 1.854-.666c1.167 0 1.396.222 1.854.666q.687.646.688 1.646 0 1.042-.709 1.709-.688.645-1.833.645-1.125 0-1.833-.645-.688-.667-.688-1.709m12.672 4.375.146 1.959q1.812-2.271 4.854-2.271 2.688 0 4 1.583c1.312 1.583 1.32 2.632 1.333 4.73v10.916h-4.5v-10.813q0-1.437-.625-2.083-.624-.645-2.083-.646-1.917 0-2.854 1.625v11.917h-4.521v-16.917zm13.11 8.334q0-3.897 1.854-6.271 1.853-2.376 4.979-2.375 2.79 0 4.333 1.916l.188-1.604h4.104v16.354q0 2.229-1.021 3.855-1 1.645-2.833 2.5-1.834.875-4.271.875a9.3 9.3 0 0 1-3.646-.75q-1.75-.75-2.667-1.917l2-2.75q1.688 1.896 4.104 1.896 1.792 0 2.792-.959 1-.958 1-2.729v-.916q-1.563 1.77-4.104 1.77-3.042 0-4.938-2.375-1.875-2.395-1.875-6.333v-.187zm4.52.333q0 2.293.917 3.604.917 1.292 2.52 1.292 2.064 0 2.959-1.542v-7.104q-.896-1.542-2.917-1.542-1.625 0-2.562 1.334-.917 1.312-.917 3.958m31.86-4.417a12 12 0 0 0-1.625-.125q-2.563 0-3.355 1.73v11.062h-4.52v-16.917h4.27l.125 2.021q1.355-2.334 3.771-2.333.75 0 1.396.208zm9.666 12.98q-3.73 0-6.062-2.271-2.334-2.292-2.334-6.084v-.437q0-2.564.98-4.563 1-1.999 2.791-3.083 1.814-1.104 4.125-1.104 3.458 0 5.459 2.187 2 2.188 2 6.209v1.854h-10.771q.208 1.645 1.312 2.646t2.792 1q2.604 0 4.083-1.896l2.209 2.5q-1 1.437-2.75 2.25-1.73.79-3.834.791zm-.52-13.876q-1.335 0-2.188.917-.834.895-1.063 2.583h6.292v-.354q-.042-1.5-.833-2.312-.77-.834-2.209-.834zm19.192 8.896q0-.833-.833-1.312-.813-.48-2.625-.854-6.021-1.272-6.021-5.125 0-2.25 1.854-3.75 1.875-1.521 4.896-1.521 3.208 0 5.125 1.52 1.938 1.521 1.937 3.938h-4.5q0-.959-.625-1.583-.624-.645-1.958-.646-1.146 0-1.77.52a1.6 1.6 0 0 0-.626 1.313q0 .75.709 1.209.708.458 2.395.791t2.855.75q3.583 1.313 3.583 4.563 0 2.312-2 3.75-1.98 1.416-5.125 1.416-2.126 0-3.77-.75-1.647-.77-2.584-2.083-.938-1.333-.938-2.854h4.292q.063 1.207.875 1.854.834.625 2.23.625 1.29 0 1.957-.48.667-.499.667-1.29zm6.6-3.937q0-2.52.957-4.48.98-1.979 2.792-3.062t4.23-1.083q3.415 0 5.583 2.104 2.166 2.084 2.416 5.687l.021 1.146q0 3.895-2.167 6.25t-5.833 2.354q-3.645 0-5.833-2.333-2.167-2.354-2.167-6.396zm4.5.312q0 2.416.895 3.688.917 1.27 2.604 1.27 1.645 0 2.563-1.25.937-1.27.937-4.02 0-2.376-.937-3.667-.918-1.292-2.584-1.292t-2.583 1.292q-.896 1.292-.896 3.98zm24.405 6.563q-1.665 2.04-4.625 2.041-2.708 0-4.146-1.562-1.416-1.563-1.458-4.583v-11.084h4.521v10.938q0 2.625 2.396 2.625 2.312 0 3.166-1.584v-11.979h4.521v16.917h-4.25l-.125-1.73zm17.282-10.938a12 12 0 0 0-1.625-.125q-2.563 0-3.355 1.73v11.062h-4.52v-16.917h4.27l.125 2.021q1.355-2.334 3.771-2.333.75 0 1.396.208zm8.916 9.334q1.25 0 2.021-.688.792-.688.813-1.833h4.25a5.8 5.8 0 0 1-.959 3.166q-.916 1.416-2.52 2.209-1.584.79-3.521.791-3.625 0-5.73-2.291-2.083-2.313-2.083-6.375v-.313q0-3.895 2.063-6.229 2.082-2.334 5.708-2.333 3.166 0 5.083 1.812 1.916 1.813 1.959 4.813h-4.25q-.021-1.313-.813-2.125-.77-.834-2.062-.834-1.563 0-2.375 1.146t-.813 3.73v.458q0 2.625.792 3.77.812 1.126 2.437 1.126m17.438 3.645q-3.729 0-6.063-2.27-2.333-2.292-2.333-6.084v-.437q0-2.564.98-4.563.999-1.999 2.79-3.083 1.814-1.104 4.126-1.104 3.458 0 5.458 2.187 2 2.188 2 6.209v1.854h-10.77q.207 1.645 1.312 2.646t2.791 1q2.605 0 4.084-1.896l2.208 2.5q-1 1.437-2.75 2.25-1.729.79-3.833.791m-.521-13.875q-1.333 0-2.188.917-.833.895-1.062 2.583h6.292v-.354q-.042-1.5-.834-2.312-.771-.834-2.208-.834m19.193 8.896q0-.833-.834-1.312-.812-.48-2.625-.854-6.02-1.272-6.02-5.125 0-2.25 1.854-3.75 1.875-1.521 4.895-1.521 3.21 0 5.125 1.52 1.938 1.521 1.938 3.938h-4.5q0-.959-.625-1.583-.626-.645-1.958-.646-1.147 0-1.771.52a1.6 1.6 0 0 0-.625 1.313q0 .75.708 1.209.708.458 2.396.791t2.854.75q3.583 1.313 3.583 4.563 0 2.312-2 3.75-1.978 1.416-5.125 1.416-2.124 0-3.77-.75-1.647-.77-2.584-2.083-.937-1.333-.937-2.854h4.291q.063 1.207.875 1.854.834.625 2.23.625 1.291 0 1.958-.48.666-.499.667-1.29zm20.671-16.396v4.146h2.896v3.313h-2.896v8.437q0 .938.355 1.354.354.396 1.375.396.75 0 1.333-.104v3.417a9.1 9.1 0 0 1-2.73.416q-4.75 0-4.853-4.791v-9.125h-2.459v-3.313h2.459v-4.146zm9.813 6q1.791-2.166 4.52-2.166 5.501 0 5.563 6.396v10.833h-4.5v-10.708q0-1.46-.625-2.146-.624-.688-2.083-.688-1.98 0-2.875 1.521v12.02h-4.52v-24h4.52zm23.302 15.063q-.312-.605-.458-1.52-1.646 1.832-4.271 1.832-2.48 0-4.125-1.437-1.625-1.437-1.625-3.625 0-2.688 1.98-4.125 1.998-1.438 5.77-1.458h2.083v-.959q0-1.186-.604-1.875-.605-.708-1.896-.708-1.145 0-1.791.542-.646.54-.646 1.5h-4.521q0-1.459.896-2.709.916-1.25 2.562-1.958 1.666-.73 3.73-.73 3.125 0 4.958 1.584 1.833 1.563 1.833 4.417v7.312q.02 2.417.688 3.646v.27h-4.563zm-3.75-3.146q1 0 1.833-.437.854-.459 1.271-1.209v-2.896h-1.687q-3.397 0-3.604 2.334l-.021.27q0 .855.583 1.396.605.542 1.625.542m16.51-17.917v4.146h2.896v3.313h-2.896v8.437q0 .938.355 1.354.354.396 1.375.396.75 0 1.333-.104v3.417a9.1 9.1 0 0 1-2.73.416q-4.75 0-4.853-4.791v-9.125h-2.459v-3.313h2.459v-4.146zm20.407 17.73q1.25 0 2.02-.688.793-.688.813-1.833h4.25a5.8 5.8 0 0 1-.958 3.166q-.917 1.416-2.521 2.209-1.585.79-3.52.791-3.626 0-5.73-2.291-2.083-2.313-2.083-6.375v-.313q0-3.895 2.062-6.229 2.084-2.334 5.708-2.333 3.168 0 5.084 1.812 1.917 1.813 1.958 4.813h-4.25q-.021-1.313-.812-2.125-.771-.834-2.063-.834-1.562 0-2.375 1.146t-.812 3.73v.458q0 2.625.791 3.77.813 1.126 2.438 1.126m8.958-5.271q0-2.52.958-4.48.98-1.979 2.792-3.062t4.23-1.083q3.415 0 5.583 2.104 2.166 2.084 2.416 5.687l.021 1.146q0 3.895-2.167 6.25t-5.833 2.354q-3.645 0-5.833-2.333-2.167-2.354-2.167-6.396zm4.5.312q0 2.416.896 3.688.917 1.27 2.604 1.27 1.645 0 2.563-1.25.937-1.27.937-4.02 0-2.376-.937-3.667-.918-1.292-2.584-1.292t-2.583 1.292q-.896 1.292-.896 3.98zm24.406 6.563q-1.665 2.04-4.625 2.041-2.707 0-4.146-1.562-1.416-1.563-1.458-4.583v-11.084h4.521v10.938q0 2.625 2.396 2.625 2.312 0 3.166-1.584v-11.979h4.521v16.917h-4.25l-.125-1.73zm12.552 1.729h-4.52v-24h4.52zm3.026-8.583q0-3.96 1.771-6.292 1.77-2.355 4.854-2.354 2.46 0 4.063 1.854v-8.625h4.542v24h-4.084l-.208-1.792q-1.687 2.104-4.354 2.104-2.98 0-4.792-2.354-1.792-2.355-1.792-6.541m4.5.333q0 2.374.834 3.646.832 1.25 2.416 1.25 2.085 0 2.938-1.75v-6.688q-.834-1.75-2.917-1.75-3.27 0-3.27 5.292zm37.438-.042q0 4.063-1.75 6.334-1.73 2.27-4.833 2.27-2.75 0-4.396-2.104l-.209 1.792h-4.062v-24h4.52v8.604q1.563-1.833 4.105-1.833 3.104 0 4.854 2.291 1.77 2.271 1.77 6.396zm-4.52-.333q0-2.562-.813-3.73-.813-1.186-2.417-1.187-2.167 0-2.98 1.75v6.688q.834 1.77 3 1.77 2.189 0 2.876-2.145.333-1.042.333-3.146zm15.077 8.937q-3.73 0-6.062-2.27-2.334-2.292-2.334-6.084v-.437q0-2.564.98-4.563 1-1.999 2.791-3.083 1.813-1.104 4.125-1.104 3.459 0 5.459 2.187 2 2.188 2 6.209v1.854h-10.771q.208 1.645 1.312 2.646t2.792 1q2.604 0 4.083-1.896l2.209 2.5q-1 1.437-2.75 2.25-1.73.79-3.834.791m-.52-13.875q-1.335 0-2.188.917-.834.895-1.063 2.583h6.292v-.354q-.041-1.5-.833-2.312-.77-.834-2.209-.834zm28.12 11.834q-1.668 2.04-4.626 2.041-2.707 0-4.146-1.562-1.416-1.563-1.458-4.583v-11.084h4.52v10.938q0 2.625 2.397 2.625 2.312 0 3.166-1.584v-11.979h4.521v16.917h-4.25l-.125-1.73zm16.947-2.938q0-.833-.833-1.312-.813-.48-2.625-.854-6.021-1.272-6.021-5.125 0-2.25 1.854-3.75 1.875-1.521 4.896-1.521 3.208 0 5.125 1.52 1.938 1.521 1.937 3.938h-4.5q0-.959-.625-1.583-.624-.645-1.958-.646-1.146 0-1.77.52a1.6 1.6 0 0 0-.626 1.313q0 .75.709 1.209.708.458 2.395.791t2.855.75q3.583 1.313 3.583 4.563 0 2.312-2 3.75-1.98 1.416-5.125 1.416-2.126 0-3.77-.75-1.648-.77-2.584-2.083-.938-1.333-.938-2.854h4.292q.063 1.207.875 1.854.834.625 2.23.625 1.29 0 1.957-.48.667-.499.667-1.29zm15.078 4.98q-3.73 0-6.062-2.271-2.334-2.292-2.334-6.084v-.437q0-2.564.98-4.563 1-1.999 2.791-3.083 1.814-1.104 4.125-1.104 3.459 0 5.459 2.187 2 2.188 2 6.209v1.854h-10.771q.208 1.645 1.312 2.646t2.792 1q2.604 0 4.083-1.896l2.209 2.5q-1 1.437-2.75 2.25-1.729.79-3.834.791zm-.52-13.876q-1.335 0-2.188.917-.834.895-1.063 2.583h6.292v-.354q-.042-1.5-.833-2.312-.77-.834-2.209-.834zm9.338 4.98q0-3.96 1.77-6.292 1.772-2.355 4.855-2.354 2.458 0 4.062 1.854v-8.625h4.542v24h-4.083l-.209-1.792q-1.687 2.104-4.354 2.104-2.979 0-4.791-2.354-1.792-2.355-1.792-6.541m4.5.333q0 2.374.833 3.646.834 1.25 2.417 1.25 2.083 0 2.937-1.75v-6.688q-.832-1.75-2.916-1.75-3.27 0-3.271 5.292m26.958 8.25h-4.52v-16.917h4.52zm-4.791-21.292q0-1 .666-1.646.688-.666 1.854-.666t1.855.666q.687.646.687 1.646 0 1.042-.708 1.709-.688.645-1.834.645-1.124 0-1.833-.645-.687-.667-.687-1.709m12.672 4.375.145 1.959q1.813-2.271 4.855-2.271 2.687 0 4 1.583c1.313 1.583 1.319 2.632 1.333 4.73v10.916h-4.5v-10.813q0-1.437-.625-2.083-.625-.645-2.083-.646-1.917 0-2.855 1.625v11.917h-4.52v-16.917zm25.89 0 .146 1.959q1.812-2.271 4.854-2.271 2.688 0 4 1.583c1.312 1.583 1.32 2.632 1.333 4.73v10.916h-4.5v-10.813q0-1.437-.625-2.083-.624-.645-2.083-.646-1.917 0-2.854 1.625v11.917h-4.52v-16.917zm21.547 17.23q-3.73 0-6.062-2.271-2.334-2.292-2.334-6.084v-.437q0-2.564.98-4.563 1-1.999 2.791-3.083 1.812-1.104 4.125-1.104 3.459 0 5.458 2.187 2 2.188 2 6.209v1.854h-10.77q.207 1.645 1.312 2.646t2.792 1q2.604 0 4.083-1.896l2.208 2.5q-1 1.437-2.75 2.25-1.728.79-3.833.791zm-.52-13.876q-1.335 0-2.188.917-.834.895-1.063 2.583h6.292v-.354q-.042-1.5-.833-2.312-.77-.834-2.209-.834zm16.463 1.709 2.854-5.063h4.833l-4.812 8.292 5 8.625h-4.834l-3.02-5.313-3 5.313h-4.855l5.021-8.625-4.812-8.292h4.854zm15.26-9.209v4.146h2.896v3.313h-2.896v8.437q0 .938.354 1.354.355.396 1.375.396.75 0 1.334-.104v3.417a9.1 9.1 0 0 1-2.73.416q-4.749 0-4.854-4.791v-9.125h-2.458v-3.313h2.458v-4.146zm28.594 12.771q0 3.895-1.77 6.25-1.772 2.355-4.793 2.354-2.562 0-4.145-1.791v7.979h-4.521v-23.417h4.187l.167 1.667q1.645-1.98 4.27-1.98 3.126 0 4.855 2.313 1.75 2.313 1.75 6.375zm-4.52-.333q0-2.355-.834-3.625-.833-1.292-2.438-1.292-2.125 0-2.916 1.625v6.917q.832 1.667 2.958 1.667 3.23 0 3.23-5.292m17.119 8.625q-.312-.605-.458-1.52-1.646 1.832-4.271 1.832-2.48 0-4.125-1.437-1.625-1.437-1.625-3.625 0-2.688 1.979-4.125 2-1.438 5.77-1.458h2.084v-.959q0-1.186-.604-1.875-.604-.708-1.896-.708-1.146 0-1.792.542-.645.54-.645 1.5h-4.521q0-1.459.896-2.709.916-1.25 2.562-1.958 1.666-.73 3.73-.73 3.124 0 4.958 1.584 1.833 1.563 1.833 4.417v7.312q.021 2.417.687 3.646v.27h-4.562zm-3.75-3.146q1 0 1.833-.437.855-.459 1.271-1.209v-2.896h-1.687q-3.396 0-3.605 2.334l-.02.27q0 .855.583 1.396.604.542 1.625.542m10.448-5.437q0-3.897 1.854-6.271 1.854-2.376 4.98-2.375 2.79 0 4.332 1.916l.188-1.604h4.104v16.354q0 2.229-1.02 3.855-1 1.645-2.834 2.5-1.833.875-4.27.875a9.3 9.3 0 0 1-3.647-.75q-1.75-.75-2.666-1.917l2-2.75q1.688 1.896 4.104 1.896 1.791 0 2.791-.959 1-.958 1-2.729v-.916q-1.562 1.77-4.104 1.77-3.04 0-4.937-2.375-1.875-2.395-1.875-6.333zm4.52.333q0 2.293.917 3.604.917 1.292 2.521 1.292 2.063 0 2.958-1.542v-7.104q-.895-1.542-2.916-1.542-1.626 0-2.563 1.334-.916 1.312-.916 3.958zm22.183 8.562q-3.729 0-6.063-2.27-2.333-2.292-2.333-6.084v-.437q0-2.564.98-4.563.999-1.999 2.79-3.083 1.814-1.104 4.126-1.104 3.458 0 5.458 2.187 2 2.188 2 6.209v1.854h-10.77q.207 1.645 1.312 2.646t2.792 1q2.604 0 4.083-1.896l2.208 2.5q-1 1.437-2.75 2.25-1.729.79-3.833.791m-.52-13.875q-1.335 0-2.188.917-.834.895-1.063 2.583h6.292v-.354q-.042-1.5-.834-2.312-.77-.834-2.208-.834zm19.192 8.896q0-.833-.834-1.312-.812-.48-2.625-.854-6.02-1.272-6.02-5.125 0-2.25 1.854-3.75 1.875-1.521 4.896-1.521 3.208 0 5.125 1.52 1.937 1.521 1.937 3.938h-4.5q0-.959-.625-1.583-.626-.645-1.958-.646-1.146 0-1.771.52a1.6 1.6 0 0 0-.625 1.313q0 .75.708 1.209.709.458 2.396.791 1.688.333 2.854.75 3.585 1.313 3.584 4.563 0 2.312-2 3.75-1.98 1.416-5.125 1.416-2.125 0-3.771-.75-1.646-.77-2.584-2.083-.937-1.333-.937-2.854h4.292q.062 1.207.875 1.854.832.625 2.229.625 1.291 0 1.958-.48.667-.499.667-1.29zm7.536 2.438q0-1.063.709-1.73.729-.687 1.833-.687c1.104 0 1.347.23 1.833.688q.73.666.73 1.729 0 1.062-.73 1.729-.708.666-1.833.667-1.104 0-1.833-.667-.71-.666-.709-1.73z"/><path fill="#fff" d="M645.753 244.502h125.508v226.45H645.753z"/><path fill="#b7b7b7" d="M658.808 399.603h42.3v38.55h-42.3z"/><path fill="#4285f4" d="M708.349 399.603h47.214v9.303H708.35z"/><path fill="#b7b7b7" d="M708.349 414.23h35.032v9.304H708.35z"/><path fill="#4285f4" d="M658.808 281.812h42.3v38.55h-42.3z"/><path fill="#b7b7b7" d="M708.349 281.812h47.214v9.303H708.35zm0 14.628h35.032v9.303H708.35zm-49.541 44.267h42.3v38.551h-42.3z"/><path fill="#4285f4" d="M708.349 340.707h47.214v9.304H708.35z"/><path fill="#b7b7b7" d="M708.349 355.335h35.032v9.303H708.35z"/><path d="M638.027 201.186H811.61v327.572H638.027z"/><path fill="#efefef" d="M648.674 245.776H768.56v22.46H648.674z"/><path fill="#d9d9d9" d="M654.823 250.456h15.444v13.128h-15.444z"/><path fill="#fff" d="M81.66 240.863h125.508v226.45H81.66z"/><path fill="#b7b7b7" d="M94.715 395.963h42.301v38.55H94.715z"/><path fill="#4285f4" d="M144.256 395.963h47.214v9.304h-47.214z"/><path fill="#b7b7b7" d="M144.256 410.59h35.033v9.304h-35.033z"/><path fill="#4285f4" d="M94.715 278.172h42.301v38.55H94.715z"/><path fill="#b7b7b7" d="M144.256 278.172h47.214v9.304h-47.214zm0 14.628h35.033v9.303h-35.033zm-49.541 44.268h42.301v38.55H94.715z"/><path fill="#4285f4" d="M144.256 337.068h47.214v9.303h-47.214z"/><path fill="#b7b7b7" d="M144.256 351.695h35.033V361h-35.033z"/><path d="M73.934 197.546h173.583V525.12H73.934z"/><path fill="#b7b7b7" fill-rule="nonzero" d="M212.05 451.393H78.94V234.957h133.11zm-76.913 21.977c0-5.95 4.764-10.778 10.641-10.778 5.88 0 10.642 4.828 10.642 10.778 0 5.948-4.762 10.784-10.642 10.784-5.877-.008-10.641-4.836-10.641-10.784m85.845 9.782H221V223.715h-.004c-.028-5.922-4.818-10.715-10.732-10.715-.042 0-.077.004-.115.004V213H80.726c-5.906.004-10.692 4.797-10.724 10.715H70V483.15h.016c-.004.113-.016.223-.016.34 0 5.804 4.863 10.51 10.863 10.51.088 0 .175-.012.263-.014V494h129.285c5.837 0 10.587-4.704 10.587-10.51.002-.115-.012-.227-.016-.338m556.068-26.759H643.94V239.957h133.11zm-76.913 21.977c0-5.95 4.764-10.778 10.641-10.778 5.88 0 10.642 4.828 10.642 10.778 0 5.948-4.762 10.784-10.642 10.784-5.877-.008-10.641-4.836-10.641-10.784m85.845 9.782H786V228.715h-.004c-.028-5.922-4.818-10.715-10.732-10.715-.042 0-.077.004-.115.004V218H645.726c-5.906.004-10.692 4.797-10.724 10.715H635V488.15h.016c-.004.113-.016.223-.016.34 0 5.804 4.863 10.51 10.863 10.51.088 0 .175-.012.263-.014V499h129.285c5.837 0 10.587-4.704 10.587-10.51.002-.115-.012-.227-.016-.338"/><path fill="#efefef" d="M84.581 242.136h119.887v22.46H84.581z"/><path fill="#d9d9d9" d="M90.73 246.817h15.444v13.127H90.73z"/><path fill="#ea9999" fill-opacity=".561" d="M116.296 305.685c0-10.6 8.587-19.194 19.18-19.194 5.087 0 9.966 2.022 13.563 5.622a19.2 19.2 0 0 1 5.618 13.572c0 10.6-8.587 19.194-19.18 19.194s-19.181-8.594-19.181-19.194"/><path fill="#e06666" fill-opacity=".523" d="M122.592 305.69c0-7.123 5.769-12.898 12.885-12.898a12.88 12.88 0 0 1 9.112 3.778 12.9 12.9 0 0 1 3.774 9.12c0 7.124-5.77 12.899-12.886 12.899s-12.885-5.775-12.885-12.899"/><path d="M120.18 301.068h44.753v32.58H120.18z"/><path fill="#ea4335" d="M205.586 289.256h168.797v-8.493l16.987 16.987-16.987 16.987v-8.494H205.586z"/><path d="M703.524 296.552c71.297 0 106.945-11.223 142.594-22.446s71.296-22.446 142.593-22.446"/><path stroke="#4285f4" stroke-dasharray="12 9" stroke-linejoin="round" stroke-width="3" d="M703.524 296.552c71.297 0 106.945-11.223 142.593-22.446 17.825-5.612 35.649-11.223 57.929-15.432 11.14-2.104 23.394-3.858 37.32-5.085a482 482 0 0 1 22.21-1.425l1.139-.045"/><path fill="#4285f4" stroke="#4285f4" stroke-width="3" d="m964.842 258.725 18.022-6.953-18.276-6.258z"/><path d="M756.265 346.002c72.84 0 109.26-8.787 145.68-17.575s72.84-17.575 145.68-17.575"/><path stroke="#4285f4" stroke-dasharray="12 9" stroke-linejoin="round" stroke-width="3" d="M756.265 346.002c72.84 0 109.26-8.787 145.68-17.575 18.21-4.393 36.42-8.787 59.182-12.082 11.381-1.648 23.9-3.021 38.127-3.982a641 641 0 0 1 22.691-1.116l1.682-.05"/><path fill="#4285f4" stroke="#4285f4" stroke-width="3" d="m1023.722 317.803 18.055-6.867-18.245-6.345z"/><path d="M754.58 403.642c87.328 0 130.993-2.845 174.657-5.69s87.328-5.69 174.656-5.69"/><path stroke="#4285f4" stroke-dasharray="12 9" stroke-linejoin="round" stroke-width="3" d="M754.58 403.642c87.328 0 130.993-2.845 174.657-5.69 21.832-1.423 43.664-2.845 70.954-3.912 13.645-.534 28.654-.978 45.71-1.29a2845 2845 0 0 1 27.205-.36l6.787-.052"/><path fill="#4285f4" stroke="#4285f4" stroke-width="3" d="m1079.914 398.945 18.131-6.665-18.173-6.549z"/></g></g></svg>