<svg xmlns="http://www.w3.org/2000/svg" xmlns:xlink="http://www.w3.org/1999/xlink" width="962" height="229"><defs><path id="a" d="M55.17 103.281q4.725 0 9.013-2.187a25.2 25.2 0 0 0 7.525-5.863q3.237-3.675 5.075-8.575 1.837-4.9 1.837-10.325 0-7.7-4.55-12.25t-11.9-4.55q-4.725 0-8.925 2.1t-7.35 5.775-4.987 8.663c-1.837 4.988-1.838 6.854-1.838 10.587q0 7.7 4.375 12.163 4.375 4.462 11.725 4.462m10.85 15.4q-5.6 5.425-12.337 8.75c-6.737 3.325-9.363 3.325-14.613 3.325q-7 0-13.125-2.625c-6.125-2.625-7.642-4.287-10.675-7.612q-4.55-4.988-7.175-12.163C5.47 101.181 5.47 98.09 5.47 91.906q0-12.775 4.113-23.712 4.111-10.938 11.112-18.988 7-8.05 16.275-12.686 9.275-4.638 19.425-4.638 10.675 0 17.5 4.2t11.2 10.85l3.5-12.95h33.25L88.07 160.156H54.82zm78.175 12.075q-12.95 0-20.212-7.612-7.263-7.613-7.263-20.738 0-3.851.7-8.137a90 90 0 0 1 1.925-8.838l13.825-51.45h33.25l-13.3 49.525a41 41 0 0 0-.875 4.025q-.35 2.1-.35 3.675 0 4.725 2.713 7.35t7.962 2.625q7 0 11.2-4.462 4.2-4.463 6.3-12.688l13.475-50.05h33.25l-25.2 94.675h-33.25l2.8-10.85q-4.9 5.075-11.725 9.013c-6.825 3.938-9.625 3.937-15.225 3.937m94.975-96.775h33.25l-25.375 94.675h-33.25zm8.4-33.075h34.65l-6.65 24.5h-34.65zm65.05 130.025q-9.625 0-17.762-2.887t-14-8.225c-5.862-5.337-6.971-7.905-9.188-13.038s-3.325-10.908-3.325-17.325q0-11.9 4.463-22.4t12.162-18.287q7.7-7.788 18.025-12.25 10.325-4.463 22.225-4.463 8.225 0 14.875 2.013t11.638 5.512 8.4 8.225c3.412 4.725 4.054 6.533 5.337 10.15l-26.075 13.475q-2.45-5.6-6.125-8.75c-3.675-3.15-5.833-3.15-10.15-3.15q-4.725 0-8.837 2.363-4.113 2.363-7.263 6.3-3.15 3.938-4.9 9.012a32 32 0 0 0-1.75 10.5q0 7.35 4.2 11.55t10.325 4.2q5.25 0 9.363-2.187 4.111-2.188 8.487-6.563l20.3 17.675q-7.175 8.4-16.712 13.475-9.538 5.075-23.713 5.075M386.595.906h33.25l-16.8 62.475 31.675-29.4h40.075l-43.575 38.85 18.55 55.825h-35.525l-10.15-33.6-12.425 11.025-6.125 22.575h-33.25zm99.525 0h33.25l-34.3 127.75h-33.25zm37.75 33.075h33.25l-25.375 94.675h-33.25zm8.4-33.075h34.65l-6.65 24.5h-34.65zm37.575 33.075h33.25l-2.975 10.85q4.9-5.075 11.813-9.012 6.912-3.938 15.312-3.938 12.949 0 20.213 7.613 7.262 7.612 7.262 20.737 0 3.85-.787 8.138a112 112 0 0 1-2.013 8.837l-13.65 51.45h-33.25l13.3-49.525a29 29 0 0 0 .788-4.025q.262-2.1.262-3.675 0-4.725-2.712-7.35t-7.788-2.625q-7 0-11.2 4.463-4.2 4.462-6.475 12.687l-13.475 50.05h-33.25zM683.02.906h33.25l-16.8 62.475 31.675-29.4h40.075l-43.575 38.85 18.55 55.825H710.67l-10.15-33.6-12.425 11.025-6.125 22.575h-33.25z"/></defs><g fill="none"><g fill="#000" transform="translate(190 68)"><use xlink:href="#a"/><use xlink:href="#a"/></g><path fill="#76ffd9" d="M114.503 167.281 67.81 213.693c-12.874 12.796-33.818 12.796-46.693 0l-7.781-7.735c-12.872-12.796-12.872-33.617 0-46.412l46.693-46.412c12.874-12.796 33.82-12.796 46.693 0l7.783 7.735c6.236 6.198 9.67 14.439 9.67 23.205-.001 8.767-3.435 17.01-9.672 23.207m-85.602 7.734c-4.291 4.267-4.291 11.206 0 15.472l7.78 7.735c4.292 4.265 11.274 4.265 15.566 0L98.94 151.81c2.079-2.067 3.222-4.814 3.222-7.736s-1.143-5.669-3.222-7.734l-7.783-7.737c-4.29-4.265-11.272-4.265-15.565 0z"/><path fill="#5de0bf" d="M77.093 204.412c-6.238 6.198-14.529 9.611-23.347 9.611-8.82 0-17.111-3.413-23.348-9.613l-7.78-7.734c-6.237-6.198-9.67-14.439-9.67-23.205 0-8.223 3.022-15.985 8.544-22.032l-8.14 8.091c-6.235 6.198-9.67 14.44-9.67 23.207 0 8.766 3.433 17.007 9.67 23.205l7.782 7.734c6.236 6.2 14.527 9.613 23.346 9.613 8.818 0 17.11-3.413 23.347-9.611z"/><path fill="#48587c" d="m214.504 67.88-46.693 46.414c-6.236 6.199-14.527 9.612-23.347 9.612-8.819 0-17.11-3.413-23.346-9.613l-7.783-7.734c-6.236-6.2-9.67-14.44-9.67-23.205 0-8.767 3.436-17.01 9.67-23.207l46.694-46.413C172.9.94 193.849.94 206.722 13.734l7.782 7.736c12.874 12.794 12.874 33.615 0 46.41M128.9 75.617a10.84 10.84 0 0 0-3.224 7.738c0 2.92 1.146 5.667 3.224 7.733l7.783 7.736a10.97 10.97 0 0 0 7.782 3.205c2.94 0 5.704-1.138 7.783-3.205l46.691-46.412c4.292-4.265 4.292-11.204 0-15.471l-7.78-7.734c-4.292-4.267-11.274-4.267-15.565-.002L128.9 75.616z"/><path fill="#76ffd9" d="m214.504 67.88-46.693 46.414c-6.236 6.199-14.527 9.612-23.347 9.612-8.819 0-17.11-3.413-23.346-9.613l-7.783-7.734c-6.236-6.2-9.67-14.44-9.67-23.205 0-8.767 3.436-17.01 9.67-23.207l46.694-46.413C172.9.94 193.849.94 206.722 13.734l7.782 7.736c12.874 12.794 12.874 33.615 0 46.41M128.9 75.617a10.84 10.84 0 0 0-3.224 7.738c0 2.92 1.146 5.667 3.224 7.733l7.783 7.736a10.97 10.97 0 0 0 7.782 3.205c2.94 0 5.704-1.138 7.783-3.205l46.691-46.412c4.292-4.265 4.292-11.204 0-15.471l-7.78-7.734c-4.292-4.267-11.274-4.267-15.565-.002L128.9 75.616z"/><path fill="#5de0bf" d="M177.11 104.955c-6.224 6.213-14.508 9.641-23.326 9.659-8.82.017-17.118-3.38-23.367-9.568l-7.796-7.719c-6.249-6.186-9.699-14.42-9.716-23.186-.017-8.223 2.992-15.992 8.5-22.048l-8.123 8.106c-6.225 6.21-9.643 14.46-9.626 23.226s3.467 17 9.718 23.186l7.794 7.72c6.249 6.188 14.547 9.583 23.367 9.566 8.818-.017 17.102-3.446 23.328-9.656z"/><path fill="#5de0bf" d="m155.36 86.446-68.872 68.458c-4.298 4.272-11.265 4.272-15.563 0a10.893 10.893 0 0 1 0-15.471l68.87-68.457c4.299-4.272 11.266-4.272 15.564 0a10.89 10.89 0 0 1 0 15.47z"/><path fill="#76ffd9" d="M155.36 70.976c-4.299-4.272-11.266-4.272-15.564 0L125.303 85.53c4.297-4.273 11.267-4.273 15.563 0 3.952 3.926 4.26 10.092.948 14.381l13.545-13.465a10.89 10.89 0 0 0 0-15.47z"/><path fill="#5de0bf" d="M85.58 140.505a10.893 10.893 0 0 1 0-15.471l-14.655 14.4a10.89 10.89 0 0 0 0 15.47c4.298 4.272 11.265 4.272 15.563 0l13.48-13.398c-4.311 3.228-10.46 2.902-14.388-1.001"/><path fill="#434c54" d="m216.958 19-7.783-7.735C202.294 4.423 193.13.656 183.376.656c-9.755 0-18.92 3.767-25.801 10.61l-46.692 46.411c-6.899 6.858-10.699 15.975-10.699 25.675a35.9 35.9 0 0 0 4.553 17.562l-3.689 3.668c-5.344-2.95-11.383-4.527-17.673-4.527-9.756 0-18.918 3.767-25.8 10.61l-46.693 46.411C3.993 163.924.2 173.042.2 182.753c0 9.708 3.793 18.827 10.682 25.674l7.781 7.734c6.884 6.842 16.046 10.61 25.801 10.61s18.918-3.768 25.8-10.61l46.693-46.412c6.9-6.856 10.697-15.975 10.697-25.675 0-7.019-2-13.727-5.717-19.498l2.905-2.888c5.807 3.703 12.558 5.699 19.622 5.699 9.745 0 18.908-3.773 25.8-10.625l46.694-46.412c6.889-6.846 10.682-15.964 10.682-25.675s-3.793-18.829-10.682-25.674zm-59.144 49.507a14.43 14.43 0 0 0-10.236-4.217c-.874 0-1.733.08-2.576.231l33.045-32.848a7.5 7.5 0 0 1 5.327-2.186 7.5 7.5 0 0 1 5.33 2.188l7.78 7.734a7.37 7.37 0 0 1 2.192 5.266 7.38 7.38 0 0 1-2.19 5.268L159.88 86.328a14.3 14.3 0 0 0 2.183-7.616 14.3 14.3 0 0 0-4.25-10.205zm-15.565 4.938a7.5 7.5 0 0 1 5.328-2.193 7.5 7.5 0 0 1 5.328 2.193 7.38 7.38 0 0 1 2.197 5.267c0 1.988-.78 3.857-2.197 5.266l-68.87 68.457a7.5 7.5 0 0 1-5.33 2.191 7.5 7.5 0 0 1-5.327-2.191 7.38 7.38 0 0 1-2.197-5.267c0-1.988.781-3.859 2.197-5.266zm-73.78 83.928a14.43 14.43 0 0 0 10.236 4.217c2.74 0 5.362-.757 7.632-2.162l-36.544 36.325a7.5 7.5 0 0 1-5.329 2.186 7.5 7.5 0 0 1-5.327-2.186l-7.782-7.734a7.38 7.38 0 0 1-2.192-5.268c0-1.99.78-3.861 2.192-5.267l33.099-32.9a14.5 14.5 0 0 0-.234 2.584c0 3.858 1.508 7.48 4.25 10.205zm52.224-13.299c0 7.833-3.07 15.197-8.643 20.738l-46.694 46.412c-5.57 5.536-12.988 8.584-20.892 8.584-7.902 0-15.322-3.048-20.892-8.584l-7.782-7.735c-5.564-5.53-8.628-12.895-8.628-20.736 0-7.844 3.064-15.208 8.628-20.738L62.483 115.6c5.57-5.535 12.99-8.584 20.892-8.584 4.387 0 8.62.947 12.474 2.733l-12.257 12.183c-.073-.002-.144-.009-.217-.009a14.43 14.43 0 0 0-10.236 4.212l-46.693 46.412A14.3 14.3 0 0 0 22.2 182.75c0 3.859 1.506 7.484 4.245 10.205l7.782 7.735a14.42 14.42 0 0 0 10.236 4.212c3.87 0 7.505-1.496 10.236-4.212l46.692-46.412a14.3 14.3 0 0 0 4.251-10.205c0-1.016-.11-2.014-.317-2.988l11.542-11.471a29 29 0 0 1 3.825 14.46zm91.356-78.661-46.692 46.412c-5.58 5.546-13 8.6-20.893 8.6-5.18 0-10.155-1.317-14.54-3.788l11.519-11.45c.982.21 1.993.322 3.022.322 3.865 0 7.5-1.498 10.236-4.217l46.694-46.412a14.3 14.3 0 0 0 4.244-10.205c0-3.859-1.508-7.482-4.246-10.205l-7.78-7.733a14.43 14.43 0 0 0-10.239-4.212 14.43 14.43 0 0 0-10.236 4.21l-46.691 46.412a14.3 14.3 0 0 0-4.252 10.205c0 .067.007.133.01.201l-12.288 12.213a29 29 0 0 1-2.77-12.414c0-7.831 3.07-15.197 8.644-20.738l46.693-46.412c5.568-5.535 12.988-8.584 20.892-8.584 7.902 0 15.322 3.049 20.892 8.584l7.783 7.736c5.563 5.53 8.627 12.894 8.627 20.737s-3.064 15.206-8.629 20.738"/><path fill="#434c54" d="M225 40h247v7H225zm-8.618 20.958h143v7h-143zm-19 21h117v7h-117z"/></g></svg>